<?xml version="1.0" encoding="UTF-8" standalone="no"?>
<svg width="451.908mm" height="224.367mm"
 viewBox="0 0 1281 636"
 xmlns="http://www.w3.org/2000/svg" xmlns:xlink="http://www.w3.org/1999/xlink"  version="1.2" baseProfile="tiny">
<title>Qt SVG Document</title>
<desc>MATLAB, The MathWorks, Inc. Version 25.2.0.3042426 R2025b Update 1</desc>
<defs>
</defs>
<g fill="none" stroke="black" stroke-width="1" fill-rule="evenodd" stroke-linecap="square" stroke-linejoin="bevel" >

<g fill="#ffffff" fill-opacity="1" stroke="none" transform="matrix(0.514916,0,0,0.504382,-126.199,-50.9558)"
font-family=".AppleSystemUIFont" font-size="13" font-weight="400" font-style="normal" 
>
<path vector-effect="none" fill-rule="evenodd" d="M244,101 L2731,101 L2731,1362 L244,1362 L244,101"/>
</g>

<g fill="#ffffff" fill-opacity="1" stroke="none" transform="matrix(5.14916e-05,0,0,5.04382e-05,-126.199,-50.9558)"
font-family=".AppleSystemUIFont" font-size="13" font-weight="400" font-style="normal" 
>
<path vector-effect="none" fill-rule="evenodd" d="M3.91e+06,1.04e+06 L3.91e+06,1.231e+07 L2.723e+07,1.231e+07 L2.723e+07,1.04e+06 L3.91e+06,1.04e+06"/>
</g>

<g fill="#212121" fill-opacity="0.14902" stroke="#212121" stroke-opacity="0.14902" stroke-width="1" stroke-linecap="butt" stroke-linejoin="round" transform="matrix(0.514916,0,0,0.504382,-126.199,-50.9558)"
font-family=".AppleSystemUIFont" font-size="13" font-weight="400" font-style="normal" 
>
<polyline fill="none" vector-effect="none" points="391,104 391,1231 " />
<polyline fill="none" vector-effect="none" points="693.857,104 693.857,1231 " />
<polyline fill="none" vector-effect="none" points="996.714,104 996.714,1231 " />
<polyline fill="none" vector-effect="none" points="1299.57,104 1299.57,1231 " />
<polyline fill="none" vector-effect="none" points="1602.43,104 1602.43,1231 " />
<polyline fill="none" vector-effect="none" points="1905.29,104 1905.29,1231 " />
<polyline fill="none" vector-effect="none" points="2208.14,104 2208.14,1231 " />
<polyline fill="none" vector-effect="none" points="2511,104 2511,1231 " />
<polyline fill="none" vector-effect="none" points="391,1231 2723,1231 " />
<polyline fill="none" vector-effect="none" points="391,1123.67 2723,1123.67 " />
<polyline fill="none" vector-effect="none" points="391,1016.33 2723,1016.33 " />
<polyline fill="none" vector-effect="none" points="391,909 2723,909 " />
<polyline fill="none" vector-effect="none" points="391,801.667 2723,801.667 " />
<polyline fill="none" vector-effect="none" points="391,694.333 2723,694.333 " />
<polyline fill="none" vector-effect="none" points="391,587 2723,587 " />
<polyline fill="none" vector-effect="none" points="391,479.667 2723,479.667 " />
<polyline fill="none" vector-effect="none" points="391,372.333 2723,372.333 " />
<polyline fill="none" vector-effect="none" points="391,265 2723,265 " />
<polyline fill="none" vector-effect="none" points="391,157.667 2723,157.667 " />
</g>

<g fill="#212121" fill-opacity="1" stroke="#212121" stroke-opacity="1" stroke-width="1" stroke-linecap="square" stroke-linejoin="bevel" transform="matrix(0.514916,0,0,0.504382,601.378,628.447)"
font-family="Helvetica" font-size="55" font-weight="400" font-style="normal" 
>
<text fill="#212121" fill-opacity="1" stroke="none" xml:space="preserve" x="0" y="0.34375" font-family="Helvetica" font-size="55" font-weight="400" font-style="normal" 
 >Time (days)</text>
</g>

<g fill="#212121" fill-opacity="1" stroke="#212121" stroke-opacity="1" stroke-width="1" stroke-linecap="square" stroke-linejoin="round" transform="matrix(0.514916,0,0,0.504382,-126.199,-50.9558)"
font-family="Helvetica" font-size="55" font-weight="400" font-style="normal" 
>
<polyline fill="none" vector-effect="none" points="391,1231 2723,1231 " />
<polyline fill="none" vector-effect="none" points="391,1231 391,1207.68 " />
<polyline fill="none" vector-effect="none" points="693.857,1231 693.857,1207.68 " />
<polyline fill="none" vector-effect="none" points="996.714,1231 996.714,1207.68 " />
<polyline fill="none" vector-effect="none" points="1299.57,1231 1299.57,1207.68 " />
<polyline fill="none" vector-effect="none" points="1602.43,1231 1602.43,1207.68 " />
<polyline fill="none" vector-effect="none" points="1905.29,1231 1905.29,1207.68 " />
<polyline fill="none" vector-effect="none" points="2208.14,1231 2208.14,1207.68 " />
<polyline fill="none" vector-effect="none" points="2511,1231 2511,1207.68 " />
</g>

<g fill="#212121" fill-opacity="1" stroke="#212121" stroke-opacity="1" stroke-width="1" stroke-linecap="square" stroke-linejoin="bevel" transform="matrix(0.514916,0,0,0.504382,67.9242,596.671)"
font-family="Helvetica" font-size="50" font-weight="400" font-style="normal" 
>
<text fill="#212121" fill-opacity="1" stroke="none" xml:space="preserve" x="0" y="-0.5" font-family="Helvetica" font-size="50" font-weight="400" font-style="normal" 
 >0</text>
</g>

<g fill="#212121" fill-opacity="1" stroke="#212121" stroke-opacity="1" stroke-width="1" stroke-linecap="square" stroke-linejoin="bevel" transform="matrix(0.514916,0,0,0.504382,223.87,596.671)"
font-family="Helvetica" font-size="50" font-weight="400" font-style="normal" 
>
<text fill="#212121" fill-opacity="1" stroke="none" xml:space="preserve" x="0" y="-0.5" font-family="Helvetica" font-size="50" font-weight="400" font-style="normal" 
 >1</text>
</g>

<g fill="#212121" fill-opacity="1" stroke="#212121" stroke-opacity="1" stroke-width="1" stroke-linecap="square" stroke-linejoin="bevel" transform="matrix(0.514916,0,0,0.504382,379.816,596.671)"
font-family="Helvetica" font-size="50" font-weight="400" font-style="normal" 
>
<text fill="#212121" fill-opacity="1" stroke="none" xml:space="preserve" x="0" y="-0.5" font-family="Helvetica" font-size="50" font-weight="400" font-style="normal" 
 >2</text>
</g>

<g fill="#212121" fill-opacity="1" stroke="#212121" stroke-opacity="1" stroke-width="1" stroke-linecap="square" stroke-linejoin="bevel" transform="matrix(0.514916,0,0,0.504382,535.763,596.671)"
font-family="Helvetica" font-size="50" font-weight="400" font-style="normal" 
>
<text fill="#212121" fill-opacity="1" stroke="none" xml:space="preserve" x="0" y="-0.5" font-family="Helvetica" font-size="50" font-weight="400" font-style="normal" 
 >3</text>
</g>

<g fill="#212121" fill-opacity="1" stroke="#212121" stroke-opacity="1" stroke-width="1" stroke-linecap="square" stroke-linejoin="bevel" transform="matrix(0.514916,0,0,0.504382,691.709,596.671)"
font-family="Helvetica" font-size="50" font-weight="400" font-style="normal" 
>
<text fill="#212121" fill-opacity="1" stroke="none" xml:space="preserve" x="0" y="-0.5" font-family="Helvetica" font-size="50" font-weight="400" font-style="normal" 
 >4</text>
</g>

<g fill="#212121" fill-opacity="1" stroke="#212121" stroke-opacity="1" stroke-width="1" stroke-linecap="square" stroke-linejoin="bevel" transform="matrix(0.514916,0,0,0.504382,847.655,596.671)"
font-family="Helvetica" font-size="50" font-weight="400" font-style="normal" 
>
<text fill="#212121" fill-opacity="1" stroke="none" xml:space="preserve" x="0" y="-0.5" font-family="Helvetica" font-size="50" font-weight="400" font-style="normal" 
 >5</text>
</g>

<g fill="#212121" fill-opacity="1" stroke="#212121" stroke-opacity="1" stroke-width="1" stroke-linecap="square" stroke-linejoin="bevel" transform="matrix(0.514916,0,0,0.504382,1003.6,596.671)"
font-family="Helvetica" font-size="50" font-weight="400" font-style="normal" 
>
<text fill="#212121" fill-opacity="1" stroke="none" xml:space="preserve" x="0" y="-0.5" font-family="Helvetica" font-size="50" font-weight="400" font-style="normal" 
 >6</text>
</g>

<g fill="#212121" fill-opacity="1" stroke="#212121" stroke-opacity="1" stroke-width="1" stroke-linecap="square" stroke-linejoin="bevel" transform="matrix(0.514916,0,0,0.504382,1159.55,596.671)"
font-family="Helvetica" font-size="50" font-weight="400" font-style="normal" 
>
<text fill="#212121" fill-opacity="1" stroke="none" xml:space="preserve" x="0" y="-0.5" font-family="Helvetica" font-size="50" font-weight="400" font-style="normal" 
 >7</text>
</g>

<g fill="#212121" fill-opacity="1" stroke="#212121" stroke-opacity="1" stroke-width="1" stroke-linecap="square" stroke-linejoin="bevel" transform="matrix(0,-0.504382,0.514916,0,22.0967,403.745)"
font-family="Helvetica" font-size="55" font-weight="400" font-style="normal" 
>
<text fill="#212121" fill-opacity="1" stroke="none" xml:space="preserve" x="0" y="0.34375" font-family="Helvetica" font-size="55" font-weight="400" font-style="normal" 
 >Survival Probability</text>
</g>

<g fill="#212121" fill-opacity="1" stroke="#212121" stroke-opacity="1" stroke-width="1" stroke-linecap="square" stroke-linejoin="round" transform="matrix(0.514916,0,0,0.504382,-126.199,-50.9558)"
font-family="Helvetica" font-size="55" font-weight="400" font-style="normal" 
>
<polyline fill="none" vector-effect="none" points="391,1231 391,104 " />
<polyline fill="none" vector-effect="none" points="391,1231 414.32,1231 " />
<polyline fill="none" vector-effect="none" points="391,1123.67 414.32,1123.67 " />
<polyline fill="none" vector-effect="none" points="391,1016.33 414.32,1016.33 " />
<polyline fill="none" vector-effect="none" points="391,909 414.32,909 " />
<polyline fill="none" vector-effect="none" points="391,801.667 414.32,801.667 " />
<polyline fill="none" vector-effect="none" points="391,694.333 414.32,694.333 " />
<polyline fill="none" vector-effect="none" points="391,587 414.32,587 " />
<polyline fill="none" vector-effect="none" points="391,479.667 414.32,479.667 " />
<polyline fill="none" vector-effect="none" points="391,372.333 414.32,372.333 " />
<polyline fill="none" vector-effect="none" points="391,265 414.32,265 " />
<polyline fill="none" vector-effect="none" points="391,157.667 414.32,157.667 " />
</g>

<g fill="#212121" fill-opacity="1" stroke="#212121" stroke-opacity="1" stroke-width="1" stroke-linecap="square" stroke-linejoin="bevel" transform="matrix(0.514916,0,0,0.504382,53.5066,577)"
font-family="Helvetica" font-size="50" font-weight="400" font-style="normal" 
>
<text fill="#212121" fill-opacity="1" stroke="none" xml:space="preserve" x="0" y="-0.5" font-family="Helvetica" font-size="50" font-weight="400" font-style="normal" 
 >0</text>
</g>

<g fill="#212121" fill-opacity="1" stroke="#212121" stroke-opacity="1" stroke-width="1" stroke-linecap="square" stroke-linejoin="bevel" transform="matrix(0.514916,0,0,0.504382,32.395,522.863)"
font-family="Helvetica" font-size="50" font-weight="400" font-style="normal" 
>
<text fill="#212121" fill-opacity="1" stroke="none" xml:space="preserve" x="0" y="-0.5" font-family="Helvetica" font-size="50" font-weight="400" font-style="normal" 
 >0.1</text>
</g>

<g fill="#212121" fill-opacity="1" stroke="#212121" stroke-opacity="1" stroke-width="1" stroke-linecap="square" stroke-linejoin="bevel" transform="matrix(0.514916,0,0,0.504382,32.395,468.726)"
font-family="Helvetica" font-size="50" font-weight="400" font-style="normal" 
>
<text fill="#212121" fill-opacity="1" stroke="none" xml:space="preserve" x="0" y="-0.5" font-family="Helvetica" font-size="50" font-weight="400" font-style="normal" 
 >0.2</text>
</g>

<g fill="#212121" fill-opacity="1" stroke="#212121" stroke-opacity="1" stroke-width="1" stroke-linecap="square" stroke-linejoin="bevel" transform="matrix(0.514916,0,0,0.504382,32.395,414.589)"
font-family="Helvetica" font-size="50" font-weight="400" font-style="normal" 
>
<text fill="#212121" fill-opacity="1" stroke="none" xml:space="preserve" x="0" y="-0.5" font-family="Helvetica" font-size="50" font-weight="400" font-style="normal" 
 >0.3</text>
</g>

<g fill="#212121" fill-opacity="1" stroke="#212121" stroke-opacity="1" stroke-width="1" stroke-linecap="square" stroke-linejoin="bevel" transform="matrix(0.514916,0,0,0.504382,32.395,360.452)"
font-family="Helvetica" font-size="50" font-weight="400" font-style="normal" 
>
<text fill="#212121" fill-opacity="1" stroke="none" xml:space="preserve" x="0" y="-0.5" font-family="Helvetica" font-size="50" font-weight="400" font-style="normal" 
 >0.4</text>
</g>

<g fill="#212121" fill-opacity="1" stroke="#212121" stroke-opacity="1" stroke-width="1" stroke-linecap="square" stroke-linejoin="bevel" transform="matrix(0.514916,0,0,0.504382,32.395,306.315)"
font-family="Helvetica" font-size="50" font-weight="400" font-style="normal" 
>
<text fill="#212121" fill-opacity="1" stroke="none" xml:space="preserve" x="0" y="-0.5" font-family="Helvetica" font-size="50" font-weight="400" font-style="normal" 
 >0.5</text>
</g>

<g fill="#212121" fill-opacity="1" stroke="#212121" stroke-opacity="1" stroke-width="1" stroke-linecap="square" stroke-linejoin="bevel" transform="matrix(0.514916,0,0,0.504382,32.395,252.178)"
font-family="Helvetica" font-size="50" font-weight="400" font-style="normal" 
>
<text fill="#212121" fill-opacity="1" stroke="none" xml:space="preserve" x="0" y="-0.5" font-family="Helvetica" font-size="50" font-weight="400" font-style="normal" 
 >0.6</text>
</g>

<g fill="#212121" fill-opacity="1" stroke="#212121" stroke-opacity="1" stroke-width="1" stroke-linecap="square" stroke-linejoin="bevel" transform="matrix(0.514916,0,0,0.504382,32.395,198.041)"
font-family="Helvetica" font-size="50" font-weight="400" font-style="normal" 
>
<text fill="#212121" fill-opacity="1" stroke="none" xml:space="preserve" x="0" y="-0.5" font-family="Helvetica" font-size="50" font-weight="400" font-style="normal" 
 >0.7</text>
</g>

<g fill="#212121" fill-opacity="1" stroke="#212121" stroke-opacity="1" stroke-width="1" stroke-linecap="square" stroke-linejoin="bevel" transform="matrix(0.514916,0,0,0.504382,32.395,143.904)"
font-family="Helvetica" font-size="50" font-weight="400" font-style="normal" 
>
<text fill="#212121" fill-opacity="1" stroke="none" xml:space="preserve" x="0" y="-0.5" font-family="Helvetica" font-size="50" font-weight="400" font-style="normal" 
 >0.8</text>
</g>

<g fill="#212121" fill-opacity="1" stroke="#212121" stroke-opacity="1" stroke-width="1" stroke-linecap="square" stroke-linejoin="bevel" transform="matrix(0.514916,0,0,0.504382,32.395,89.767)"
font-family="Helvetica" font-size="50" font-weight="400" font-style="normal" 
>
<text fill="#212121" fill-opacity="1" stroke="none" xml:space="preserve" x="0" y="-0.5" font-family="Helvetica" font-size="50" font-weight="400" font-style="normal" 
 >0.9</text>
</g>

<g fill="#212121" fill-opacity="1" stroke="#212121" stroke-opacity="1" stroke-width="1" stroke-linecap="square" stroke-linejoin="bevel" transform="matrix(0.514916,0,0,0.504382,53.5066,35.6299)"
font-family="Helvetica" font-size="50" font-weight="400" font-style="normal" 
>
<text fill="#212121" fill-opacity="1" stroke="none" xml:space="preserve" x="0" y="-0.5" font-family="Helvetica" font-size="50" font-weight="400" font-style="normal" 
 >1</text>
</g>

<g fill="none" stroke="#0000ff" stroke-opacity="1" stroke-width="11" stroke-linecap="butt" stroke-linejoin="miter" stroke-miterlimit="2" transform="matrix(0.514916,0,0,0.504382,-126.199,-50.9558)"
font-family="Helvetica" font-size="50" font-weight="400" font-style="normal" 
>
<polyline fill="none" vector-effect="none" points="391,157.667 2511,157.667 2511,157.667 2723,157.667 2723,157.667 " />
</g>

<g fill="none" stroke="#ff0000" stroke-opacity="1" stroke-dasharray="44,44" stroke-dashoffset="0" stroke-width="11" stroke-linecap="butt" stroke-linejoin="miter" stroke-miterlimit="2" transform="matrix(0.514916,0,0,0.504382,-126.199,-50.9558)"
font-family="Helvetica" font-size="50" font-weight="400" font-style="normal" 
>
<polyline fill="none" vector-effect="none" points="391,157.667 1299.57,157.667 1299.57,157.667 2208.14,157.667 2208.14,157.667 2511,157.667 2511,157.667 2723,157.667 2723,157.667 " />
</g>

<g fill="none" stroke="#00ff00" stroke-opacity="1" stroke-dasharray="11,11" stroke-dashoffset="0" stroke-width="11" stroke-linecap="butt" stroke-linejoin="miter" stroke-miterlimit="2" transform="matrix(0.514916,0,0,0.504382,-126.199,-50.9558)"
font-family="Helvetica" font-size="50" font-weight="400" font-style="normal" 
>
<polyline fill="none" vector-effect="none" points="1299.57,157.667 1299.57,157.667 1299.57,372.333 1602.43,372.333 1602.43,443.889 2511,443.889 2511,443.889 " />
</g>

<g fill="#ffffff" fill-opacity="1" stroke="none" transform="matrix(5.14916e-05,0,0,5.04382e-05,-126.199,-50.9558)"
font-family="Helvetica" font-size="50" font-weight="400" font-style="normal" 
>
<path vector-effect="none" fill-rule="evenodd" d="M4.07e+06,1.069e+07 L4.07e+06,1.215e+07 L5.93e+06,1.215e+07 L5.93e+06,1.069e+07 L4.07e+06,1.069e+07"/>
</g>

<g fill="#0000ff" fill-opacity="1" stroke="#0000ff" stroke-opacity="1" stroke-width="11" stroke-linecap="butt" stroke-linejoin="round" transform="matrix(0.514916,0,0,0.504382,-126.199,-50.9558)"
font-family="Helvetica" font-size="50" font-weight="400" font-style="normal" 
>
<polyline fill="none" vector-effect="none" points="413.016,1095.09 473.178,1095.09 " />
</g>

<g fill="#ff0000" fill-opacity="1" stroke="#ff0000" stroke-opacity="1" stroke-dasharray="44,44" stroke-dashoffset="0" stroke-width="11" stroke-linecap="butt" stroke-linejoin="round" transform="matrix(0.514916,0,0,0.504382,-126.199,-50.9558)"
font-family="Helvetica" font-size="50" font-weight="400" font-style="normal" 
>
<polyline fill="none" vector-effect="none" points="413.016,1142 473.178,1142 " />
</g>

<g fill="#00ff00" fill-opacity="1" stroke="#00ff00" stroke-opacity="1" stroke-dasharray="11,11" stroke-dashoffset="0" stroke-width="11" stroke-linecap="butt" stroke-linejoin="round" transform="matrix(0.514916,0,0,0.504382,-126.199,-50.9558)"
font-family="Helvetica" font-size="50" font-weight="400" font-style="normal" 
>
<polyline fill="none" vector-effect="none" points="413.016,1188.91 473.178,1188.91 " />
</g>

<g fill="#212121" fill-opacity="1" stroke="#212121" stroke-opacity="1" stroke-width="1" stroke-linecap="square" stroke-linejoin="bevel" transform="matrix(0.514916,0,0,0.504382,119.771,506.936)"
font-family="Helvetica" font-size="40" font-weight="400" font-style="normal" 
>
<text fill="#212121" fill-opacity="1" stroke="none" xml:space="preserve" x="0" y="-0.203125" font-family="Helvetica" font-size="40" font-weight="400" font-style="normal" 
 >ui</text>
</g>

<g fill="#212121" fill-opacity="1" stroke="#212121" stroke-opacity="1" stroke-width="1" stroke-linecap="square" stroke-linejoin="bevel" transform="matrix(0.514916,0,0,0.504382,119.771,530.597)"
font-family="Helvetica" font-size="40" font-weight="400" font-style="normal" 
>
<text fill="#212121" fill-opacity="1" stroke="none" xml:space="preserve" x="0" y="-0.203125" font-family="Helvetica" font-size="40" font-weight="400" font-style="normal" 
 >st1.75</text>
</g>

<g fill="#212121" fill-opacity="1" stroke="#212121" stroke-opacity="1" stroke-width="1" stroke-linecap="square" stroke-linejoin="bevel" transform="matrix(0.514916,0,0,0.504382,119.771,554.258)"
font-family="Helvetica" font-size="40" font-weight="400" font-style="normal" 
>
<text fill="#212121" fill-opacity="1" stroke="none" xml:space="preserve" x="0" y="-0.203125" font-family="Helvetica" font-size="40" font-weight="400" font-style="normal" 
 >st1.2</text>
</g>

<g fill="none" stroke="#212121" stroke-opacity="1" stroke-width="1" stroke-linecap="butt" stroke-linejoin="miter" stroke-miterlimit="2" transform="matrix(0.514916,0,0,0.504382,-126.199,-50.9558)"
font-family="Helvetica" font-size="40" font-weight="400" font-style="normal" 
>
<path vector-effect="none" fill-rule="evenodd" d="M407,1215 L407,1069 L593,1069 L593,1215 L407,1215"/>
</g>
</g>
</svg>
