<?xml version="1.0" encoding="UTF-8" standalone="no"?>
<svg width="332.669mm" height="221.544mm"
 viewBox="0 0 943 628"
 xmlns="http://www.w3.org/2000/svg" xmlns:xlink="http://www.w3.org/1999/xlink"  version="1.2" baseProfile="tiny">
<title>Qt SVG Document</title>
<desc>MATLAB, The MathWorks, Inc. Version 25.2.0.3042426 R2025b Update 1</desc>
<defs>
</defs>
<g fill="none" stroke="black" stroke-width="1" fill-rule="evenodd" stroke-linecap="square" stroke-linejoin="bevel" >

<g fill="#ffffff" fill-opacity="1" stroke="none" transform="matrix(0.515496,0,0,0.502856,-86.6499,-40.7399)"
font-family=".AppleSystemUIFont" font-size="13" font-weight="400" font-style="normal" 
>
<path vector-effect="none" fill-rule="evenodd" d="M168,80 L1997,80 L1997,1329 L168,1329 L168,80"/>
</g>

<g fill="#ffffff" fill-opacity="1" stroke="none" transform="matrix(5.15496e-05,0,0,5.02856e-05,-86.6499,-40.7399)"
font-family=".AppleSystemUIFont" font-size="13" font-weight="400" font-style="normal" 
>
<path vector-effect="none" fill-rule="evenodd" d="M2.86e+06,990000 L2.86e+06,1.058e+07 L1.994e+07,1.058e+07 L1.994e+07,990000 L2.86e+06,990000"/>
</g>

<g fill="#212121" fill-opacity="0.14902" stroke="#212121" stroke-opacity="0.14902" stroke-width="1" stroke-linecap="butt" stroke-linejoin="round" transform="matrix(0.515496,0,0,0.502856,-86.6499,-40.7399)"
font-family=".AppleSystemUIFont" font-size="13" font-weight="400" font-style="normal" 
>
<polyline fill="none" vector-effect="none" points="555.068,99 555.068,1058 " />
<polyline fill="none" vector-effect="none" points="789.041,99 789.041,1058 " />
<polyline fill="none" vector-effect="none" points="1023.01,99 1023.01,1058 " />
<polyline fill="none" vector-effect="none" points="1256.99,99 1256.99,1058 " />
<polyline fill="none" vector-effect="none" points="1490.96,99 1490.96,1058 " />
<polyline fill="none" vector-effect="none" points="1724.93,99 1724.93,1058 " />
<polyline fill="none" vector-effect="none" points="286,1058 1994,1058 " />
<polyline fill="none" vector-effect="none" points="286,898.167 1994,898.167 " />
<polyline fill="none" vector-effect="none" points="286,738.333 1994,738.333 " />
<polyline fill="none" vector-effect="none" points="286,578.5 1994,578.5 " />
<polyline fill="none" vector-effect="none" points="286,418.667 1994,418.667 " />
<polyline fill="none" vector-effect="none" points="286,258.833 1994,258.833 " />
<polyline fill="none" vector-effect="none" points="286,99 1994,99 " />
</g>

<g fill="#212121" fill-opacity="1" stroke="#212121" stroke-opacity="1" stroke-width="1" stroke-linecap="square" stroke-linejoin="bevel" transform="matrix(0.515496,0,0,0.502856,368.791,621.724)"
font-family="Arial" font-size="44" font-weight="400" font-style="normal" 
>
<text fill="#212121" fill-opacity="1" stroke="none" xml:space="preserve" x="0" y="-0.171875" font-family="Arial" font-size="44" font-weight="400" font-style="normal" 
 >Adaptive immune cell type</text>
</g>

<g fill="#212121" fill-opacity="1" stroke="#212121" stroke-opacity="1" stroke-width="1" stroke-linecap="square" stroke-linejoin="round" transform="matrix(0.515496,0,0,0.502856,-86.6499,-40.7399)"
font-family="Arial" font-size="44" font-weight="400" font-style="normal" 
>
<polyline fill="none" vector-effect="none" points="286,1058 1994,1058 " />
<polyline fill="none" vector-effect="none" points="286,99 1994,99 " />
<polyline fill="none" vector-effect="none" points="555.068,1058 555.068,1040.92 " />
<polyline fill="none" vector-effect="none" points="555.068,116.08 555.068,99 " />
<polyline fill="none" vector-effect="none" points="789.041,1058 789.041,1040.92 " />
<polyline fill="none" vector-effect="none" points="789.041,116.08 789.041,99 " />
<polyline fill="none" vector-effect="none" points="1023.01,1058 1023.01,1040.92 " />
<polyline fill="none" vector-effect="none" points="1023.01,116.08 1023.01,99 " />
<polyline fill="none" vector-effect="none" points="1256.99,1058 1256.99,1040.92 " />
<polyline fill="none" vector-effect="none" points="1256.99,116.08 1256.99,99 " />
<polyline fill="none" vector-effect="none" points="1490.96,1058 1490.96,1040.92 " />
<polyline fill="none" vector-effect="none" points="1490.96,116.08 1490.96,99 " />
<polyline fill="none" vector-effect="none" points="1724.93,1058 1724.93,1040.92 " />
<polyline fill="none" vector-effect="none" points="1724.93,116.08 1724.93,99 " />
</g>

<g fill="#212121" fill-opacity="1" stroke="#212121" stroke-opacity="1" stroke-width="1" stroke-linecap="square" stroke-linejoin="bevel" transform="matrix(0.364511,-0.355573,0.364511,0.355573,169.596,552.074)"
font-family="Arial" font-size="40" font-weight="400" font-style="normal" 
>
<text fill="#212121" fill-opacity="1" stroke="none" xml:space="preserve" x="0" y="0.203125" font-family="Arial" font-size="40" font-weight="400" font-style="normal" 
 >B cells</text>
</g>

<g fill="#212121" fill-opacity="1" stroke="#212121" stroke-opacity="1" stroke-width="1" stroke-linecap="square" stroke-linejoin="bevel" transform="matrix(0.364511,-0.355573,0.364511,0.355573,254.609,596.379)"
font-family="Arial" font-size="40" font-weight="400" font-style="normal" 
>
<text fill="#212121" fill-opacity="1" stroke="none" xml:space="preserve" x="0" y="0.203125" font-family="Arial" font-size="40" font-weight="400" font-style="normal" 
 >CD19</text>
</g>

<g fill="#212121" fill-opacity="1" stroke="#212121" stroke-opacity="1" stroke-width="1" stroke-linecap="square" stroke-linejoin="bevel" transform="matrix(0.364511,-0.355573,0.364511,0.355573,284.508,553.133)"
font-family="Arial" font-size="32" font-weight="400" font-style="normal" 
>
<text fill="#212121" fill-opacity="1" stroke="none" xml:space="preserve" x="0" y="-0.03125" font-family="Arial" font-size="32" font-weight="400" font-style="normal" 
 >-</text>
</g>

<g fill="#212121" fill-opacity="1" stroke="#212121" stroke-opacity="1" stroke-width="1" stroke-linecap="square" stroke-linejoin="bevel" transform="matrix(0.364511,-0.355573,0.364511,0.355573,295.848,556.15)"
font-family="Arial" font-size="40" font-weight="400" font-style="normal" 
>
<text fill="#212121" fill-opacity="1" stroke="none" xml:space="preserve" x="0" y="0.203125" font-family="Arial" font-size="40" font-weight="400" font-style="normal" 
 >TCR</text>
</g>

<g fill="#212121" fill-opacity="1" stroke="#212121" stroke-opacity="1" stroke-width="1" stroke-linecap="square" stroke-linejoin="bevel" transform="matrix(0.364511,-0.355573,0.364511,0.355573,325.747,526.984)"
font-family="mwb_cmmi10" font-size="40" font-weight="400" font-style="normal" 
>
<text fill="#212121" fill-opacity="1" stroke="none" xml:space="preserve" x="0" y="0.203125" font-family="mwb_cmmi10" font-size="40" font-weight="400" font-style="normal" 
 >-</text>
</g>

<g fill="#212121" fill-opacity="1" stroke="#212121" stroke-opacity="1" stroke-width="1" stroke-linecap="square" stroke-linejoin="bevel" transform="matrix(0.364511,-0.355573,0.364511,0.355573,326.778,511.899)"
font-family="Arial" font-size="32" font-weight="400" font-style="normal" 
>
<text fill="#212121" fill-opacity="1" stroke="none" xml:space="preserve" x="0" y="-0.03125" font-family="Arial" font-size="32" font-weight="400" font-style="normal" 
 >-</text>
</g>

<g fill="#212121" fill-opacity="1" stroke="#212121" stroke-opacity="1" stroke-width="1" stroke-linecap="square" stroke-linejoin="bevel" transform="matrix(0.364511,-0.355573,0.364511,0.355573,400.249,562.386)"
font-family="Arial" font-size="40" font-weight="400" font-style="normal" 
>
<text fill="#212121" fill-opacity="1" stroke="none" xml:space="preserve" x="0" y="0.203125" font-family="Arial" font-size="40" font-weight="400" font-style="normal" 
 >NK cells</text>
</g>

<g fill="#212121" fill-opacity="1" stroke="#212121" stroke-opacity="1" stroke-width="1" stroke-linecap="square" stroke-linejoin="bevel" transform="matrix(0.364511,-0.355573,0.364511,0.355573,532.526,551.007)"
font-family="Arial" font-size="40" font-weight="400" font-style="normal" 
>
<text fill="#212121" fill-opacity="1" stroke="none" xml:space="preserve" x="0" y="0.203125" font-family="Arial" font-size="40" font-weight="400" font-style="normal" 
 >T cells</text>
</g>

<g fill="#212121" fill-opacity="1" stroke="#212121" stroke-opacity="1" stroke-width="1" stroke-linecap="square" stroke-linejoin="bevel" transform="matrix(0.364511,-0.355573,0.364511,0.355573,663.913,550.116)"
font-family="Arial" font-size="40" font-weight="400" font-style="normal" 
>
<text fill="#212121" fill-opacity="1" stroke="none" xml:space="preserve" x="0" y="0.203125" font-family="Arial" font-size="40" font-weight="400" font-style="normal" 
 >CD4</text>
</g>

<g fill="#212121" fill-opacity="1" stroke="#212121" stroke-opacity="1" stroke-width="1" stroke-linecap="square" stroke-linejoin="bevel" transform="matrix(0.364511,-0.355573,0.364511,0.355573,685.564,514.413)"
font-family="Arial" font-size="32" font-weight="400" font-style="normal" 
>
<text fill="#212121" fill-opacity="1" stroke="none" xml:space="preserve" x="0" y="-0.03125" font-family="Arial" font-size="32" font-weight="400" font-style="normal" 
 >+</text>
</g>

<g fill="#212121" fill-opacity="1" stroke="#212121" stroke-opacity="1" stroke-width="1" stroke-linecap="square" stroke-linejoin="bevel" transform="matrix(0.364511,-0.355573,0.364511,0.355573,784.539,550.116)"
font-family="Arial" font-size="40" font-weight="400" font-style="normal" 
>
<text fill="#212121" fill-opacity="1" stroke="none" xml:space="preserve" x="0" y="0.203125" font-family="Arial" font-size="40" font-weight="400" font-style="normal" 
 >CD8</text>
</g>

<g fill="#212121" fill-opacity="1" stroke="#212121" stroke-opacity="1" stroke-width="1" stroke-linecap="square" stroke-linejoin="bevel" transform="matrix(0.364511,-0.355573,0.364511,0.355573,806.19,514.413)"
font-family="Arial" font-size="32" font-weight="400" font-style="normal" 
>
<text fill="#212121" fill-opacity="1" stroke="none" xml:space="preserve" x="0" y="-0.03125" font-family="Arial" font-size="32" font-weight="400" font-style="normal" 
 >+</text>
</g>

<g fill="#212121" fill-opacity="1" stroke="#212121" stroke-opacity="1" stroke-width="1" stroke-linecap="square" stroke-linejoin="bevel" transform="matrix(0,-0.502856,0.515496,0,17.9959,358.276)"
font-family="Arial" font-size="44" font-weight="400" font-style="normal" 
>
<text fill="#212121" fill-opacity="1" stroke="none" xml:space="preserve" x="0" y="-0.171875" font-family="Arial" font-size="44" font-weight="400" font-style="normal" 
 >Fraction of gated cells</text>
</g>

<g fill="#212121" fill-opacity="1" stroke="#212121" stroke-opacity="1" stroke-width="1" stroke-linecap="square" stroke-linejoin="round" transform="matrix(0.515496,0,0,0.502856,-86.6499,-40.7399)"
font-family="Arial" font-size="44" font-weight="400" font-style="normal" 
>
<polyline fill="none" vector-effect="none" points="286,1058 286,99 " />
<polyline fill="none" vector-effect="none" points="1994,1058 1994,99 " />
<polyline fill="none" vector-effect="none" points="286,1058 303.08,1058 " />
<polyline fill="none" vector-effect="none" points="1976.92,1058 1994,1058 " />
<polyline fill="none" vector-effect="none" points="286,898.167 303.08,898.167 " />
<polyline fill="none" vector-effect="none" points="1976.92,898.167 1994,898.167 " />
<polyline fill="none" vector-effect="none" points="286,738.333 303.08,738.333 " />
<polyline fill="none" vector-effect="none" points="1976.92,738.333 1994,738.333 " />
<polyline fill="none" vector-effect="none" points="286,578.5 303.08,578.5 " />
<polyline fill="none" vector-effect="none" points="1976.92,578.5 1994,578.5 " />
<polyline fill="none" vector-effect="none" points="286,418.667 303.08,418.667 " />
<polyline fill="none" vector-effect="none" points="1976.92,418.667 1994,418.667 " />
<polyline fill="none" vector-effect="none" points="286,258.833 303.08,258.833 " />
<polyline fill="none" vector-effect="none" points="1976.92,258.833 1994,258.833 " />
<polyline fill="none" vector-effect="none" points="286,99 303.08,99 " />
<polyline fill="none" vector-effect="none" points="1976.92,99 1994,99 " />
</g>

<g fill="#212121" fill-opacity="1" stroke="#212121" stroke-opacity="1" stroke-width="1" stroke-linecap="square" stroke-linejoin="bevel" transform="matrix(0.515496,0,0,0.502856,43.2552,498.322)"
font-family="Arial" font-size="40" font-weight="400" font-style="normal" 
>
<text fill="#212121" fill-opacity="1" stroke="none" xml:space="preserve" x="0" y="0.203125" font-family="Arial" font-size="40" font-weight="400" font-style="normal" 
 >0</text>
</g>

<g fill="#212121" fill-opacity="1" stroke="#212121" stroke-opacity="1" stroke-width="1" stroke-linecap="square" stroke-linejoin="bevel" transform="matrix(0.515496,0,0,0.502856,25.7283,417.949)"
font-family="Arial" font-size="40" font-weight="400" font-style="normal" 
>
<text fill="#212121" fill-opacity="1" stroke="none" xml:space="preserve" x="0" y="0.203125" font-family="Arial" font-size="40" font-weight="400" font-style="normal" 
 >0.1</text>
</g>

<g fill="#212121" fill-opacity="1" stroke="#212121" stroke-opacity="1" stroke-width="1" stroke-linecap="square" stroke-linejoin="bevel" transform="matrix(0.515496,0,0,0.502856,25.7283,337.575)"
font-family="Arial" font-size="40" font-weight="400" font-style="normal" 
>
<text fill="#212121" fill-opacity="1" stroke="none" xml:space="preserve" x="0" y="0.203125" font-family="Arial" font-size="40" font-weight="400" font-style="normal" 
 >0.2</text>
</g>

<g fill="#212121" fill-opacity="1" stroke="#212121" stroke-opacity="1" stroke-width="1" stroke-linecap="square" stroke-linejoin="bevel" transform="matrix(0.515496,0,0,0.502856,25.7283,257.202)"
font-family="Arial" font-size="40" font-weight="400" font-style="normal" 
>
<text fill="#212121" fill-opacity="1" stroke="none" xml:space="preserve" x="0" y="0.203125" font-family="Arial" font-size="40" font-weight="400" font-style="normal" 
 >0.3</text>
</g>

<g fill="#212121" fill-opacity="1" stroke="#212121" stroke-opacity="1" stroke-width="1" stroke-linecap="square" stroke-linejoin="bevel" transform="matrix(0.515496,0,0,0.502856,25.7283,176.829)"
font-family="Arial" font-size="40" font-weight="400" font-style="normal" 
>
<text fill="#212121" fill-opacity="1" stroke="none" xml:space="preserve" x="0" y="0.203125" font-family="Arial" font-size="40" font-weight="400" font-style="normal" 
 >0.4</text>
</g>

<g fill="#212121" fill-opacity="1" stroke="#212121" stroke-opacity="1" stroke-width="1" stroke-linecap="square" stroke-linejoin="bevel" transform="matrix(0.515496,0,0,0.502856,25.7283,96.456)"
font-family="Arial" font-size="40" font-weight="400" font-style="normal" 
>
<text fill="#212121" fill-opacity="1" stroke="none" xml:space="preserve" x="0" y="0.203125" font-family="Arial" font-size="40" font-weight="400" font-style="normal" 
 >0.5</text>
</g>

<g fill="#212121" fill-opacity="1" stroke="#212121" stroke-opacity="1" stroke-width="1" stroke-linecap="square" stroke-linejoin="bevel" transform="matrix(0.515496,0,0,0.502856,25.7283,16.0828)"
font-family="Arial" font-size="40" font-weight="400" font-style="normal" 
>
<text fill="#212121" fill-opacity="1" stroke="none" xml:space="preserve" x="0" y="0.203125" font-family="Arial" font-size="40" font-weight="400" font-style="normal" 
 >0.6</text>
</g>

<g fill="#212121" fill-opacity="1" stroke="#212121" stroke-opacity="1" stroke-width="1" stroke-linecap="butt" stroke-linejoin="round" transform="matrix(0.515496,0,0,0.502856,-86.6499,-40.7399)"
font-family="Arial" font-size="40" font-weight="400" font-style="normal" 
>
<polyline fill="none" vector-effect="none" points="286,1058 1994,1058 " />
</g>

<g fill="#6699e6" fill-opacity="0.85098" stroke="none" transform="matrix(5.15496e-05,0,0,5.02856e-05,-86.6499,-40.7399)"
font-family="Arial" font-size="40" font-weight="400" font-style="normal" 
>
<path vector-effect="none" fill-rule="evenodd" d="M4.73178e+06,8.95181e+06 L4.73178e+06,1.058e+07 L5.55069e+06,1.058e+07 L5.55069e+06,8.95181e+06 L4.73178e+06,8.95181e+06"/>
</g>

<g fill="#6699e6" fill-opacity="0.85098" stroke="none" transform="matrix(5.15496e-05,0,0,5.02856e-05,-86.6499,-40.7399)"
font-family="Arial" font-size="40" font-weight="400" font-style="normal" 
>
<path vector-effect="none" fill-rule="evenodd" d="M7.07151e+06,3.30899e+06 L7.07151e+06,1.058e+07 L7.89041e+06,1.058e+07 L7.89041e+06,3.30899e+06 L7.07151e+06,3.30899e+06"/>
</g>

<g fill="#6699e6" fill-opacity="0.85098" stroke="none" transform="matrix(5.15496e-05,0,0,5.02856e-05,-86.6499,-40.7399)"
font-family="Arial" font-size="40" font-weight="400" font-style="normal" 
>
<path vector-effect="none" fill-rule="evenodd" d="M9.41123e+06,1.00205e+07 L9.41123e+06,1.058e+07 L1.02301e+07,1.058e+07 L1.02301e+07,1.00205e+07 L9.41123e+06,1.00205e+07"/>
</g>

<g fill="#6699e6" fill-opacity="0.85098" stroke="none" transform="matrix(5.15496e-05,0,0,5.02856e-05,-86.6499,-40.7399)"
font-family="Arial" font-size="40" font-weight="400" font-style="normal" 
>
<path vector-effect="none" fill-rule="evenodd" d="M1.1751e+07,4.47196e+06 L1.1751e+07,1.058e+07 L1.25699e+07,1.058e+07 L1.25699e+07,4.47196e+06 L1.1751e+07,4.47196e+06"/>
</g>

<g fill="#6699e6" fill-opacity="0.85098" stroke="none" transform="matrix(5.15496e-05,0,0,5.02856e-05,-86.6499,-40.7399)"
font-family="Arial" font-size="40" font-weight="400" font-style="normal" 
>
<path vector-effect="none" fill-rule="evenodd" d="M1.40907e+07,9.58622e+06 L1.40907e+07,1.058e+07 L1.49096e+07,1.058e+07 L1.49096e+07,9.58622e+06 L1.40907e+07,9.58622e+06"/>
</g>

<g fill="#6699e6" fill-opacity="0.85098" stroke="none" transform="matrix(5.15496e-05,0,0,5.02856e-05,-86.6499,-40.7399)"
font-family="Arial" font-size="40" font-weight="400" font-style="normal" 
>
<path vector-effect="none" fill-rule="evenodd" d="M1.64304e+07,7.46829e+06 L1.64304e+07,1.058e+07 L1.72493e+07,1.058e+07 L1.72493e+07,7.46829e+06 L1.64304e+07,7.46829e+06"/>
</g>

<g fill="#e6804d" fill-opacity="0.85098" stroke="none" transform="matrix(5.15496e-05,0,0,5.02856e-05,-86.6499,-40.7399)"
font-family="Arial" font-size="40" font-weight="400" font-style="normal" 
>
<path vector-effect="none" fill-rule="evenodd" d="M5.55069e+06,8.36115e+06 L5.55069e+06,1.058e+07 L6.36959e+06,1.058e+07 L6.36959e+06,8.36115e+06 L5.55069e+06,8.36115e+06"/>
</g>

<g fill="#e6804d" fill-opacity="0.85098" stroke="none" transform="matrix(5.15496e-05,0,0,5.02856e-05,-86.6499,-40.7399)"
font-family="Arial" font-size="40" font-weight="400" font-style="normal" 
>
<path vector-effect="none" fill-rule="evenodd" d="M7.89041e+06,3.58918e+06 L7.89041e+06,1.058e+07 L8.70932e+06,1.058e+07 L8.70932e+06,3.58918e+06 L7.89041e+06,3.58918e+06"/>
</g>

<g fill="#e6804d" fill-opacity="0.85098" stroke="none" transform="matrix(5.15496e-05,0,0,5.02856e-05,-86.6499,-40.7399)"
font-family="Arial" font-size="40" font-weight="400" font-style="normal" 
>
<path vector-effect="none" fill-rule="evenodd" d="M1.02301e+07,1.02124e+07 L1.02301e+07,1.058e+07 L1.1049e+07,1.058e+07 L1.1049e+07,1.02124e+07 L1.02301e+07,1.02124e+07"/>
</g>

<g fill="#e6804d" fill-opacity="0.85098" stroke="none" transform="matrix(5.15496e-05,0,0,5.02856e-05,-86.6499,-40.7399)"
font-family="Arial" font-size="40" font-weight="400" font-style="normal" 
>
<path vector-effect="none" fill-rule="evenodd" d="M1.25699e+07,4.77783e+06 L1.25699e+07,1.058e+07 L1.33888e+07,1.058e+07 L1.33888e+07,4.77783e+06 L1.25699e+07,4.77783e+06"/>
</g>

<g fill="#e6804d" fill-opacity="0.85098" stroke="none" transform="matrix(5.15496e-05,0,0,5.02856e-05,-86.6499,-40.7399)"
font-family="Arial" font-size="40" font-weight="400" font-style="normal" 
>
<path vector-effect="none" fill-rule="evenodd" d="M1.49096e+07,9.77622e+06 L1.49096e+07,1.058e+07 L1.57285e+07,1.058e+07 L1.57285e+07,9.77622e+06 L1.49096e+07,9.77622e+06"/>
</g>

<g fill="#e6804d" fill-opacity="0.85098" stroke="none" transform="matrix(5.15496e-05,0,0,5.02856e-05,-86.6499,-40.7399)"
font-family="Arial" font-size="40" font-weight="400" font-style="normal" 
>
<path vector-effect="none" fill-rule="evenodd" d="M1.72493e+07,7.5718e+06 L1.72493e+07,1.058e+07 L1.80682e+07,1.058e+07 L1.80682e+07,7.5718e+06 L1.72493e+07,7.5718e+06"/>
</g>

<g fill="#000000" fill-opacity="1" stroke="#000000" stroke-opacity="1" stroke-width="3" stroke-linecap="butt" stroke-linejoin="round" transform="matrix(0.515496,0,0,0.502856,-86.6499,-40.7399)"
font-family="Arial" font-size="40" font-weight="400" font-style="normal" 
>
<polyline fill="none" vector-effect="none" points="514.123,895.181 514.123,984.534 " />
<polyline fill="none" vector-effect="none" points="748.096,330.899 748.096,469.409 " />
<polyline fill="none" vector-effect="none" points="982.068,1002.05 982.068,1025.27 " />
<polyline fill="none" vector-effect="none" points="1216.04,447.196 1216.04,509.016 " />
<polyline fill="none" vector-effect="none" points="1450.01,958.622 1450.01,995.556 " />
<polyline fill="none" vector-effect="none" points="1683.99,746.829 1683.99,781.667 " />
<polyline fill="none" vector-effect="none" points="514.123,895.181 514.123,805.828 " />
<polyline fill="none" vector-effect="none" points="748.096,330.899 748.096,192.389 " />
<polyline fill="none" vector-effect="none" points="982.068,1002.05 982.068,978.836 " />
<polyline fill="none" vector-effect="none" points="1216.04,447.196 1216.04,385.376 " />
<polyline fill="none" vector-effect="none" points="1450.01,958.622 1450.01,921.689 " />
<polyline fill="none" vector-effect="none" points="1683.99,746.829 1683.99,711.99 " />
</g>

<g fill="#000000" fill-opacity="1" stroke="none" transform="matrix(0.515496,0,0,0.502856,-86.6499,-40.7399)"
font-family="Arial" font-size="40" font-weight="400" font-style="normal" 
>
<circle cx="514.123" cy="895.181" r="2"/>
</g>

<g fill="none" stroke="#000000" stroke-opacity="1" stroke-width="3" stroke-linecap="butt" stroke-linejoin="miter" stroke-miterlimit="2" transform="matrix(0.515496,0,0,0.502856,-86.6499,-40.7399)"
font-family="Arial" font-size="40" font-weight="400" font-style="normal" 
>
<path vector-effect="none" fill-rule="evenodd" d="M516.123,895.181 C516.123,894.076 515.228,893.181 514.123,893.181 C513.019,893.181 512.123,894.076 512.123,895.181 C512.123,896.286 513.019,897.181 514.123,897.181 C515.228,897.181 516.123,896.286 516.123,895.181 "/>
</g>

<g fill="#000000" fill-opacity="1" stroke="none" transform="matrix(0.515496,0,0,0.502856,-86.6499,-40.7399)"
font-family="Arial" font-size="40" font-weight="400" font-style="normal" 
>
<circle cx="748.096" cy="330.899" r="2"/>
</g>

<g fill="none" stroke="#000000" stroke-opacity="1" stroke-width="3" stroke-linecap="butt" stroke-linejoin="miter" stroke-miterlimit="2" transform="matrix(0.515496,0,0,0.502856,-86.6499,-40.7399)"
font-family="Arial" font-size="40" font-weight="400" font-style="normal" 
>
<path vector-effect="none" fill-rule="evenodd" d="M750.096,330.899 C750.096,329.794 749.2,328.899 748.096,328.899 C746.991,328.899 746.096,329.794 746.096,330.899 C746.096,332.004 746.991,332.899 748.096,332.899 C749.2,332.899 750.096,332.004 750.096,330.899 "/>
</g>

<g fill="#000000" fill-opacity="1" stroke="none" transform="matrix(0.515496,0,0,0.502856,-86.6499,-40.7399)"
font-family="Arial" font-size="40" font-weight="400" font-style="normal" 
>
<circle cx="982.068" cy="1002.05" r="2"/>
</g>

<g fill="none" stroke="#000000" stroke-opacity="1" stroke-width="3" stroke-linecap="butt" stroke-linejoin="miter" stroke-miterlimit="2" transform="matrix(0.515496,0,0,0.502856,-86.6499,-40.7399)"
font-family="Arial" font-size="40" font-weight="400" font-style="normal" 
>
<path vector-effect="none" fill-rule="evenodd" d="M984.068,1002.05 C984.068,1000.95 983.173,1000.05 982.068,1000.05 C980.964,1000.05 980.068,1000.95 980.068,1002.05 C980.068,1003.16 980.964,1004.05 982.068,1004.05 C983.173,1004.05 984.068,1003.16 984.068,1002.05 "/>
</g>

<g fill="#000000" fill-opacity="1" stroke="none" transform="matrix(0.515496,0,0,0.502856,-86.6499,-40.7399)"
font-family="Arial" font-size="40" font-weight="400" font-style="normal" 
>
<circle cx="1216.04" cy="447.196" r="2"/>
</g>

<g fill="none" stroke="#000000" stroke-opacity="1" stroke-width="3" stroke-linecap="butt" stroke-linejoin="miter" stroke-miterlimit="2" transform="matrix(0.515496,0,0,0.502856,-86.6499,-40.7399)"
font-family="Arial" font-size="40" font-weight="400" font-style="normal" 
>
<path vector-effect="none" fill-rule="evenodd" d="M1218.04,447.196 C1218.04,446.091 1217.15,445.196 1216.04,445.196 C1214.94,445.196 1214.04,446.091 1214.04,447.196 C1214.04,448.3 1214.94,449.196 1216.04,449.196 C1217.15,449.196 1218.04,448.3 1218.04,447.196 "/>
</g>

<g fill="#000000" fill-opacity="1" stroke="none" transform="matrix(0.515496,0,0,0.502856,-86.6499,-40.7399)"
font-family="Arial" font-size="40" font-weight="400" font-style="normal" 
>
<circle cx="1450.01" cy="958.622" r="2"/>
</g>

<g fill="none" stroke="#000000" stroke-opacity="1" stroke-width="3" stroke-linecap="butt" stroke-linejoin="miter" stroke-miterlimit="2" transform="matrix(0.515496,0,0,0.502856,-86.6499,-40.7399)"
font-family="Arial" font-size="40" font-weight="400" font-style="normal" 
>
<path vector-effect="none" fill-rule="evenodd" d="M1452.01,958.622 C1452.01,957.518 1451.12,956.622 1450.01,956.622 C1448.91,956.622 1448.01,957.518 1448.01,958.622 C1448.01,959.727 1448.91,960.622 1450.01,960.622 C1451.12,960.622 1452.01,959.727 1452.01,958.622 "/>
</g>

<g fill="#000000" fill-opacity="1" stroke="none" transform="matrix(0.515496,0,0,0.502856,-86.6499,-40.7399)"
font-family="Arial" font-size="40" font-weight="400" font-style="normal" 
>
<circle cx="1683.99" cy="746.829" r="2"/>
</g>

<g fill="none" stroke="#000000" stroke-opacity="1" stroke-width="3" stroke-linecap="butt" stroke-linejoin="miter" stroke-miterlimit="2" transform="matrix(0.515496,0,0,0.502856,-86.6499,-40.7399)"
font-family="Arial" font-size="40" font-weight="400" font-style="normal" 
>
<path vector-effect="none" fill-rule="evenodd" d="M1685.99,746.829 C1685.99,745.724 1685.09,744.829 1683.99,744.829 C1682.88,744.829 1681.99,745.724 1681.99,746.829 C1681.99,747.933 1682.88,748.829 1683.99,748.829 C1685.09,748.829 1685.99,747.933 1685.99,746.829 "/>
</g>

<g fill="#000000" fill-opacity="1" stroke="#000000" stroke-opacity="1" stroke-width="3" stroke-linecap="butt" stroke-linejoin="miter" stroke-miterlimit="2" transform="matrix(0.515496,0,0,0.502856,-86.6499,-40.7399)"
font-family="Arial" font-size="40" font-weight="400" font-style="normal" 
>
<polyline fill="none" vector-effect="none" points="509.123,984.534 519.123,984.534 " />
<polyline fill="none" vector-effect="none" points="743.096,469.409 753.096,469.409 " />
<polyline fill="none" vector-effect="none" points="977.068,1025.27 987.068,1025.27 " />
<polyline fill="none" vector-effect="none" points="1211.04,509.016 1221.04,509.016 " />
<polyline fill="none" vector-effect="none" points="1445.01,995.556 1455.01,995.556 " />
<polyline fill="none" vector-effect="none" points="1678.99,781.667 1688.99,781.667 " />
<polyline fill="none" vector-effect="none" points="509.123,805.828 519.123,805.828 " />
<polyline fill="none" vector-effect="none" points="743.096,192.389 753.096,192.389 " />
<polyline fill="none" vector-effect="none" points="977.068,978.836 987.068,978.836 " />
<polyline fill="none" vector-effect="none" points="1211.04,385.376 1221.04,385.376 " />
<polyline fill="none" vector-effect="none" points="1445.01,921.689 1455.01,921.689 " />
<polyline fill="none" vector-effect="none" points="1678.99,711.99 1688.99,711.99 " />
</g>

<g fill="#000000" fill-opacity="0.6" stroke="none" transform="matrix(0.515496,0,0,0.502856,-86.6499,-40.7399)"
font-family="Arial" font-size="40" font-weight="400" font-style="normal" 
>
<circle cx="514.123" cy="810.007" r="6.32456"/>
<circle cx="514.123" cy="887.338" r="6.32456"/>
<circle cx="514.123" cy="988.197" r="6.32456"/>
<circle cx="748.096" cy="470.845" r="6.32456"/>
<circle cx="748.096" cy="327.981" r="6.32456"/>
<circle cx="748.096" cy="193.871" r="6.32456"/>
<circle cx="982.068" cy="1012.42" r="6.32456"/>
<circle cx="982.068" cy="1018.28" r="6.32456"/>
<circle cx="982.068" cy="975.459" r="6.32456"/>
<circle cx="1216.04" cy="380.249" r="6.32456"/>
<circle cx="1216.04" cy="459.213" r="6.32456"/>
<circle cx="1216.04" cy="502.124" r="6.32456"/>
<circle cx="1450.01" cy="917.805" r="6.32456"/>
<circle cx="1450.01" cy="989.735" r="6.32456"/>
<circle cx="1450.01" cy="968.326" r="6.32456"/>
<circle cx="1683.99" cy="716.544" r="6.32456"/>
<circle cx="1683.99" cy="739.04" r="6.32456"/>
<circle cx="1683.99" cy="784.903" r="6.32456"/>
</g>

<g fill="#000000" fill-opacity="1" stroke="#000000" stroke-opacity="1" stroke-width="3" stroke-linecap="butt" stroke-linejoin="round" transform="matrix(0.515496,0,0,0.502856,-86.6499,-40.7399)"
font-family="Arial" font-size="40" font-weight="400" font-style="normal" 
>
<polyline fill="none" vector-effect="none" points="596.014,836.115 596.014,937.149 " />
<polyline fill="none" vector-effect="none" points="829.986,358.918 829.986,397.129 " />
<polyline fill="none" vector-effect="none" points="1063.96,1021.24 1063.96,1030.82 " />
<polyline fill="none" vector-effect="none" points="1297.93,477.783 1297.93,570.328 " />
<polyline fill="none" vector-effect="none" points="1531.9,977.622 1531.9,1002.88 " />
<polyline fill="none" vector-effect="none" points="1765.88,757.18 1765.88,805.618 " />
<polyline fill="none" vector-effect="none" points="596.014,836.115 596.014,735.081 " />
<polyline fill="none" vector-effect="none" points="829.986,358.918 829.986,320.708 " />
<polyline fill="none" vector-effect="none" points="1063.96,1021.24 1063.96,1011.65 " />
<polyline fill="none" vector-effect="none" points="1297.93,477.783 1297.93,385.239 " />
<polyline fill="none" vector-effect="none" points="1531.9,977.622 1531.9,952.363 " />
<polyline fill="none" vector-effect="none" points="1765.88,757.18 1765.88,708.742 " />
</g>

<g fill="#000000" fill-opacity="1" stroke="none" transform="matrix(0.515496,0,0,0.502856,-86.6499,-40.7399)"
font-family="Arial" font-size="40" font-weight="400" font-style="normal" 
>
<circle cx="596.014" cy="836.115" r="2"/>
</g>

<g fill="none" stroke="#000000" stroke-opacity="1" stroke-width="3" stroke-linecap="butt" stroke-linejoin="miter" stroke-miterlimit="2" transform="matrix(0.515496,0,0,0.502856,-86.6499,-40.7399)"
font-family="Arial" font-size="40" font-weight="400" font-style="normal" 
>
<path vector-effect="none" fill-rule="evenodd" d="M598.014,836.115 C598.014,835.01 597.118,834.115 596.014,834.115 C594.909,834.115 594.014,835.01 594.014,836.115 C594.014,837.219 594.909,838.115 596.014,838.115 C597.118,838.115 598.014,837.219 598.014,836.115 "/>
</g>

<g fill="#000000" fill-opacity="1" stroke="none" transform="matrix(0.515496,0,0,0.502856,-86.6499,-40.7399)"
font-family="Arial" font-size="40" font-weight="400" font-style="normal" 
>
<circle cx="829.986" cy="358.918" r="2"/>
</g>

<g fill="none" stroke="#000000" stroke-opacity="1" stroke-width="3" stroke-linecap="butt" stroke-linejoin="miter" stroke-miterlimit="2" transform="matrix(0.515496,0,0,0.502856,-86.6499,-40.7399)"
font-family="Arial" font-size="40" font-weight="400" font-style="normal" 
>
<path vector-effect="none" fill-rule="evenodd" d="M831.986,358.918 C831.986,357.814 831.091,356.918 829.986,356.918 C828.882,356.918 827.986,357.814 827.986,358.918 C827.986,360.023 828.882,360.918 829.986,360.918 C831.091,360.918 831.986,360.023 831.986,358.918 "/>
</g>

<g fill="#000000" fill-opacity="1" stroke="none" transform="matrix(0.515496,0,0,0.502856,-86.6499,-40.7399)"
font-family="Arial" font-size="40" font-weight="400" font-style="normal" 
>
<circle cx="1063.96" cy="1021.24" r="2"/>
</g>

<g fill="none" stroke="#000000" stroke-opacity="1" stroke-width="3" stroke-linecap="butt" stroke-linejoin="miter" stroke-miterlimit="2" transform="matrix(0.515496,0,0,0.502856,-86.6499,-40.7399)"
font-family="Arial" font-size="40" font-weight="400" font-style="normal" 
>
<path vector-effect="none" fill-rule="evenodd" d="M1065.96,1021.24 C1065.96,1020.13 1065.06,1019.24 1063.96,1019.24 C1062.85,1019.24 1061.96,1020.13 1061.96,1021.24 C1061.96,1022.34 1062.85,1023.24 1063.96,1023.24 C1065.06,1023.24 1065.96,1022.34 1065.96,1021.24 "/>
</g>

<g fill="#000000" fill-opacity="1" stroke="none" transform="matrix(0.515496,0,0,0.502856,-86.6499,-40.7399)"
font-family="Arial" font-size="40" font-weight="400" font-style="normal" 
>
<circle cx="1297.93" cy="477.783" r="2"/>
</g>

<g fill="none" stroke="#000000" stroke-opacity="1" stroke-width="3" stroke-linecap="butt" stroke-linejoin="miter" stroke-miterlimit="2" transform="matrix(0.515496,0,0,0.502856,-86.6499,-40.7399)"
font-family="Arial" font-size="40" font-weight="400" font-style="normal" 
>
<path vector-effect="none" fill-rule="evenodd" d="M1299.93,477.783 C1299.93,476.679 1299.04,475.783 1297.93,475.783 C1296.83,475.783 1295.93,476.679 1295.93,477.783 C1295.93,478.888 1296.83,479.783 1297.93,479.783 C1299.04,479.783 1299.93,478.888 1299.93,477.783 "/>
</g>

<g fill="#000000" fill-opacity="1" stroke="none" transform="matrix(0.515496,0,0,0.502856,-86.6499,-40.7399)"
font-family="Arial" font-size="40" font-weight="400" font-style="normal" 
>
<circle cx="1531.9" cy="977.622" r="2"/>
</g>

<g fill="none" stroke="#000000" stroke-opacity="1" stroke-width="3" stroke-linecap="butt" stroke-linejoin="miter" stroke-miterlimit="2" transform="matrix(0.515496,0,0,0.502856,-86.6499,-40.7399)"
font-family="Arial" font-size="40" font-weight="400" font-style="normal" 
>
<path vector-effect="none" fill-rule="evenodd" d="M1533.9,977.622 C1533.9,976.517 1533.01,975.622 1531.9,975.622 C1530.8,975.622 1529.9,976.517 1529.9,977.622 C1529.9,978.726 1530.8,979.622 1531.9,979.622 C1533.01,979.622 1533.9,978.726 1533.9,977.622 "/>
</g>

<g fill="#000000" fill-opacity="1" stroke="none" transform="matrix(0.515496,0,0,0.502856,-86.6499,-40.7399)"
font-family="Arial" font-size="40" font-weight="400" font-style="normal" 
>
<circle cx="1765.88" cy="757.18" r="2"/>
</g>

<g fill="none" stroke="#000000" stroke-opacity="1" stroke-width="3" stroke-linecap="butt" stroke-linejoin="miter" stroke-miterlimit="2" transform="matrix(0.515496,0,0,0.502856,-86.6499,-40.7399)"
font-family="Arial" font-size="40" font-weight="400" font-style="normal" 
>
<path vector-effect="none" fill-rule="evenodd" d="M1767.88,757.18 C1767.88,756.075 1766.98,755.18 1765.88,755.18 C1764.77,755.18 1763.88,756.075 1763.88,757.18 C1763.88,758.285 1764.77,759.18 1765.88,759.18 C1766.98,759.18 1767.88,758.285 1767.88,757.18 "/>
</g>

<g fill="#000000" fill-opacity="1" stroke="#000000" stroke-opacity="1" stroke-width="3" stroke-linecap="butt" stroke-linejoin="miter" stroke-miterlimit="2" transform="matrix(0.515496,0,0,0.502856,-86.6499,-40.7399)"
font-family="Arial" font-size="40" font-weight="400" font-style="normal" 
>
<polyline fill="none" vector-effect="none" points="591.014,937.149 601.014,937.149 " />
<polyline fill="none" vector-effect="none" points="824.986,397.129 834.986,397.129 " />
<polyline fill="none" vector-effect="none" points="1058.96,1030.82 1068.96,1030.82 " />
<polyline fill="none" vector-effect="none" points="1292.93,570.328 1302.93,570.328 " />
<polyline fill="none" vector-effect="none" points="1526.9,1002.88 1536.9,1002.88 " />
<polyline fill="none" vector-effect="none" points="1760.88,805.618 1770.88,805.618 " />
<polyline fill="none" vector-effect="none" points="591.014,735.081 601.014,735.081 " />
<polyline fill="none" vector-effect="none" points="824.986,320.708 834.986,320.708 " />
<polyline fill="none" vector-effect="none" points="1058.96,1011.65 1068.96,1011.65 " />
<polyline fill="none" vector-effect="none" points="1292.93,385.239 1302.93,385.239 " />
<polyline fill="none" vector-effect="none" points="1526.9,952.363 1536.9,952.363 " />
<polyline fill="none" vector-effect="none" points="1760.88,708.742 1770.88,708.742 " />
</g>

<g fill="#000000" fill-opacity="0.6" stroke="none" transform="matrix(0.515496,0,0,0.502856,-86.6499,-40.7399)"
font-family="Arial" font-size="40" font-weight="400" font-style="normal" 
>
<circle cx="596.014" cy="907.593" r="6.32456"/>
<circle cx="596.014" cy="880.226" r="6.32456"/>
<circle cx="596.014" cy="720.526" r="6.32456"/>
<circle cx="829.986" cy="363.472" r="6.32456"/>
<circle cx="829.986" cy="318.635" r="6.32456"/>
<circle cx="829.986" cy="394.648" r="6.32456"/>
<circle cx="1063.96" cy="1014.78" r="6.32456"/>
<circle cx="1063.96" cy="1016.68" r="6.32456"/>
<circle cx="1063.96" cy="1032.25" r="6.32456"/>
<circle cx="1297.93" cy="391.716" r="6.32456"/>
<circle cx="1297.93" cy="465.964" r="6.32456"/>
<circle cx="1297.93" cy="575.67" r="6.32456"/>
<circle cx="1531.9" cy="953.191" r="6.32456"/>
<circle cx="1531.9" cy="1003.63" r="6.32456"/>
<circle cx="1531.9" cy="976.039" r="6.32456"/>
<circle cx="1765.88" cy="728.261" r="6.32456"/>
<circle cx="1765.88" cy="730.179" r="6.32456"/>
<circle cx="1765.88" cy="813.1" r="6.32456"/>
</g>

<g fill="#ffffff" fill-opacity="1" stroke="none" transform="matrix(5.15496e-05,0,0,5.02856e-05,-86.6499,-40.7399)"
font-family="Arial" font-size="40" font-weight="400" font-style="normal" 
>
<path vector-effect="none" fill-rule="evenodd" d="M1.623e+07,1.15e+06 L1.623e+07,2.04e+06 L1.978e+07,2.04e+06 L1.978e+07,1.15e+06 L1.623e+07,1.15e+06"/>
</g>

<g fill="#6699e6" fill-opacity="0.85098" stroke="none" transform="matrix(5.15496e-05,0,0,5.02856e-05,-86.6499,-40.7399)"
font-family="Arial" font-size="40" font-weight="400" font-style="normal" 
>
<path vector-effect="none" fill-rule="evenodd" d="M1.62899e+07,1.23148e+06 L1.62899e+07,1.53985e+06 L1.68891e+07,1.53985e+06 L1.68891e+07,1.23148e+06 L1.62899e+07,1.23148e+06"/>
</g>

<g fill="#e6804d" fill-opacity="0.85098" stroke="none" transform="matrix(5.15496e-05,0,0,5.02856e-05,-86.6499,-40.7399)"
font-family="Arial" font-size="40" font-weight="400" font-style="normal" 
>
<path vector-effect="none" fill-rule="evenodd" d="M1.62899e+07,1.65015e+06 L1.62899e+07,1.95852e+06 L1.68891e+07,1.95852e+06 L1.68891e+07,1.65015e+06 L1.62899e+07,1.65015e+06"/>
</g>

<g fill="#212121" fill-opacity="1" stroke="#212121" stroke-opacity="1" stroke-width="1" stroke-linecap="square" stroke-linejoin="bevel" transform="matrix(0.515496,0,0,0.502856,786.292,35.2247)"
font-family="Arial" font-size="36" font-weight="400" font-style="normal" 
>
<text fill="#212121" fill-opacity="1" stroke="none" xml:space="preserve" x="0" y="-0.421875" font-family="Arial" font-size="36" font-weight="400" font-style="normal" 
 >Uninfected (UI)</text>
</g>

<g fill="#212121" fill-opacity="1" stroke="#212121" stroke-opacity="1" stroke-width="1" stroke-linecap="square" stroke-linejoin="bevel" transform="matrix(0.515496,0,0,0.502856,786.292,56.278)"
font-family="Arial" font-size="36" font-weight="400" font-style="normal" 
>
<text fill="#212121" fill-opacity="1" stroke="none" xml:space="preserve" x="0" y="-0.421875" font-family="Arial" font-size="36" font-weight="400" font-style="normal" 
 >ST1.75 colonized</text>
</g>

<g fill="none" stroke="#212121" stroke-opacity="1" stroke-width="1" stroke-linecap="butt" stroke-linejoin="miter" stroke-miterlimit="2" transform="matrix(0.515496,0,0,0.502856,-86.6499,-40.7399)"
font-family="Arial" font-size="36" font-weight="400" font-style="normal" 
>
<path vector-effect="none" fill-rule="evenodd" d="M1623,204 L1623,115 L1978,115 L1978,204 L1623,204"/>
</g>
</g>
</svg>
