<?xml version="1.0" encoding="UTF-8" standalone="no"?>
<svg width="332.669mm" height="221.544mm"
 viewBox="0 0 943 628"
 xmlns="http://www.w3.org/2000/svg" xmlns:xlink="http://www.w3.org/1999/xlink"  version="1.2" baseProfile="tiny">
<title>Qt SVG Document</title>
<desc>MATLAB, The MathWorks, Inc. Version 25.2.0.3042426 R2025b Update 1</desc>
<defs>
</defs>
<g fill="none" stroke="black" stroke-width="1" fill-rule="evenodd" stroke-linecap="square" stroke-linejoin="bevel" >

<g fill="#ffffff" fill-opacity="1" stroke="none" transform="matrix(0.505514,0,0,0.503154,-66.7444,-41.2681)"
font-family=".AppleSystemUIFont" font-size="13" font-weight="400" font-style="normal" 
>
<path vector-effect="none" fill-rule="evenodd" d="M132,81 L1997,81 L1997,1329 L132,1329 L132,81"/>
</g>

<g fill="#ffffff" fill-opacity="1" stroke="none" transform="matrix(5.05514e-05,0,0,5.03154e-05,-66.7444,-41.2681)"
font-family=".AppleSystemUIFont" font-size="13" font-weight="400" font-style="normal" 
>
<path vector-effect="none" fill-rule="evenodd" d="M2.86e+06,1e+06 L2.86e+06,1.048e+07 L1.994e+07,1.048e+07 L1.994e+07,1e+06 L2.86e+06,1e+06"/>
</g>

<g fill="#212121" fill-opacity="0.14902" stroke="#212121" stroke-opacity="0.14902" stroke-width="1" stroke-linecap="butt" stroke-linejoin="round" transform="matrix(0.505514,0,0,0.503154,-66.7444,-41.2681)"
font-family=".AppleSystemUIFont" font-size="13" font-weight="400" font-style="normal" 
>
<polyline fill="none" vector-effect="none" points="522.651,100 522.651,1048 " />
<polyline fill="none" vector-effect="none" points="728.434,100 728.434,1048 " />
<polyline fill="none" vector-effect="none" points="934.217,100 934.217,1048 " />
<polyline fill="none" vector-effect="none" points="1140,100 1140,1048 " />
<polyline fill="none" vector-effect="none" points="1345.78,100 1345.78,1048 " />
<polyline fill="none" vector-effect="none" points="1551.57,100 1551.57,1048 " />
<polyline fill="none" vector-effect="none" points="1757.35,100 1757.35,1048 " />
<polyline fill="none" vector-effect="none" points="286,1048 1994,1048 " />
<polyline fill="none" vector-effect="none" points="286,942.667 1994,942.667 " />
<polyline fill="none" vector-effect="none" points="286,837.333 1994,837.333 " />
<polyline fill="none" vector-effect="none" points="286,732 1994,732 " />
<polyline fill="none" vector-effect="none" points="286,626.667 1994,626.667 " />
<polyline fill="none" vector-effect="none" points="286,521.333 1994,521.333 " />
<polyline fill="none" vector-effect="none" points="286,416 1994,416 " />
<polyline fill="none" vector-effect="none" points="286,310.667 1994,310.667 " />
<polyline fill="none" vector-effect="none" points="286,205.333 1994,205.333 " />
<polyline fill="none" vector-effect="none" points="286,100 1994,100 " />
</g>

<g fill="#212121" fill-opacity="1" stroke="#212121" stroke-opacity="1" stroke-width="1" stroke-linecap="square" stroke-linejoin="bevel" transform="matrix(0.505514,0,0,0.503154,392.009,621.722)"
font-family="Arial" font-size="44" font-weight="400" font-style="normal" 
>
<text fill="#212121" fill-opacity="1" stroke="none" xml:space="preserve" x="0" y="-0.171875" font-family="Arial" font-size="44" font-weight="400" font-style="normal" 
 >Innate immune cell type</text>
</g>

<g fill="#212121" fill-opacity="1" stroke="#212121" stroke-opacity="1" stroke-width="1" stroke-linecap="square" stroke-linejoin="round" transform="matrix(0.505514,0,0,0.503154,-66.7444,-41.2681)"
font-family="Arial" font-size="44" font-weight="400" font-style="normal" 
>
<polyline fill="none" vector-effect="none" points="286,1048 1994,1048 " />
<polyline fill="none" vector-effect="none" points="286,100 1994,100 " />
<polyline fill="none" vector-effect="none" points="522.651,1048 522.651,1030.92 " />
<polyline fill="none" vector-effect="none" points="522.651,117.08 522.651,100 " />
<polyline fill="none" vector-effect="none" points="728.434,1048 728.434,1030.92 " />
<polyline fill="none" vector-effect="none" points="728.434,117.08 728.434,100 " />
<polyline fill="none" vector-effect="none" points="934.217,1048 934.217,1030.92 " />
<polyline fill="none" vector-effect="none" points="934.217,117.08 934.217,100 " />
<polyline fill="none" vector-effect="none" points="1140,1048 1140,1030.92 " />
<polyline fill="none" vector-effect="none" points="1140,117.08 1140,100 " />
<polyline fill="none" vector-effect="none" points="1345.78,1048 1345.78,1030.92 " />
<polyline fill="none" vector-effect="none" points="1345.78,117.08 1345.78,100 " />
<polyline fill="none" vector-effect="none" points="1551.57,1048 1551.57,1030.92 " />
<polyline fill="none" vector-effect="none" points="1551.57,117.08 1551.57,100 " />
<polyline fill="none" vector-effect="none" points="1757.35,1048 1757.35,1030.92 " />
<polyline fill="none" vector-effect="none" points="1757.35,117.08 1757.35,100 " />
</g>

<g fill="#212121" fill-opacity="1" stroke="#212121" stroke-opacity="1" stroke-width="1" stroke-linecap="square" stroke-linejoin="bevel" transform="matrix(0.357452,-0.355784,0.357452,0.355784,182.45,532.634)"
font-family="Arial" font-size="40" font-weight="400" font-style="normal" 
>
<text fill="#212121" fill-opacity="1" stroke="none" xml:space="preserve" x="0" y="0.203125" font-family="Arial" font-size="40" font-weight="400" font-style="normal" 
 >DCs</text>
</g>

<g fill="#212121" fill-opacity="1" stroke="#212121" stroke-opacity="1" stroke-width="1" stroke-linecap="square" stroke-linejoin="bevel" transform="matrix(0.357452,-0.355784,0.357452,0.355784,268.917,559.498)"
font-family="Arial" font-size="40" font-weight="400" font-style="normal" 
>
<text fill="#212121" fill-opacity="1" stroke="none" xml:space="preserve" x="0" y="0.203125" font-family="Arial" font-size="40" font-weight="400" font-style="normal" 
 >CD11b</text>
</g>

<g fill="#212121" fill-opacity="1" stroke="#212121" stroke-opacity="1" stroke-width="1" stroke-linecap="square" stroke-linejoin="bevel" transform="matrix(0.357452,-0.355784,0.357452,0.355784,304.808,509.182)"
font-family="Arial" font-size="32" font-weight="400" font-style="normal" 
>
<text fill="#212121" fill-opacity="1" stroke="none" xml:space="preserve" x="0" y="-0.03125" font-family="Arial" font-size="32" font-weight="400" font-style="normal" 
 >+</text>
</g>

<g fill="#212121" fill-opacity="1" stroke="#212121" stroke-opacity="1" stroke-width="1" stroke-linecap="square" stroke-linejoin="bevel" transform="matrix(0.357452,-0.355784,0.357452,0.355784,325.088,597.743)"
font-family="Arial" font-size="40" font-weight="400" font-style="normal" 
>
<text fill="#212121" fill-opacity="1" stroke="none" xml:space="preserve" x="0" y="0.203125" font-family="Arial" font-size="40" font-weight="400" font-style="normal" 
 >Lymphoid DCs</text>
</g>

<g fill="#212121" fill-opacity="1" stroke="#212121" stroke-opacity="1" stroke-width="1" stroke-linecap="square" stroke-linejoin="bevel" transform="matrix(0.357452,-0.355784,0.357452,0.355784,435.906,590.983)"
font-family="Arial" font-size="40" font-weight="400" font-style="normal" 
>
<text fill="#212121" fill-opacity="1" stroke="none" xml:space="preserve" x="0" y="0.203125" font-family="Arial" font-size="40" font-weight="400" font-style="normal" 
 >Macrophages</text>
</g>

<g fill="#212121" fill-opacity="1" stroke="#212121" stroke-opacity="1" stroke-width="1" stroke-linecap="square" stroke-linejoin="bevel" transform="matrix(0.357452,-0.355784,0.357452,0.355784,557.447,573.55)"
font-family="Arial" font-size="40" font-weight="400" font-style="normal" 
>
<text fill="#212121" fill-opacity="1" stroke="none" xml:space="preserve" x="0" y="0.203125" font-family="Arial" font-size="40" font-weight="400" font-style="normal" 
 >Monocytes</text>
</g>

<g fill="#212121" fill-opacity="1" stroke="#212121" stroke-opacity="1" stroke-width="1" stroke-linecap="square" stroke-linejoin="bevel" transform="matrix(0.357452,-0.355784,0.357452,0.355784,649.32,585.646)"
font-family="Arial" font-size="40" font-weight="400" font-style="normal" 
>
<text fill="#212121" fill-opacity="1" stroke="none" xml:space="preserve" x="0" y="0.203125" font-family="Arial" font-size="40" font-weight="400" font-style="normal" 
 >Myeloid DCs</text>
</g>

<g fill="#212121" fill-opacity="1" stroke="#212121" stroke-opacity="1" stroke-width="1" stroke-linecap="square" stroke-linejoin="bevel" transform="matrix(0.357452,-0.355784,0.357452,0.355784,762.283,576.752)"
font-family="Arial" font-size="40" font-weight="400" font-style="normal" 
>
<text fill="#212121" fill-opacity="1" stroke="none" xml:space="preserve" x="0" y="0.203125" font-family="Arial" font-size="40" font-weight="400" font-style="normal" 
 >Neutrophils</text>
</g>

<g fill="#212121" fill-opacity="1" stroke="#212121" stroke-opacity="1" stroke-width="1" stroke-linecap="square" stroke-linejoin="bevel" transform="matrix(0,-0.503154,0.505514,0,17.6764,355.72)"
font-family="Arial" font-size="44" font-weight="400" font-style="normal" 
>
<text fill="#212121" fill-opacity="1" stroke="none" xml:space="preserve" x="0" y="-0.171875" font-family="Arial" font-size="44" font-weight="400" font-style="normal" 
 >Fraction of gated cells</text>
</g>

<g fill="#212121" fill-opacity="1" stroke="#212121" stroke-opacity="1" stroke-width="1" stroke-linecap="square" stroke-linejoin="round" transform="matrix(0.505514,0,0,0.503154,-66.7444,-41.2681)"
font-family="Arial" font-size="44" font-weight="400" font-style="normal" 
>
<polyline fill="none" vector-effect="none" points="286,1048 286,100 " />
<polyline fill="none" vector-effect="none" points="1994,1048 1994,100 " />
<polyline fill="none" vector-effect="none" points="286,1048 303.08,1048 " />
<polyline fill="none" vector-effect="none" points="1976.92,1048 1994,1048 " />
<polyline fill="none" vector-effect="none" points="286,942.667 303.08,942.667 " />
<polyline fill="none" vector-effect="none" points="1976.92,942.667 1994,942.667 " />
<polyline fill="none" vector-effect="none" points="286,837.333 303.08,837.333 " />
<polyline fill="none" vector-effect="none" points="1976.92,837.333 1994,837.333 " />
<polyline fill="none" vector-effect="none" points="286,732 303.08,732 " />
<polyline fill="none" vector-effect="none" points="1976.92,732 1994,732 " />
<polyline fill="none" vector-effect="none" points="286,626.667 303.08,626.667 " />
<polyline fill="none" vector-effect="none" points="1976.92,626.667 1994,626.667 " />
<polyline fill="none" vector-effect="none" points="286,521.333 303.08,521.333 " />
<polyline fill="none" vector-effect="none" points="1976.92,521.333 1994,521.333 " />
<polyline fill="none" vector-effect="none" points="286,416 303.08,416 " />
<polyline fill="none" vector-effect="none" points="1976.92,416 1994,416 " />
<polyline fill="none" vector-effect="none" points="286,310.667 303.08,310.667 " />
<polyline fill="none" vector-effect="none" points="1976.92,310.667 1994,310.667 " />
<polyline fill="none" vector-effect="none" points="286,205.333 303.08,205.333 " />
<polyline fill="none" vector-effect="none" points="1976.92,205.333 1994,205.333 " />
<polyline fill="none" vector-effect="none" points="286,100 303.08,100 " />
<polyline fill="none" vector-effect="none" points="1976.92,100 1994,100 " />
</g>

<g fill="#212121" fill-opacity="1" stroke="#212121" stroke-opacity="1" stroke-width="1" stroke-linecap="square" stroke-linejoin="bevel" transform="matrix(0.505514,0,0,0.503154,25.7647,493.081)"
font-family="Arial" font-size="40" font-weight="400" font-style="normal" 
>
<text fill="#212121" fill-opacity="1" stroke="none" xml:space="preserve" x="0" y="0.203125" font-family="Arial" font-size="40" font-weight="400" font-style="normal" 
 >-0.05</text>
</g>

<g fill="#212121" fill-opacity="1" stroke="#212121" stroke-opacity="1" stroke-width="1" stroke-linecap="square" stroke-linejoin="bevel" transform="matrix(0.505514,0,0,0.503154,60.6451,440.083)"
font-family="Arial" font-size="40" font-weight="400" font-style="normal" 
>
<text fill="#212121" fill-opacity="1" stroke="none" xml:space="preserve" x="0" y="0.203125" font-family="Arial" font-size="40" font-weight="400" font-style="normal" 
 >0</text>
</g>

<g fill="#212121" fill-opacity="1" stroke="#212121" stroke-opacity="1" stroke-width="1" stroke-linecap="square" stroke-linejoin="bevel" transform="matrix(0.505514,0,0,0.503154,32.3363,387.084)"
font-family="Arial" font-size="40" font-weight="400" font-style="normal" 
>
<text fill="#212121" fill-opacity="1" stroke="none" xml:space="preserve" x="0" y="0.203125" font-family="Arial" font-size="40" font-weight="400" font-style="normal" 
 >0.05</text>
</g>

<g fill="#212121" fill-opacity="1" stroke="#212121" stroke-opacity="1" stroke-width="1" stroke-linecap="square" stroke-linejoin="bevel" transform="matrix(0.505514,0,0,0.503154,43.4576,334.085)"
font-family="Arial" font-size="40" font-weight="400" font-style="normal" 
>
<text fill="#212121" fill-opacity="1" stroke="none" xml:space="preserve" x="0" y="0.203125" font-family="Arial" font-size="40" font-weight="400" font-style="normal" 
 >0.1</text>
</g>

<g fill="#212121" fill-opacity="1" stroke="#212121" stroke-opacity="1" stroke-width="1" stroke-linecap="square" stroke-linejoin="bevel" transform="matrix(0.505514,0,0,0.503154,32.3363,281.086)"
font-family="Arial" font-size="40" font-weight="400" font-style="normal" 
>
<text fill="#212121" fill-opacity="1" stroke="none" xml:space="preserve" x="0" y="0.203125" font-family="Arial" font-size="40" font-weight="400" font-style="normal" 
 >0.15</text>
</g>

<g fill="#212121" fill-opacity="1" stroke="#212121" stroke-opacity="1" stroke-width="1" stroke-linecap="square" stroke-linejoin="bevel" transform="matrix(0.505514,0,0,0.503154,43.4576,228.087)"
font-family="Arial" font-size="40" font-weight="400" font-style="normal" 
>
<text fill="#212121" fill-opacity="1" stroke="none" xml:space="preserve" x="0" y="0.203125" font-family="Arial" font-size="40" font-weight="400" font-style="normal" 
 >0.2</text>
</g>

<g fill="#212121" fill-opacity="1" stroke="#212121" stroke-opacity="1" stroke-width="1" stroke-linecap="square" stroke-linejoin="bevel" transform="matrix(0.505514,0,0,0.503154,32.3363,175.088)"
font-family="Arial" font-size="40" font-weight="400" font-style="normal" 
>
<text fill="#212121" fill-opacity="1" stroke="none" xml:space="preserve" x="0" y="0.203125" font-family="Arial" font-size="40" font-weight="400" font-style="normal" 
 >0.25</text>
</g>

<g fill="#212121" fill-opacity="1" stroke="#212121" stroke-opacity="1" stroke-width="1" stroke-linecap="square" stroke-linejoin="bevel" transform="matrix(0.505514,0,0,0.503154,43.4576,122.089)"
font-family="Arial" font-size="40" font-weight="400" font-style="normal" 
>
<text fill="#212121" fill-opacity="1" stroke="none" xml:space="preserve" x="0" y="0.203125" font-family="Arial" font-size="40" font-weight="400" font-style="normal" 
 >0.3</text>
</g>

<g fill="#212121" fill-opacity="1" stroke="#212121" stroke-opacity="1" stroke-width="1" stroke-linecap="square" stroke-linejoin="bevel" transform="matrix(0.505514,0,0,0.503154,32.3363,69.0904)"
font-family="Arial" font-size="40" font-weight="400" font-style="normal" 
>
<text fill="#212121" fill-opacity="1" stroke="none" xml:space="preserve" x="0" y="0.203125" font-family="Arial" font-size="40" font-weight="400" font-style="normal" 
 >0.35</text>
</g>

<g fill="#212121" fill-opacity="1" stroke="#212121" stroke-opacity="1" stroke-width="1" stroke-linecap="square" stroke-linejoin="bevel" transform="matrix(0.505514,0,0,0.503154,43.4576,16.0915)"
font-family="Arial" font-size="40" font-weight="400" font-style="normal" 
>
<text fill="#212121" fill-opacity="1" stroke="none" xml:space="preserve" x="0" y="0.203125" font-family="Arial" font-size="40" font-weight="400" font-style="normal" 
 >0.4</text>
</g>

<g fill="#212121" fill-opacity="1" stroke="#212121" stroke-opacity="1" stroke-width="1" stroke-linecap="butt" stroke-linejoin="round" transform="matrix(0.505514,0,0,0.503154,-66.7444,-41.2681)"
font-family="Arial" font-size="40" font-weight="400" font-style="normal" 
>
<polyline fill="none" vector-effect="none" points="286,942.667 1994,942.667 " />
</g>

<g fill="#6699e6" fill-opacity="0.85098" stroke="none" transform="matrix(5.05514e-05,0,0,5.03154e-05,-66.7444,-41.2681)"
font-family="Arial" font-size="40" font-weight="400" font-style="normal" 
>
<path vector-effect="none" fill-rule="evenodd" d="M4.50627e+06,8.20245e+06 L4.50627e+06,9.42667e+06 L5.22651e+06,9.42667e+06 L5.22651e+06,8.20245e+06 L4.50627e+06,8.20245e+06"/>
</g>

<g fill="#6699e6" fill-opacity="0.85098" stroke="none" transform="matrix(5.05514e-05,0,0,5.03154e-05,-66.7444,-41.2681)"
font-family="Arial" font-size="40" font-weight="400" font-style="normal" 
>
<path vector-effect="none" fill-rule="evenodd" d="M6.5641e+06,5.32501e+06 L6.5641e+06,9.42667e+06 L7.28434e+06,9.42667e+06 L7.28434e+06,5.32501e+06 L6.5641e+06,5.32501e+06"/>
</g>

<g fill="#6699e6" fill-opacity="0.85098" stroke="none" transform="matrix(5.05514e-05,0,0,5.03154e-05,-66.7444,-41.2681)"
font-family="Arial" font-size="40" font-weight="400" font-style="normal" 
>
<path vector-effect="none" fill-rule="evenodd" d="M8.62193e+06,8.68481e+06 L8.62193e+06,9.42667e+06 L9.34217e+06,9.42667e+06 L9.34217e+06,8.68481e+06 L8.62193e+06,8.68481e+06"/>
</g>

<g fill="#6699e6" fill-opacity="0.85098" stroke="none" transform="matrix(5.05514e-05,0,0,5.03154e-05,-66.7444,-41.2681)"
font-family="Arial" font-size="40" font-weight="400" font-style="normal" 
>
<path vector-effect="none" fill-rule="evenodd" d="M1.06798e+07,5.55981e+06 L1.06798e+07,9.42667e+06 L1.14e+07,9.42667e+06 L1.14e+07,5.55981e+06 L1.06798e+07,5.55981e+06"/>
</g>

<g fill="#6699e6" fill-opacity="0.85098" stroke="none" transform="matrix(5.05514e-05,0,0,5.03154e-05,-66.7444,-41.2681)"
font-family="Arial" font-size="40" font-weight="400" font-style="normal" 
>
<path vector-effect="none" fill-rule="evenodd" d="M1.27376e+07,9.25868e+06 L1.27376e+07,9.42667e+06 L1.34578e+07,9.42667e+06 L1.34578e+07,9.25868e+06 L1.27376e+07,9.25868e+06"/>
</g>

<g fill="#6699e6" fill-opacity="0.85098" stroke="none" transform="matrix(5.05514e-05,0,0,5.03154e-05,-66.7444,-41.2681)"
font-family="Arial" font-size="40" font-weight="400" font-style="normal" 
>
<path vector-effect="none" fill-rule="evenodd" d="M1.47954e+07,8.98476e+06 L1.47954e+07,9.42667e+06 L1.55157e+07,9.42667e+06 L1.55157e+07,8.98476e+06 L1.47954e+07,8.98476e+06"/>
</g>

<g fill="#6699e6" fill-opacity="0.85098" stroke="none" transform="matrix(5.05514e-05,0,0,5.03154e-05,-66.7444,-41.2681)"
font-family="Arial" font-size="40" font-weight="400" font-style="normal" 
>
<path vector-effect="none" fill-rule="evenodd" d="M1.68533e+07,9.40418e+06 L1.68533e+07,9.42667e+06 L1.75735e+07,9.42667e+06 L1.75735e+07,9.40418e+06 L1.68533e+07,9.40418e+06"/>
</g>

<g fill="#e6804d" fill-opacity="0.85098" stroke="none" transform="matrix(5.05514e-05,0,0,5.03154e-05,-66.7444,-41.2681)"
font-family="Arial" font-size="40" font-weight="400" font-style="normal" 
>
<path vector-effect="none" fill-rule="evenodd" d="M5.22651e+06,8.46316e+06 L5.22651e+06,9.42667e+06 L5.94675e+06,9.42667e+06 L5.94675e+06,8.46316e+06 L5.22651e+06,8.46316e+06"/>
</g>

<g fill="#e6804d" fill-opacity="0.85098" stroke="none" transform="matrix(5.05514e-05,0,0,5.03154e-05,-66.7444,-41.2681)"
font-family="Arial" font-size="40" font-weight="400" font-style="normal" 
>
<path vector-effect="none" fill-rule="evenodd" d="M7.28434e+06,4.06496e+06 L7.28434e+06,9.42667e+06 L8.00458e+06,9.42667e+06 L8.00458e+06,4.06496e+06 L7.28434e+06,4.06496e+06"/>
</g>

<g fill="#e6804d" fill-opacity="0.85098" stroke="none" transform="matrix(5.05514e-05,0,0,5.03154e-05,-66.7444,-41.2681)"
font-family="Arial" font-size="40" font-weight="400" font-style="normal" 
>
<path vector-effect="none" fill-rule="evenodd" d="M9.34217e+06,8.9568e+06 L9.34217e+06,9.42667e+06 L1.00624e+07,9.42667e+06 L1.00624e+07,8.9568e+06 L9.34217e+06,8.9568e+06"/>
</g>

<g fill="#e6804d" fill-opacity="0.85098" stroke="none" transform="matrix(5.05514e-05,0,0,5.03154e-05,-66.7444,-41.2681)"
font-family="Arial" font-size="40" font-weight="400" font-style="normal" 
>
<path vector-effect="none" fill-rule="evenodd" d="M1.14e+07,4.40874e+06 L1.14e+07,9.42667e+06 L1.21202e+07,9.42667e+06 L1.21202e+07,4.40874e+06 L1.14e+07,4.40874e+06"/>
</g>

<g fill="#e6804d" fill-opacity="0.85098" stroke="none" transform="matrix(5.05514e-05,0,0,5.03154e-05,-66.7444,-41.2681)"
font-family="Arial" font-size="40" font-weight="400" font-style="normal" 
>
<path vector-effect="none" fill-rule="evenodd" d="M1.34578e+07,9.35195e+06 L1.34578e+07,9.42667e+06 L1.41781e+07,9.42667e+06 L1.41781e+07,9.35195e+06 L1.34578e+07,9.35195e+06"/>
</g>

<g fill="#e6804d" fill-opacity="0.85098" stroke="none" transform="matrix(5.05514e-05,0,0,5.03154e-05,-66.7444,-41.2681)"
font-family="Arial" font-size="40" font-weight="400" font-style="normal" 
>
<path vector-effect="none" fill-rule="evenodd" d="M1.55157e+07,8.96685e+06 L1.55157e+07,9.42667e+06 L1.62359e+07,9.42667e+06 L1.62359e+07,8.96685e+06 L1.55157e+07,8.96685e+06"/>
</g>

<g fill="#e6804d" fill-opacity="0.85098" stroke="none" transform="matrix(5.05514e-05,0,0,5.03154e-05,-66.7444,-41.2681)"
font-family="Arial" font-size="40" font-weight="400" font-style="normal" 
>
<path vector-effect="none" fill-rule="evenodd" d="M1.75735e+07,9.26386e+06 L1.75735e+07,9.42667e+06 L1.82937e+07,9.42667e+06 L1.82937e+07,9.26386e+06 L1.75735e+07,9.26386e+06"/>
</g>

<g fill="#000000" fill-opacity="1" stroke="#000000" stroke-opacity="1" stroke-width="3" stroke-linecap="butt" stroke-linejoin="round" transform="matrix(0.505514,0,0,0.503154,-66.7444,-41.2681)"
font-family="Arial" font-size="40" font-weight="400" font-style="normal" 
>
<polyline fill="none" vector-effect="none" points="486.639,820.245 486.639,832.645 " />
<polyline fill="none" vector-effect="none" points="692.422,532.501 692.422,582.802 " />
<polyline fill="none" vector-effect="none" points="898.205,868.481 898.205,882.359 " />
<polyline fill="none" vector-effect="none" points="1103.99,555.981 1103.99,614.257 " />
<polyline fill="none" vector-effect="none" points="1309.77,925.868 1309.77,933.517 " />
<polyline fill="none" vector-effect="none" points="1515.55,898.475 1515.55,909.161 " />
<polyline fill="none" vector-effect="none" points="1721.34,940.418 1721.34,940.846 " />
<polyline fill="none" vector-effect="none" points="486.639,820.245 486.639,807.845 " />
<polyline fill="none" vector-effect="none" points="692.422,532.501 692.422,482.201 " />
<polyline fill="none" vector-effect="none" points="898.205,868.481 898.205,854.602 " />
<polyline fill="none" vector-effect="none" points="1103.99,555.981 1103.99,497.705 " />
<polyline fill="none" vector-effect="none" points="1309.77,925.868 1309.77,918.219 " />
<polyline fill="none" vector-effect="none" points="1515.55,898.475 1515.55,887.79 " />
<polyline fill="none" vector-effect="none" points="1721.34,940.418 1721.34,939.99 " />
</g>

<g fill="#000000" fill-opacity="1" stroke="none" transform="matrix(0.505514,0,0,0.503154,-66.7444,-41.2681)"
font-family="Arial" font-size="40" font-weight="400" font-style="normal" 
>
<circle cx="486.639" cy="820.245" r="2"/>
</g>

<g fill="none" stroke="#000000" stroke-opacity="1" stroke-width="3" stroke-linecap="butt" stroke-linejoin="miter" stroke-miterlimit="2" transform="matrix(0.505514,0,0,0.503154,-66.7444,-41.2681)"
font-family="Arial" font-size="40" font-weight="400" font-style="normal" 
>
<path vector-effect="none" fill-rule="evenodd" d="M488.639,820.245 C488.639,819.141 487.743,818.245 486.639,818.245 C485.534,818.245 484.639,819.141 484.639,820.245 C484.639,821.35 485.534,822.245 486.639,822.245 C487.743,822.245 488.639,821.35 488.639,820.245 "/>
</g>

<g fill="#000000" fill-opacity="1" stroke="none" transform="matrix(0.505514,0,0,0.503154,-66.7444,-41.2681)"
font-family="Arial" font-size="40" font-weight="400" font-style="normal" 
>
<circle cx="692.422" cy="532.501" r="2"/>
</g>

<g fill="none" stroke="#000000" stroke-opacity="1" stroke-width="3" stroke-linecap="butt" stroke-linejoin="miter" stroke-miterlimit="2" transform="matrix(0.505514,0,0,0.503154,-66.7444,-41.2681)"
font-family="Arial" font-size="40" font-weight="400" font-style="normal" 
>
<path vector-effect="none" fill-rule="evenodd" d="M694.422,532.501 C694.422,531.397 693.526,530.501 692.422,530.501 C691.317,530.501 690.422,531.397 690.422,532.501 C690.422,533.606 691.317,534.501 692.422,534.501 C693.526,534.501 694.422,533.606 694.422,532.501 "/>
</g>

<g fill="#000000" fill-opacity="1" stroke="none" transform="matrix(0.505514,0,0,0.503154,-66.7444,-41.2681)"
font-family="Arial" font-size="40" font-weight="400" font-style="normal" 
>
<circle cx="898.205" cy="868.481" r="2"/>
</g>

<g fill="none" stroke="#000000" stroke-opacity="1" stroke-width="3" stroke-linecap="butt" stroke-linejoin="miter" stroke-miterlimit="2" transform="matrix(0.505514,0,0,0.503154,-66.7444,-41.2681)"
font-family="Arial" font-size="40" font-weight="400" font-style="normal" 
>
<path vector-effect="none" fill-rule="evenodd" d="M900.205,868.481 C900.205,867.376 899.309,866.481 898.205,866.481 C897.1,866.481 896.205,867.376 896.205,868.481 C896.205,869.586 897.1,870.481 898.205,870.481 C899.309,870.481 900.205,869.586 900.205,868.481 "/>
</g>

<g fill="#000000" fill-opacity="1" stroke="none" transform="matrix(0.505514,0,0,0.503154,-66.7444,-41.2681)"
font-family="Arial" font-size="40" font-weight="400" font-style="normal" 
>
<circle cx="1103.99" cy="555.981" r="2"/>
</g>

<g fill="none" stroke="#000000" stroke-opacity="1" stroke-width="3" stroke-linecap="butt" stroke-linejoin="miter" stroke-miterlimit="2" transform="matrix(0.505514,0,0,0.503154,-66.7444,-41.2681)"
font-family="Arial" font-size="40" font-weight="400" font-style="normal" 
>
<path vector-effect="none" fill-rule="evenodd" d="M1105.99,555.981 C1105.99,554.877 1105.09,553.981 1103.99,553.981 C1102.88,553.981 1101.99,554.877 1101.99,555.981 C1101.99,557.086 1102.88,557.981 1103.99,557.981 C1105.09,557.981 1105.99,557.086 1105.99,555.981 "/>
</g>

<g fill="#000000" fill-opacity="1" stroke="none" transform="matrix(0.505514,0,0,0.503154,-66.7444,-41.2681)"
font-family="Arial" font-size="40" font-weight="400" font-style="normal" 
>
<circle cx="1309.77" cy="925.868" r="2"/>
</g>

<g fill="none" stroke="#000000" stroke-opacity="1" stroke-width="3" stroke-linecap="butt" stroke-linejoin="miter" stroke-miterlimit="2" transform="matrix(0.505514,0,0,0.503154,-66.7444,-41.2681)"
font-family="Arial" font-size="40" font-weight="400" font-style="normal" 
>
<path vector-effect="none" fill-rule="evenodd" d="M1311.77,925.868 C1311.77,924.764 1310.88,923.868 1309.77,923.868 C1308.67,923.868 1307.77,924.764 1307.77,925.868 C1307.77,926.973 1308.67,927.868 1309.77,927.868 C1310.88,927.868 1311.77,926.973 1311.77,925.868 "/>
</g>

<g fill="#000000" fill-opacity="1" stroke="none" transform="matrix(0.505514,0,0,0.503154,-66.7444,-41.2681)"
font-family="Arial" font-size="40" font-weight="400" font-style="normal" 
>
<circle cx="1515.55" cy="898.475" r="2"/>
</g>

<g fill="none" stroke="#000000" stroke-opacity="1" stroke-width="3" stroke-linecap="butt" stroke-linejoin="miter" stroke-miterlimit="2" transform="matrix(0.505514,0,0,0.503154,-66.7444,-41.2681)"
font-family="Arial" font-size="40" font-weight="400" font-style="normal" 
>
<path vector-effect="none" fill-rule="evenodd" d="M1517.55,898.475 C1517.55,897.371 1516.66,896.475 1515.55,896.475 C1514.45,896.475 1513.55,897.371 1513.55,898.475 C1513.55,899.58 1514.45,900.475 1515.55,900.475 C1516.66,900.475 1517.55,899.58 1517.55,898.475 "/>
</g>

<g fill="#000000" fill-opacity="1" stroke="none" transform="matrix(0.505514,0,0,0.503154,-66.7444,-41.2681)"
font-family="Arial" font-size="40" font-weight="400" font-style="normal" 
>
<circle cx="1721.34" cy="940.418" r="2"/>
</g>

<g fill="none" stroke="#000000" stroke-opacity="1" stroke-width="3" stroke-linecap="butt" stroke-linejoin="miter" stroke-miterlimit="2" transform="matrix(0.505514,0,0,0.503154,-66.7444,-41.2681)"
font-family="Arial" font-size="40" font-weight="400" font-style="normal" 
>
<path vector-effect="none" fill-rule="evenodd" d="M1723.34,940.418 C1723.34,939.313 1722.44,938.418 1721.34,938.418 C1720.23,938.418 1719.34,939.313 1719.34,940.418 C1719.34,941.522 1720.23,942.418 1721.34,942.418 C1722.44,942.418 1723.34,941.522 1723.34,940.418 "/>
</g>

<g fill="#000000" fill-opacity="1" stroke="#000000" stroke-opacity="1" stroke-width="3" stroke-linecap="butt" stroke-linejoin="miter" stroke-miterlimit="2" transform="matrix(0.505514,0,0,0.503154,-66.7444,-41.2681)"
font-family="Arial" font-size="40" font-weight="400" font-style="normal" 
>
<polyline fill="none" vector-effect="none" points="481.639,832.645 491.639,832.645 " />
<polyline fill="none" vector-effect="none" points="687.422,582.802 697.422,582.802 " />
<polyline fill="none" vector-effect="none" points="893.205,882.359 903.205,882.359 " />
<polyline fill="none" vector-effect="none" points="1098.99,614.257 1108.99,614.257 " />
<polyline fill="none" vector-effect="none" points="1304.77,933.517 1314.77,933.517 " />
<polyline fill="none" vector-effect="none" points="1510.55,909.161 1520.55,909.161 " />
<polyline fill="none" vector-effect="none" points="1716.34,940.846 1726.34,940.846 " />
<polyline fill="none" vector-effect="none" points="481.639,807.845 491.639,807.845 " />
<polyline fill="none" vector-effect="none" points="687.422,482.201 697.422,482.201 " />
<polyline fill="none" vector-effect="none" points="893.205,854.602 903.205,854.602 " />
<polyline fill="none" vector-effect="none" points="1098.99,497.705 1108.99,497.705 " />
<polyline fill="none" vector-effect="none" points="1304.77,918.219 1314.77,918.219 " />
<polyline fill="none" vector-effect="none" points="1510.55,887.79 1520.55,887.79 " />
<polyline fill="none" vector-effect="none" points="1716.34,939.99 1726.34,939.99 " />
</g>

<g fill="#000000" fill-opacity="0.6" stroke="none" transform="matrix(0.505514,0,0,0.503154,-66.7444,-41.2681)"
font-family="Arial" font-size="40" font-weight="400" font-style="normal" 
>
<circle cx="486.639" cy="827.708" r="6.32456"/>
<circle cx="486.639" cy="827.096" r="6.32456"/>
<circle cx="486.639" cy="805.931" r="6.32456"/>
<circle cx="692.422" cy="574.663" r="6.32456"/>
<circle cx="692.422" cy="546.017" r="6.32456"/>
<circle cx="692.422" cy="476.824" r="6.32456"/>
<circle cx="898.205" cy="884.167" r="6.32456"/>
<circle cx="898.205" cy="863.479" r="6.32456"/>
<circle cx="898.205" cy="857.796" r="6.32456"/>
<circle cx="1103.99" cy="600.512" r="6.32456"/>
<circle cx="1103.99" cy="577.406" r="6.32456"/>
<circle cx="1103.99" cy="490.026" r="6.32456"/>
<circle cx="1309.77" cy="924.3" r="6.32456"/>
<circle cx="1309.77" cy="919.124" r="6.32456"/>
<circle cx="1309.77" cy="934.18" r="6.32456"/>
<circle cx="1515.55" cy="890.289" r="6.32456"/>
<circle cx="1515.55" cy="910.564" r="6.32456"/>
<circle cx="1515.55" cy="894.574" r="6.32456"/>
<circle cx="1721.34" cy="939.946" r="6.32456"/>
<circle cx="1721.34" cy="940.526" r="6.32456"/>
<circle cx="1721.34" cy="940.781" r="6.32456"/>
</g>

<g fill="#000000" fill-opacity="1" stroke="#000000" stroke-opacity="1" stroke-width="3" stroke-linecap="butt" stroke-linejoin="round" transform="matrix(0.505514,0,0,0.503154,-66.7444,-41.2681)"
font-family="Arial" font-size="40" font-weight="400" font-style="normal" 
>
<polyline fill="none" vector-effect="none" points="558.663,846.316 558.663,853.747 " />
<polyline fill="none" vector-effect="none" points="764.446,406.496 764.446,582.133 " />
<polyline fill="none" vector-effect="none" points="970.229,895.68 970.229,900.835 " />
<polyline fill="none" vector-effect="none" points="1176.01,440.874 1176.01,588.807 " />
<polyline fill="none" vector-effect="none" points="1381.8,935.195 1381.8,938.354 " />
<polyline fill="none" vector-effect="none" points="1587.58,896.685 1587.58,907.721 " />
<polyline fill="none" vector-effect="none" points="1793.36,926.386 1793.36,948.261 " />
<polyline fill="none" vector-effect="none" points="558.663,846.316 558.663,838.884 " />
<polyline fill="none" vector-effect="none" points="764.446,406.496 764.446,230.858 " />
<polyline fill="none" vector-effect="none" points="970.229,895.68 970.229,890.525 " />
<polyline fill="none" vector-effect="none" points="1176.01,440.874 1176.01,292.941 " />
<polyline fill="none" vector-effect="none" points="1381.8,935.195 1381.8,932.036 " />
<polyline fill="none" vector-effect="none" points="1587.58,896.685 1587.58,885.649 " />
<polyline fill="none" vector-effect="none" points="1793.36,926.386 1793.36,904.511 " />
</g>

<g fill="#000000" fill-opacity="1" stroke="none" transform="matrix(0.505514,0,0,0.503154,-66.7444,-41.2681)"
font-family="Arial" font-size="40" font-weight="400" font-style="normal" 
>
<circle cx="558.663" cy="846.316" r="2"/>
</g>

<g fill="none" stroke="#000000" stroke-opacity="1" stroke-width="3" stroke-linecap="butt" stroke-linejoin="miter" stroke-miterlimit="2" transform="matrix(0.505514,0,0,0.503154,-66.7444,-41.2681)"
font-family="Arial" font-size="40" font-weight="400" font-style="normal" 
>
<path vector-effect="none" fill-rule="evenodd" d="M560.663,846.316 C560.663,845.211 559.767,844.316 558.663,844.316 C557.558,844.316 556.663,845.211 556.663,846.316 C556.663,847.42 557.558,848.316 558.663,848.316 C559.767,848.316 560.663,847.42 560.663,846.316 "/>
</g>

<g fill="#000000" fill-opacity="1" stroke="none" transform="matrix(0.505514,0,0,0.503154,-66.7444,-41.2681)"
font-family="Arial" font-size="40" font-weight="400" font-style="normal" 
>
<circle cx="764.446" cy="406.496" r="2"/>
</g>

<g fill="none" stroke="#000000" stroke-opacity="1" stroke-width="3" stroke-linecap="butt" stroke-linejoin="miter" stroke-miterlimit="2" transform="matrix(0.505514,0,0,0.503154,-66.7444,-41.2681)"
font-family="Arial" font-size="40" font-weight="400" font-style="normal" 
>
<path vector-effect="none" fill-rule="evenodd" d="M766.446,406.496 C766.446,405.391 765.55,404.496 764.446,404.496 C763.341,404.496 762.446,405.391 762.446,406.496 C762.446,407.6 763.341,408.496 764.446,408.496 C765.55,408.496 766.446,407.6 766.446,406.496 "/>
</g>

<g fill="#000000" fill-opacity="1" stroke="none" transform="matrix(0.505514,0,0,0.503154,-66.7444,-41.2681)"
font-family="Arial" font-size="40" font-weight="400" font-style="normal" 
>
<circle cx="970.229" cy="895.68" r="2"/>
</g>

<g fill="none" stroke="#000000" stroke-opacity="1" stroke-width="3" stroke-linecap="butt" stroke-linejoin="miter" stroke-miterlimit="2" transform="matrix(0.505514,0,0,0.503154,-66.7444,-41.2681)"
font-family="Arial" font-size="40" font-weight="400" font-style="normal" 
>
<path vector-effect="none" fill-rule="evenodd" d="M972.229,895.68 C972.229,894.575 971.333,893.68 970.229,893.68 C969.124,893.68 968.229,894.575 968.229,895.68 C968.229,896.785 969.124,897.68 970.229,897.68 C971.333,897.68 972.229,896.785 972.229,895.68 "/>
</g>

<g fill="#000000" fill-opacity="1" stroke="none" transform="matrix(0.505514,0,0,0.503154,-66.7444,-41.2681)"
font-family="Arial" font-size="40" font-weight="400" font-style="normal" 
>
<circle cx="1176.01" cy="440.874" r="2"/>
</g>

<g fill="none" stroke="#000000" stroke-opacity="1" stroke-width="3" stroke-linecap="butt" stroke-linejoin="miter" stroke-miterlimit="2" transform="matrix(0.505514,0,0,0.503154,-66.7444,-41.2681)"
font-family="Arial" font-size="40" font-weight="400" font-style="normal" 
>
<path vector-effect="none" fill-rule="evenodd" d="M1178.01,440.874 C1178.01,439.77 1177.12,438.874 1176.01,438.874 C1174.91,438.874 1174.01,439.77 1174.01,440.874 C1174.01,441.979 1174.91,442.874 1176.01,442.874 C1177.12,442.874 1178.01,441.979 1178.01,440.874 "/>
</g>

<g fill="#000000" fill-opacity="1" stroke="none" transform="matrix(0.505514,0,0,0.503154,-66.7444,-41.2681)"
font-family="Arial" font-size="40" font-weight="400" font-style="normal" 
>
<circle cx="1381.8" cy="935.195" r="2"/>
</g>

<g fill="none" stroke="#000000" stroke-opacity="1" stroke-width="3" stroke-linecap="butt" stroke-linejoin="miter" stroke-miterlimit="2" transform="matrix(0.505514,0,0,0.503154,-66.7444,-41.2681)"
font-family="Arial" font-size="40" font-weight="400" font-style="normal" 
>
<path vector-effect="none" fill-rule="evenodd" d="M1383.8,935.195 C1383.8,934.09 1382.9,933.195 1381.8,933.195 C1380.69,933.195 1379.8,934.09 1379.8,935.195 C1379.8,936.3 1380.69,937.195 1381.8,937.195 C1382.9,937.195 1383.8,936.3 1383.8,935.195 "/>
</g>

<g fill="#000000" fill-opacity="1" stroke="none" transform="matrix(0.505514,0,0,0.503154,-66.7444,-41.2681)"
font-family="Arial" font-size="40" font-weight="400" font-style="normal" 
>
<circle cx="1587.58" cy="896.685" r="2"/>
</g>

<g fill="none" stroke="#000000" stroke-opacity="1" stroke-width="3" stroke-linecap="butt" stroke-linejoin="miter" stroke-miterlimit="2" transform="matrix(0.505514,0,0,0.503154,-66.7444,-41.2681)"
font-family="Arial" font-size="40" font-weight="400" font-style="normal" 
>
<path vector-effect="none" fill-rule="evenodd" d="M1589.58,896.685 C1589.58,895.58 1588.68,894.685 1587.58,894.685 C1586.47,894.685 1585.58,895.58 1585.58,896.685 C1585.58,897.79 1586.47,898.685 1587.58,898.685 C1588.68,898.685 1589.58,897.79 1589.58,896.685 "/>
</g>

<g fill="#000000" fill-opacity="1" stroke="none" transform="matrix(0.505514,0,0,0.503154,-66.7444,-41.2681)"
font-family="Arial" font-size="40" font-weight="400" font-style="normal" 
>
<circle cx="1793.36" cy="926.386" r="2"/>
</g>

<g fill="none" stroke="#000000" stroke-opacity="1" stroke-width="3" stroke-linecap="butt" stroke-linejoin="miter" stroke-miterlimit="2" transform="matrix(0.505514,0,0,0.503154,-66.7444,-41.2681)"
font-family="Arial" font-size="40" font-weight="400" font-style="normal" 
>
<path vector-effect="none" fill-rule="evenodd" d="M1795.36,926.386 C1795.36,925.281 1794.47,924.386 1793.36,924.386 C1792.26,924.386 1791.36,925.281 1791.36,926.386 C1791.36,927.49 1792.26,928.386 1793.36,928.386 C1794.47,928.386 1795.36,927.49 1795.36,926.386 "/>
</g>

<g fill="#000000" fill-opacity="1" stroke="#000000" stroke-opacity="1" stroke-width="3" stroke-linecap="butt" stroke-linejoin="miter" stroke-miterlimit="2" transform="matrix(0.505514,0,0,0.503154,-66.7444,-41.2681)"
font-family="Arial" font-size="40" font-weight="400" font-style="normal" 
>
<polyline fill="none" vector-effect="none" points="553.663,853.747 563.663,853.747 " />
<polyline fill="none" vector-effect="none" points="759.446,582.133 769.446,582.133 " />
<polyline fill="none" vector-effect="none" points="965.229,900.835 975.229,900.835 " />
<polyline fill="none" vector-effect="none" points="1171.01,588.807 1181.01,588.807 " />
<polyline fill="none" vector-effect="none" points="1376.8,938.354 1386.8,938.354 " />
<polyline fill="none" vector-effect="none" points="1582.58,907.721 1592.58,907.721 " />
<polyline fill="none" vector-effect="none" points="1788.36,948.261 1798.36,948.261 " />
<polyline fill="none" vector-effect="none" points="553.663,838.884 563.663,838.884 " />
<polyline fill="none" vector-effect="none" points="759.446,230.858 769.446,230.858 " />
<polyline fill="none" vector-effect="none" points="965.229,890.525 975.229,890.525 " />
<polyline fill="none" vector-effect="none" points="1171.01,292.941 1181.01,292.941 " />
<polyline fill="none" vector-effect="none" points="1376.8,932.036 1386.8,932.036 " />
<polyline fill="none" vector-effect="none" points="1582.58,885.649 1592.58,885.649 " />
<polyline fill="none" vector-effect="none" points="1788.36,904.511 1798.36,904.511 " />
</g>

<g fill="#000000" fill-opacity="0.6" stroke="none" transform="matrix(0.505514,0,0,0.503154,-66.7444,-41.2681)"
font-family="Arial" font-size="40" font-weight="400" font-style="normal" 
>
<circle cx="558.663" cy="844.738" r="6.32456"/>
<circle cx="558.663" cy="854.409" r="6.32456"/>
<circle cx="558.663" cy="839.8" r="6.32456"/>
<circle cx="764.446" cy="516.716" r="6.32456"/>
<circle cx="764.446" cy="498.821" r="6.32456"/>
<circle cx="764.446" cy="203.95" r="6.32456"/>
<circle cx="970.229" cy="900.47" r="6.32456"/>
<circle cx="970.229" cy="890.224" r="6.32456"/>
<circle cx="970.229" cy="896.346" r="6.32456"/>
<circle cx="1176.01" cy="539.008" r="6.32456"/>
<circle cx="1176.01" cy="512.891" r="6.32456"/>
<circle cx="1176.01" cy="270.723" r="6.32456"/>
<circle cx="1381.8" cy="933.113" r="6.32456"/>
<circle cx="1381.8" cy="938.829" r="6.32456"/>
<circle cx="1381.8" cy="933.643" r="6.32456"/>
<circle cx="1587.58" cy="890.916" r="6.32456"/>
<circle cx="1587.58" cy="909.41" r="6.32456"/>
<circle cx="1587.58" cy="889.729" r="6.32456"/>
<circle cx="1793.36" cy="937.89" r="6.32456"/>
<circle cx="1793.36" cy="940.108" r="6.32456"/>
<circle cx="1793.36" cy="901.159" r="6.32456"/>
</g>

<g fill="#ffffff" fill-opacity="1" stroke="none" transform="matrix(5.05514e-05,0,0,5.03154e-05,-66.7444,-41.2681)"
font-family="Arial" font-size="40" font-weight="400" font-style="normal" 
>
<path vector-effect="none" fill-rule="evenodd" d="M1.622e+07,1.16e+06 L1.622e+07,2.05e+06 L1.978e+07,2.05e+06 L1.978e+07,1.16e+06 L1.622e+07,1.16e+06"/>
</g>

<g fill="#6699e6" fill-opacity="0.85098" stroke="none" transform="matrix(5.05514e-05,0,0,5.03154e-05,-66.7444,-41.2681)"
font-family="Arial" font-size="40" font-weight="400" font-style="normal" 
>
<path vector-effect="none" fill-rule="evenodd" d="M1.62801e+07,1.24148e+06 L1.62801e+07,1.54985e+06 L1.68809e+07,1.54985e+06 L1.68809e+07,1.24148e+06 L1.62801e+07,1.24148e+06"/>
</g>

<g fill="#e6804d" fill-opacity="0.85098" stroke="none" transform="matrix(5.05514e-05,0,0,5.03154e-05,-66.7444,-41.2681)"
font-family="Arial" font-size="40" font-weight="400" font-style="normal" 
>
<path vector-effect="none" fill-rule="evenodd" d="M1.62801e+07,1.66015e+06 L1.62801e+07,1.96852e+06 L1.68809e+07,1.96852e+06 L1.68809e+07,1.66015e+06 L1.62801e+07,1.66015e+06"/>
</g>

<g fill="#212121" fill-opacity="1" stroke="#212121" stroke-opacity="1" stroke-width="1" stroke-linecap="square" stroke-linejoin="bevel" transform="matrix(0.505514,0,0,0.503154,788.888,35.2446)"
font-family="Arial" font-size="36" font-weight="400" font-style="normal" 
>
<text fill="#212121" fill-opacity="1" stroke="none" xml:space="preserve" x="0" y="-0.421875" font-family="Arial" font-size="36" font-weight="400" font-style="normal" 
 >Uninfected (UI)</text>
</g>

<g fill="#212121" fill-opacity="1" stroke="#212121" stroke-opacity="1" stroke-width="1" stroke-linecap="square" stroke-linejoin="bevel" transform="matrix(0.505514,0,0,0.503154,788.888,56.3105)"
font-family="Arial" font-size="36" font-weight="400" font-style="normal" 
>
<text fill="#212121" fill-opacity="1" stroke="none" xml:space="preserve" x="0" y="-0.421875" font-family="Arial" font-size="36" font-weight="400" font-style="normal" 
 >ST1.75 colonized</text>
</g>

<g fill="none" stroke="#212121" stroke-opacity="1" stroke-width="1" stroke-linecap="butt" stroke-linejoin="miter" stroke-miterlimit="2" transform="matrix(0.505514,0,0,0.503154,-66.7444,-41.2681)"
font-family="Arial" font-size="36" font-weight="400" font-style="normal" 
>
<path vector-effect="none" fill-rule="evenodd" d="M1622,205 L1622,116 L1978,116 L1978,205 L1622,205"/>
</g>
</g>
</svg>
