<?xml version="1.0" encoding="UTF-8" standalone="no"?>
<svg width="262.467mm" height="180.269mm"
 viewBox="0 0 744 511"
 xmlns="http://www.w3.org/2000/svg" xmlns:xlink="http://www.w3.org/1999/xlink"  version="1.2" baseProfile="tiny">
<title>Qt SVG Document</title>
<desc>MATLAB, The MathWorks, Inc. Version 25.2.0.3042426 R2025b Update 1</desc>
<defs>
</defs>
<g fill="none" stroke="black" stroke-width="1" fill-rule="evenodd" stroke-linecap="square" stroke-linejoin="bevel" >

<g fill="#ffffff" fill-opacity="1" stroke="none" transform="matrix(0.524045,0,0,0.504973,-44.0919,-14.4067)"
font-family=".AppleSystemUIFont" font-size="13" font-weight="400" font-style="normal" 
>
<path vector-effect="none" fill-rule="evenodd" d="M83,28 L1504,28 L1504,1040 L83,1040 L83,28"/>
</g>

<g fill="#ffffff" fill-opacity="1" stroke="none" transform="matrix(5.24045e-05,0,0,5.04973e-05,-44.0919,-14.4067)"
font-family=".AppleSystemUIFont" font-size="13" font-weight="400" font-style="normal" 
>
<path vector-effect="none" fill-rule="evenodd" d="M2.14e+06,790000 L2.14e+06,9.33e+06 L1.491e+07,9.33e+06 L1.491e+07,790000 L2.14e+06,790000"/>
</g>

<g fill="#212121" fill-opacity="0.14902" stroke="#212121" stroke-opacity="0.14902" stroke-width="1" stroke-linecap="butt" stroke-linejoin="round" transform="matrix(0.524045,0,0,0.504973,-44.0919,-14.4067)"
font-family=".AppleSystemUIFont" font-size="13" font-weight="400" font-style="normal" 
>
<polyline fill="none" vector-effect="none" points="214,79 214,933 " />
<polyline fill="none" vector-effect="none" points="396.429,79 396.429,933 " />
<polyline fill="none" vector-effect="none" points="578.857,79 578.857,933 " />
<polyline fill="none" vector-effect="none" points="761.286,79 761.286,933 " />
<polyline fill="none" vector-effect="none" points="943.714,79 943.714,933 " />
<polyline fill="none" vector-effect="none" points="1126.14,79 1126.14,933 " />
<polyline fill="none" vector-effect="none" points="1308.57,79 1308.57,933 " />
<polyline fill="none" vector-effect="none" points="1491,79 1491,933 " />
<polyline fill="none" vector-effect="none" points="214,933 1491,933 " />
<polyline fill="none" vector-effect="none" points="214,838.111 1491,838.111 " />
<polyline fill="none" vector-effect="none" points="214,743.222 1491,743.222 " />
<polyline fill="none" vector-effect="none" points="214,648.333 1491,648.333 " />
<polyline fill="none" vector-effect="none" points="214,553.444 1491,553.444 " />
<polyline fill="none" vector-effect="none" points="214,458.556 1491,458.556 " />
<polyline fill="none" vector-effect="none" points="214,363.667 1491,363.667 " />
<polyline fill="none" vector-effect="none" points="214,268.778 1491,268.778 " />
<polyline fill="none" vector-effect="none" points="214,173.889 1491,173.889 " />
<polyline fill="none" vector-effect="none" points="214,79 1491,79 " />
</g>

<g fill="#212121" fill-opacity="1" stroke="#212121" stroke-opacity="1" stroke-width="1" stroke-linecap="square" stroke-linejoin="bevel" transform="matrix(0.524045,0,0,0.504973,248.325,504.2)"
font-family="Helvetica" font-size="44" font-weight="400" font-style="normal" 
>
<text fill="#212121" fill-opacity="1" stroke="none" xml:space="preserve" x="0" y="-0.125" font-family="Helvetica" font-size="44" font-weight="400" font-style="normal" 
 >Day post secondary challenge</text>
</g>

<g fill="#212121" fill-opacity="1" stroke="#212121" stroke-opacity="1" stroke-width="1" stroke-linecap="square" stroke-linejoin="round" transform="matrix(0.524045,0,0,0.504973,-44.0919,-14.4067)"
font-family="Helvetica" font-size="44" font-weight="400" font-style="normal" 
>
<polyline fill="none" vector-effect="none" points="214,933 1491,933 " />
<polyline fill="none" vector-effect="none" points="214,79 1491,79 " />
<polyline fill="none" vector-effect="none" points="214,933 214,920.23 " />
<polyline fill="none" vector-effect="none" points="214,91.77 214,79 " />
<polyline fill="none" vector-effect="none" points="396.429,933 396.429,920.23 " />
<polyline fill="none" vector-effect="none" points="396.429,91.77 396.429,79 " />
<polyline fill="none" vector-effect="none" points="578.857,933 578.857,920.23 " />
<polyline fill="none" vector-effect="none" points="578.857,91.77 578.857,79 " />
<polyline fill="none" vector-effect="none" points="761.286,933 761.286,920.23 " />
<polyline fill="none" vector-effect="none" points="761.286,91.77 761.286,79 " />
<polyline fill="none" vector-effect="none" points="943.714,933 943.714,920.23 " />
<polyline fill="none" vector-effect="none" points="943.714,91.77 943.714,79 " />
<polyline fill="none" vector-effect="none" points="1126.14,933 1126.14,920.23 " />
<polyline fill="none" vector-effect="none" points="1126.14,91.77 1126.14,79 " />
<polyline fill="none" vector-effect="none" points="1308.57,933 1308.57,920.23 " />
<polyline fill="none" vector-effect="none" points="1308.57,91.77 1308.57,79 " />
<polyline fill="none" vector-effect="none" points="1491,933 1491,920.23 " />
<polyline fill="none" vector-effect="none" points="1491,91.77 1491,79 " />
</g>

<g fill="#212121" fill-opacity="1" stroke="#212121" stroke-opacity="1" stroke-width="1" stroke-linecap="square" stroke-linejoin="bevel" transform="matrix(0.524045,0,0,0.504973,62.2893,478.447)"
font-family="Helvetica" font-size="40" font-weight="400" font-style="normal" 
>
<text fill="#212121" fill-opacity="1" stroke="none" xml:space="preserve" x="0" y="-0.203125" font-family="Helvetica" font-size="40" font-weight="400" font-style="normal" 
 >0</text>
</g>

<g fill="#212121" fill-opacity="1" stroke="#212121" stroke-opacity="1" stroke-width="1" stroke-linecap="square" stroke-linejoin="bevel" transform="matrix(0.524045,0,0,0.504973,157.89,478.447)"
font-family="Helvetica" font-size="40" font-weight="400" font-style="normal" 
>
<text fill="#212121" fill-opacity="1" stroke="none" xml:space="preserve" x="0" y="-0.203125" font-family="Helvetica" font-size="40" font-weight="400" font-style="normal" 
 >1</text>
</g>

<g fill="#212121" fill-opacity="1" stroke="#212121" stroke-opacity="1" stroke-width="1" stroke-linecap="square" stroke-linejoin="bevel" transform="matrix(0.524045,0,0,0.504973,253.491,478.447)"
font-family="Helvetica" font-size="40" font-weight="400" font-style="normal" 
>
<text fill="#212121" fill-opacity="1" stroke="none" xml:space="preserve" x="0" y="-0.203125" font-family="Helvetica" font-size="40" font-weight="400" font-style="normal" 
 >2</text>
</g>

<g fill="#212121" fill-opacity="1" stroke="#212121" stroke-opacity="1" stroke-width="1" stroke-linecap="square" stroke-linejoin="bevel" transform="matrix(0.524045,0,0,0.504973,349.092,478.447)"
font-family="Helvetica" font-size="40" font-weight="400" font-style="normal" 
>
<text fill="#212121" fill-opacity="1" stroke="none" xml:space="preserve" x="0" y="-0.203125" font-family="Helvetica" font-size="40" font-weight="400" font-style="normal" 
 >3</text>
</g>

<g fill="#212121" fill-opacity="1" stroke="#212121" stroke-opacity="1" stroke-width="1" stroke-linecap="square" stroke-linejoin="bevel" transform="matrix(0.524045,0,0,0.504973,444.693,478.447)"
font-family="Helvetica" font-size="40" font-weight="400" font-style="normal" 
>
<text fill="#212121" fill-opacity="1" stroke="none" xml:space="preserve" x="0" y="-0.203125" font-family="Helvetica" font-size="40" font-weight="400" font-style="normal" 
 >4</text>
</g>

<g fill="#212121" fill-opacity="1" stroke="#212121" stroke-opacity="1" stroke-width="1" stroke-linecap="square" stroke-linejoin="bevel" transform="matrix(0.524045,0,0,0.504973,540.293,478.447)"
font-family="Helvetica" font-size="40" font-weight="400" font-style="normal" 
>
<text fill="#212121" fill-opacity="1" stroke="none" xml:space="preserve" x="0" y="-0.203125" font-family="Helvetica" font-size="40" font-weight="400" font-style="normal" 
 >5</text>
</g>

<g fill="#212121" fill-opacity="1" stroke="#212121" stroke-opacity="1" stroke-width="1" stroke-linecap="square" stroke-linejoin="bevel" transform="matrix(0.524045,0,0,0.504973,635.894,478.447)"
font-family="Helvetica" font-size="40" font-weight="400" font-style="normal" 
>
<text fill="#212121" fill-opacity="1" stroke="none" xml:space="preserve" x="0" y="-0.203125" font-family="Helvetica" font-size="40" font-weight="400" font-style="normal" 
 >6</text>
</g>

<g fill="#212121" fill-opacity="1" stroke="#212121" stroke-opacity="1" stroke-width="1" stroke-linecap="square" stroke-linejoin="bevel" transform="matrix(0.524045,0,0,0.504973,731.495,478.447)"
font-family="Helvetica" font-size="40" font-weight="400" font-style="normal" 
>
<text fill="#212121" fill-opacity="1" stroke="none" xml:space="preserve" x="0" y="-0.203125" font-family="Helvetica" font-size="40" font-weight="400" font-style="normal" 
 >7</text>
</g>

<g fill="#212121" fill-opacity="1" stroke="#212121" stroke-opacity="1" stroke-width="1" stroke-linecap="square" stroke-linejoin="bevel" transform="matrix(0,-0.504973,0.524045,0,18.2695,336.802)"
font-family="Helvetica" font-size="44" font-weight="400" font-style="normal" 
>
<text fill="#212121" fill-opacity="1" stroke="none" xml:space="preserve" x="0" y="-0.125" font-family="Helvetica" font-size="44" font-weight="400" font-style="normal" 
 >Relative weight (%)</text>
</g>

<g fill="#212121" fill-opacity="1" stroke="#212121" stroke-opacity="1" stroke-width="1" stroke-linecap="square" stroke-linejoin="round" transform="matrix(0.524045,0,0,0.504973,-44.0919,-14.4067)"
font-family="Helvetica" font-size="44" font-weight="400" font-style="normal" 
>
<polyline fill="none" vector-effect="none" points="214,933 214,79 " />
<polyline fill="none" vector-effect="none" points="1491,933 1491,79 " />
<polyline fill="none" vector-effect="none" points="214,933 226.77,933 " />
<polyline fill="none" vector-effect="none" points="1478.23,933 1491,933 " />
<polyline fill="none" vector-effect="none" points="214,838.111 226.77,838.111 " />
<polyline fill="none" vector-effect="none" points="1478.23,838.111 1491,838.111 " />
<polyline fill="none" vector-effect="none" points="214,743.222 226.77,743.222 " />
<polyline fill="none" vector-effect="none" points="1478.23,743.222 1491,743.222 " />
<polyline fill="none" vector-effect="none" points="214,648.333 226.77,648.333 " />
<polyline fill="none" vector-effect="none" points="1478.23,648.333 1491,648.333 " />
<polyline fill="none" vector-effect="none" points="214,553.444 226.77,553.444 " />
<polyline fill="none" vector-effect="none" points="1478.23,553.444 1491,553.444 " />
<polyline fill="none" vector-effect="none" points="214,458.556 226.77,458.556 " />
<polyline fill="none" vector-effect="none" points="1478.23,458.556 1491,458.556 " />
<polyline fill="none" vector-effect="none" points="214,363.667 226.77,363.667 " />
<polyline fill="none" vector-effect="none" points="1478.23,363.667 1491,363.667 " />
<polyline fill="none" vector-effect="none" points="214,268.778 226.77,268.778 " />
<polyline fill="none" vector-effect="none" points="1478.23,268.778 1491,268.778 " />
<polyline fill="none" vector-effect="none" points="214,173.889 226.77,173.889 " />
<polyline fill="none" vector-effect="none" points="1478.23,173.889 1491,173.889 " />
<polyline fill="none" vector-effect="none" points="214,79 226.77,79 " />
<polyline fill="none" vector-effect="none" points="1478.23,79 1491,79 " />
</g>

<g fill="#212121" fill-opacity="1" stroke="#212121" stroke-opacity="1" stroke-width="1" stroke-linecap="square" stroke-linejoin="bevel" transform="matrix(0.524045,0,0,0.504973,38.7072,462.288)"
font-family="Helvetica" font-size="40" font-weight="400" font-style="normal" 
>
<text fill="#212121" fill-opacity="1" stroke="none" xml:space="preserve" x="0" y="-0.203125" font-family="Helvetica" font-size="40" font-weight="400" font-style="normal" 
 >70</text>
</g>

<g fill="#212121" fill-opacity="1" stroke="#212121" stroke-opacity="1" stroke-width="1" stroke-linecap="square" stroke-linejoin="bevel" transform="matrix(0.524045,0,0,0.504973,38.7072,414.371)"
font-family="Helvetica" font-size="40" font-weight="400" font-style="normal" 
>
<text fill="#212121" fill-opacity="1" stroke="none" xml:space="preserve" x="0" y="-0.203125" font-family="Helvetica" font-size="40" font-weight="400" font-style="normal" 
 >75</text>
</g>

<g fill="#212121" fill-opacity="1" stroke="#212121" stroke-opacity="1" stroke-width="1" stroke-linecap="square" stroke-linejoin="bevel" transform="matrix(0.524045,0,0,0.504973,38.7072,366.455)"
font-family="Helvetica" font-size="40" font-weight="400" font-style="normal" 
>
<text fill="#212121" fill-opacity="1" stroke="none" xml:space="preserve" x="0" y="-0.203125" font-family="Helvetica" font-size="40" font-weight="400" font-style="normal" 
 >80</text>
</g>

<g fill="#212121" fill-opacity="1" stroke="#212121" stroke-opacity="1" stroke-width="1" stroke-linecap="square" stroke-linejoin="bevel" transform="matrix(0.524045,0,0,0.504973,38.7072,318.539)"
font-family="Helvetica" font-size="40" font-weight="400" font-style="normal" 
>
<text fill="#212121" fill-opacity="1" stroke="none" xml:space="preserve" x="0" y="-0.203125" font-family="Helvetica" font-size="40" font-weight="400" font-style="normal" 
 >85</text>
</g>

<g fill="#212121" fill-opacity="1" stroke="#212121" stroke-opacity="1" stroke-width="1" stroke-linecap="square" stroke-linejoin="bevel" transform="matrix(0.524045,0,0,0.504973,38.7072,270.622)"
font-family="Helvetica" font-size="40" font-weight="400" font-style="normal" 
>
<text fill="#212121" fill-opacity="1" stroke="none" xml:space="preserve" x="0" y="-0.203125" font-family="Helvetica" font-size="40" font-weight="400" font-style="normal" 
 >90</text>
</g>

<g fill="#212121" fill-opacity="1" stroke="#212121" stroke-opacity="1" stroke-width="1" stroke-linecap="square" stroke-linejoin="bevel" transform="matrix(0.524045,0,0,0.504973,38.7072,222.706)"
font-family="Helvetica" font-size="40" font-weight="400" font-style="normal" 
>
<text fill="#212121" fill-opacity="1" stroke="none" xml:space="preserve" x="0" y="-0.203125" font-family="Helvetica" font-size="40" font-weight="400" font-style="normal" 
 >95</text>
</g>

<g fill="#212121" fill-opacity="1" stroke="#212121" stroke-opacity="1" stroke-width="1" stroke-linecap="square" stroke-linejoin="bevel" transform="matrix(0.524045,0,0,0.504973,26.6542,174.79)"
font-family="Helvetica" font-size="40" font-weight="400" font-style="normal" 
>
<text fill="#212121" fill-opacity="1" stroke="none" xml:space="preserve" x="0" y="-0.203125" font-family="Helvetica" font-size="40" font-weight="400" font-style="normal" 
 >100</text>
</g>

<g fill="#212121" fill-opacity="1" stroke="#212121" stroke-opacity="1" stroke-width="1" stroke-linecap="square" stroke-linejoin="bevel" transform="matrix(0.524045,0,0,0.504973,26.6542,126.873)"
font-family="Helvetica" font-size="40" font-weight="400" font-style="normal" 
>
<text fill="#212121" fill-opacity="1" stroke="none" xml:space="preserve" x="0" y="-0.203125" font-family="Helvetica" font-size="40" font-weight="400" font-style="normal" 
 >105</text>
</g>

<g fill="#212121" fill-opacity="1" stroke="#212121" stroke-opacity="1" stroke-width="1" stroke-linecap="square" stroke-linejoin="bevel" transform="matrix(0.524045,0,0,0.504973,28.2263,78.9572)"
font-family="Helvetica" font-size="40" font-weight="400" font-style="normal" 
>
<text fill="#212121" fill-opacity="1" stroke="none" xml:space="preserve" x="0" y="-0.203125" font-family="Helvetica" font-size="40" font-weight="400" font-style="normal" 
 >110</text>
</g>

<g fill="#212121" fill-opacity="1" stroke="#212121" stroke-opacity="1" stroke-width="1" stroke-linecap="square" stroke-linejoin="bevel" transform="matrix(0.524045,0,0,0.504973,28.2263,31.0409)"
font-family="Helvetica" font-size="40" font-weight="400" font-style="normal" 
>
<text fill="#212121" fill-opacity="1" stroke="none" xml:space="preserve" x="0" y="-0.203125" font-family="Helvetica" font-size="40" font-weight="400" font-style="normal" 
 >115</text>
</g>

<g fill="#212121" fill-opacity="1" stroke="#212121" stroke-opacity="1" stroke-width="1" stroke-linecap="square" stroke-linejoin="bevel" transform="matrix(0.524045,0,0,0.504973,325.098,17.6591)"
font-family="Helvetica" font-size="44" font-weight="700" font-style="normal" 
>
<text fill="#212121" fill-opacity="1" stroke="none" xml:space="preserve" x="0" y="-0.125" font-family="Helvetica" font-size="44" font-weight="700" font-style="normal" 
 >Uninfected B6</text>
</g>

<g fill="none" stroke="#000000" stroke-opacity="1" stroke-width="2" stroke-linecap="butt" stroke-linejoin="round" transform="matrix(0.524045,0,0,0.504973,-44.0919,-14.4067)"
font-family="Helvetica" font-size="44" font-weight="700" font-style="normal" 
>
<polyline fill="none" vector-effect="none" points="214,363.667 396.429,372.017 578.857,696.537 " />
</g>

<g fill="#ff0000" fill-opacity="1" stroke="#ff0000" stroke-opacity="1" stroke-width="4" stroke-linecap="butt" stroke-linejoin="miter" stroke-miterlimit="2" transform="matrix(0.524045,0,0,0.504973,-44.0919,-14.4067)"
font-family="Helvetica" font-size="44" font-weight="700" font-style="normal" 
>
<polyline fill="none" vector-effect="none" points="571.786,689.466 585.928,703.608 " />
<polyline fill="none" vector-effect="none" points="571.786,703.608 585.928,689.466 " />
</g>

<g fill="none" stroke="#000000" stroke-opacity="1" stroke-width="2" stroke-linecap="butt" stroke-linejoin="round" transform="matrix(0.524045,0,0,0.504973,-44.0919,-14.4067)"
font-family="Helvetica" font-size="44" font-weight="700" font-style="normal" 
>
<polyline fill="none" vector-effect="none" points="214,363.667 396.429,405.038 578.857,753.091 " />
</g>

<g fill="#ff0000" fill-opacity="1" stroke="#ff0000" stroke-opacity="1" stroke-width="4" stroke-linecap="butt" stroke-linejoin="miter" stroke-miterlimit="2" transform="matrix(0.524045,0,0,0.504973,-44.0919,-14.4067)"
font-family="Helvetica" font-size="44" font-weight="700" font-style="normal" 
>
<polyline fill="none" vector-effect="none" points="571.786,746.02 585.928,760.162 " />
<polyline fill="none" vector-effect="none" points="571.786,760.162 585.928,746.02 " />
</g>

<g fill="none" stroke="#000000" stroke-opacity="1" stroke-width="2" stroke-linecap="butt" stroke-linejoin="round" transform="matrix(0.524045,0,0,0.504973,-44.0919,-14.4067)"
font-family="Helvetica" font-size="44" font-weight="700" font-style="normal" 
>
<polyline fill="none" vector-effect="none" points="214,363.667 396.429,399.914 578.857,726.901 " />
</g>

<g fill="#ff0000" fill-opacity="1" stroke="#ff0000" stroke-opacity="1" stroke-width="4" stroke-linecap="butt" stroke-linejoin="miter" stroke-miterlimit="2" transform="matrix(0.524045,0,0,0.504973,-44.0919,-14.4067)"
font-family="Helvetica" font-size="44" font-weight="700" font-style="normal" 
>
<polyline fill="none" vector-effect="none" points="571.786,719.83 585.928,733.972 " />
<polyline fill="none" vector-effect="none" points="571.786,733.972 585.928,719.83 " />
</g>

<g fill="none" stroke="#000000" stroke-opacity="1" stroke-width="2" stroke-linecap="butt" stroke-linejoin="round" transform="matrix(0.524045,0,0,0.504973,-44.0919,-14.4067)"
font-family="Helvetica" font-size="44" font-weight="700" font-style="normal" 
>
<polyline fill="none" vector-effect="none" points="214,363.667 396.429,291.741 578.857,705.456 761.286,831.279 " />
</g>

<g fill="#ff0000" fill-opacity="1" stroke="#ff0000" stroke-opacity="1" stroke-width="4" stroke-linecap="butt" stroke-linejoin="miter" stroke-miterlimit="2" transform="matrix(0.524045,0,0,0.504973,-44.0919,-14.4067)"
font-family="Helvetica" font-size="44" font-weight="700" font-style="normal" 
>
<polyline fill="none" vector-effect="none" points="754.215,824.208 768.357,838.35 " />
<polyline fill="none" vector-effect="none" points="754.215,838.35 768.357,824.208 " />
</g>

<g fill="none" stroke="#000000" stroke-opacity="1" stroke-width="2" stroke-linecap="butt" stroke-linejoin="round" transform="matrix(0.524045,0,0,0.504973,-44.0919,-14.4067)"
font-family="Helvetica" font-size="44" font-weight="700" font-style="normal" 
>
<polyline fill="none" vector-effect="none" points="214,363.667 396.429,336.908 578.857,630.874 " />
</g>

<g fill="#ff0000" fill-opacity="1" stroke="#ff0000" stroke-opacity="1" stroke-width="4" stroke-linecap="butt" stroke-linejoin="miter" stroke-miterlimit="2" transform="matrix(0.524045,0,0,0.504973,-44.0919,-14.4067)"
font-family="Helvetica" font-size="44" font-weight="700" font-style="normal" 
>
<polyline fill="none" vector-effect="none" points="571.786,623.803 585.928,637.945 " />
<polyline fill="none" vector-effect="none" points="571.786,637.945 585.928,623.803 " />
</g>

<g fill="none" stroke="#000000" stroke-opacity="1" stroke-width="2" stroke-linecap="butt" stroke-linejoin="round" transform="matrix(0.524045,0,0,0.504973,-44.0919,-14.4067)"
font-family="Helvetica" font-size="44" font-weight="700" font-style="normal" 
>
<polyline fill="none" vector-effect="none" points="214,363.667 396.429,354.178 578.857,667.311 761.286,809.644 " />
</g>

<g fill="#ff0000" fill-opacity="1" stroke="#ff0000" stroke-opacity="1" stroke-width="4" stroke-linecap="butt" stroke-linejoin="miter" stroke-miterlimit="2" transform="matrix(0.524045,0,0,0.504973,-44.0919,-14.4067)"
font-family="Helvetica" font-size="44" font-weight="700" font-style="normal" 
>
<polyline fill="none" vector-effect="none" points="754.215,802.573 768.357,816.716 " />
<polyline fill="none" vector-effect="none" points="754.215,816.716 768.357,802.573 " />
</g>

<g fill="none" stroke="#000000" stroke-opacity="1" stroke-width="2" stroke-linecap="butt" stroke-linejoin="round" transform="matrix(0.524045,0,0,0.504973,-44.0919,-14.4067)"
font-family="Helvetica" font-size="44" font-weight="700" font-style="normal" 
>
<polyline fill="none" vector-effect="none" points="214,363.667 396.429,336.339 578.857,699.573 " />
</g>

<g fill="#ff0000" fill-opacity="1" stroke="#ff0000" stroke-opacity="1" stroke-width="4" stroke-linecap="butt" stroke-linejoin="miter" stroke-miterlimit="2" transform="matrix(0.524045,0,0,0.504973,-44.0919,-14.4067)"
font-family="Helvetica" font-size="44" font-weight="700" font-style="normal" 
>
<polyline fill="none" vector-effect="none" points="571.786,692.502 585.928,706.644 " />
<polyline fill="none" vector-effect="none" points="571.786,706.644 585.928,692.502 " />
</g>

<g fill="none" stroke="#000000" stroke-opacity="1" stroke-width="2" stroke-linecap="butt" stroke-linejoin="round" transform="matrix(0.524045,0,0,0.504973,-44.0919,-14.4067)"
font-family="Helvetica" font-size="44" font-weight="700" font-style="normal" 
>
<polyline fill="none" vector-effect="none" points="214,363.667 396.429,363.667 578.857,757.835 " />
</g>

<g fill="#ff0000" fill-opacity="1" stroke="#ff0000" stroke-opacity="1" stroke-width="4" stroke-linecap="butt" stroke-linejoin="miter" stroke-miterlimit="2" transform="matrix(0.524045,0,0,0.504973,-44.0919,-14.4067)"
font-family="Helvetica" font-size="44" font-weight="700" font-style="normal" 
>
<polyline fill="none" vector-effect="none" points="571.786,750.764 585.928,764.906 " />
<polyline fill="none" vector-effect="none" points="571.786,764.906 585.928,750.764 " />
</g>

<g fill="none" stroke="#000000" stroke-opacity="1" stroke-width="2" stroke-linecap="butt" stroke-linejoin="round" transform="matrix(0.524045,0,0,0.504973,-44.0919,-14.4067)"
font-family="Helvetica" font-size="44" font-weight="700" font-style="normal" 
>
<polyline fill="none" vector-effect="none" points="214,363.667 396.429,355.127 578.857,714.186 " />
</g>

<g fill="#ff0000" fill-opacity="1" stroke="#ff0000" stroke-opacity="1" stroke-width="4" stroke-linecap="butt" stroke-linejoin="miter" stroke-miterlimit="2" transform="matrix(0.524045,0,0,0.504973,-44.0919,-14.4067)"
font-family="Helvetica" font-size="44" font-weight="700" font-style="normal" 
>
<polyline fill="none" vector-effect="none" points="571.786,707.115 585.928,721.257 " />
<polyline fill="none" vector-effect="none" points="571.786,721.257 585.928,707.115 " />
</g>

<g fill="none" stroke="#0073bd" stroke-opacity="1" stroke-width="8" stroke-linecap="butt" stroke-linejoin="round" transform="matrix(0.524045,0,0,0.504973,-44.0919,-14.4067)"
font-family="Helvetica" font-size="44" font-weight="700" font-style="normal" 
>
<polyline fill="none" vector-effect="none" points="214,363.667 396.429,372.776 578.857,707.164 761.286,779.28 943.714,815.528 1126.14,824.637 1308.57,815.528 1491,788.389 " />
</g>
</g>
</svg>
