<?xml version="1.0" encoding="UTF-8" standalone="no"?>
<svg width="259.292mm" height="178.858mm"
 viewBox="0 0 735 507"
 xmlns="http://www.w3.org/2000/svg" xmlns:xlink="http://www.w3.org/1999/xlink"  version="1.2" baseProfile="tiny">
<title>Qt SVG Document</title>
<desc>MATLAB, The MathWorks, Inc. Version 25.2.0.3042426 R2025b Update 1</desc>
<defs>
</defs>
<g fill="none" stroke="black" stroke-width="1" fill-rule="evenodd" stroke-linecap="square" stroke-linejoin="bevel" >

<g fill="#ffffff" fill-opacity="1" stroke="none" transform="matrix(0.524194,0,0,0.504252,-42.5323,-13.3755)"
font-family=".AppleSystemUIFont" font-size="13" font-weight="400" font-style="normal" 
>
<path vector-effect="none" fill-rule="evenodd" d="M80,26 L1482,26 L1482,1032 L80,1032 L80,26"/>
</g>

<g fill="#ffffff" fill-opacity="1" stroke="none" transform="matrix(5.24194e-05,0,0,5.04252e-05,-42.5323,-13.3755)"
font-family=".AppleSystemUIFont" font-size="13" font-weight="400" font-style="normal" 
>
<path vector-effect="none" fill-rule="evenodd" d="M2.11e+06,780000 L2.11e+06,9.25e+06 L1.469e+07,9.25e+06 L1.469e+07,780000 L2.11e+06,780000"/>
</g>

<g fill="#212121" fill-opacity="0.14902" stroke="#212121" stroke-opacity="0.14902" stroke-width="1" stroke-linecap="butt" stroke-linejoin="round" transform="matrix(0.524194,0,0,0.504252,-42.5323,-13.3755)"
font-family=".AppleSystemUIFont" font-size="13" font-weight="400" font-style="normal" 
>
<polyline fill="none" vector-effect="none" points="211,78 211,925 " />
<polyline fill="none" vector-effect="none" points="390.714,78 390.714,925 " />
<polyline fill="none" vector-effect="none" points="570.429,78 570.429,925 " />
<polyline fill="none" vector-effect="none" points="750.143,78 750.143,925 " />
<polyline fill="none" vector-effect="none" points="929.857,78 929.857,925 " />
<polyline fill="none" vector-effect="none" points="1109.57,78 1109.57,925 " />
<polyline fill="none" vector-effect="none" points="1289.29,78 1289.29,925 " />
<polyline fill="none" vector-effect="none" points="1469,78 1469,925 " />
<polyline fill="none" vector-effect="none" points="211,925 1469,925 " />
<polyline fill="none" vector-effect="none" points="211,830.889 1469,830.889 " />
<polyline fill="none" vector-effect="none" points="211,736.778 1469,736.778 " />
<polyline fill="none" vector-effect="none" points="211,642.667 1469,642.667 " />
<polyline fill="none" vector-effect="none" points="211,548.556 1469,548.556 " />
<polyline fill="none" vector-effect="none" points="211,454.444 1469,454.444 " />
<polyline fill="none" vector-effect="none" points="211,360.333 1469,360.333 " />
<polyline fill="none" vector-effect="none" points="211,266.222 1469,266.222 " />
<polyline fill="none" vector-effect="none" points="211,172.111 1469,172.111 " />
<polyline fill="none" vector-effect="none" points="211,78 1469,78 " />
</g>

<g fill="#212121" fill-opacity="1" stroke="#212121" stroke-opacity="1" stroke-width="1" stroke-linecap="square" stroke-linejoin="bevel" transform="matrix(0.524194,0,0,0.504252,243.415,500.457)"
font-family="Helvetica" font-size="44" font-weight="400" font-style="normal" 
>
<text fill="#212121" fill-opacity="1" stroke="none" xml:space="preserve" x="0" y="-0.125" font-family="Helvetica" font-size="44" font-weight="400" font-style="normal" 
 >Day post secondary challenge</text>
</g>

<g fill="#212121" fill-opacity="1" stroke="#212121" stroke-opacity="1" stroke-width="1" stroke-linecap="square" stroke-linejoin="round" transform="matrix(0.524194,0,0,0.504252,-42.5323,-13.3755)"
font-family="Helvetica" font-size="44" font-weight="400" font-style="normal" 
>
<polyline fill="none" vector-effect="none" points="211,925 1469,925 " />
<polyline fill="none" vector-effect="none" points="211,78 1469,78 " />
<polyline fill="none" vector-effect="none" points="211,925 211,912.42 " />
<polyline fill="none" vector-effect="none" points="211,90.58 211,78 " />
<polyline fill="none" vector-effect="none" points="390.714,925 390.714,912.42 " />
<polyline fill="none" vector-effect="none" points="390.714,90.58 390.714,78 " />
<polyline fill="none" vector-effect="none" points="570.429,925 570.429,912.42 " />
<polyline fill="none" vector-effect="none" points="570.429,90.58 570.429,78 " />
<polyline fill="none" vector-effect="none" points="750.143,925 750.143,912.42 " />
<polyline fill="none" vector-effect="none" points="750.143,90.58 750.143,78 " />
<polyline fill="none" vector-effect="none" points="929.857,925 929.857,912.42 " />
<polyline fill="none" vector-effect="none" points="929.857,90.58 929.857,78 " />
<polyline fill="none" vector-effect="none" points="1109.57,925 1109.57,912.42 " />
<polyline fill="none" vector-effect="none" points="1109.57,90.58 1109.57,78 " />
<polyline fill="none" vector-effect="none" points="1289.29,925 1289.29,912.42 " />
<polyline fill="none" vector-effect="none" points="1289.29,90.58 1289.29,78 " />
<polyline fill="none" vector-effect="none" points="1469,925 1469,912.42 " />
<polyline fill="none" vector-effect="none" points="1469,90.58 1469,78 " />
</g>

<g fill="#212121" fill-opacity="1" stroke="#212121" stroke-opacity="1" stroke-width="1" stroke-linecap="square" stroke-linejoin="bevel" transform="matrix(0.524194,0,0,0.504252,62.3065,474.741)"
font-family="Helvetica" font-size="40" font-weight="400" font-style="normal" 
>
<text fill="#212121" fill-opacity="1" stroke="none" xml:space="preserve" x="0" y="-0.203125" font-family="Helvetica" font-size="40" font-weight="400" font-style="normal" 
 >0</text>
</g>

<g fill="#212121" fill-opacity="1" stroke="#212121" stroke-opacity="1" stroke-width="1" stroke-linecap="square" stroke-linejoin="bevel" transform="matrix(0.524194,0,0,0.504252,156.512,474.741)"
font-family="Helvetica" font-size="40" font-weight="400" font-style="normal" 
>
<text fill="#212121" fill-opacity="1" stroke="none" xml:space="preserve" x="0" y="-0.203125" font-family="Helvetica" font-size="40" font-weight="400" font-style="normal" 
 >1</text>
</g>

<g fill="#212121" fill-opacity="1" stroke="#212121" stroke-opacity="1" stroke-width="1" stroke-linecap="square" stroke-linejoin="bevel" transform="matrix(0.524194,0,0,0.504252,250.717,474.741)"
font-family="Helvetica" font-size="40" font-weight="400" font-style="normal" 
>
<text fill="#212121" fill-opacity="1" stroke="none" xml:space="preserve" x="0" y="-0.203125" font-family="Helvetica" font-size="40" font-weight="400" font-style="normal" 
 >2</text>
</g>

<g fill="#212121" fill-opacity="1" stroke="#212121" stroke-opacity="1" stroke-width="1" stroke-linecap="square" stroke-linejoin="bevel" transform="matrix(0.524194,0,0,0.504252,344.922,474.741)"
font-family="Helvetica" font-size="40" font-weight="400" font-style="normal" 
>
<text fill="#212121" fill-opacity="1" stroke="none" xml:space="preserve" x="0" y="-0.203125" font-family="Helvetica" font-size="40" font-weight="400" font-style="normal" 
 >3</text>
</g>

<g fill="#212121" fill-opacity="1" stroke="#212121" stroke-opacity="1" stroke-width="1" stroke-linecap="square" stroke-linejoin="bevel" transform="matrix(0.524194,0,0,0.504252,439.127,474.741)"
font-family="Helvetica" font-size="40" font-weight="400" font-style="normal" 
>
<text fill="#212121" fill-opacity="1" stroke="none" xml:space="preserve" x="0" y="-0.203125" font-family="Helvetica" font-size="40" font-weight="400" font-style="normal" 
 >4</text>
</g>

<g fill="#212121" fill-opacity="1" stroke="#212121" stroke-opacity="1" stroke-width="1" stroke-linecap="square" stroke-linejoin="bevel" transform="matrix(0.524194,0,0,0.504252,533.332,474.741)"
font-family="Helvetica" font-size="40" font-weight="400" font-style="normal" 
>
<text fill="#212121" fill-opacity="1" stroke="none" xml:space="preserve" x="0" y="-0.203125" font-family="Helvetica" font-size="40" font-weight="400" font-style="normal" 
 >5</text>
</g>

<g fill="#212121" fill-opacity="1" stroke="#212121" stroke-opacity="1" stroke-width="1" stroke-linecap="square" stroke-linejoin="bevel" transform="matrix(0.524194,0,0,0.504252,627.537,474.741)"
font-family="Helvetica" font-size="40" font-weight="400" font-style="normal" 
>
<text fill="#212121" fill-opacity="1" stroke="none" xml:space="preserve" x="0" y="-0.203125" font-family="Helvetica" font-size="40" font-weight="400" font-style="normal" 
 >6</text>
</g>

<g fill="#212121" fill-opacity="1" stroke="#212121" stroke-opacity="1" stroke-width="1" stroke-linecap="square" stroke-linejoin="bevel" transform="matrix(0.524194,0,0,0.504252,721.742,474.741)"
font-family="Helvetica" font-size="40" font-weight="400" font-style="normal" 
>
<text fill="#212121" fill-opacity="1" stroke="none" xml:space="preserve" x="0" y="-0.203125" font-family="Helvetica" font-size="40" font-weight="400" font-style="normal" 
 >7</text>
</g>

<g fill="#212121" fill-opacity="1" stroke="#212121" stroke-opacity="1" stroke-width="1" stroke-linecap="square" stroke-linejoin="bevel" transform="matrix(0,-0.504252,0.524194,0,18.2742,335.063)"
font-family="Helvetica" font-size="44" font-weight="400" font-style="normal" 
>
<text fill="#212121" fill-opacity="1" stroke="none" xml:space="preserve" x="0" y="-0.125" font-family="Helvetica" font-size="44" font-weight="400" font-style="normal" 
 >Relative weight (%)</text>
</g>

<g fill="#212121" fill-opacity="1" stroke="#212121" stroke-opacity="1" stroke-width="1" stroke-linecap="square" stroke-linejoin="round" transform="matrix(0.524194,0,0,0.504252,-42.5323,-13.3755)"
font-family="Helvetica" font-size="44" font-weight="400" font-style="normal" 
>
<polyline fill="none" vector-effect="none" points="211,925 211,78 " />
<polyline fill="none" vector-effect="none" points="1469,925 1469,78 " />
<polyline fill="none" vector-effect="none" points="211,925 223.58,925 " />
<polyline fill="none" vector-effect="none" points="1456.42,925 1469,925 " />
<polyline fill="none" vector-effect="none" points="211,830.889 223.58,830.889 " />
<polyline fill="none" vector-effect="none" points="1456.42,830.889 1469,830.889 " />
<polyline fill="none" vector-effect="none" points="211,736.778 223.58,736.778 " />
<polyline fill="none" vector-effect="none" points="1456.42,736.778 1469,736.778 " />
<polyline fill="none" vector-effect="none" points="211,642.667 223.58,642.667 " />
<polyline fill="none" vector-effect="none" points="1456.42,642.667 1469,642.667 " />
<polyline fill="none" vector-effect="none" points="211,548.556 223.58,548.556 " />
<polyline fill="none" vector-effect="none" points="1456.42,548.556 1469,548.556 " />
<polyline fill="none" vector-effect="none" points="211,454.444 223.58,454.444 " />
<polyline fill="none" vector-effect="none" points="1456.42,454.444 1469,454.444 " />
<polyline fill="none" vector-effect="none" points="211,360.333 223.58,360.333 " />
<polyline fill="none" vector-effect="none" points="1456.42,360.333 1469,360.333 " />
<polyline fill="none" vector-effect="none" points="211,266.222 223.58,266.222 " />
<polyline fill="none" vector-effect="none" points="1456.42,266.222 1469,266.222 " />
<polyline fill="none" vector-effect="none" points="211,172.111 223.58,172.111 " />
<polyline fill="none" vector-effect="none" points="1456.42,172.111 1469,172.111 " />
<polyline fill="none" vector-effect="none" points="211,78 223.58,78 " />
<polyline fill="none" vector-effect="none" points="1456.42,78 1469,78 " />
</g>

<g fill="#212121" fill-opacity="1" stroke="#212121" stroke-opacity="1" stroke-width="1" stroke-linecap="square" stroke-linejoin="bevel" transform="matrix(0.524194,0,0,0.504252,38.7177,458.605)"
font-family="Helvetica" font-size="40" font-weight="400" font-style="normal" 
>
<text fill="#212121" fill-opacity="1" stroke="none" xml:space="preserve" x="0" y="-0.203125" font-family="Helvetica" font-size="40" font-weight="400" font-style="normal" 
 >70</text>
</g>

<g fill="#212121" fill-opacity="1" stroke="#212121" stroke-opacity="1" stroke-width="1" stroke-linecap="square" stroke-linejoin="bevel" transform="matrix(0.524194,0,0,0.504252,38.7177,411.149)"
font-family="Helvetica" font-size="40" font-weight="400" font-style="normal" 
>
<text fill="#212121" fill-opacity="1" stroke="none" xml:space="preserve" x="0" y="-0.203125" font-family="Helvetica" font-size="40" font-weight="400" font-style="normal" 
 >75</text>
</g>

<g fill="#212121" fill-opacity="1" stroke="#212121" stroke-opacity="1" stroke-width="1" stroke-linecap="square" stroke-linejoin="bevel" transform="matrix(0.524194,0,0,0.504252,38.7177,363.693)"
font-family="Helvetica" font-size="40" font-weight="400" font-style="normal" 
>
<text fill="#212121" fill-opacity="1" stroke="none" xml:space="preserve" x="0" y="-0.203125" font-family="Helvetica" font-size="40" font-weight="400" font-style="normal" 
 >80</text>
</g>

<g fill="#212121" fill-opacity="1" stroke="#212121" stroke-opacity="1" stroke-width="1" stroke-linecap="square" stroke-linejoin="bevel" transform="matrix(0.524194,0,0,0.504252,38.7177,316.237)"
font-family="Helvetica" font-size="40" font-weight="400" font-style="normal" 
>
<text fill="#212121" fill-opacity="1" stroke="none" xml:space="preserve" x="0" y="-0.203125" font-family="Helvetica" font-size="40" font-weight="400" font-style="normal" 
 >85</text>
</g>

<g fill="#212121" fill-opacity="1" stroke="#212121" stroke-opacity="1" stroke-width="1" stroke-linecap="square" stroke-linejoin="bevel" transform="matrix(0.524194,0,0,0.504252,38.7177,268.782)"
font-family="Helvetica" font-size="40" font-weight="400" font-style="normal" 
>
<text fill="#212121" fill-opacity="1" stroke="none" xml:space="preserve" x="0" y="-0.203125" font-family="Helvetica" font-size="40" font-weight="400" font-style="normal" 
 >90</text>
</g>

<g fill="#212121" fill-opacity="1" stroke="#212121" stroke-opacity="1" stroke-width="1" stroke-linecap="square" stroke-linejoin="bevel" transform="matrix(0.524194,0,0,0.504252,38.7177,221.326)"
font-family="Helvetica" font-size="40" font-weight="400" font-style="normal" 
>
<text fill="#212121" fill-opacity="1" stroke="none" xml:space="preserve" x="0" y="-0.203125" font-family="Helvetica" font-size="40" font-weight="400" font-style="normal" 
 >95</text>
</g>

<g fill="#212121" fill-opacity="1" stroke="#212121" stroke-opacity="1" stroke-width="1" stroke-linecap="square" stroke-linejoin="bevel" transform="matrix(0.524194,0,0,0.504252,26.6613,173.87)"
font-family="Helvetica" font-size="40" font-weight="400" font-style="normal" 
>
<text fill="#212121" fill-opacity="1" stroke="none" xml:space="preserve" x="0" y="-0.203125" font-family="Helvetica" font-size="40" font-weight="400" font-style="normal" 
 >100</text>
</g>

<g fill="#212121" fill-opacity="1" stroke="#212121" stroke-opacity="1" stroke-width="1" stroke-linecap="square" stroke-linejoin="bevel" transform="matrix(0.524194,0,0,0.504252,26.6613,126.414)"
font-family="Helvetica" font-size="40" font-weight="400" font-style="normal" 
>
<text fill="#212121" fill-opacity="1" stroke="none" xml:space="preserve" x="0" y="-0.203125" font-family="Helvetica" font-size="40" font-weight="400" font-style="normal" 
 >105</text>
</g>

<g fill="#212121" fill-opacity="1" stroke="#212121" stroke-opacity="1" stroke-width="1" stroke-linecap="square" stroke-linejoin="bevel" transform="matrix(0.524194,0,0,0.504252,28.2339,78.9587)"
font-family="Helvetica" font-size="40" font-weight="400" font-style="normal" 
>
<text fill="#212121" fill-opacity="1" stroke="none" xml:space="preserve" x="0" y="-0.203125" font-family="Helvetica" font-size="40" font-weight="400" font-style="normal" 
 >110</text>
</g>

<g fill="#212121" fill-opacity="1" stroke="#212121" stroke-opacity="1" stroke-width="1" stroke-linecap="square" stroke-linejoin="bevel" transform="matrix(0.524194,0,0,0.504252,28.2339,31.503)"
font-family="Helvetica" font-size="40" font-weight="400" font-style="normal" 
>
<text fill="#212121" fill-opacity="1" stroke="none" xml:space="preserve" x="0" y="-0.203125" font-family="Helvetica" font-size="40" font-weight="400" font-style="normal" 
 >115</text>
</g>

<g fill="#212121" fill-opacity="1" stroke="#212121" stroke-opacity="1" stroke-width="1" stroke-linecap="square" stroke-linejoin="bevel" transform="matrix(0.524194,0,0,0.504252,305.008,18.1403)"
font-family="Helvetica" font-size="44" font-weight="700" font-style="normal" 
>
<text fill="#212121" fill-opacity="1" stroke="none" xml:space="preserve" x="0" y="-0.125" font-family="Helvetica" font-size="44" font-weight="700" font-style="normal" 
 >ST1.75 RAG1 KO</text>
</g>

<g fill="#0073bd" fill-opacity="0.301961" stroke="none" transform="matrix(5.24194e-05,0,0,5.04252e-05,-42.5323,-13.3755)"
font-family="Helvetica" font-size="44" font-weight="700" font-style="normal" 
>
<path vector-effect="none" fill-rule="evenodd" d="M5.70429e+06,3.84274e+06 L7.50143e+06,3.52739e+06 L9.29857e+06,3.92058e+06 L1.10957e+07,4.15732e+06 L1.28929e+07,4.14457e+06 L1.469e+07,4.03979e+06 L1.469e+07,2.99371e+06 L1.28929e+07,3.09296e+06 L1.10957e+07,3.32453e+06 L9.29857e+06,3.4137e+06 L7.50143e+06,2.7216e+06 L5.70429e+06,3.05825e+06 L3.90714e+06,3.32984e+06 L2.11e+06,3.60333e+06 L3.90714e+06,4.03531e+06 L5.70429e+06,3.84274e+06"/>
</g>

<g fill="none" stroke="#0073bd" stroke-opacity="1" stroke-width="8" stroke-linecap="butt" stroke-linejoin="round" transform="matrix(0.524194,0,0,0.504252,-42.5323,-13.3755)"
font-family="Helvetica" font-size="44" font-weight="700" font-style="normal" 
>
<polyline fill="none" vector-effect="none" points="211,360.333 390.714,368.257 570.429,345.05 750.143,312.45 929.857,366.714 1109.57,374.092 1289.29,361.877 1469,351.675 " />
</g>
</g>
</svg>
