<?xml version="1.0" encoding="UTF-8" standalone="no"?>
<svg width="453.319mm" height="235.303mm"
 viewBox="0 0 1285 667"
 xmlns="http://www.w3.org/2000/svg" xmlns:xlink="http://www.w3.org/1999/xlink"  version="1.2" baseProfile="tiny">
<title>Qt SVG Document</title>
<desc>MATLAB, The MathWorks, Inc. Version 25.2.0.3042426 R2025b Update 1</desc>
<defs>
</defs>
<g fill="none" stroke="black" stroke-width="1" fill-rule="evenodd" stroke-linecap="square" stroke-linejoin="bevel" >

<g fill="#ffffff" fill-opacity="1" stroke="none" transform="matrix(0.511677,0,0,0.492396,-124.884,-10.8099)"
font-family=".AppleSystemUIFont" font-size="13" font-weight="400" font-style="normal" 
>
<path vector-effect="none" fill-rule="evenodd" d="M244,21 L2755,21 L2755,1376 L244,1376 L244,21"/>
</g>

<g fill="#ffffff" fill-opacity="1" stroke="none" transform="matrix(5.11677e-05,0,0,4.92396e-05,-124.884,-10.8099)"
font-family=".AppleSystemUIFont" font-size="13" font-weight="400" font-style="normal" 
>
<path vector-effect="none" fill-rule="evenodd" d="M3.92e+06,1.12e+06 L3.92e+06,1.172e+07 L2.732e+07,1.172e+07 L2.732e+07,1.12e+06 L3.92e+06,1.12e+06"/>
</g>

<g fill="#212121" fill-opacity="0.14902" stroke="#212121" stroke-opacity="0.14902" stroke-width="1" stroke-linecap="butt" stroke-linejoin="round" transform="matrix(0.511677,0,0,0.492396,-124.884,-10.8099)"
font-family=".AppleSystemUIFont" font-size="13" font-weight="400" font-style="normal" 
>
<polyline fill="none" vector-effect="none" points="392,112 392,1172 " />
<polyline fill="none" vector-effect="none" points="726.286,112 726.286,1172 " />
<polyline fill="none" vector-effect="none" points="1060.57,112 1060.57,1172 " />
<polyline fill="none" vector-effect="none" points="1394.86,112 1394.86,1172 " />
<polyline fill="none" vector-effect="none" points="1729.14,112 1729.14,1172 " />
<polyline fill="none" vector-effect="none" points="2063.43,112 2063.43,1172 " />
<polyline fill="none" vector-effect="none" points="2397.71,112 2397.71,1172 " />
<polyline fill="none" vector-effect="none" points="2732,112 2732,1172 " />
<polyline fill="none" vector-effect="none" points="392,1172 2732,1172 " />
<polyline fill="none" vector-effect="none" points="392,907 2732,907 " />
<polyline fill="none" vector-effect="none" points="392,642 2732,642 " />
<polyline fill="none" vector-effect="none" points="392,377 2732,377 " />
<polyline fill="none" vector-effect="none" points="392,112 2732,112 " />
</g>

<g fill="#212121" fill-opacity="1" stroke="#212121" stroke-opacity="1" stroke-width="1" stroke-linecap="square" stroke-linejoin="bevel" transform="matrix(0.511677,0,0,0.492396,634.444,655.894)"
font-family="Helvetica" font-size="88" font-weight="400" font-style="normal" 
>
<text fill="#212121" fill-opacity="1" stroke="none" xml:space="preserve" x="0" y="-0.25" font-family="Helvetica" font-size="88" font-weight="400" font-style="normal" 
 >Day</text>
</g>

<g fill="#212121" fill-opacity="1" stroke="#212121" stroke-opacity="1" stroke-width="1" stroke-linecap="square" stroke-linejoin="round" transform="matrix(0.511677,0,0,0.492396,-124.884,-10.8099)"
font-family="Helvetica" font-size="88" font-weight="400" font-style="normal" 
>
<polyline fill="none" vector-effect="none" points="392,1172 2732,1172 " />
<polyline fill="none" vector-effect="none" points="392,112 2732,112 " />
<polyline fill="none" vector-effect="none" points="392,1172 392,1148.6 " />
<polyline fill="none" vector-effect="none" points="392,135.4 392,112 " />
<polyline fill="none" vector-effect="none" points="726.286,1172 726.286,1148.6 " />
<polyline fill="none" vector-effect="none" points="726.286,135.4 726.286,112 " />
<polyline fill="none" vector-effect="none" points="1060.57,1172 1060.57,1148.6 " />
<polyline fill="none" vector-effect="none" points="1060.57,135.4 1060.57,112 " />
<polyline fill="none" vector-effect="none" points="1394.86,1172 1394.86,1148.6 " />
<polyline fill="none" vector-effect="none" points="1394.86,135.4 1394.86,112 " />
<polyline fill="none" vector-effect="none" points="1729.14,1172 1729.14,1148.6 " />
<polyline fill="none" vector-effect="none" points="1729.14,135.4 1729.14,112 " />
<polyline fill="none" vector-effect="none" points="2063.43,1172 2063.43,1148.6 " />
<polyline fill="none" vector-effect="none" points="2063.43,135.4 2063.43,112 " />
<polyline fill="none" vector-effect="none" points="2397.71,1172 2397.71,1148.6 " />
<polyline fill="none" vector-effect="none" points="2397.71,135.4 2397.71,112 " />
<polyline fill="none" vector-effect="none" points="2732,1172 2732,1148.6 " />
<polyline fill="none" vector-effect="none" points="2732,135.4 2732,112 " />
</g>

<g fill="#212121" fill-opacity="1" stroke="#212121" stroke-opacity="1" stroke-width="1" stroke-linecap="square" stroke-linejoin="bevel" transform="matrix(0.511677,0,0,0.492396,64.4362,606.655)"
font-family="Helvetica" font-size="80" font-weight="400" font-style="normal" 
>
<text fill="#212121" fill-opacity="1" stroke="none" xml:space="preserve" x="0" y="-0.40625" font-family="Helvetica" font-size="80" font-weight="400" font-style="normal" 
 >0</text>
</g>

<g fill="#212121" fill-opacity="1" stroke="#212121" stroke-opacity="1" stroke-width="1" stroke-linecap="square" stroke-linejoin="bevel" transform="matrix(0.511677,0,0,0.492396,235.482,606.655)"
font-family="Helvetica" font-size="80" font-weight="400" font-style="normal" 
>
<text fill="#212121" fill-opacity="1" stroke="none" xml:space="preserve" x="0" y="-0.40625" font-family="Helvetica" font-size="80" font-weight="400" font-style="normal" 
 >1</text>
</g>

<g fill="#212121" fill-opacity="1" stroke="#212121" stroke-opacity="1" stroke-width="1" stroke-linecap="square" stroke-linejoin="bevel" transform="matrix(0.511677,0,0,0.492396,406.529,606.655)"
font-family="Helvetica" font-size="80" font-weight="400" font-style="normal" 
>
<text fill="#212121" fill-opacity="1" stroke="none" xml:space="preserve" x="0" y="-0.40625" font-family="Helvetica" font-size="80" font-weight="400" font-style="normal" 
 >2</text>
</g>

<g fill="#212121" fill-opacity="1" stroke="#212121" stroke-opacity="1" stroke-width="1" stroke-linecap="square" stroke-linejoin="bevel" transform="matrix(0.511677,0,0,0.492396,577.575,606.655)"
font-family="Helvetica" font-size="80" font-weight="400" font-style="normal" 
>
<text fill="#212121" fill-opacity="1" stroke="none" xml:space="preserve" x="0" y="-0.40625" font-family="Helvetica" font-size="80" font-weight="400" font-style="normal" 
 >3</text>
</g>

<g fill="#212121" fill-opacity="1" stroke="#212121" stroke-opacity="1" stroke-width="1" stroke-linecap="square" stroke-linejoin="bevel" transform="matrix(0.511677,0,0,0.492396,748.621,606.655)"
font-family="Helvetica" font-size="80" font-weight="400" font-style="normal" 
>
<text fill="#212121" fill-opacity="1" stroke="none" xml:space="preserve" x="0" y="-0.40625" font-family="Helvetica" font-size="80" font-weight="400" font-style="normal" 
 >4</text>
</g>

<g fill="#212121" fill-opacity="1" stroke="#212121" stroke-opacity="1" stroke-width="1" stroke-linecap="square" stroke-linejoin="bevel" transform="matrix(0.511677,0,0,0.492396,919.667,606.655)"
font-family="Helvetica" font-size="80" font-weight="400" font-style="normal" 
>
<text fill="#212121" fill-opacity="1" stroke="none" xml:space="preserve" x="0" y="-0.40625" font-family="Helvetica" font-size="80" font-weight="400" font-style="normal" 
 >5</text>
</g>

<g fill="#212121" fill-opacity="1" stroke="#212121" stroke-opacity="1" stroke-width="1" stroke-linecap="square" stroke-linejoin="bevel" transform="matrix(0.511677,0,0,0.492396,1090.71,606.655)"
font-family="Helvetica" font-size="80" font-weight="400" font-style="normal" 
>
<text fill="#212121" fill-opacity="1" stroke="none" xml:space="preserve" x="0" y="-0.40625" font-family="Helvetica" font-size="80" font-weight="400" font-style="normal" 
 >6</text>
</g>

<g fill="#212121" fill-opacity="1" stroke="#212121" stroke-opacity="1" stroke-width="1" stroke-linecap="square" stroke-linejoin="bevel" transform="matrix(0.511677,0,0,0.492396,1261.76,606.655)"
font-family="Helvetica" font-size="80" font-weight="400" font-style="normal" 
>
<text fill="#212121" fill-opacity="1" stroke="none" xml:space="preserve" x="0" y="-0.40625" font-family="Helvetica" font-size="80" font-weight="400" font-style="normal" 
 >7</text>
</g>

<g fill="#212121" fill-opacity="1" stroke="#212121" stroke-opacity="1" stroke-width="1" stroke-linecap="square" stroke-linejoin="round" transform="matrix(0.511677,0,0,0.492396,-124.884,-10.8099)"
font-family="Helvetica" font-size="80" font-weight="400" font-style="normal" 
>
<polyline fill="none" vector-effect="none" points="392,1172 392,112 " />
<polyline fill="none" vector-effect="none" points="2732,1172 2732,112 " />
<polyline fill="none" vector-effect="none" points="392,1172 415.4,1172 " />
<polyline fill="none" vector-effect="none" points="2708.6,1172 2732,1172 " />
<polyline fill="none" vector-effect="none" points="392,907 415.4,907 " />
<polyline fill="none" vector-effect="none" points="2708.6,907 2732,907 " />
<polyline fill="none" vector-effect="none" points="392,642 415.4,642 " />
<polyline fill="none" vector-effect="none" points="2708.6,642 2732,642 " />
<polyline fill="none" vector-effect="none" points="392,377 415.4,377 " />
<polyline fill="none" vector-effect="none" points="2708.6,377 2732,377 " />
<polyline fill="none" vector-effect="none" points="392,112 415.4,112 " />
<polyline fill="none" vector-effect="none" points="2708.6,112 2732,112 " />
</g>

<g fill="#212121" fill-opacity="1" stroke="#212121" stroke-opacity="1" stroke-width="1" stroke-linecap="square" stroke-linejoin="bevel" transform="matrix(0.511677,0,0,0.492396,19.9204,577.111)"
font-family="Helvetica" font-size="80" font-weight="400" font-style="normal" 
>
<text fill="#212121" fill-opacity="1" stroke="none" xml:space="preserve" x="0" y="-0.40625" font-family="Helvetica" font-size="80" font-weight="400" font-style="normal" 
 >70</text>
</g>

<g fill="#212121" fill-opacity="1" stroke="#212121" stroke-opacity="1" stroke-width="1" stroke-linecap="square" stroke-linejoin="bevel" transform="matrix(0.511677,0,0,0.492396,19.9204,446.626)"
font-family="Helvetica" font-size="80" font-weight="400" font-style="normal" 
>
<text fill="#212121" fill-opacity="1" stroke="none" xml:space="preserve" x="0" y="-0.40625" font-family="Helvetica" font-size="80" font-weight="400" font-style="normal" 
 >80</text>
</g>

<g fill="#212121" fill-opacity="1" stroke="#212121" stroke-opacity="1" stroke-width="1" stroke-linecap="square" stroke-linejoin="bevel" transform="matrix(0.511677,0,0,0.492396,19.9204,316.141)"
font-family="Helvetica" font-size="80" font-weight="400" font-style="normal" 
>
<text fill="#212121" fill-opacity="1" stroke="none" xml:space="preserve" x="0" y="-0.40625" font-family="Helvetica" font-size="80" font-weight="400" font-style="normal" 
 >90</text>
</g>

<g fill="#212121" fill-opacity="1" stroke="#212121" stroke-opacity="1" stroke-width="1" stroke-linecap="square" stroke-linejoin="bevel" transform="matrix(0.511677,0,0,0.492396,-2.59341,185.656)"
font-family="Helvetica" font-size="80" font-weight="400" font-style="normal" 
>
<text fill="#212121" fill-opacity="1" stroke="none" xml:space="preserve" x="0" y="-0.40625" font-family="Helvetica" font-size="80" font-weight="400" font-style="normal" 
 >100</text>
</g>

<g fill="#212121" fill-opacity="1" stroke="#212121" stroke-opacity="1" stroke-width="1" stroke-linecap="square" stroke-linejoin="bevel" transform="matrix(0.511677,0,0,0.492396,-0.0350299,55.1712)"
font-family="Helvetica" font-size="80" font-weight="400" font-style="normal" 
>
<text fill="#212121" fill-opacity="1" stroke="none" xml:space="preserve" x="0" y="-0.40625" font-family="Helvetica" font-size="80" font-weight="400" font-style="normal" 
 >110</text>
</g>

<g fill="#212121" fill-opacity="1" stroke="#212121" stroke-opacity="1" stroke-width="1" stroke-linecap="square" stroke-linejoin="bevel" transform="matrix(0.511677,0,0,0.492396,356.604,30.5514)"
font-family="Helvetica" font-size="80" font-weight="700" font-style="normal" 
>
<text fill="#212121" fill-opacity="1" stroke="none" xml:space="preserve" x="0" y="-0.40625" font-family="Helvetica" font-size="80" font-weight="700" font-style="normal" 
 >st1.68.vpi (N=2 surviving, 1 died)</text>
</g>

<g fill="none" stroke="#000000" stroke-opacity="1" stroke-width="2" stroke-linecap="butt" stroke-linejoin="round" transform="matrix(0.511677,0,0,0.492396,-124.884,-10.8099)"
font-family="Helvetica" font-size="80" font-weight="700" font-style="normal" 
>
<polyline fill="none" vector-effect="none" points="392,377 726.286,403.768 1060.57,818.667 " />
</g>

<g fill="#ff0000" fill-opacity="1" stroke="#ff0000" stroke-opacity="1" stroke-width="4" stroke-linecap="butt" stroke-linejoin="miter" stroke-miterlimit="2" transform="matrix(0.511677,0,0,0.492396,-124.884,-10.8099)"
font-family="Helvetica" font-size="80" font-weight="700" font-style="normal" 
>
<polyline fill="none" vector-effect="none" points="1053.5,811.596 1067.64,825.738 " />
<polyline fill="none" vector-effect="none" points="1053.5,825.738 1067.64,811.596 " />
</g>

<g fill="#0073bd" fill-opacity="0.301961" stroke="none" transform="matrix(5.11677e-05,0,0,4.92396e-05,-124.884,-10.8099)"
font-family="Helvetica" font-size="80" font-weight="700" font-style="normal" 
>
<path vector-effect="none" fill-rule="evenodd" d="M7.26286e+06,5.74941e+06 L1.06057e+07,8.494e+06 L1.39486e+07,9.35031e+06 L1.72914e+07,1.02553e+07 L2.06343e+07,8.05713e+06 L2.39771e+07,8.56439e+06 L2.732e+07,6.37618e+06 L2.732e+07,5.6851e+06 L2.39771e+07,4.63473e+06 L2.06343e+07,4.8905e+06 L1.72914e+07,4.68208e+06 L1.39486e+07,6.35594e+06 L1.06057e+07,5.73979e+06 L7.26286e+06,3.93658e+06 L3.92e+06,3.77e+06 L7.26286e+06,5.74941e+06"/>
</g>

<g fill="none" stroke="#0073bd" stroke-opacity="1" stroke-width="8" stroke-linecap="butt" stroke-linejoin="round" transform="matrix(0.511677,0,0,0.492396,-124.884,-10.8099)"
font-family="Helvetica" font-size="80" font-weight="700" font-style="normal" 
>
<polyline fill="none" vector-effect="none" points="392,377 726.286,484.3 1060.57,711.689 1394.86,785.312 1729.14,746.871 2063.43,647.381 2397.71,659.956 2732,603.064 " />
</g>
</g>
</svg>
