<?xml version="1.0" encoding="UTF-8" standalone="no"?>
<svg width="247.65mm" height="198.967mm"
 viewBox="0 0 702 564"
 xmlns="http://www.w3.org/2000/svg" xmlns:xlink="http://www.w3.org/1999/xlink"  version="1.2" baseProfile="tiny">
<title>Qt SVG Document</title>
<desc>MATLAB, The MathWorks, Inc. Version 25.2.0.3042426 R2025b Update 1</desc>
<defs>
</defs>
<g fill="none" stroke="black" stroke-width="1" fill-rule="evenodd" stroke-linecap="square" stroke-linejoin="bevel" >

<g fill="#ffffff" fill-opacity="1" stroke="none" transform="matrix(0.527547,0,0,0.528497,-51.2547,-17.7902)"
font-family=".AppleSystemUIFont" font-size="13" font-weight="400" font-style="normal" 
>
<path vector-effect="none" fill-rule="evenodd" d="M96,33 L1428,33 L1428,1101 L96,1101 L96,33"/>
</g>

<g fill="#ffffff" fill-opacity="1" stroke="none" transform="matrix(5.27547e-05,0,0,5.28497e-05,-51.2547,-17.7902)"
font-family=".AppleSystemUIFont" font-size="13" font-weight="400" font-style="normal" 
>
<path vector-effect="none" fill-rule="evenodd" d="M2.05e+06,840000 L2.05e+06,9.95e+06 L1.425e+07,9.95e+06 L1.425e+07,840000 L2.05e+06,840000"/>
</g>

<g fill="#212121" fill-opacity="0.14902" stroke="#212121" stroke-opacity="0.14902" stroke-width="1" stroke-linecap="butt" stroke-linejoin="round" transform="matrix(0.527547,0,0,0.528497,-51.2547,-17.7902)"
font-family=".AppleSystemUIFont" font-size="13" font-weight="400" font-style="normal" 
>
<polyline fill="none" vector-effect="none" points="357.5,84 357.5,995 " />
<polyline fill="none" vector-effect="none" points="662.5,84 662.5,995 " />
<polyline fill="none" vector-effect="none" points="967.5,84 967.5,995 " />
<polyline fill="none" vector-effect="none" points="1272.5,84 1272.5,995 " />
<polyline fill="none" vector-effect="none" points="205,995 1425,995 " />
<polyline fill="none" vector-effect="none" points="205,864.857 1425,864.857 " />
<polyline fill="none" vector-effect="none" points="205,734.714 1425,734.714 " />
<polyline fill="none" vector-effect="none" points="205,604.571 1425,604.571 " />
<polyline fill="none" vector-effect="none" points="205,474.429 1425,474.429 " />
<polyline fill="none" vector-effect="none" points="205,344.286 1425,344.286 " />
<polyline fill="none" vector-effect="none" points="205,214.143 1425,214.143 " />
<polyline fill="none" vector-effect="none" points="205,84 1425,84 " />
</g>

<g fill="#212121" fill-opacity="1" stroke="#212121" stroke-opacity="1" stroke-width="1" stroke-linecap="square" stroke-linejoin="bevel" transform="matrix(0.527547,0,0,0.528497,358.122,557.744)"
font-family="Helvetica" font-size="44" font-weight="400" font-style="normal" 
>
<text fill="#212121" fill-opacity="1" stroke="none" xml:space="preserve" x="0" y="-0.125" font-family="Helvetica" font-size="44" font-weight="400" font-style="normal" 
 >Day</text>
</g>

<g fill="#212121" fill-opacity="1" stroke="#212121" stroke-opacity="1" stroke-width="1" stroke-linecap="square" stroke-linejoin="round" transform="matrix(0.527547,0,0,0.528497,-51.2547,-17.7902)"
font-family="Helvetica" font-size="44" font-weight="400" font-style="normal" 
>
<polyline fill="none" vector-effect="none" points="205,995 1425,995 " />
<polyline fill="none" vector-effect="none" points="205,84 1425,84 " />
<polyline fill="none" vector-effect="none" points="357.5,995 357.5,982.8 " />
<polyline fill="none" vector-effect="none" points="357.5,96.2 357.5,84 " />
<polyline fill="none" vector-effect="none" points="662.5,995 662.5,982.8 " />
<polyline fill="none" vector-effect="none" points="662.5,96.2 662.5,84 " />
<polyline fill="none" vector-effect="none" points="967.5,995 967.5,982.8 " />
<polyline fill="none" vector-effect="none" points="967.5,96.2 967.5,84 " />
<polyline fill="none" vector-effect="none" points="1272.5,995 1272.5,982.8 " />
<polyline fill="none" vector-effect="none" points="1272.5,96.2 1272.5,84 " />
</g>

<g fill="#212121" fill-opacity="1" stroke="#212121" stroke-opacity="1" stroke-width="1" stroke-linecap="square" stroke-linejoin="bevel" transform="matrix(0.527547,0,0,0.528497,109.911,530.79)"
font-family="Helvetica" font-size="40" font-weight="400" font-style="normal" 
>
<text fill="#212121" fill-opacity="1" stroke="none" xml:space="preserve" x="0" y="-0.203125" font-family="Helvetica" font-size="40" font-weight="400" font-style="normal" 
 >Day 0</text>
</g>

<g fill="#212121" fill-opacity="1" stroke="#212121" stroke-opacity="1" stroke-width="1" stroke-linecap="square" stroke-linejoin="bevel" transform="matrix(0.527547,0,0,0.528497,270.813,530.79)"
font-family="Helvetica" font-size="40" font-weight="400" font-style="normal" 
>
<text fill="#212121" fill-opacity="1" stroke="none" xml:space="preserve" x="0" y="-0.203125" font-family="Helvetica" font-size="40" font-weight="400" font-style="normal" 
 >Day 1</text>
</g>

<g fill="#212121" fill-opacity="1" stroke="#212121" stroke-opacity="1" stroke-width="1" stroke-linecap="square" stroke-linejoin="bevel" transform="matrix(0.527547,0,0,0.528497,431.715,530.79)"
font-family="Helvetica" font-size="40" font-weight="400" font-style="normal" 
>
<text fill="#212121" fill-opacity="1" stroke="none" xml:space="preserve" x="0" y="-0.203125" font-family="Helvetica" font-size="40" font-weight="400" font-style="normal" 
 >Day 2</text>
</g>

<g fill="#212121" fill-opacity="1" stroke="#212121" stroke-opacity="1" stroke-width="1" stroke-linecap="square" stroke-linejoin="bevel" transform="matrix(0.527547,0,0,0.528497,592.617,530.79)"
font-family="Helvetica" font-size="40" font-weight="400" font-style="normal" 
>
<text fill="#212121" fill-opacity="1" stroke="none" xml:space="preserve" x="0" y="-0.203125" font-family="Helvetica" font-size="40" font-weight="400" font-style="normal" 
 >Day 7</text>
</g>

<g fill="#212121" fill-opacity="1" stroke="#212121" stroke-opacity="1" stroke-width="1" stroke-linecap="square" stroke-linejoin="bevel" transform="matrix(0,-0.528497,0.527547,0,18.3815,459.971)"
font-family="Helvetica" font-size="44" font-weight="400" font-style="normal" 
>
<text fill="#212121" fill-opacity="1" stroke="none" xml:space="preserve" x="0" y="-0.125" font-family="Helvetica" font-size="44" font-weight="400" font-style="normal" 
 >Clostridioides relative abundance (%)</text>
</g>

<g fill="#212121" fill-opacity="1" stroke="#212121" stroke-opacity="1" stroke-width="1" stroke-linecap="square" stroke-linejoin="round" transform="matrix(0.527547,0,0,0.528497,-51.2547,-17.7902)"
font-family="Helvetica" font-size="44" font-weight="400" font-style="normal" 
>
<polyline fill="none" vector-effect="none" points="205,995 205,84 " />
<polyline fill="none" vector-effect="none" points="1425,995 1425,84 " />
<polyline fill="none" vector-effect="none" points="205,995 217.2,995 " />
<polyline fill="none" vector-effect="none" points="1412.8,995 1425,995 " />
<polyline fill="none" vector-effect="none" points="205,864.857 217.2,864.857 " />
<polyline fill="none" vector-effect="none" points="1412.8,864.857 1425,864.857 " />
<polyline fill="none" vector-effect="none" points="205,734.714 217.2,734.714 " />
<polyline fill="none" vector-effect="none" points="1412.8,734.714 1425,734.714 " />
<polyline fill="none" vector-effect="none" points="205,604.571 217.2,604.571 " />
<polyline fill="none" vector-effect="none" points="1412.8,604.571 1425,604.571 " />
<polyline fill="none" vector-effect="none" points="205,474.429 217.2,474.429 " />
<polyline fill="none" vector-effect="none" points="1412.8,474.429 1425,474.429 " />
<polyline fill="none" vector-effect="none" points="205,344.286 217.2,344.286 " />
<polyline fill="none" vector-effect="none" points="1412.8,344.286 1425,344.286 " />
<polyline fill="none" vector-effect="none" points="205,214.143 217.2,214.143 " />
<polyline fill="none" vector-effect="none" points="1412.8,214.143 1425,214.143 " />
<polyline fill="none" vector-effect="none" points="205,84 217.2,84 " />
<polyline fill="none" vector-effect="none" points="1412.8,84 1425,84 " />
</g>

<g fill="#212121" fill-opacity="1" stroke="#212121" stroke-opacity="1" stroke-width="1" stroke-linecap="square" stroke-linejoin="bevel" transform="matrix(0.527547,0,0,0.528497,31.5702,513.878)"
font-family="Helvetica" font-size="40" font-weight="400" font-style="normal" 
>
<text fill="#212121" fill-opacity="1" stroke="none" xml:space="preserve" x="0" y="-0.203125" font-family="Helvetica" font-size="40" font-weight="400" font-style="normal" 
 >-5</text>
</g>

<g fill="#212121" fill-opacity="1" stroke="#212121" stroke-opacity="1" stroke-width="1" stroke-linecap="square" stroke-linejoin="bevel" transform="matrix(0.527547,0,0,0.528497,38.9559,445.098)"
font-family="Helvetica" font-size="40" font-weight="400" font-style="normal" 
>
<text fill="#212121" fill-opacity="1" stroke="none" xml:space="preserve" x="0" y="-0.203125" font-family="Helvetica" font-size="40" font-weight="400" font-style="normal" 
 >0</text>
</g>

<g fill="#212121" fill-opacity="1" stroke="#212121" stroke-opacity="1" stroke-width="1" stroke-linecap="square" stroke-linejoin="bevel" transform="matrix(0.527547,0,0,0.528497,38.9559,376.318)"
font-family="Helvetica" font-size="40" font-weight="400" font-style="normal" 
>
<text fill="#212121" fill-opacity="1" stroke="none" xml:space="preserve" x="0" y="-0.203125" font-family="Helvetica" font-size="40" font-weight="400" font-style="normal" 
 >5</text>
</g>

<g fill="#212121" fill-opacity="1" stroke="#212121" stroke-opacity="1" stroke-width="1" stroke-linecap="square" stroke-linejoin="bevel" transform="matrix(0.527547,0,0,0.528497,27.3498,307.538)"
font-family="Helvetica" font-size="40" font-weight="400" font-style="normal" 
>
<text fill="#212121" fill-opacity="1" stroke="none" xml:space="preserve" x="0" y="-0.203125" font-family="Helvetica" font-size="40" font-weight="400" font-style="normal" 
 >10</text>
</g>

<g fill="#212121" fill-opacity="1" stroke="#212121" stroke-opacity="1" stroke-width="1" stroke-linecap="square" stroke-linejoin="bevel" transform="matrix(0.527547,0,0,0.528497,27.3498,238.758)"
font-family="Helvetica" font-size="40" font-weight="400" font-style="normal" 
>
<text fill="#212121" fill-opacity="1" stroke="none" xml:space="preserve" x="0" y="-0.203125" font-family="Helvetica" font-size="40" font-weight="400" font-style="normal" 
 >15</text>
</g>

<g fill="#212121" fill-opacity="1" stroke="#212121" stroke-opacity="1" stroke-width="1" stroke-linecap="square" stroke-linejoin="bevel" transform="matrix(0.527547,0,0,0.528497,27.3498,169.977)"
font-family="Helvetica" font-size="40" font-weight="400" font-style="normal" 
>
<text fill="#212121" fill-opacity="1" stroke="none" xml:space="preserve" x="0" y="-0.203125" font-family="Helvetica" font-size="40" font-weight="400" font-style="normal" 
 >20</text>
</g>

<g fill="#212121" fill-opacity="1" stroke="#212121" stroke-opacity="1" stroke-width="1" stroke-linecap="square" stroke-linejoin="bevel" transform="matrix(0.527547,0,0,0.528497,27.3498,101.197)"
font-family="Helvetica" font-size="40" font-weight="400" font-style="normal" 
>
<text fill="#212121" fill-opacity="1" stroke="none" xml:space="preserve" x="0" y="-0.203125" font-family="Helvetica" font-size="40" font-weight="400" font-style="normal" 
 >25</text>
</g>

<g fill="#212121" fill-opacity="1" stroke="#212121" stroke-opacity="1" stroke-width="1" stroke-linecap="square" stroke-linejoin="bevel" transform="matrix(0.527547,0,0,0.528497,27.3498,32.4171)"
font-family="Helvetica" font-size="40" font-weight="400" font-style="normal" 
>
<text fill="#212121" fill-opacity="1" stroke="none" xml:space="preserve" x="0" y="-0.203125" font-family="Helvetica" font-size="40" font-weight="400" font-style="normal" 
 >30</text>
</g>

<g fill="#212121" fill-opacity="1" stroke="#212121" stroke-opacity="1" stroke-width="1" stroke-linecap="square" stroke-linejoin="bevel" transform="matrix(0.527547,0,0,0.528497,168.469,18.4119)"
font-family="Helvetica" font-size="44" font-weight="700" font-style="normal" 
>
<text fill="#212121" fill-opacity="1" stroke="none" xml:space="preserve" x="0" y="-0.125" font-family="Helvetica" font-size="44" font-weight="700" font-style="normal" 
 >Clostridioides abundance (mnvc only)</text>
</g>

<g fill="#0073bd" fill-opacity="0.701961" stroke="none" transform="matrix(0.527547,0,0,0.528497,-51.2547,-17.7902)"
font-family="Helvetica" font-size="44" font-weight="700" font-style="normal" 
>
<circle cx="311.75" cy="864.857" r="6.32456"/>
<circle cx="311.75" cy="864.857" r="6.32456"/>
<circle cx="311.75" cy="864.857" r="6.32456"/>
<circle cx="311.75" cy="864.857" r="6.32456"/>
<circle cx="311.75" cy="864.857" r="6.32456"/>
</g>

<g fill="#000000" fill-opacity="1" stroke="none" transform="matrix(0.527547,0,0,0.528497,-51.2547,-17.7902)"
font-family="Helvetica" font-size="44" font-weight="700" font-style="normal" 
>
<circle cx="311.75" cy="864.857" r="2"/>
</g>

<g fill="none" stroke="#000000" stroke-opacity="1" stroke-width="3" stroke-linecap="butt" stroke-linejoin="miter" stroke-miterlimit="2" transform="matrix(0.527547,0,0,0.528497,-51.2547,-17.7902)"
font-family="Helvetica" font-size="44" font-weight="700" font-style="normal" 
>
<path vector-effect="none" fill-rule="evenodd" d="M313.75,864.857 C313.75,863.753 312.855,862.857 311.75,862.857 C310.645,862.857 309.75,863.753 309.75,864.857 C309.75,865.962 310.645,866.857 311.75,866.857 C312.855,866.857 313.75,865.962 313.75,864.857 "/>
</g>

<g fill="#000000" fill-opacity="1" stroke="#000000" stroke-opacity="1" stroke-width="3" stroke-linecap="butt" stroke-linejoin="miter" stroke-miterlimit="2" transform="matrix(0.527547,0,0,0.528497,-51.2547,-17.7902)"
font-family="Helvetica" font-size="44" font-weight="700" font-style="normal" 
>
<polyline fill="none" vector-effect="none" points="306.75,864.857 316.75,864.857 " />
<polyline fill="none" vector-effect="none" points="306.75,864.857 316.75,864.857 " />
</g>

<g fill="#e6804d" fill-opacity="0.701961" stroke="none" transform="matrix(0.527547,0,0,0.528497,-51.2547,-17.7902)"
font-family="Helvetica" font-size="44" font-weight="700" font-style="normal" 
>
<circle cx="403.25" cy="864.857" r="6.32456"/>
<circle cx="403.25" cy="864.506" r="6.32456"/>
<circle cx="403.25" cy="864.857" r="6.32456"/>
</g>

<g fill="#000000" fill-opacity="1" stroke="#000000" stroke-opacity="1" stroke-width="3" stroke-linecap="butt" stroke-linejoin="round" transform="matrix(0.527547,0,0,0.528497,-51.2547,-17.7902)"
font-family="Helvetica" font-size="44" font-weight="700" font-style="normal" 
>
<polyline fill="none" vector-effect="none" points="403.25,864.74 403.25,864.943 " />
<polyline fill="none" vector-effect="none" points="403.25,864.74 403.25,864.538 " />
</g>

<g fill="#000000" fill-opacity="1" stroke="none" transform="matrix(0.527547,0,0,0.528497,-51.2547,-17.7902)"
font-family="Helvetica" font-size="44" font-weight="700" font-style="normal" 
>
<circle cx="403.25" cy="864.74" r="2"/>
</g>

<g fill="none" stroke="#000000" stroke-opacity="1" stroke-width="3" stroke-linecap="butt" stroke-linejoin="miter" stroke-miterlimit="2" transform="matrix(0.527547,0,0,0.528497,-51.2547,-17.7902)"
font-family="Helvetica" font-size="44" font-weight="700" font-style="normal" 
>
<path vector-effect="none" fill-rule="evenodd" d="M405.25,864.74 C405.25,863.636 404.355,862.74 403.25,862.74 C402.145,862.74 401.25,863.636 401.25,864.74 C401.25,865.845 402.145,866.74 403.25,866.74 C404.355,866.74 405.25,865.845 405.25,864.74 "/>
</g>

<g fill="#000000" fill-opacity="1" stroke="#000000" stroke-opacity="1" stroke-width="3" stroke-linecap="butt" stroke-linejoin="miter" stroke-miterlimit="2" transform="matrix(0.527547,0,0,0.528497,-51.2547,-17.7902)"
font-family="Helvetica" font-size="44" font-weight="700" font-style="normal" 
>
<polyline fill="none" vector-effect="none" points="398.25,864.943 408.25,864.943 " />
<polyline fill="none" vector-effect="none" points="398.25,864.538 408.25,864.538 " />
</g>

<g fill="#0073bd" fill-opacity="0.701961" stroke="none" transform="matrix(0.527547,0,0,0.528497,-51.2547,-17.7902)"
font-family="Helvetica" font-size="44" font-weight="700" font-style="normal" 
>
<circle cx="616.75" cy="847.687" r="6.32456"/>
<circle cx="616.75" cy="752.058" r="6.32456"/>
<circle cx="616.75" cy="859.211" r="6.32456"/>
<circle cx="616.75" cy="514.252" r="6.32456"/>
<circle cx="616.75" cy="847.907" r="6.32456"/>
</g>

<g fill="#000000" fill-opacity="1" stroke="#000000" stroke-opacity="1" stroke-width="3" stroke-linecap="butt" stroke-linejoin="round" transform="matrix(0.527547,0,0,0.528497,-51.2547,-17.7902)"
font-family="Helvetica" font-size="44" font-weight="700" font-style="normal" 
>
<polyline fill="none" vector-effect="none" points="616.75,764.223 616.75,910.532 " />
<polyline fill="none" vector-effect="none" points="616.75,764.223 616.75,617.914 " />
</g>

<g fill="#000000" fill-opacity="1" stroke="none" transform="matrix(0.527547,0,0,0.528497,-51.2547,-17.7902)"
font-family="Helvetica" font-size="44" font-weight="700" font-style="normal" 
>
<circle cx="616.75" cy="764.223" r="2"/>
</g>

<g fill="none" stroke="#000000" stroke-opacity="1" stroke-width="3" stroke-linecap="butt" stroke-linejoin="miter" stroke-miterlimit="2" transform="matrix(0.527547,0,0,0.528497,-51.2547,-17.7902)"
font-family="Helvetica" font-size="44" font-weight="700" font-style="normal" 
>
<path vector-effect="none" fill-rule="evenodd" d="M618.75,764.223 C618.75,763.119 617.855,762.223 616.75,762.223 C615.645,762.223 614.75,763.119 614.75,764.223 C614.75,765.328 615.645,766.223 616.75,766.223 C617.855,766.223 618.75,765.328 618.75,764.223 "/>
</g>

<g fill="#000000" fill-opacity="1" stroke="#000000" stroke-opacity="1" stroke-width="3" stroke-linecap="butt" stroke-linejoin="miter" stroke-miterlimit="2" transform="matrix(0.527547,0,0,0.528497,-51.2547,-17.7902)"
font-family="Helvetica" font-size="44" font-weight="700" font-style="normal" 
>
<polyline fill="none" vector-effect="none" points="611.75,910.532 621.75,910.532 " />
<polyline fill="none" vector-effect="none" points="611.75,617.914 621.75,617.914 " />
</g>

<g fill="#e6804d" fill-opacity="0.701961" stroke="none" transform="matrix(0.527547,0,0,0.528497,-51.2547,-17.7902)"
font-family="Helvetica" font-size="44" font-weight="700" font-style="normal" 
>
<circle cx="708.25" cy="670.298" r="6.32456"/>
<circle cx="708.25" cy="571.672" r="6.32456"/>
<circle cx="708.25" cy="275.652" r="6.32456"/>
<circle cx="708.25" cy="678.198" r="6.32456"/>
<circle cx="708.25" cy="184.992" r="6.32456"/>
</g>

<g fill="#000000" fill-opacity="1" stroke="#000000" stroke-opacity="1" stroke-width="3" stroke-linecap="butt" stroke-linejoin="round" transform="matrix(0.527547,0,0,0.528497,-51.2547,-17.7902)"
font-family="Helvetica" font-size="44" font-weight="700" font-style="normal" 
>
<polyline fill="none" vector-effect="none" points="708.25,476.162 708.25,706.712 " />
<polyline fill="none" vector-effect="none" points="708.25,476.162 708.25,245.612 " />
</g>

<g fill="#000000" fill-opacity="1" stroke="none" transform="matrix(0.527547,0,0,0.528497,-51.2547,-17.7902)"
font-family="Helvetica" font-size="44" font-weight="700" font-style="normal" 
>
<circle cx="708.25" cy="476.162" r="2"/>
</g>

<g fill="none" stroke="#000000" stroke-opacity="1" stroke-width="3" stroke-linecap="butt" stroke-linejoin="miter" stroke-miterlimit="2" transform="matrix(0.527547,0,0,0.528497,-51.2547,-17.7902)"
font-family="Helvetica" font-size="44" font-weight="700" font-style="normal" 
>
<path vector-effect="none" fill-rule="evenodd" d="M710.25,476.162 C710.25,475.058 709.355,474.162 708.25,474.162 C707.145,474.162 706.25,475.058 706.25,476.162 C706.25,477.267 707.145,478.162 708.25,478.162 C709.355,478.162 710.25,477.267 710.25,476.162 "/>
</g>

<g fill="#000000" fill-opacity="1" stroke="#000000" stroke-opacity="1" stroke-width="3" stroke-linecap="butt" stroke-linejoin="miter" stroke-miterlimit="2" transform="matrix(0.527547,0,0,0.528497,-51.2547,-17.7902)"
font-family="Helvetica" font-size="44" font-weight="700" font-style="normal" 
>
<polyline fill="none" vector-effect="none" points="703.25,706.712 713.25,706.712 " />
<polyline fill="none" vector-effect="none" points="703.25,245.612 713.25,245.612 " />
</g>

<g fill="#0073bd" fill-opacity="0.701961" stroke="none" transform="matrix(0.527547,0,0,0.528497,-51.2547,-17.7902)"
font-family="Helvetica" font-size="44" font-weight="700" font-style="normal" 
>
<circle cx="921.75" cy="670.292" r="6.32456"/>
<circle cx="921.75" cy="699.557" r="6.32456"/>
<circle cx="921.75" cy="651.13" r="6.32456"/>
<circle cx="921.75" cy="588.408" r="6.32456"/>
<circle cx="921.75" cy="646.203" r="6.32456"/>
</g>

<g fill="#000000" fill-opacity="1" stroke="#000000" stroke-opacity="1" stroke-width="3" stroke-linecap="butt" stroke-linejoin="round" transform="matrix(0.527547,0,0,0.528497,-51.2547,-17.7902)"
font-family="Helvetica" font-size="44" font-weight="700" font-style="normal" 
>
<polyline fill="none" vector-effect="none" points="921.75,651.118 921.75,691.955 " />
<polyline fill="none" vector-effect="none" points="921.75,651.118 921.75,610.281 " />
</g>

<g fill="#000000" fill-opacity="1" stroke="none" transform="matrix(0.527547,0,0,0.528497,-51.2547,-17.7902)"
font-family="Helvetica" font-size="44" font-weight="700" font-style="normal" 
>
<circle cx="921.75" cy="651.118" r="2"/>
</g>

<g fill="none" stroke="#000000" stroke-opacity="1" stroke-width="3" stroke-linecap="butt" stroke-linejoin="miter" stroke-miterlimit="2" transform="matrix(0.527547,0,0,0.528497,-51.2547,-17.7902)"
font-family="Helvetica" font-size="44" font-weight="700" font-style="normal" 
>
<path vector-effect="none" fill-rule="evenodd" d="M923.75,651.118 C923.75,650.013 922.855,649.118 921.75,649.118 C920.645,649.118 919.75,650.013 919.75,651.118 C919.75,652.223 920.645,653.118 921.75,653.118 C922.855,653.118 923.75,652.223 923.75,651.118 "/>
</g>

<g fill="#000000" fill-opacity="1" stroke="#000000" stroke-opacity="1" stroke-width="3" stroke-linecap="butt" stroke-linejoin="miter" stroke-miterlimit="2" transform="matrix(0.527547,0,0,0.528497,-51.2547,-17.7902)"
font-family="Helvetica" font-size="44" font-weight="700" font-style="normal" 
>
<polyline fill="none" vector-effect="none" points="916.75,691.955 926.75,691.955 " />
<polyline fill="none" vector-effect="none" points="916.75,610.281 926.75,610.281 " />
</g>

<g fill="#e6804d" fill-opacity="0.701961" stroke="none" transform="matrix(0.527547,0,0,0.528497,-51.2547,-17.7902)"
font-family="Helvetica" font-size="44" font-weight="700" font-style="normal" 
>
<circle cx="1013.25" cy="524.42" r="6.32456"/>
<circle cx="1013.25" cy="720.696" r="6.32456"/>
<circle cx="1013.25" cy="592.569" r="6.32456"/>
<circle cx="1013.25" cy="320.504" r="6.32456"/>
</g>

<g fill="#000000" fill-opacity="1" stroke="#000000" stroke-opacity="1" stroke-width="3" stroke-linecap="butt" stroke-linejoin="round" transform="matrix(0.527547,0,0,0.528497,-51.2547,-17.7902)"
font-family="Helvetica" font-size="44" font-weight="700" font-style="normal" 
>
<polyline fill="none" vector-effect="none" points="1013.25,539.547 1013.25,706.714 " />
<polyline fill="none" vector-effect="none" points="1013.25,539.547 1013.25,372.38 " />
</g>

<g fill="#000000" fill-opacity="1" stroke="none" transform="matrix(0.527547,0,0,0.528497,-51.2547,-17.7902)"
font-family="Helvetica" font-size="44" font-weight="700" font-style="normal" 
>
<circle cx="1013.25" cy="539.547" r="2"/>
</g>

<g fill="none" stroke="#000000" stroke-opacity="1" stroke-width="3" stroke-linecap="butt" stroke-linejoin="miter" stroke-miterlimit="2" transform="matrix(0.527547,0,0,0.528497,-51.2547,-17.7902)"
font-family="Helvetica" font-size="44" font-weight="700" font-style="normal" 
>
<path vector-effect="none" fill-rule="evenodd" d="M1015.25,539.547 C1015.25,538.442 1014.35,537.547 1013.25,537.547 C1012.15,537.547 1011.25,538.442 1011.25,539.547 C1011.25,540.652 1012.15,541.547 1013.25,541.547 C1014.35,541.547 1015.25,540.652 1015.25,539.547 "/>
</g>

<g fill="#000000" fill-opacity="1" stroke="#000000" stroke-opacity="1" stroke-width="3" stroke-linecap="butt" stroke-linejoin="miter" stroke-miterlimit="2" transform="matrix(0.527547,0,0,0.528497,-51.2547,-17.7902)"
font-family="Helvetica" font-size="44" font-weight="700" font-style="normal" 
>
<polyline fill="none" vector-effect="none" points="1008.25,706.714 1018.25,706.714 " />
<polyline fill="none" vector-effect="none" points="1008.25,372.38 1018.25,372.38 " />
</g>

<g fill="#0073bd" fill-opacity="0.701961" stroke="none" transform="matrix(0.527547,0,0,0.528497,-51.2547,-17.7902)"
font-family="Helvetica" font-size="44" font-weight="700" font-style="normal" 
>
<circle cx="1226.75" cy="856.629" r="6.32456"/>
<circle cx="1226.75" cy="465.95" r="6.32456"/>
<circle cx="1226.75" cy="842.742" r="6.32456"/>
<circle cx="1226.75" cy="858.486" r="6.32456"/>
<circle cx="1226.75" cy="759.736" r="6.32456"/>
</g>

<g fill="#000000" fill-opacity="1" stroke="#000000" stroke-opacity="1" stroke-width="3" stroke-linecap="butt" stroke-linejoin="round" transform="matrix(0.527547,0,0,0.528497,-51.2547,-17.7902)"
font-family="Helvetica" font-size="44" font-weight="700" font-style="normal" 
>
<polyline fill="none" vector-effect="none" points="1226.75,756.709 1226.75,924.26 " />
<polyline fill="none" vector-effect="none" points="1226.75,756.709 1226.75,589.157 " />
</g>

<g fill="#000000" fill-opacity="1" stroke="none" transform="matrix(0.527547,0,0,0.528497,-51.2547,-17.7902)"
font-family="Helvetica" font-size="44" font-weight="700" font-style="normal" 
>
<circle cx="1226.75" cy="756.709" r="2"/>
</g>

<g fill="none" stroke="#000000" stroke-opacity="1" stroke-width="3" stroke-linecap="butt" stroke-linejoin="miter" stroke-miterlimit="2" transform="matrix(0.527547,0,0,0.528497,-51.2547,-17.7902)"
font-family="Helvetica" font-size="44" font-weight="700" font-style="normal" 
>
<path vector-effect="none" fill-rule="evenodd" d="M1228.75,756.709 C1228.75,755.604 1227.85,754.709 1226.75,754.709 C1225.65,754.709 1224.75,755.604 1224.75,756.709 C1224.75,757.813 1225.65,758.709 1226.75,758.709 C1227.85,758.709 1228.75,757.813 1228.75,756.709 "/>
</g>

<g fill="#000000" fill-opacity="1" stroke="#000000" stroke-opacity="1" stroke-width="3" stroke-linecap="butt" stroke-linejoin="miter" stroke-miterlimit="2" transform="matrix(0.527547,0,0,0.528497,-51.2547,-17.7902)"
font-family="Helvetica" font-size="44" font-weight="700" font-style="normal" 
>
<polyline fill="none" vector-effect="none" points="1221.75,924.26 1231.75,924.26 " />
<polyline fill="none" vector-effect="none" points="1221.75,589.157 1231.75,589.157 " />
</g>

<g fill="#e6804d" fill-opacity="0.701961" stroke="none" transform="matrix(0.527547,0,0,0.528497,-51.2547,-17.7902)"
font-family="Helvetica" font-size="44" font-weight="700" font-style="normal" 
>
<circle cx="1318.25" cy="825.348" r="6.32456"/>
<circle cx="1318.25" cy="774.622" r="6.32456"/>
<circle cx="1318.25" cy="717.375" r="6.32456"/>
<circle cx="1318.25" cy="670.666" r="6.32456"/>
<circle cx="1318.25" cy="632.525" r="6.32456"/>
</g>

<g fill="#000000" fill-opacity="1" stroke="#000000" stroke-opacity="1" stroke-width="3" stroke-linecap="butt" stroke-linejoin="round" transform="matrix(0.527547,0,0,0.528497,-51.2547,-17.7902)"
font-family="Helvetica" font-size="44" font-weight="700" font-style="normal" 
>
<polyline fill="none" vector-effect="none" points="1318.25,724.107 1318.25,801.712 " />
<polyline fill="none" vector-effect="none" points="1318.25,724.107 1318.25,646.502 " />
</g>

<g fill="#000000" fill-opacity="1" stroke="none" transform="matrix(0.527547,0,0,0.528497,-51.2547,-17.7902)"
font-family="Helvetica" font-size="44" font-weight="700" font-style="normal" 
>
<circle cx="1318.25" cy="724.107" r="2"/>
</g>

<g fill="none" stroke="#000000" stroke-opacity="1" stroke-width="3" stroke-linecap="butt" stroke-linejoin="miter" stroke-miterlimit="2" transform="matrix(0.527547,0,0,0.528497,-51.2547,-17.7902)"
font-family="Helvetica" font-size="44" font-weight="700" font-style="normal" 
>
<path vector-effect="none" fill-rule="evenodd" d="M1320.25,724.107 C1320.25,723.003 1319.35,722.107 1318.25,722.107 C1317.15,722.107 1316.25,723.003 1316.25,724.107 C1316.25,725.212 1317.15,726.107 1318.25,726.107 C1319.35,726.107 1320.25,725.212 1320.25,724.107 "/>
</g>

<g fill="#000000" fill-opacity="1" stroke="#000000" stroke-opacity="1" stroke-width="3" stroke-linecap="butt" stroke-linejoin="miter" stroke-miterlimit="2" transform="matrix(0.527547,0,0,0.528497,-51.2547,-17.7902)"
font-family="Helvetica" font-size="44" font-weight="700" font-style="normal" 
>
<polyline fill="none" vector-effect="none" points="1313.25,801.712 1323.25,801.712 " />
<polyline fill="none" vector-effect="none" points="1313.25,646.502 1323.25,646.502 " />
</g>

<g fill="#ffffff" fill-opacity="1" stroke="none" transform="matrix(5.27547e-05,0,0,5.28497e-05,-51.2547,-17.7902)"
font-family="Helvetica" font-size="44" font-weight="700" font-style="normal" 
>
<path vector-effect="none" fill-rule="evenodd" d="M1.245e+07,1e+06 L1.245e+07,1.89e+06 L1.409e+07,1.89e+06 L1.409e+07,1e+06 L1.245e+07,1e+06"/>
</g>

<g fill="#0073bd" fill-opacity="1" stroke="none" transform="matrix(0.527547,0,0,0.528497,-51.2547,-17.7902)"
font-family="Helvetica" font-size="44" font-weight="700" font-style="normal" 
>
<circle cx="1266.34" cy="123.566" r="6"/>
</g>

<g fill="#e6804d" fill-opacity="1" stroke="none" transform="matrix(0.527547,0,0,0.528497,-51.2547,-17.7902)"
font-family="Helvetica" font-size="44" font-weight="700" font-style="normal" 
>
<circle cx="1266.34" cy="165.434" r="6"/>
</g>

<g fill="#212121" fill-opacity="1" stroke="#212121" stroke-opacity="1" stroke-width="1" stroke-linecap="square" stroke-linejoin="bevel" transform="matrix(0.527547,0,0,0.528497,627.27,52.7992)"
font-family="Helvetica" font-size="36" font-weight="400" font-style="normal" 
>
<text fill="#212121" fill-opacity="1" stroke="none" xml:space="preserve" x="0" y="-0.28125" font-family="Helvetica" font-size="36" font-weight="400" font-style="normal" 
 >ST1.75</text>
</g>

<g fill="#212121" fill-opacity="1" stroke="#212121" stroke-opacity="1" stroke-width="1" stroke-linecap="square" stroke-linejoin="bevel" transform="matrix(0.527547,0,0,0.528497,627.27,74.9261)"
font-family="Helvetica" font-size="36" font-weight="400" font-style="normal" 
>
<text fill="#212121" fill-opacity="1" stroke="none" xml:space="preserve" x="0" y="-0.28125" font-family="Helvetica" font-size="36" font-weight="400" font-style="normal" 
 >ST1.12</text>
</g>

<g fill="none" stroke="#212121" stroke-opacity="1" stroke-width="1" stroke-linecap="butt" stroke-linejoin="miter" stroke-miterlimit="2" transform="matrix(0.527547,0,0,0.528497,-51.2547,-17.7902)"
font-family="Helvetica" font-size="36" font-weight="400" font-style="normal" 
>
<path vector-effect="none" fill-rule="evenodd" d="M1245,189 L1245,100 L1409,100 L1409,189 L1245,189"/>
</g>
</g>
</svg>
