<?xml version="1.0" encoding="UTF-8" standalone="no"?>
<svg width="192.969mm" height="175.683mm"
 viewBox="0 0 547 498"
 xmlns="http://www.w3.org/2000/svg" xmlns:xlink="http://www.w3.org/1999/xlink"  version="1.2" baseProfile="tiny">
<title>Qt SVG Document</title>
<desc>MATLAB, The MathWorks, Inc. Version 25.2.0.3042426 R2025b Update 1</desc>
<defs>
</defs>
<g fill="none" stroke="black" stroke-width="1" fill-rule="evenodd" stroke-linecap="square" stroke-linejoin="bevel" >

<g fill="#ffffff" fill-opacity="1" stroke="none" transform="matrix(0.547032,0,0,0.502542,-3.42329,-13.325)"
font-family=".AppleSystemUIFont" font-size="13" font-weight="400" font-style="normal" 
>
<path vector-effect="none" fill-rule="evenodd" d="M5,26 L1006,26 L1006,1016 L5,1016 L5,26"/>
</g>

<g fill="#ffffff" fill-opacity="1" stroke="none" transform="matrix(5.47032e-05,0,0,5.02542e-05,-3.42329,-13.325)"
font-family=".AppleSystemUIFont" font-size="13" font-weight="400" font-style="normal" 
>
<path vector-effect="none" fill-rule="evenodd" d="M1.38e+06,770000 L1.38e+06,9.1e+06 L6.73e+06,9.1e+06 L6.73e+06,770000 L1.38e+06,770000"/>
</g>

<g fill="#212121" fill-opacity="1" stroke="none" transform="matrix(0.547032,0,0,0.502542,142.908,491.227)"
font-family=".AppleSystemUIFont" font-size="13" font-weight="400" font-style="normal" 
>
<path vector-effect="none" fill-rule="evenodd" d="M3.75977,-31.5605 L17.9609,-31.5605 C20.7682,-31.5605 23.0313,-30.7692 24.75,-29.1865 C26.4688,-27.6038 27.3281,-25.3802 27.3281,-22.5156 C27.3281,-20.0521 26.5618,-17.9072 25.0293,-16.0811 C23.4967,-14.2549 21.1406,-13.3418 17.9609,-13.3418 L8.03516,-13.3418 L8.03516,0 L3.75977,0 L3.75977,-31.5605 M23.0098,-22.4941 C23.0098,-24.8145 22.1504,-26.39 20.4316,-27.2207 C19.4863,-27.6647 18.1901,-27.8867 16.543,-27.8867 L8.03516,-27.8867 L8.03516,-16.9512 L16.543,-16.9512 C18.4622,-16.9512 20.0199,-17.3594 21.2158,-18.1758 C22.4118,-18.9922 23.0098,-20.4316 23.0098,-22.4941 M45.9941,-32.4199 C49.9902,-32.4199 53.0911,-31.3672 55.2969,-29.2617 C57.5026,-27.1563 58.7272,-24.7643 58.9707,-22.0859 L54.8027,-22.0859 C54.3301,-24.1198 53.3883,-25.7311 51.9775,-26.9199 C50.5667,-28.1087 48.5866,-28.7031 46.0371,-28.7031 C42.929,-28.7031 40.4189,-27.611 38.5068,-25.4268 C36.5947,-23.2425 35.6387,-19.8945 35.6387,-15.3828 C35.6387,-11.6875 36.5016,-8.69043 38.2275,-6.3916 C39.9535,-4.09277 42.528,-2.94336 45.9512,-2.94336 C49.1022,-2.94336 51.5013,-4.15365 53.1484,-6.57422 C54.0221,-7.84896 54.6738,-9.52474 55.1035,-11.6016 L59.2715,-11.6016 C58.8991,-8.27865 57.6673,-5.49284 55.5762,-3.24414 C53.0697,-0.537109 49.6895,0.816406 45.4355,0.816406 C41.7689,0.816406 38.6895,-0.29362 36.1973,-2.51367 C32.9173,-5.44987 31.2773,-9.98307 31.2773,-16.1133 C31.2773,-20.7682 32.5091,-24.5853 34.9727,-27.5645 C37.6367,-30.8014 41.3105,-32.4199 45.9941,-32.4199 M73.0762,-2.49219 C75.64,-2.49219 77.3981,-3.46257 78.3506,-5.40332 C79.3031,-7.34408 79.7793,-9.50326 79.7793,-11.8809 C79.7793,-14.0293 79.4355,-15.7767 78.748,-17.123 C77.6595,-19.2428 75.7832,-20.3027 73.1191,-20.3027 C70.7559,-20.3027 69.0371,-19.4004 67.9629,-17.5957 C66.8887,-15.791 66.3516,-13.6139 66.3516,-11.0645 C66.3516,-8.61523 66.8887,-6.57422 67.9629,-4.94141 C69.0371,-3.30859 70.7415,-2.49219 73.0762,-2.49219 M73.2266,-23.6758 C76.1914,-23.6758 78.6979,-22.6875 80.7461,-20.7109 C82.7943,-18.7344 83.8184,-15.8268 83.8184,-11.9883 C83.8184,-8.27865 82.916,-5.21354 81.1113,-2.79297 C79.3066,-0.372396 76.5065,0.837891 72.7109,0.837891 C69.5456,0.837891 67.0319,-0.232747 65.1699,-2.37402 C63.3079,-4.5153 62.377,-7.39063 62.377,-11 C62.377,-14.8672 63.3581,-17.9466 65.3203,-20.2383 C67.2826,-22.5299 69.918,-23.6758 73.2266,-23.6758 M89.7891,-21.7852 L89.7891,-24.75 C92.582,-25.0221 94.5299,-25.4769 95.6328,-26.1143 C96.7357,-26.7516 97.5592,-28.2591 98.1035,-30.6367 L101.154,-30.6367 L101.154,0 L97.0293,0 L97.0293,-21.7852 L89.7891,-21.7852 M135.285,-32.0762 C133.036,-27.7077 131.576,-24.4922 130.902,-22.4297 C129.885,-19.293 129.377,-15.6693 129.377,-11.5586 C129.377,-7.40495 129.957,-3.60938 131.117,-0.171875 C131.833,1.94792 133.244,4.9987 135.35,8.98047 L132.75,8.98047 C130.659,5.71484 129.363,3.63086 128.861,2.72852 C128.36,1.82617 127.816,0.601563 127.229,-0.945313 C126.426,-3.0651 125.868,-5.32813 125.553,-7.73438 C125.395,-8.98047 125.316,-10.1693 125.316,-11.3008 C125.316,-15.5404 125.982,-19.3145 127.314,-22.623 C128.16,-24.7285 129.921,-27.8796 132.6,-32.0762 L135.285,-32.0762 M142.342,-7.8418 C142.6,-5.63607 143.624,-4.11068 145.414,-3.26563 C146.331,-2.83594 147.391,-2.62109 148.594,-2.62109 C150.885,-2.62109 152.583,-3.35156 153.686,-4.8125 C154.788,-6.27344 155.34,-7.89193 155.34,-9.66797 C155.34,-11.8164 154.685,-13.4779 153.374,-14.6523 C152.063,-15.8268 150.492,-16.4141 148.658,-16.4141 C147.326,-16.4141 146.184,-16.1563 145.231,-15.6406 C144.279,-15.125 143.466,-14.4089 142.793,-13.4922 L139.441,-13.6855 L141.783,-30.25 L157.768,-30.25 L157.768,-26.5117 L144.684,-26.5117 L143.373,-17.9609 C144.089,-18.5052 144.77,-18.9134 145.414,-19.1855 C146.56,-19.6582 147.885,-19.8945 149.389,-19.8945 C152.21,-19.8945 154.602,-18.985 156.564,-17.166 C158.527,-15.347 159.508,-13.041 159.508,-10.248 C159.508,-7.34049 158.609,-4.77669 156.812,-2.55664 C155.014,-0.336589 152.146,0.773438 148.207,0.773438 C145.701,0.773438 143.484,0.0680339 141.558,-1.34277 C139.631,-2.75358 138.553,-4.91992 138.324,-7.8418 L142.342,-7.8418 M165.586,-21.7852 L165.586,-24.75 C168.379,-25.0221 170.327,-25.4769 171.43,-26.1143 C172.533,-26.7516 173.356,-28.2591 173.9,-30.6367 L176.951,-30.6367 L176.951,0 L172.826,0 L172.826,-21.7852 L165.586,-21.7852 M189.604,-4.68359 L194.094,-4.68359 L194.094,0 L189.604,0 L189.604,-4.68359 M210.029,-17.875 C211.734,-17.875 213.066,-18.3512 214.025,-19.3037 C214.985,-20.2562 215.465,-21.3913 215.465,-22.709 C215.465,-23.8548 215.007,-24.9076 214.09,-25.8672 C213.173,-26.8268 211.777,-27.3066 209.9,-27.3066 C208.038,-27.3066 206.692,-26.8268 205.861,-25.8672 C205.031,-24.9076 204.615,-23.7832 204.615,-22.4941 C204.615,-21.0475 205.152,-19.916 206.227,-19.0996 C207.301,-18.2832 208.568,-17.875 210.029,-17.875 M210.266,-2.64258 C212.056,-2.64258 213.542,-3.12598 214.724,-4.09277 C215.905,-5.05957 216.496,-6.5026 216.496,-8.42188 C216.496,-10.4128 215.887,-11.9238 214.67,-12.9551 C213.452,-13.9863 211.891,-14.502 209.986,-14.502 C208.139,-14.502 206.631,-13.9756 205.464,-12.9229 C204.297,-11.8701 203.713,-10.4128 203.713,-8.55078 C203.713,-6.94661 204.246,-5.56087 205.313,-4.39355 C206.381,-3.22624 208.031,-2.64258 210.266,-2.64258 M204.766,-16.3926 C203.691,-16.8509 202.854,-17.388 202.252,-18.0039 C201.12,-19.1497 200.555,-20.6393 200.555,-22.4727 C200.555,-24.7643 201.385,-26.7337 203.047,-28.3809 C204.708,-30.028 207.064,-30.8516 210.115,-30.8516 C213.066,-30.8516 215.379,-30.0745 217.055,-28.5205 C218.73,-26.9665 219.568,-25.151 219.568,-23.0742 C219.568,-21.1549 219.081,-19.6009 218.107,-18.4121 C217.563,-17.7389 216.718,-17.0801 215.572,-16.4355 C216.847,-15.8483 217.85,-15.1751 218.58,-14.416 C219.941,-12.9837 220.621,-11.1217 220.621,-8.83008 C220.621,-6.12305 219.712,-3.8278 217.893,-1.94434 C216.074,-0.0608724 213.503,0.880859 210.18,0.880859 C207.186,0.880859 204.655,0.0680339 202.585,-1.55762 C200.515,-3.18327 199.48,-5.54297 199.48,-8.63672 C199.48,-10.4557 199.924,-12.0277 200.813,-13.3525 C201.701,-14.6774 203.018,-15.6908 204.766,-16.3926 M252.523,-14.9531 C254.586,-14.9531 256.348,-14.2227 257.809,-12.7617 C259.27,-11.3008 260,-9.53906 260,-7.47656 C260,-5.41406 259.27,-3.65234 257.809,-2.19141 C256.348,-0.730469 254.586,0 252.523,0 C250.447,0 248.678,-0.730469 247.217,-2.19141 C245.756,-3.65234 245.025,-5.41406 245.025,-7.47656 C245.025,-9.53906 245.756,-11.3008 247.217,-12.7617 C248.678,-14.2227 250.447,-14.9531 252.523,-14.9531 M249.408,-30.6367 L251.793,-30.6367 L234.584,0.816406 L232.199,0.816406 L249.408,-30.6367 M231.426,-17.918 C232.658,-17.918 233.707,-18.3512 234.573,-19.2178 C235.44,-20.0843 235.873,-21.1263 235.873,-22.3438 C235.873,-23.5612 235.44,-24.6032 234.573,-25.4697 C233.707,-26.3363 232.658,-26.7695 231.426,-26.7695 C230.208,-26.7695 229.166,-26.3398 228.3,-25.4805 C227.433,-24.6211 227,-23.5755 227,-22.3438 C227,-21.1263 227.433,-20.0843 228.3,-19.2178 C229.166,-18.3512 230.208,-17.918 231.426,-17.918 M231.426,-29.8418 C233.503,-29.8418 235.271,-29.1077 236.732,-27.6396 C238.193,-26.1715 238.924,-24.4063 238.924,-22.3438 C238.924,-20.2813 238.193,-18.5195 236.732,-17.0586 C235.271,-15.5977 233.503,-14.8672 231.426,-14.8672 C229.363,-14.8672 227.602,-15.5977 226.141,-17.0586 C224.68,-18.5195 223.949,-20.2813 223.949,-22.3438 C223.949,-24.4063 224.68,-26.1715 226.141,-27.6396 C227.602,-29.1077 229.363,-29.8418 231.426,-29.8418 M252.523,-3.05078 C253.741,-3.05078 254.783,-3.48405 255.649,-4.35059 C256.516,-5.21712 256.949,-6.25911 256.949,-7.47656 C256.949,-8.69401 256.516,-9.736 255.649,-10.6025 C254.783,-11.4691 253.741,-11.9023 252.523,-11.9023 C251.292,-11.9023 250.243,-11.4691 249.376,-10.6025 C248.509,-9.736 248.076,-8.69401 248.076,-7.47656 C248.076,-6.25911 248.509,-5.21712 249.376,-4.35059 C250.243,-3.48405 251.292,-3.05078 252.523,-3.05078 M263.166,8.98047 C265.443,4.54036 266.911,1.30339 267.57,-0.730469 C268.573,-3.8099 269.074,-7.41927 269.074,-11.5586 C269.074,-15.6979 268.494,-19.4863 267.334,-22.9238 C266.618,-25.0436 265.207,-28.0944 263.102,-32.0762 L265.701,-32.0762 C267.907,-28.5527 269.243,-26.3792 269.708,-25.5557 C270.174,-24.7321 270.678,-23.597 271.223,-22.1504 C271.91,-20.36 272.401,-18.5911 272.694,-16.8438 C272.988,-15.0964 273.135,-13.4134 273.135,-11.7949 C273.135,-7.55534 272.462,-3.77409 271.115,-0.451172 C270.27,1.68294 268.516,4.82682 265.852,8.98047 L263.166,8.98047"/>
</g>

<g fill="#212121" fill-opacity="1" stroke="#212121" stroke-opacity="1" stroke-width="1" stroke-linecap="square" stroke-linejoin="round" transform="matrix(0.547032,0,0,0.502542,-3.42329,-13.325)"
font-family=".AppleSystemUIFont" font-size="13" font-weight="400" font-style="normal" 
>
<polyline fill="none" vector-effect="none" points="138,910 673,910 " />
<polyline fill="none" vector-effect="none" points="138,77 673,77 " />
<polyline fill="none" vector-effect="none" points="138,910 138,901.67 " />
<polyline fill="none" vector-effect="none" points="138,85.33 138,77 " />
<polyline fill="none" vector-effect="none" points="372.863,910 372.863,901.67 " />
<polyline fill="none" vector-effect="none" points="372.863,85.33 372.863,77 " />
<polyline fill="none" vector-effect="none" points="607.727,910 607.727,901.67 " />
<polyline fill="none" vector-effect="none" points="607.727,85.33 607.727,77 " />
</g>

<g fill="#212121" fill-opacity="1" stroke="none" transform="matrix(0.547032,0,0,0.502542,53.1945,465.598)"
font-family=".AppleSystemUIFont" font-size="13" font-weight="400" font-style="normal" 
>
<path vector-effect="none" fill-rule="evenodd" d="M1.66016,-12.9492 L11.4648,-12.9492 L11.4648,-9.33594 L1.66016,-9.33594 L1.66016,-12.9492 M24.1328,-27.9688 C27.7526,-27.9688 30.3698,-26.4779 31.9844,-23.4961 C33.2344,-21.1914 33.8594,-18.0339 33.8594,-14.0234 C33.8594,-10.2214 33.293,-7.07682 32.1602,-4.58984 C30.5195,-1.02214 27.8372,0.761719 24.1133,0.761719 C20.7539,0.761719 18.2539,-0.696615 16.6133,-3.61328 C15.2461,-6.04818 14.5625,-9.31641 14.5625,-13.418 C14.5625,-16.5951 14.9727,-19.3229 15.793,-21.6016 C17.3294,-25.8464 20.1094,-27.9688 24.1328,-27.9688 M24.0938,-2.44141 C25.9167,-2.44141 27.3685,-3.2487 28.4492,-4.86328 C29.5299,-6.47786 30.0703,-9.48568 30.0703,-13.8867 C30.0703,-17.0638 29.6797,-19.6777 28.8984,-21.7285 C28.1172,-23.7793 26.6003,-24.8047 24.3477,-24.8047 C22.2773,-24.8047 20.7637,-23.8314 19.8066,-21.8848 C18.8496,-19.9382 18.3711,-17.0703 18.3711,-13.2813 C18.3711,-10.4297 18.6771,-8.13802 19.2891,-6.40625 C20.2266,-3.76302 21.8281,-2.44141 24.0938,-2.44141 M38.9648,-4.25781 L43.0469,-4.25781 L43.0469,0 L38.9648,0 L38.9648,-4.25781 M51.5977,-7.12891 C51.832,-5.1237 52.763,-3.73698 54.3906,-2.96875 C55.224,-2.57813 56.1875,-2.38281 57.2813,-2.38281 C59.3646,-2.38281 60.9076,-3.04688 61.9102,-4.375 C62.9128,-5.70313 63.4141,-7.17448 63.4141,-8.78906 C63.4141,-10.7422 62.8184,-12.2526 61.627,-13.3203 C60.4355,-14.388 59.0065,-14.9219 57.3398,-14.9219 C56.1289,-14.9219 55.0905,-14.6875 54.2246,-14.2188 C53.3587,-13.75 52.6198,-13.099 52.0078,-12.2656 L48.9609,-12.4414 L51.0898,-27.5 L65.6211,-27.5 L65.6211,-24.1016 L53.7266,-24.1016 L52.5352,-16.3281 C53.1862,-16.8229 53.8047,-17.194 54.3906,-17.4414 C55.4323,-17.8711 56.6367,-18.0859 58.0039,-18.0859 C60.569,-18.0859 62.7435,-17.2591 64.5273,-15.6055 C66.3112,-13.9518 67.2031,-11.8555 67.2031,-9.31641 C67.2031,-6.67318 66.3861,-4.34245 64.752,-2.32422 C63.1178,-0.30599 60.5104,0.703125 56.9297,0.703125 C54.651,0.703125 52.6361,0.061849 50.8848,-1.2207 C49.1335,-2.50326 48.1536,-4.47266 47.9453,-7.12891 L51.5977,-7.12891"/>
</g>

<g fill="#212121" fill-opacity="1" stroke="none" transform="matrix(0.547032,0,0,0.502542,194.528,465.598)"
font-family=".AppleSystemUIFont" font-size="13" font-weight="400" font-style="normal" 
>
<path vector-effect="none" fill-rule="evenodd" d="M10.8203,-27.9688 C14.4401,-27.9688 17.0573,-26.4779 18.6719,-23.4961 C19.9219,-21.1914 20.5469,-18.0339 20.5469,-14.0234 C20.5469,-10.2214 19.9805,-7.07682 18.8477,-4.58984 C17.207,-1.02214 14.5247,0.761719 10.8008,0.761719 C7.44141,0.761719 4.94141,-0.696615 3.30078,-3.61328 C1.93359,-6.04818 1.25,-9.31641 1.25,-13.418 C1.25,-16.5951 1.66016,-19.3229 2.48047,-21.6016 C4.01693,-25.8464 6.79688,-27.9688 10.8203,-27.9688 M10.7813,-2.44141 C12.6042,-2.44141 14.056,-3.2487 15.1367,-4.86328 C16.2174,-6.47786 16.7578,-9.48568 16.7578,-13.8867 C16.7578,-17.0638 16.3672,-19.6777 15.5859,-21.7285 C14.8047,-23.7793 13.2878,-24.8047 11.0352,-24.8047 C8.96484,-24.8047 7.45117,-23.8314 6.49414,-21.8848 C5.53711,-19.9382 5.05859,-17.0703 5.05859,-13.2813 C5.05859,-10.4297 5.36458,-8.13802 5.97656,-6.40625 C6.91406,-3.76302 8.51563,-2.44141 10.7813,-2.44141 "/>
</g>

<g fill="#212121" fill-opacity="1" stroke="none" transform="matrix(0.547032,0,0,0.502542,313.706,465.598)"
font-family=".AppleSystemUIFont" font-size="13" font-weight="400" font-style="normal" 
>
<path vector-effect="none" fill-rule="evenodd" d="M10.8203,-27.9688 C14.4401,-27.9688 17.0573,-26.4779 18.6719,-23.4961 C19.9219,-21.1914 20.5469,-18.0339 20.5469,-14.0234 C20.5469,-10.2214 19.9805,-7.07682 18.8477,-4.58984 C17.207,-1.02214 14.5247,0.761719 10.8008,0.761719 C7.44141,0.761719 4.94141,-0.696615 3.30078,-3.61328 C1.93359,-6.04818 1.25,-9.31641 1.25,-13.418 C1.25,-16.5951 1.66016,-19.3229 2.48047,-21.6016 C4.01693,-25.8464 6.79688,-27.9688 10.8203,-27.9688 M10.7813,-2.44141 C12.6042,-2.44141 14.056,-3.2487 15.1367,-4.86328 C16.2174,-6.47786 16.7578,-9.48568 16.7578,-13.8867 C16.7578,-17.0638 16.3672,-19.6777 15.5859,-21.7285 C14.8047,-23.7793 13.2878,-24.8047 11.0352,-24.8047 C8.96484,-24.8047 7.45117,-23.8314 6.49414,-21.8848 C5.53711,-19.9382 5.05859,-17.0703 5.05859,-13.2813 C5.05859,-10.4297 5.36458,-8.13802 5.97656,-6.40625 C6.91406,-3.76302 8.51563,-2.44141 10.7813,-2.44141 M25.6523,-4.25781 L29.7344,-4.25781 L29.7344,0 L25.6523,0 L25.6523,-4.25781 M38.2852,-7.12891 C38.5195,-5.1237 39.4505,-3.73698 41.0781,-2.96875 C41.9115,-2.57813 42.875,-2.38281 43.9688,-2.38281 C46.0521,-2.38281 47.5951,-3.04688 48.5977,-4.375 C49.6003,-5.70313 50.1016,-7.17448 50.1016,-8.78906 C50.1016,-10.7422 49.5059,-12.2526 48.3145,-13.3203 C47.123,-14.388 45.694,-14.9219 44.0273,-14.9219 C42.8164,-14.9219 41.778,-14.6875 40.9121,-14.2188 C40.0462,-13.75 39.3073,-13.099 38.6953,-12.2656 L35.6484,-12.4414 L37.7773,-27.5 L52.3086,-27.5 L52.3086,-24.1016 L40.4141,-24.1016 L39.2227,-16.3281 C39.8737,-16.8229 40.4922,-17.194 41.0781,-17.4414 C42.1198,-17.8711 43.3242,-18.0859 44.6914,-18.0859 C47.2565,-18.0859 49.431,-17.2591 51.2148,-15.6055 C52.9987,-13.9518 53.8906,-11.8555 53.8906,-9.31641 C53.8906,-6.67318 53.0736,-4.34245 51.4395,-2.32422 C49.8053,-0.30599 47.1979,0.703125 43.6172,0.703125 C41.3385,0.703125 39.3236,0.061849 37.5723,-1.2207 C35.821,-2.50326 34.8411,-4.47266 34.6328,-7.12891 L38.2852,-7.12891"/>
</g>

<g fill="#212121" fill-opacity="1" stroke="none" transform="matrix(0,-0.502542,0.547032,0,19.005,304.03)"
font-family=".AppleSystemUIFont" font-size="13" font-weight="400" font-style="normal" 
>
<path vector-effect="none" fill-rule="evenodd" d="M3.75977,-31.5605 L17.9609,-31.5605 C20.7682,-31.5605 23.0313,-30.7692 24.75,-29.1865 C26.4688,-27.6038 27.3281,-25.3802 27.3281,-22.5156 C27.3281,-20.0521 26.5618,-17.9072 25.0293,-16.0811 C23.4967,-14.2549 21.1406,-13.3418 17.9609,-13.3418 L8.03516,-13.3418 L8.03516,0 L3.75977,0 L3.75977,-31.5605 M23.0098,-22.4941 C23.0098,-24.8145 22.1504,-26.39 20.4316,-27.2207 C19.4863,-27.6647 18.1901,-27.8867 16.543,-27.8867 L8.03516,-27.8867 L8.03516,-16.9512 L16.543,-16.9512 C18.4622,-16.9512 20.0199,-17.3594 21.2158,-18.1758 C22.4118,-18.9922 23.0098,-20.4316 23.0098,-22.4941 M45.9941,-32.4199 C49.9902,-32.4199 53.0911,-31.3672 55.2969,-29.2617 C57.5026,-27.1563 58.7272,-24.7643 58.9707,-22.0859 L54.8027,-22.0859 C54.3301,-24.1198 53.3883,-25.7311 51.9775,-26.9199 C50.5667,-28.1087 48.5866,-28.7031 46.0371,-28.7031 C42.929,-28.7031 40.4189,-27.611 38.5068,-25.4268 C36.5947,-23.2425 35.6387,-19.8945 35.6387,-15.3828 C35.6387,-11.6875 36.5016,-8.69043 38.2275,-6.3916 C39.9535,-4.09277 42.528,-2.94336 45.9512,-2.94336 C49.1022,-2.94336 51.5013,-4.15365 53.1484,-6.57422 C54.0221,-7.84896 54.6738,-9.52474 55.1035,-11.6016 L59.2715,-11.6016 C58.8991,-8.27865 57.6673,-5.49284 55.5762,-3.24414 C53.0697,-0.537109 49.6895,0.816406 45.4355,0.816406 C41.7689,0.816406 38.6895,-0.29362 36.1973,-2.51367 C32.9173,-5.44987 31.2773,-9.98307 31.2773,-16.1133 C31.2773,-20.7682 32.5091,-24.5853 34.9727,-27.5645 C37.6367,-30.8014 41.3105,-32.4199 45.9941,-32.4199 M73.0762,-2.49219 C75.64,-2.49219 77.3981,-3.46257 78.3506,-5.40332 C79.3031,-7.34408 79.7793,-9.50326 79.7793,-11.8809 C79.7793,-14.0293 79.4355,-15.7767 78.748,-17.123 C77.6595,-19.2428 75.7832,-20.3027 73.1191,-20.3027 C70.7559,-20.3027 69.0371,-19.4004 67.9629,-17.5957 C66.8887,-15.791 66.3516,-13.6139 66.3516,-11.0645 C66.3516,-8.61523 66.8887,-6.57422 67.9629,-4.94141 C69.0371,-3.30859 70.7415,-2.49219 73.0762,-2.49219 M73.2266,-23.6758 C76.1914,-23.6758 78.6979,-22.6875 80.7461,-20.7109 C82.7943,-18.7344 83.8184,-15.8268 83.8184,-11.9883 C83.8184,-8.27865 82.916,-5.21354 81.1113,-2.79297 C79.3066,-0.372396 76.5065,0.837891 72.7109,0.837891 C69.5456,0.837891 67.0319,-0.232747 65.1699,-2.37402 C63.3079,-4.5153 62.377,-7.39063 62.377,-11 C62.377,-14.8672 63.3581,-17.9466 65.3203,-20.2383 C67.2826,-22.5299 69.918,-23.6758 73.2266,-23.6758 M86.9531,0 C87.0964,-2.64974 87.6442,-4.95573 88.5967,-6.91797 C89.5492,-8.88021 91.4076,-10.6634 94.1719,-12.2676 L98.2969,-14.6523 C100.145,-15.7266 101.441,-16.6432 102.186,-17.4023 C103.36,-18.5911 103.947,-19.9518 103.947,-21.4844 C103.947,-23.2747 103.41,-24.6963 102.336,-25.749 C101.262,-26.8018 99.8294,-27.3281 98.0391,-27.3281 C95.3893,-27.3281 93.556,-26.3255 92.5391,-24.3203 C91.9948,-23.2461 91.694,-21.7565 91.6367,-19.8516 L87.7051,-19.8516 C87.748,-22.5299 88.2422,-24.7142 89.1875,-26.4043 C90.8633,-29.3835 93.821,-30.873 98.0605,-30.873 C101.584,-30.873 104.159,-29.9206 105.784,-28.0156 C107.41,-26.1107 108.223,-23.9909 108.223,-21.6563 C108.223,-19.1927 107.356,-17.0872 105.623,-15.3398 C104.62,-14.3229 102.823,-13.0911 100.23,-11.6445 L97.2871,-10.0117 C95.8835,-9.23828 94.7806,-8.50065 93.9785,-7.79883 C92.5462,-6.55273 91.6439,-5.17057 91.2715,-3.65234 L108.072,-3.65234 L108.072,0 L86.9531,0 M135.285,-32.0762 C133.036,-27.7077 131.576,-24.4922 130.902,-22.4297 C129.885,-19.293 129.377,-15.6693 129.377,-11.5586 C129.377,-7.40495 129.957,-3.60938 131.117,-0.171875 C131.833,1.94792 133.244,4.9987 135.35,8.98047 L132.75,8.98047 C130.659,5.71484 129.363,3.63086 128.861,2.72852 C128.36,1.82617 127.816,0.601563 127.229,-0.945313 C126.426,-3.0651 125.868,-5.32813 125.553,-7.73438 C125.395,-8.98047 125.316,-10.1693 125.316,-11.3008 C125.316,-15.5404 125.982,-19.3145 127.314,-22.623 C128.16,-24.7285 129.921,-27.8796 132.6,-32.0762 L135.285,-32.0762 M138.281,0 C138.424,-2.64974 138.972,-4.95573 139.925,-6.91797 C140.877,-8.88021 142.736,-10.6634 145.5,-12.2676 L149.625,-14.6523 C151.473,-15.7266 152.769,-16.6432 153.514,-17.4023 C154.688,-18.5911 155.275,-19.9518 155.275,-21.4844 C155.275,-23.2747 154.738,-24.6963 153.664,-25.749 C152.59,-26.8018 151.158,-27.3281 149.367,-27.3281 C146.717,-27.3281 144.884,-26.3255 143.867,-24.3203 C143.323,-23.2461 143.022,-21.7565 142.965,-19.8516 L139.033,-19.8516 C139.076,-22.5299 139.57,-24.7142 140.516,-26.4043 C142.191,-29.3835 145.149,-30.873 149.389,-30.873 C152.912,-30.873 155.487,-29.9206 157.112,-28.0156 C158.738,-26.1107 159.551,-23.9909 159.551,-21.6563 C159.551,-19.1927 158.684,-17.0872 156.951,-15.3398 C155.949,-14.3229 154.151,-13.0911 151.559,-11.6445 L148.615,-10.0117 C147.212,-9.23828 146.109,-8.50065 145.307,-7.79883 C143.874,-6.55273 142.972,-5.17057 142.6,-3.65234 L159.4,-3.65234 L159.4,0 L138.281,0 M184.385,-30.25 L184.385,-26.877 C183.396,-25.9173 182.082,-24.2487 180.442,-21.8711 C178.802,-19.4935 177.352,-16.9297 176.092,-14.1797 C174.846,-11.5013 173.9,-9.05924 173.256,-6.85352 C172.84,-5.43555 172.303,-3.15104 171.645,0 L167.369,0 C168.343,-5.8724 170.492,-11.7161 173.814,-17.5313 C175.777,-20.9401 177.839,-23.8835 180.002,-26.3613 L162.986,-26.3613 L162.986,-30.25 L184.385,-30.25 M189.604,-4.68359 L194.094,-4.68359 L194.094,0 L189.604,0 L189.604,-4.68359 M210.932,-30.8945 C214.369,-30.8945 216.765,-30.0029 218.118,-28.2197 C219.472,-26.4365 220.148,-24.5996 220.148,-22.709 L216.324,-22.709 C216.095,-23.9264 215.73,-24.8789 215.229,-25.5664 C214.298,-26.8555 212.887,-27.5 210.996,-27.5 C208.833,-27.5 207.115,-26.501 205.84,-24.5029 C204.565,-22.5049 203.856,-19.6439 203.713,-15.9199 C204.601,-17.2233 205.718,-18.1973 207.064,-18.8418 C208.296,-19.4147 209.671,-19.7012 211.189,-19.7012 C213.768,-19.7012 216.016,-18.8776 217.936,-17.2305 C219.855,-15.5833 220.814,-13.127 220.814,-9.86133 C220.814,-7.06836 219.905,-4.59408 218.086,-2.43848 C216.267,-0.282878 213.674,0.794922 210.309,0.794922 C207.43,0.794922 204.945,-0.297201 202.854,-2.48145 C200.762,-4.66569 199.717,-8.3431 199.717,-13.5137 C199.717,-17.3379 200.182,-20.582 201.113,-23.2461 C202.904,-28.3451 206.176,-30.8945 210.932,-30.8945 M210.652,-2.64258 C212.686,-2.64258 214.208,-3.3265 215.218,-4.69434 C216.228,-6.06217 216.732,-7.67708 216.732,-9.53906 C216.732,-11.1146 216.281,-12.6149 215.379,-14.04 C214.477,-15.4652 212.837,-16.1777 210.459,-16.1777 C208.798,-16.1777 207.34,-15.6263 206.087,-14.5234 C204.834,-13.4206 204.207,-11.7591 204.207,-9.53906 C204.207,-7.59115 204.776,-5.95475 205.915,-4.62988 C207.054,-3.30501 208.633,-2.64258 210.652,-2.64258 M252.523,-14.9531 C254.586,-14.9531 256.348,-14.2227 257.809,-12.7617 C259.27,-11.3008 260,-9.53906 260,-7.47656 C260,-5.41406 259.27,-3.65234 257.809,-2.19141 C256.348,-0.730469 254.586,0 252.523,0 C250.447,0 248.678,-0.730469 247.217,-2.19141 C245.756,-3.65234 245.025,-5.41406 245.025,-7.47656 C245.025,-9.53906 245.756,-11.3008 247.217,-12.7617 C248.678,-14.2227 250.447,-14.9531 252.523,-14.9531 M249.408,-30.6367 L251.793,-30.6367 L234.584,0.816406 L232.199,0.816406 L249.408,-30.6367 M231.426,-17.918 C232.658,-17.918 233.707,-18.3512 234.573,-19.2178 C235.44,-20.0843 235.873,-21.1263 235.873,-22.3438 C235.873,-23.5612 235.44,-24.6032 234.573,-25.4697 C233.707,-26.3363 232.658,-26.7695 231.426,-26.7695 C230.208,-26.7695 229.166,-26.3398 228.3,-25.4805 C227.433,-24.6211 227,-23.5755 227,-22.3438 C227,-21.1263 227.433,-20.0843 228.3,-19.2178 C229.166,-18.3512 230.208,-17.918 231.426,-17.918 M231.426,-29.8418 C233.503,-29.8418 235.271,-29.1077 236.732,-27.6396 C238.193,-26.1715 238.924,-24.4063 238.924,-22.3438 C238.924,-20.2813 238.193,-18.5195 236.732,-17.0586 C235.271,-15.5977 233.503,-14.8672 231.426,-14.8672 C229.363,-14.8672 227.602,-15.5977 226.141,-17.0586 C224.68,-18.5195 223.949,-20.2813 223.949,-22.3438 C223.949,-24.4063 224.68,-26.1715 226.141,-27.6396 C227.602,-29.1077 229.363,-29.8418 231.426,-29.8418 M252.523,-3.05078 C253.741,-3.05078 254.783,-3.48405 255.649,-4.35059 C256.516,-5.21712 256.949,-6.25911 256.949,-7.47656 C256.949,-8.69401 256.516,-9.736 255.649,-10.6025 C254.783,-11.4691 253.741,-11.9023 252.523,-11.9023 C251.292,-11.9023 250.243,-11.4691 249.376,-10.6025 C248.509,-9.736 248.076,-8.69401 248.076,-7.47656 C248.076,-6.25911 248.509,-5.21712 249.376,-4.35059 C250.243,-3.48405 251.292,-3.05078 252.523,-3.05078 M263.166,8.98047 C265.443,4.54036 266.911,1.30339 267.57,-0.730469 C268.573,-3.8099 269.074,-7.41927 269.074,-11.5586 C269.074,-15.6979 268.494,-19.4863 267.334,-22.9238 C266.618,-25.0436 265.207,-28.0944 263.102,-32.0762 L265.701,-32.0762 C267.907,-28.5527 269.243,-26.3792 269.708,-25.5557 C270.174,-24.7321 270.678,-23.597 271.223,-22.1504 C271.91,-20.36 272.401,-18.5911 272.694,-16.8438 C272.988,-15.0964 273.135,-13.4134 273.135,-11.7949 C273.135,-7.55534 272.462,-3.77409 271.115,-0.451172 C270.27,1.68294 268.516,4.82682 265.852,8.98047 L263.166,8.98047"/>
</g>

<g fill="#212121" fill-opacity="1" stroke="#212121" stroke-opacity="1" stroke-width="1" stroke-linecap="square" stroke-linejoin="round" transform="matrix(0.547032,0,0,0.502542,-3.42329,-13.325)"
font-family=".AppleSystemUIFont" font-size="13" font-weight="400" font-style="normal" 
>
<polyline fill="none" vector-effect="none" points="138,910 138,77 " />
<polyline fill="none" vector-effect="none" points="673,910 673,77 " />
<polyline fill="none" vector-effect="none" points="138,910 146.33,910 " />
<polyline fill="none" vector-effect="none" points="664.67,910 673,910 " />
<polyline fill="none" vector-effect="none" points="138,771.167 146.33,771.167 " />
<polyline fill="none" vector-effect="none" points="664.67,771.167 673,771.167 " />
<polyline fill="none" vector-effect="none" points="138,632.333 146.33,632.333 " />
<polyline fill="none" vector-effect="none" points="664.67,632.333 673,632.333 " />
<polyline fill="none" vector-effect="none" points="138,493.5 146.33,493.5 " />
<polyline fill="none" vector-effect="none" points="664.67,493.5 673,493.5 " />
<polyline fill="none" vector-effect="none" points="138,354.667 146.33,354.667 " />
<polyline fill="none" vector-effect="none" points="664.67,354.667 673,354.667 " />
<polyline fill="none" vector-effect="none" points="138,215.833 146.33,215.833 " />
<polyline fill="none" vector-effect="none" points="664.67,215.833 673,215.833 " />
<polyline fill="none" vector-effect="none" points="138,77 146.33,77 " />
<polyline fill="none" vector-effect="none" points="664.67,77 673,77 " />
</g>

<g fill="#212121" fill-opacity="1" stroke="none" transform="matrix(0.547032,0,0,0.502542,27.7575,449.516)"
font-family=".AppleSystemUIFont" font-size="13" font-weight="400" font-style="normal" 
>
<path vector-effect="none" fill-rule="evenodd" d="M1.66016,-12.9492 L11.4648,-12.9492 L11.4648,-9.33594 L1.66016,-9.33594 L1.66016,-12.9492 M24.1328,-27.9688 C27.7526,-27.9688 30.3698,-26.4779 31.9844,-23.4961 C33.2344,-21.1914 33.8594,-18.0339 33.8594,-14.0234 C33.8594,-10.2214 33.293,-7.07682 32.1602,-4.58984 C30.5195,-1.02214 27.8372,0.761719 24.1133,0.761719 C20.7539,0.761719 18.2539,-0.696615 16.6133,-3.61328 C15.2461,-6.04818 14.5625,-9.31641 14.5625,-13.418 C14.5625,-16.5951 14.9727,-19.3229 15.793,-21.6016 C17.3294,-25.8464 20.1094,-27.9688 24.1328,-27.9688 M24.0938,-2.44141 C25.9167,-2.44141 27.3685,-3.2487 28.4492,-4.86328 C29.5299,-6.47786 30.0703,-9.48568 30.0703,-13.8867 C30.0703,-17.0638 29.6797,-19.6777 28.8984,-21.7285 C28.1172,-23.7793 26.6003,-24.8047 24.3477,-24.8047 C22.2773,-24.8047 20.7637,-23.8314 19.8066,-21.8848 C18.8496,-19.9382 18.3711,-17.0703 18.3711,-13.2813 C18.3711,-10.4297 18.6771,-8.13802 19.2891,-6.40625 C20.2266,-3.76302 21.8281,-2.44141 24.0938,-2.44141 M38.9648,-4.25781 L43.0469,-4.25781 L43.0469,0 L38.9648,0 L38.9648,-4.25781 M59.8789,-9.90234 L59.8789,-22.5781 L50.9141,-9.90234 L59.8789,-9.90234 M59.9375,0 L59.9375,-6.83594 L47.6719,-6.83594 L47.6719,-10.2734 L60.4844,-28.0469 L63.4531,-28.0469 L63.4531,-9.90234 L67.5742,-9.90234 L67.5742,-6.83594 L63.4531,-6.83594 L63.4531,0 L59.9375,0"/>
</g>

<g fill="#212121" fill-opacity="1" stroke="none" transform="matrix(0.547032,0,0,0.502542,27.7575,379.747)"
font-family=".AppleSystemUIFont" font-size="13" font-weight="400" font-style="normal" 
>
<path vector-effect="none" fill-rule="evenodd" d="M1.66016,-12.9492 L11.4648,-12.9492 L11.4648,-9.33594 L1.66016,-9.33594 L1.66016,-12.9492 M24.1328,-27.9688 C27.7526,-27.9688 30.3698,-26.4779 31.9844,-23.4961 C33.2344,-21.1914 33.8594,-18.0339 33.8594,-14.0234 C33.8594,-10.2214 33.293,-7.07682 32.1602,-4.58984 C30.5195,-1.02214 27.8372,0.761719 24.1133,0.761719 C20.7539,0.761719 18.2539,-0.696615 16.6133,-3.61328 C15.2461,-6.04818 14.5625,-9.31641 14.5625,-13.418 C14.5625,-16.5951 14.9727,-19.3229 15.793,-21.6016 C17.3294,-25.8464 20.1094,-27.9688 24.1328,-27.9688 M24.0938,-2.44141 C25.9167,-2.44141 27.3685,-3.2487 28.4492,-4.86328 C29.5299,-6.47786 30.0703,-9.48568 30.0703,-13.8867 C30.0703,-17.0638 29.6797,-19.6777 28.8984,-21.7285 C28.1172,-23.7793 26.6003,-24.8047 24.3477,-24.8047 C22.2773,-24.8047 20.7637,-23.8314 19.8066,-21.8848 C18.8496,-19.9382 18.3711,-17.0703 18.3711,-13.2813 C18.3711,-10.4297 18.6771,-8.13802 19.2891,-6.40625 C20.2266,-3.76302 21.8281,-2.44141 24.0938,-2.44141 M38.9648,-4.25781 L43.0469,-4.25781 L43.0469,0 L38.9648,0 L38.9648,-4.25781 M47.9063,0 C48.0365,-2.40885 48.5345,-4.50521 49.4004,-6.28906 C50.2663,-8.07292 51.9557,-9.69401 54.4688,-11.1523 L58.2188,-13.3203 C59.8984,-14.2969 61.0768,-15.1302 61.7539,-15.8203 C62.8216,-16.901 63.3555,-18.138 63.3555,-19.5313 C63.3555,-21.1589 62.8672,-22.4512 61.8906,-23.4082 C60.9141,-24.3652 59.612,-24.8438 57.9844,-24.8438 C55.5755,-24.8438 53.9089,-23.9323 52.9844,-22.1094 C52.4896,-21.1328 52.2161,-19.7786 52.1641,-18.0469 L48.5898,-18.0469 C48.6289,-20.4818 49.0781,-22.4674 49.9375,-24.0039 C51.4609,-26.7122 54.1497,-28.0664 58.0039,-28.0664 C61.207,-28.0664 63.5475,-27.2005 65.0254,-25.4688 C66.5033,-23.737 67.2422,-21.8099 67.2422,-19.6875 C67.2422,-17.4479 66.4544,-15.5339 64.8789,-13.9453 C63.9674,-13.0208 62.3333,-11.901 59.9766,-10.5859 L57.3008,-9.10156 C56.0247,-8.39844 55.0221,-7.72786 54.293,-7.08984 C52.9909,-5.95703 52.1706,-4.70052 51.832,-3.32031 L67.1055,-3.32031 L67.1055,0 L47.9063,0"/>
</g>

<g fill="#212121" fill-opacity="1" stroke="none" transform="matrix(0.547032,0,0,0.502542,53.4681,309.977)"
font-family=".AppleSystemUIFont" font-size="13" font-weight="400" font-style="normal" 
>
<path vector-effect="none" fill-rule="evenodd" d="M10.8203,-27.9688 C14.4401,-27.9688 17.0573,-26.4779 18.6719,-23.4961 C19.9219,-21.1914 20.5469,-18.0339 20.5469,-14.0234 C20.5469,-10.2214 19.9805,-7.07682 18.8477,-4.58984 C17.207,-1.02214 14.5247,0.761719 10.8008,0.761719 C7.44141,0.761719 4.94141,-0.696615 3.30078,-3.61328 C1.93359,-6.04818 1.25,-9.31641 1.25,-13.418 C1.25,-16.5951 1.66016,-19.3229 2.48047,-21.6016 C4.01693,-25.8464 6.79688,-27.9688 10.8203,-27.9688 M10.7813,-2.44141 C12.6042,-2.44141 14.056,-3.2487 15.1367,-4.86328 C16.2174,-6.47786 16.7578,-9.48568 16.7578,-13.8867 C16.7578,-17.0638 16.3672,-19.6777 15.5859,-21.7285 C14.8047,-23.7793 13.2878,-24.8047 11.0352,-24.8047 C8.96484,-24.8047 7.45117,-23.8314 6.49414,-21.8848 C5.53711,-19.9382 5.05859,-17.0703 5.05859,-13.2813 C5.05859,-10.4297 5.36458,-8.13802 5.97656,-6.40625 C6.91406,-3.76302 8.51563,-2.44141 10.7813,-2.44141 "/>
</g>

<g fill="#212121" fill-opacity="1" stroke="none" transform="matrix(0.547032,0,0,0.502542,34.869,240.207)"
font-family=".AppleSystemUIFont" font-size="13" font-weight="400" font-style="normal" 
>
<path vector-effect="none" fill-rule="evenodd" d="M10.8203,-27.9688 C14.4401,-27.9688 17.0573,-26.4779 18.6719,-23.4961 C19.9219,-21.1914 20.5469,-18.0339 20.5469,-14.0234 C20.5469,-10.2214 19.9805,-7.07682 18.8477,-4.58984 C17.207,-1.02214 14.5247,0.761719 10.8008,0.761719 C7.44141,0.761719 4.94141,-0.696615 3.30078,-3.61328 C1.93359,-6.04818 1.25,-9.31641 1.25,-13.418 C1.25,-16.5951 1.66016,-19.3229 2.48047,-21.6016 C4.01693,-25.8464 6.79688,-27.9688 10.8203,-27.9688 M10.7813,-2.44141 C12.6042,-2.44141 14.056,-3.2487 15.1367,-4.86328 C16.2174,-6.47786 16.7578,-9.48568 16.7578,-13.8867 C16.7578,-17.0638 16.3672,-19.6777 15.5859,-21.7285 C14.8047,-23.7793 13.2878,-24.8047 11.0352,-24.8047 C8.96484,-24.8047 7.45117,-23.8314 6.49414,-21.8848 C5.53711,-19.9382 5.05859,-17.0703 5.05859,-13.2813 C5.05859,-10.4297 5.36458,-8.13802 5.97656,-6.40625 C6.91406,-3.76302 8.51563,-2.44141 10.7813,-2.44141 M25.6523,-4.25781 L29.7344,-4.25781 L29.7344,0 L25.6523,0 L25.6523,-4.25781 M34.5938,0 C34.724,-2.40885 35.222,-4.50521 36.0879,-6.28906 C36.9538,-8.07292 38.6432,-9.69401 41.1563,-11.1523 L44.9063,-13.3203 C46.5859,-14.2969 47.7643,-15.1302 48.4414,-15.8203 C49.5091,-16.901 50.043,-18.138 50.043,-19.5313 C50.043,-21.1589 49.5547,-22.4512 48.5781,-23.4082 C47.6016,-24.3652 46.2995,-24.8438 44.6719,-24.8438 C42.263,-24.8438 40.5964,-23.9323 39.6719,-22.1094 C39.1771,-21.1328 38.9036,-19.7786 38.8516,-18.0469 L35.2773,-18.0469 C35.3164,-20.4818 35.7656,-22.4674 36.625,-24.0039 C38.1484,-26.7122 40.8372,-28.0664 44.6914,-28.0664 C47.8945,-28.0664 50.235,-27.2005 51.7129,-25.4688 C53.1908,-23.737 53.9297,-21.8099 53.9297,-19.6875 C53.9297,-17.4479 53.1419,-15.5339 51.5664,-13.9453 C50.6549,-13.0208 49.0208,-11.901 46.6641,-10.5859 L43.9883,-9.10156 C42.7122,-8.39844 41.7096,-7.72786 40.9805,-7.08984 C39.6784,-5.95703 38.8581,-4.70052 38.5195,-3.32031 L53.793,-3.32031 L53.793,0 L34.5938,0"/>
</g>

<g fill="#212121" fill-opacity="1" stroke="none" transform="matrix(0.547032,0,0,0.502542,34.869,170.438)"
font-family=".AppleSystemUIFont" font-size="13" font-weight="400" font-style="normal" 
>
<path vector-effect="none" fill-rule="evenodd" d="M10.8203,-27.9688 C14.4401,-27.9688 17.0573,-26.4779 18.6719,-23.4961 C19.9219,-21.1914 20.5469,-18.0339 20.5469,-14.0234 C20.5469,-10.2214 19.9805,-7.07682 18.8477,-4.58984 C17.207,-1.02214 14.5247,0.761719 10.8008,0.761719 C7.44141,0.761719 4.94141,-0.696615 3.30078,-3.61328 C1.93359,-6.04818 1.25,-9.31641 1.25,-13.418 C1.25,-16.5951 1.66016,-19.3229 2.48047,-21.6016 C4.01693,-25.8464 6.79688,-27.9688 10.8203,-27.9688 M10.7813,-2.44141 C12.6042,-2.44141 14.056,-3.2487 15.1367,-4.86328 C16.2174,-6.47786 16.7578,-9.48568 16.7578,-13.8867 C16.7578,-17.0638 16.3672,-19.6777 15.5859,-21.7285 C14.8047,-23.7793 13.2878,-24.8047 11.0352,-24.8047 C8.96484,-24.8047 7.45117,-23.8314 6.49414,-21.8848 C5.53711,-19.9382 5.05859,-17.0703 5.05859,-13.2813 C5.05859,-10.4297 5.36458,-8.13802 5.97656,-6.40625 C6.91406,-3.76302 8.51563,-2.44141 10.7813,-2.44141 M25.6523,-4.25781 L29.7344,-4.25781 L29.7344,0 L25.6523,0 L25.6523,-4.25781 M46.5664,-9.90234 L46.5664,-22.5781 L37.6016,-9.90234 L46.5664,-9.90234 M46.625,0 L46.625,-6.83594 L34.3594,-6.83594 L34.3594,-10.2734 L47.1719,-28.0469 L50.1406,-28.0469 L50.1406,-9.90234 L54.2617,-9.90234 L54.2617,-6.83594 L50.1406,-6.83594 L50.1406,0 L46.625,0"/>
</g>

<g fill="#212121" fill-opacity="1" stroke="none" transform="matrix(0.547032,0,0,0.502542,34.869,100.668)"
font-family=".AppleSystemUIFont" font-size="13" font-weight="400" font-style="normal" 
>
<path vector-effect="none" fill-rule="evenodd" d="M10.8203,-27.9688 C14.4401,-27.9688 17.0573,-26.4779 18.6719,-23.4961 C19.9219,-21.1914 20.5469,-18.0339 20.5469,-14.0234 C20.5469,-10.2214 19.9805,-7.07682 18.8477,-4.58984 C17.207,-1.02214 14.5247,0.761719 10.8008,0.761719 C7.44141,0.761719 4.94141,-0.696615 3.30078,-3.61328 C1.93359,-6.04818 1.25,-9.31641 1.25,-13.418 C1.25,-16.5951 1.66016,-19.3229 2.48047,-21.6016 C4.01693,-25.8464 6.79688,-27.9688 10.8203,-27.9688 M10.7813,-2.44141 C12.6042,-2.44141 14.056,-3.2487 15.1367,-4.86328 C16.2174,-6.47786 16.7578,-9.48568 16.7578,-13.8867 C16.7578,-17.0638 16.3672,-19.6777 15.5859,-21.7285 C14.8047,-23.7793 13.2878,-24.8047 11.0352,-24.8047 C8.96484,-24.8047 7.45117,-23.8314 6.49414,-21.8848 C5.53711,-19.9382 5.05859,-17.0703 5.05859,-13.2813 C5.05859,-10.4297 5.36458,-8.13802 5.97656,-6.40625 C6.91406,-3.76302 8.51563,-2.44141 10.7813,-2.44141 M25.6523,-4.25781 L29.7344,-4.25781 L29.7344,0 L25.6523,0 L25.6523,-4.25781 M45.043,-28.0859 C48.168,-28.0859 50.3457,-27.2754 51.5762,-25.6543 C52.8066,-24.0332 53.4219,-22.3633 53.4219,-20.6445 L49.9453,-20.6445 C49.737,-21.7513 49.4049,-22.6172 48.9492,-23.2422 C48.1029,-24.4141 46.8203,-25 45.1016,-25 C43.1354,-25 41.5729,-24.0918 40.4141,-22.2754 C39.2552,-20.459 38.6107,-17.8581 38.4805,-14.4727 C39.2878,-15.6576 40.3034,-16.543 41.5273,-17.1289 C42.6471,-17.6497 43.8971,-17.9102 45.2773,-17.9102 C47.6211,-17.9102 49.6654,-17.1615 51.4102,-15.6641 C53.1549,-14.1667 54.0273,-11.9336 54.0273,-8.96484 C54.0273,-6.42578 53.2005,-4.17643 51.5469,-2.2168 C49.8932,-0.257161 47.5365,0.722656 44.4766,0.722656 C41.8594,0.722656 39.6003,-0.270182 37.6992,-2.25586 C35.7982,-4.24154 34.8477,-7.58464 34.8477,-12.2852 C34.8477,-15.7617 35.2708,-18.7109 36.1172,-21.1328 C37.7448,-25.7682 40.7201,-28.0859 45.043,-28.0859 M44.7891,-2.40234 C46.638,-2.40234 48.0215,-3.02409 48.9395,-4.26758 C49.8574,-5.51107 50.3164,-6.97917 50.3164,-8.67188 C50.3164,-10.1042 49.9063,-11.4681 49.0859,-12.7637 C48.2656,-14.0592 46.7747,-14.707 44.6133,-14.707 C43.1029,-14.707 41.778,-14.2057 40.6387,-13.2031 C39.4993,-12.2005 38.9297,-10.6901 38.9297,-8.67188 C38.9297,-6.90104 39.4473,-5.41341 40.4824,-4.20898 C41.5176,-3.00456 42.9531,-2.40234 44.7891,-2.40234 "/>
</g>

<g fill="#212121" fill-opacity="1" stroke="none" transform="matrix(0.547032,0,0,0.502542,34.869,30.8987)"
font-family=".AppleSystemUIFont" font-size="13" font-weight="400" font-style="normal" 
>
<path vector-effect="none" fill-rule="evenodd" d="M10.8203,-27.9688 C14.4401,-27.9688 17.0573,-26.4779 18.6719,-23.4961 C19.9219,-21.1914 20.5469,-18.0339 20.5469,-14.0234 C20.5469,-10.2214 19.9805,-7.07682 18.8477,-4.58984 C17.207,-1.02214 14.5247,0.761719 10.8008,0.761719 C7.44141,0.761719 4.94141,-0.696615 3.30078,-3.61328 C1.93359,-6.04818 1.25,-9.31641 1.25,-13.418 C1.25,-16.5951 1.66016,-19.3229 2.48047,-21.6016 C4.01693,-25.8464 6.79688,-27.9688 10.8203,-27.9688 M10.7813,-2.44141 C12.6042,-2.44141 14.056,-3.2487 15.1367,-4.86328 C16.2174,-6.47786 16.7578,-9.48568 16.7578,-13.8867 C16.7578,-17.0638 16.3672,-19.6777 15.5859,-21.7285 C14.8047,-23.7793 13.2878,-24.8047 11.0352,-24.8047 C8.96484,-24.8047 7.45117,-23.8314 6.49414,-21.8848 C5.53711,-19.9382 5.05859,-17.0703 5.05859,-13.2813 C5.05859,-10.4297 5.36458,-8.13802 5.97656,-6.40625 C6.91406,-3.76302 8.51563,-2.44141 10.7813,-2.44141 M25.6523,-4.25781 L29.7344,-4.25781 L29.7344,0 L25.6523,0 L25.6523,-4.25781 M44.2227,-16.25 C45.7721,-16.25 46.9831,-16.6829 47.8555,-17.5488 C48.7279,-18.4147 49.1641,-19.4466 49.1641,-20.6445 C49.1641,-21.6862 48.7474,-22.6432 47.9141,-23.5156 C47.0807,-24.388 45.8112,-24.8242 44.1055,-24.8242 C42.4128,-24.8242 41.1888,-24.388 40.4336,-23.5156 C39.6784,-22.6432 39.3008,-21.6211 39.3008,-20.4492 C39.3008,-19.1341 39.7891,-18.1055 40.7656,-17.3633 C41.7422,-16.6211 42.8945,-16.25 44.2227,-16.25 M44.4375,-2.40234 C46.0651,-2.40234 47.416,-2.8418 48.4902,-3.7207 C49.5645,-4.59961 50.1016,-5.91146 50.1016,-7.65625 C50.1016,-9.46615 49.5482,-10.8398 48.4414,-11.7773 C47.3346,-12.7148 45.9154,-13.1836 44.1836,-13.1836 C42.5039,-13.1836 41.1335,-12.7051 40.0723,-11.748 C39.0111,-10.791 38.4805,-9.46615 38.4805,-7.77344 C38.4805,-6.3151 38.9655,-5.05534 39.9355,-3.99414 C40.9056,-2.93294 42.4063,-2.40234 44.4375,-2.40234 M39.4375,-14.9023 C38.4609,-15.319 37.6992,-15.8073 37.1523,-16.3672 C36.1237,-17.4089 35.6094,-18.763 35.6094,-20.4297 C35.6094,-22.513 36.3646,-24.3034 37.875,-25.8008 C39.3854,-27.2982 41.5273,-28.0469 44.3008,-28.0469 C46.9831,-28.0469 49.0859,-27.3405 50.6094,-25.9277 C52.1328,-24.515 52.8945,-22.8646 52.8945,-20.9766 C52.8945,-19.2318 52.4518,-17.819 51.5664,-16.7383 C51.0716,-16.1263 50.3034,-15.5273 49.2617,-14.9414 C50.4206,-14.4076 51.332,-13.7956 51.9961,-13.1055 C53.2331,-11.8034 53.8516,-10.1107 53.8516,-8.02734 C53.8516,-5.56641 53.0247,-3.47982 51.3711,-1.76758 C49.7174,-0.0553385 47.3802,0.800781 44.3594,0.800781 C41.638,0.800781 39.3366,0.061849 37.4551,-1.41602 C35.5736,-2.89388 34.6328,-5.03906 34.6328,-7.85156 C34.6328,-9.50521 35.0365,-10.9342 35.8438,-12.1387 C36.651,-13.3431 37.849,-14.2643 39.4375,-14.9023 "/>
</g>

<g fill="#212121" fill-opacity="1" stroke="none" transform="matrix(0.547032,0,0,0.502542,66.3233,17.5813)"
font-family=".AppleSystemUIFont" font-size="13" font-weight="400" font-style="normal" 
>
<path vector-effect="none" fill-rule="evenodd" d="M16.8008,-11.3867 L10.0762,-11.3867 L10.0762,0 L3.50195,0 L3.50195,-31.668 L17.2949,-31.668 C20.4746,-31.668 23.0098,-30.8516 24.9004,-29.2188 C26.791,-27.5859 27.7363,-25.0579 27.7363,-21.6348 C27.7363,-17.8965 26.791,-15.2539 24.9004,-13.707 C23.0098,-12.1602 20.3099,-11.3867 16.8008,-11.3867 M19.8945,-17.9824 C20.7539,-18.7415 21.1836,-19.9447 21.1836,-21.5918 C21.1836,-23.2389 20.7503,-24.4134 19.8838,-25.1152 C19.0173,-25.8171 17.8034,-26.168 16.2422,-26.168 L10.0762,-26.168 L10.0762,-16.8438 L16.2422,-16.8438 C17.8034,-16.8438 19.0208,-17.2233 19.8945,-17.9824 M55.0391,-2.36328 C52.6758,-0.200521 49.6536,0.880859 45.9727,0.880859 C41.418,0.880859 37.8372,-0.580078 35.2305,-3.50195 C32.6237,-6.43815 31.3203,-10.4629 31.3203,-15.5762 C31.3203,-21.1048 32.8027,-25.3659 35.7676,-28.3594 C38.3457,-30.9661 41.6257,-32.2695 45.6074,-32.2695 C50.9355,-32.2695 54.8314,-30.5221 57.2949,-27.0273 C58.6556,-25.0651 59.3861,-23.0957 59.4863,-21.1191 L52.8691,-21.1191 C52.4395,-22.6374 51.888,-23.7832 51.2148,-24.5566 C50.0117,-25.9316 48.2285,-26.6191 45.8652,-26.6191 C43.459,-26.6191 41.5612,-25.6488 40.1719,-23.708 C38.7826,-21.7673 38.0879,-19.0208 38.0879,-15.4688 C38.0879,-11.9167 38.8219,-9.25618 40.29,-7.4873 C41.7581,-5.71842 43.6237,-4.83398 45.8867,-4.83398 C48.207,-4.83398 49.9759,-5.5931 51.1934,-7.11133 C51.8665,-7.92773 52.4251,-9.15234 52.8691,-10.7852 L59.4219,-10.7852 C58.849,-7.33333 57.388,-4.52604 55.0391,-2.36328 M83.4961,-20.4531 C85.4727,-17.9753 86.4609,-15.0462 86.4609,-11.666 C86.4609,-8.22852 85.4727,-5.28874 83.4961,-2.84668 C81.5195,-0.404622 78.5189,0.816406 74.4941,0.816406 C70.4694,0.816406 67.4688,-0.404622 65.4922,-2.84668 C63.5156,-5.28874 62.5273,-8.22852 62.5273,-11.666 C62.5273,-15.0462 63.5156,-17.9753 65.4922,-20.4531 C67.4688,-22.931 70.4694,-24.1699 74.4941,-24.1699 C78.5189,-24.1699 81.5195,-22.931 83.4961,-20.4531 M74.4727,-18.9922 C72.6823,-18.9922 71.3037,-18.3584 70.3369,-17.0908 C69.3701,-15.8232 68.8867,-14.015 68.8867,-11.666 C68.8867,-9.31706 69.3701,-7.50521 70.3369,-6.23047 C71.3037,-4.95573 72.6823,-4.31836 74.4727,-4.31836 C76.263,-4.31836 77.638,-4.95573 78.5977,-6.23047 C79.5573,-7.50521 80.0371,-9.31706 80.0371,-11.666 C80.0371,-14.015 79.5573,-15.8232 78.5977,-17.0908 C77.638,-18.3584 76.263,-18.9922 74.4727,-18.9922 M109.877,-6.50977 L98.2109,-6.50977 L96.0195,0 L89.1016,0 L100.402,-31.668 L107.879,-31.668 L119.094,0 L111.918,0 L109.877,-6.50977 M108.029,-11.9668 L104.076,-24.4277 L99.9941,-11.9668 L108.029,-11.9668 M148.17,0 L133.818,0 L133.818,-31.668 L149.201,-31.668 C153.083,-31.6107 155.833,-30.4863 157.451,-28.2949 C158.425,-26.9486 158.912,-25.3372 158.912,-23.4609 C158.912,-21.5273 158.425,-19.9733 157.451,-18.7988 C156.907,-18.14 156.105,-17.5384 155.045,-16.9941 C156.663,-16.4069 157.884,-15.4759 158.708,-14.2012 C159.532,-12.9264 159.943,-11.3796 159.943,-9.56055 C159.943,-7.68424 159.471,-6.0013 158.525,-4.51172 C157.924,-3.52344 157.172,-2.69271 156.27,-2.01953 C155.253,-1.24609 154.053,-0.716146 152.671,-0.429688 C151.289,-0.143229 149.788,0 148.17,0 M148.02,-13.9434 L140.135,-13.9434 L140.135,-5.5 L147.912,-5.5 C149.301,-5.5 150.383,-5.6862 151.156,-6.05859 C152.56,-6.74609 153.262,-8.0638 153.262,-10.0117 C153.262,-11.6589 152.581,-12.7904 151.221,-13.4063 C150.462,-13.75 149.395,-13.929 148.02,-13.9434 M151.307,-19.9805 C152.166,-20.4961 152.596,-21.4199 152.596,-22.752 C152.596,-24.2272 152.023,-25.2012 150.877,-25.6738 C149.889,-26.0033 148.628,-26.168 147.096,-26.168 L140.135,-26.168 L140.135,-19.1855 L147.912,-19.1855 C149.301,-19.1855 150.433,-19.4505 151.307,-19.9805 M176.756,-17.7676 C174.292,-17.7676 172.638,-16.9655 171.793,-15.3613 C171.32,-14.459 171.084,-13.0697 171.084,-11.1934 L171.084,0 L164.918,0 L164.918,-23.418 L170.762,-23.418 L170.762,-19.3359 C171.707,-20.8971 172.531,-21.9642 173.232,-22.5371 C174.378,-23.4967 175.868,-23.9766 177.701,-23.9766 C177.816,-23.9766 177.912,-23.973 177.991,-23.9658 C178.07,-23.9587 178.245,-23.9479 178.518,-23.9336 L178.518,-17.6602 C178.131,-17.7031 177.787,-17.7318 177.486,-17.7461 C177.186,-17.7604 176.942,-17.7676 176.756,-17.7676 M182.973,-20.8828 C184.591,-22.9453 187.37,-23.9766 191.309,-23.9766 C193.872,-23.9766 196.15,-23.4681 198.141,-22.4512 C200.132,-21.4342 201.127,-19.515 201.127,-16.6934 L201.127,-5.95117 C201.127,-5.20638 201.141,-4.30404 201.17,-3.24414 C201.213,-2.44206 201.335,-1.89779 201.535,-1.61133 C201.736,-1.32487 202.036,-1.08854 202.438,-0.902344 L202.438,0 L195.777,0 C195.591,-0.472656 195.462,-0.916667 195.391,-1.33203 C195.319,-1.7474 195.262,-2.22005 195.219,-2.75 C194.374,-1.83333 193.4,-1.05273 192.297,-0.408203 C190.979,0.350911 189.49,0.730469 187.828,0.730469 C185.708,0.730469 183.957,0.125326 182.575,-1.08496 C181.193,-2.29525 180.502,-4.01042 180.502,-6.23047 C180.502,-9.10938 181.612,-11.1934 183.832,-12.4824 C185.049,-13.1842 186.84,-13.6855 189.203,-13.9863 L191.287,-14.2441 C192.419,-14.3874 193.228,-14.5664 193.715,-14.7813 C194.589,-15.1536 195.025,-15.7337 195.025,-16.5215 C195.025,-17.4811 194.692,-18.1436 194.026,-18.5088 C193.36,-18.874 192.383,-19.0566 191.094,-19.0566 C189.647,-19.0566 188.623,-18.6986 188.021,-17.9824 C187.592,-17.4525 187.305,-16.7363 187.162,-15.834 L181.254,-15.834 C181.383,-17.8822 181.956,-19.5651 182.973,-20.8828 M187.527,-4.42578 C188.1,-3.95313 188.802,-3.7168 189.633,-3.7168 C190.951,-3.7168 192.164,-4.10352 193.274,-4.87695 C194.384,-5.65039 194.961,-7.0612 195.004,-9.10938 L195.004,-11.3867 C194.617,-11.1432 194.227,-10.9463 193.833,-10.7959 C193.439,-10.6455 192.898,-10.5059 192.211,-10.377 L190.836,-10.1191 C189.547,-9.88997 188.623,-9.61068 188.064,-9.28125 C187.119,-8.72266 186.646,-7.85612 186.646,-6.68164 C186.646,-5.63607 186.94,-4.88411 187.527,-4.42578 M216.078,-6.14453 L220.912,-23.418 L227.422,-23.418 L219.387,-0.386719 C217.84,4.05339 216.615,6.80697 215.713,7.87402 C214.811,8.94108 213.006,9.47461 210.299,9.47461 C209.755,9.47461 209.318,9.47103 208.988,9.46387 C208.659,9.45671 208.165,9.43164 207.506,9.38867 L207.506,4.49023 L208.279,4.5332 C208.881,4.56185 209.454,4.54036 209.998,4.46875 C210.542,4.39714 211.001,4.23242 211.373,3.97461 C211.731,3.73112 212.064,3.22266 212.372,2.44922 C212.68,1.67578 212.805,1.20313 212.748,1.03125 L204.154,-23.418 L210.965,-23.418 L216.078,-6.14453 M229.182,-15.168 L241.514,-15.168 L241.514,-9.36719 L229.182,-9.36719 L229.182,-15.168 M268.508,-2.36328 C266.145,-0.200521 263.122,0.880859 259.441,0.880859 C254.887,0.880859 251.306,-0.580078 248.699,-3.50195 C246.092,-6.43815 244.789,-10.4629 244.789,-15.5762 C244.789,-21.1048 246.271,-25.3659 249.236,-28.3594 C251.814,-30.9661 255.094,-32.2695 259.076,-32.2695 C264.404,-32.2695 268.3,-30.5221 270.764,-27.0273 C272.124,-25.0651 272.855,-23.0957 272.955,-21.1191 L266.338,-21.1191 C265.908,-22.6374 265.357,-23.7832 264.684,-24.5566 C263.48,-25.9316 261.697,-26.6191 259.334,-26.6191 C256.928,-26.6191 255.03,-25.6488 253.641,-23.708 C252.251,-21.7673 251.557,-19.0208 251.557,-15.4688 C251.557,-11.9167 252.291,-9.25618 253.759,-7.4873 C255.227,-5.71842 257.092,-4.83398 259.355,-4.83398 C261.676,-4.83398 263.445,-5.5931 264.662,-7.11133 C265.335,-7.92773 265.894,-9.15234 266.338,-10.7852 L272.891,-10.7852 C272.318,-7.33333 270.857,-4.52604 268.508,-2.36328 M292.453,-3.30859 C292.396,-3.23698 292.253,-3.02214 292.023,-2.66406 C291.794,-2.30599 291.522,-1.99089 291.207,-1.71875 C290.247,-0.859375 289.32,-0.272135 288.425,0.0429688 C287.53,0.358073 286.48,0.515625 285.277,0.515625 C281.811,0.515625 279.477,-0.730469 278.273,-3.22266 C277.6,-4.59766 277.264,-6.62435 277.264,-9.30273 L277.264,-23.418 L283.537,-23.418 L283.537,-9.30273 C283.537,-7.9707 283.695,-6.9681 284.01,-6.29492 C284.568,-5.10612 285.664,-4.51172 287.297,-4.51172 C289.388,-4.51172 290.82,-5.35677 291.594,-7.04688 C291.995,-7.96354 292.195,-9.17383 292.195,-10.6777 L292.195,-23.418 L298.404,-23.418 L298.404,0 L292.453,0 L292.453,-3.30859 M316.084,-17.7676 C313.62,-17.7676 311.966,-16.9655 311.121,-15.3613 C310.648,-14.459 310.412,-13.0697 310.412,-11.1934 L310.412,0 L304.246,0 L304.246,-23.418 L310.09,-23.418 L310.09,-19.3359 C311.035,-20.8971 311.859,-21.9642 312.561,-22.5371 C313.706,-23.4967 315.196,-23.9766 317.029,-23.9766 C317.144,-23.9766 317.241,-23.973 317.319,-23.9658 C317.398,-23.9587 317.574,-23.9479 317.846,-23.9336 L317.846,-17.6602 C317.459,-17.7031 317.115,-17.7318 316.814,-17.7461 C316.514,-17.7604 316.27,-17.7676 316.084,-17.7676 M332.141,-4.36133 L332.141,0.214844 L329.24,0.322266 C326.347,0.422526 324.37,-0.078776 323.311,-1.18164 C322.623,-1.88346 322.279,-2.96484 322.279,-4.42578 L322.279,-18.8418 L319.014,-18.8418 L319.014,-23.2031 L322.279,-23.2031 L322.279,-29.7344 L328.338,-29.7344 L328.338,-23.2031 L332.141,-23.2031 L332.141,-18.8418 L328.338,-18.8418 L328.338,-6.4668 C328.338,-5.50716 328.46,-4.90918 328.703,-4.67285 C328.947,-4.43652 329.691,-4.31836 330.938,-4.31836 C331.124,-4.31836 331.321,-4.32194 331.528,-4.3291 C331.736,-4.33626 331.94,-4.34701 332.141,-4.36133 M342.355,-23.418 L342.355,0 L336.146,0 L336.146,-23.418 L342.355,-23.418 M342.355,-31.8613 L342.355,-26.2109 L336.146,-26.2109 L336.146,-31.8613 L342.355,-31.8613 M364.414,-22.3438 C366.247,-21.1693 367.3,-19.1497 367.572,-16.2852 L361.449,-16.2852 C361.363,-17.0729 361.141,-17.696 360.783,-18.1543 C360.11,-18.985 358.964,-19.4004 357.346,-19.4004 C356.014,-19.4004 355.065,-19.1927 354.499,-18.7773 C353.933,-18.362 353.65,-17.875 353.65,-17.3164 C353.65,-16.6146 353.951,-16.1061 354.553,-15.791 C355.154,-15.4616 357.281,-14.8958 360.934,-14.0938 C363.368,-13.5208 365.195,-12.6543 366.412,-11.4941 C367.615,-10.3197 368.217,-8.85156 368.217,-7.08984 C368.217,-4.76953 367.354,-2.87533 365.628,-1.40723 C363.902,0.0608724 361.234,0.794922 357.625,0.794922 C353.944,0.794922 351.226,0.0179036 349.472,-1.53613 C347.717,-3.09017 346.84,-5.07031 346.84,-7.47656 L353.049,-7.47656 C353.178,-6.38802 353.457,-5.61458 353.887,-5.15625 C354.646,-4.33984 356.049,-3.93164 358.098,-3.93164 C359.301,-3.93164 360.257,-4.11068 360.966,-4.46875 C361.675,-4.82682 362.029,-5.36393 362.029,-6.08008 C362.029,-6.76758 361.743,-7.29036 361.17,-7.64844 C360.597,-8.00651 358.47,-8.6224 354.789,-9.49609 C352.139,-10.1549 350.27,-10.9785 349.182,-11.9668 C348.093,-12.9408 347.549,-14.3444 347.549,-16.1777 C347.549,-18.3405 348.397,-20.1989 350.095,-21.7529 C351.792,-23.307 354.18,-24.084 357.26,-24.084 C360.182,-24.084 362.566,-23.5039 364.414,-22.3438 M387.287,-14.6523 L420.91,-14.6523 L420.91,-9.96875 L387.287,-9.96875 L387.287,-14.6523 M455.322,0 L441.68,0 L441.68,-31.668 L455.322,-31.668 C457.285,-31.6393 458.917,-31.4102 460.221,-30.9805 C462.441,-30.25 464.238,-28.9108 465.613,-26.9629 C466.716,-25.3874 467.468,-23.6829 467.869,-21.8496 C468.27,-20.0163 468.471,-18.2689 468.471,-16.6074 C468.471,-12.3965 467.626,-8.83008 465.936,-5.9082 C463.644,-1.9694 460.106,0 455.322,0 M460.242,-23.5898 C459.225,-25.3086 457.213,-26.168 454.205,-26.168 L448.104,-26.168 L448.104,-5.5 L454.205,-5.5 C457.327,-5.5 459.505,-7.03971 460.736,-10.1191 C461.41,-11.8092 461.746,-13.8216 461.746,-16.1563 C461.746,-19.3789 461.245,-21.8568 460.242,-23.5898 M473.832,-20.8828 C475.451,-22.9453 478.229,-23.9766 482.168,-23.9766 C484.732,-23.9766 487.009,-23.4681 489,-22.4512 C490.991,-21.4342 491.986,-19.515 491.986,-16.6934 L491.986,-5.95117 C491.986,-5.20638 492.001,-4.30404 492.029,-3.24414 C492.072,-2.44206 492.194,-1.89779 492.395,-1.61133 C492.595,-1.32487 492.896,-1.08854 493.297,-0.902344 L493.297,0 L486.637,0 C486.451,-0.472656 486.322,-0.916667 486.25,-1.33203 C486.178,-1.7474 486.121,-2.22005 486.078,-2.75 C485.233,-1.83333 484.259,-1.05273 483.156,-0.408203 C481.839,0.350911 480.349,0.730469 478.688,0.730469 C476.568,0.730469 474.817,0.125326 473.435,-1.08496 C472.052,-2.29525 471.361,-4.01042 471.361,-6.23047 C471.361,-9.10938 472.471,-11.1934 474.691,-12.4824 C475.909,-13.1842 477.699,-13.6855 480.063,-13.9863 L482.146,-14.2441 C483.278,-14.3874 484.087,-14.5664 484.574,-14.7813 C485.448,-15.1536 485.885,-15.7337 485.885,-16.5215 C485.885,-17.4811 485.552,-18.1436 484.886,-18.5088 C484.22,-18.874 483.242,-19.0566 481.953,-19.0566 C480.507,-19.0566 479.482,-18.6986 478.881,-17.9824 C478.451,-17.4525 478.165,-16.7363 478.021,-15.834 L472.113,-15.834 C472.242,-17.8822 472.815,-19.5651 473.832,-20.8828 M478.387,-4.42578 C478.96,-3.95313 479.661,-3.7168 480.492,-3.7168 C481.81,-3.7168 483.024,-4.10352 484.134,-4.87695 C485.244,-5.65039 485.82,-7.0612 485.863,-9.10938 L485.863,-11.3867 C485.477,-11.1432 485.086,-10.9463 484.692,-10.7959 C484.299,-10.6455 483.758,-10.5059 483.07,-10.377 L481.695,-10.1191 C480.406,-9.88997 479.482,-9.61068 478.924,-9.28125 C477.979,-8.72266 477.506,-7.85612 477.506,-6.68164 C477.506,-5.63607 477.799,-4.88411 478.387,-4.42578 M506.938,-6.14453 L511.771,-23.418 L518.281,-23.418 L510.246,-0.386719 C508.699,4.05339 507.475,6.80697 506.572,7.87402 C505.67,8.94108 503.865,9.47461 501.158,9.47461 C500.614,9.47461 500.177,9.47103 499.848,9.46387 C499.518,9.45671 499.024,9.43164 498.365,9.38867 L498.365,4.49023 L499.139,4.5332 C499.74,4.56185 500.313,4.54036 500.857,4.46875 C501.402,4.39714 501.86,4.23242 502.232,3.97461 C502.59,3.73112 502.924,3.22266 503.231,2.44922 C503.539,1.67578 503.665,1.20313 503.607,1.03125 L495.014,-23.418 L501.824,-23.418 L506.938,-6.14453 M543.367,0.773438 C539.4,0.773438 536.618,-0.615885 535.021,-3.39453 C533.424,-6.17318 532.625,-10.1335 532.625,-15.2754 C532.625,-20.4173 533.424,-24.3848 535.021,-27.1777 C536.618,-29.9707 539.4,-31.3672 543.367,-31.3672 C547.335,-31.3672 550.12,-29.9707 551.725,-27.1777 C553.314,-24.3848 554.109,-20.4173 554.109,-15.2754 C554.109,-10.1335 553.311,-6.17318 551.714,-3.39453 C550.117,-0.615885 547.335,0.773438 543.367,0.773438 M546.955,-7.06836 C547.514,-8.95898 547.793,-11.6947 547.793,-15.2754 C547.793,-19.028 547.51,-21.8066 546.944,-23.6113 C546.379,-25.416 545.186,-26.3184 543.367,-26.3184 C541.548,-26.3184 540.345,-25.416 539.758,-23.6113 C539.171,-21.8066 538.877,-19.028 538.877,-15.2754 C538.877,-11.6947 539.171,-8.9554 539.758,-7.05762 C540.345,-5.15983 541.548,-4.21094 543.367,-4.21094 C545.186,-4.21094 546.382,-5.16341 546.955,-7.06836 "/>
</g>

<g fill="#d9541a" fill-opacity="0.8" stroke="none" transform="matrix(0.547032,0,0,0.502542,-3.42329,-13.325)"
font-family=".AppleSystemUIFont" font-size="13" font-weight="400" font-style="normal" 
>
<circle cx="246.258" cy="641.318" r="8.94427"/>
<circle cx="233.6" cy="661.592" r="8.94427"/>
<circle cx="228.04" cy="669.943" r="8.94427"/>
<circle cx="244.969" cy="645.756" r="8.94427"/>
<circle cx="229.211" cy="677.14" r="8.94427"/>
<circle cx="243.736" cy="652.625" r="8.94427"/>
<circle cx="244.931" cy="628.16" r="8.94427"/>
<circle cx="255.321" cy="617.539" r="8.94427"/>
<circle cx="226.803" cy="684.736" r="8.94427"/>
<circle cx="234.569" cy="658.996" r="8.94427"/>
<circle cx="250.407" cy="684.615" r="8.94427"/>
<circle cx="228.953" cy="676.763" r="8.94427"/>
<circle cx="224.098" cy="676.451" r="8.94427"/>
</g>

<g fill="#0073bd" fill-opacity="0.8" stroke="none" transform="matrix(0.547032,0,0,0.502542,-3.42329,-13.325)"
font-family=".AppleSystemUIFont" font-size="13" font-weight="400" font-style="normal" 
>
<circle cx="552.407" cy="211.361" r="8.94427"/>
<circle cx="673" cy="861.726" r="8.94427"/>
<circle cx="671.531" cy="859.009" r="8.94427"/>
<circle cx="364.68" cy="571.967" r="8.94427"/>
<circle cx="553.141" cy="209.365" r="8.94427"/>
<circle cx="536.699" cy="220.453" r="8.94427"/>
<circle cx="339.214" cy="547.194" r="8.94427"/>
<circle cx="652.228" cy="778.654" r="8.94427"/>
<circle cx="555.935" cy="838.393" r="8.94427"/>
<circle cx="586.126" cy="869.911" r="8.94427"/>
</g>

<g fill="#ffffff" fill-opacity="1" stroke="none" transform="matrix(5.47032e-05,0,0,5.02542e-05,-3.42329,-13.325)"
font-family=".AppleSystemUIFont" font-size="13" font-weight="400" font-style="normal" 
>
<path vector-effect="none" fill-rule="evenodd" d="M6.89e+06,770000 L6.89e+06,1.66e+06 L1.003e+07,1.66e+06 L1.003e+07,770000 L6.89e+06,770000"/>
</g>

<g fill="#d9541a" fill-opacity="0.8" stroke="none" transform="matrix(0.547032,0,0,0.502542,-3.42329,-13.325)"
font-family=".AppleSystemUIFont" font-size="13" font-weight="400" font-style="normal" 
>
<circle cx="710.358" cy="100.566" r="6"/>
</g>

<g fill="#0073bd" fill-opacity="0.8" stroke="none" transform="matrix(0.547032,0,0,0.502542,-3.42329,-13.325)"
font-family=".AppleSystemUIFont" font-size="13" font-weight="400" font-style="normal" 
>
<circle cx="710.358" cy="142.434" r="6"/>
</g>

<g fill="#212121" fill-opacity="1" stroke="none" transform="matrix(0.547032,0,0,0.502542,396.029,42.2392)"
font-family=".AppleSystemUIFont" font-size="13" font-weight="400" font-style="normal" 
>
<path vector-effect="none" fill-rule="evenodd" d="M2.74219,-25.8223 L6.87305,-25.8223 L19.916,-4.9043 L19.916,-25.8223 L23.2383,-25.8223 L23.2383,0 L19.3184,0 L6.08203,-20.9004 L6.08203,0 L2.74219,0 L2.74219,-25.8223 M35.7754,-2.03906 C37.873,-2.03906 39.3115,-2.83301 40.0908,-4.4209 C40.8701,-6.00879 41.2598,-7.77539 41.2598,-9.7207 C41.2598,-11.4785 40.9785,-12.9082 40.416,-14.0098 C39.5254,-15.7441 37.9902,-16.6113 35.8105,-16.6113 C33.877,-16.6113 32.4707,-15.873 31.5918,-14.3965 C30.7129,-12.9199 30.2734,-11.1387 30.2734,-9.05273 C30.2734,-7.04883 30.7129,-5.37891 31.5918,-4.04297 C32.4707,-2.70703 33.8652,-2.03906 35.7754,-2.03906 M35.8984,-19.3711 C38.3242,-19.3711 40.375,-18.5625 42.0508,-16.9453 C43.7266,-15.3281 44.5645,-12.9492 44.5645,-9.80859 C44.5645,-6.77344 43.8262,-4.26563 42.3496,-2.28516 C40.873,-0.304688 38.582,0.685547 35.4766,0.685547 C32.8867,0.685547 30.8301,-0.19043 29.3066,-1.94238 C27.7832,-3.69434 27.0215,-6.04688 27.0215,-9 C27.0215,-12.1641 27.8242,-14.6836 29.4297,-16.5586 C31.0352,-18.4336 33.1914,-19.3711 35.8984,-19.3711 M60.7461,-5.00977 C60.7461,-4.0957 61.0801,-3.375 61.748,-2.84766 C62.416,-2.32031 63.207,-2.05664 64.1211,-2.05664 C65.2344,-2.05664 66.3125,-2.31445 67.3555,-2.83008 C69.1133,-3.68555 69.9922,-5.08594 69.9922,-7.03125 L69.9922,-9.58008 C69.6055,-9.33398 69.1074,-9.12891 68.498,-8.96484 C67.8887,-8.80078 67.291,-8.68359 66.7051,-8.61328 L64.7891,-8.36719 C63.6406,-8.21484 62.7793,-7.97461 62.2051,-7.64648 C61.2324,-7.0957 60.7461,-6.2168 60.7461,-5.00977 M68.4102,-11.4082 C69.1367,-11.502 69.623,-11.8066 69.8691,-12.3223 C70.0098,-12.6035 70.0801,-13.0078 70.0801,-13.5352 C70.0801,-14.6133 69.6963,-15.3955 68.9287,-15.8818 C68.1611,-16.3682 67.0625,-16.6113 65.6328,-16.6113 C63.9805,-16.6113 62.8086,-16.166 62.1172,-15.2754 C61.7305,-14.7832 61.4785,-14.0508 61.3613,-13.0781 L58.4082,-13.0781 C58.4668,-15.3984 59.2197,-17.0127 60.667,-17.9209 C62.1143,-18.8291 63.793,-19.2832 65.7031,-19.2832 C67.918,-19.2832 69.7168,-18.8613 71.0996,-18.0176 C72.4707,-17.1738 73.1563,-15.8613 73.1563,-14.0801 L73.1563,-3.23438 C73.1563,-2.90625 73.2236,-2.64258 73.3584,-2.44336 C73.4932,-2.24414 73.7773,-2.14453 74.2109,-2.14453 C74.3516,-2.14453 74.5098,-2.15332 74.6855,-2.1709 C74.8613,-2.18848 75.0488,-2.21484 75.248,-2.25 L75.248,0.0878906 C74.7559,0.228516 74.3809,0.316406 74.123,0.351563 C73.8652,0.386719 73.5137,0.404297 73.0684,0.404297 C71.9785,0.404297 71.1875,0.0175781 70.6953,-0.755859 C70.4375,-1.16602 70.2559,-1.74609 70.1504,-2.49609 C69.5059,-1.65234 68.5801,-0.919922 67.373,-0.298828 C66.166,0.322266 64.8359,0.632813 63.3828,0.632813 C61.6367,0.632813 60.21,0.102539 59.1025,-0.958008 C57.9951,-2.01855 57.4414,-3.3457 57.4414,-4.93945 C57.4414,-6.68555 57.9863,-8.03906 59.0762,-9 C60.166,-9.96094 61.5957,-10.5527 63.3652,-10.7754 L68.4102,-11.4082 M78.3359,-18.8262 L81.3418,-18.8262 L81.3418,-16.1543 C82.2324,-17.2559 83.1758,-18.0469 84.1719,-18.5273 C85.168,-19.0078 86.2754,-19.248 87.4941,-19.248 C90.166,-19.248 91.9707,-18.3164 92.9082,-16.4531 C93.4238,-15.4336 93.6816,-13.9746 93.6816,-12.0762 L93.6816,0 L90.4648,0 L90.4648,-11.8652 C90.4648,-13.0137 90.2949,-13.9395 89.9551,-14.6426 C89.3926,-15.8145 88.373,-16.4004 86.8965,-16.4004 C86.1465,-16.4004 85.5313,-16.3242 85.0508,-16.1719 C84.1836,-15.9141 83.4219,-15.3984 82.7656,-14.625 C82.2383,-14.0039 81.8955,-13.3623 81.7373,-12.7002 C81.5791,-12.0381 81.5,-11.0918 81.5,-9.86133 L81.5,0 L78.3359,0 L78.3359,-18.8262 M98.9844,-24.082 L102.184,-24.082 L102.184,-18.8262 L105.189,-18.8262 L105.189,-16.2422 L102.184,-16.2422 L102.184,-3.95508 C102.184,-3.29883 102.406,-2.85938 102.852,-2.63672 C103.098,-2.50781 103.508,-2.44336 104.082,-2.44336 C104.234,-2.44336 104.398,-2.44629 104.574,-2.45215 C104.75,-2.45801 104.955,-2.47266 105.189,-2.49609 L105.189,0 C104.826,0.105469 104.448,0.181641 104.056,0.228516 C103.663,0.275391 103.238,0.298828 102.781,0.298828 C101.305,0.298828 100.303,-0.0791016 99.7754,-0.834961 C99.248,-1.59082 98.9844,-2.57227 98.9844,-3.7793 L98.9844,-16.2422 L96.4355,-16.2422 L96.4355,-18.8262 L98.9844,-18.8262 L98.9844,-24.082 M108.352,-18.7383 L111.568,-18.7383 L111.568,0 L108.352,0 L108.352,-18.7383 M108.352,-25.8223 L111.568,-25.8223 L111.568,-22.2363 L108.352,-22.2363 L108.352,-25.8223 M116.09,-25.9102 L119.166,-25.9102 L119.166,-16.541 C119.857,-17.4434 120.684,-18.1318 121.645,-18.6064 C122.605,-19.0811 123.648,-19.3184 124.773,-19.3184 C127.117,-19.3184 129.019,-18.5127 130.478,-16.9014 C131.937,-15.29 132.666,-12.9141 132.666,-9.77344 C132.666,-6.79688 131.945,-4.32422 130.504,-2.35547 C129.063,-0.386719 127.064,0.597656 124.51,0.597656 C123.08,0.597656 121.873,0.251953 120.889,-0.439453 C120.303,-0.849609 119.676,-1.50586 119.008,-2.4082 L119.008,0 L116.09,0 L116.09,-25.9102 M124.316,-2.19727 C126.027,-2.19727 127.308,-2.87695 128.157,-4.23633 C129.007,-5.5957 129.432,-7.38867 129.432,-9.61523 C129.432,-11.5957 129.007,-13.2363 128.157,-14.5371 C127.308,-15.8379 126.057,-16.4883 124.404,-16.4883 C122.963,-16.4883 121.7,-15.9551 120.616,-14.8887 C119.532,-13.8223 118.99,-12.0645 118.99,-9.61523 C118.99,-7.8457 119.213,-6.41016 119.658,-5.30859 C120.49,-3.23438 122.043,-2.19727 124.316,-2.19727 M136.352,-18.7383 L139.568,-18.7383 L139.568,0 L136.352,0 L136.352,-18.7383 M136.352,-25.8223 L139.568,-25.8223 L139.568,-22.2363 L136.352,-22.2363 L136.352,-25.8223 M151.807,-2.03906 C153.904,-2.03906 155.343,-2.83301 156.122,-4.4209 C156.901,-6.00879 157.291,-7.77539 157.291,-9.7207 C157.291,-11.4785 157.01,-12.9082 156.447,-14.0098 C155.557,-15.7441 154.021,-16.6113 151.842,-16.6113 C149.908,-16.6113 148.502,-15.873 147.623,-14.3965 C146.744,-12.9199 146.305,-11.1387 146.305,-9.05273 C146.305,-7.04883 146.744,-5.37891 147.623,-4.04297 C148.502,-2.70703 149.896,-2.03906 151.807,-2.03906 M151.93,-19.3711 C154.355,-19.3711 156.406,-18.5625 158.082,-16.9453 C159.758,-15.3281 160.596,-12.9492 160.596,-9.80859 C160.596,-6.77344 159.857,-4.26563 158.381,-2.28516 C156.904,-0.304688 154.613,0.685547 151.508,0.685547 C148.918,0.685547 146.861,-0.19043 145.338,-1.94238 C143.814,-3.69434 143.053,-6.04688 143.053,-9 C143.053,-12.1641 143.855,-14.6836 145.461,-16.5586 C147.066,-18.4336 149.223,-19.3711 151.93,-19.3711 M164.984,-24.082 L168.184,-24.082 L168.184,-18.8262 L171.189,-18.8262 L171.189,-16.2422 L168.184,-16.2422 L168.184,-3.95508 C168.184,-3.29883 168.406,-2.85938 168.852,-2.63672 C169.098,-2.50781 169.508,-2.44336 170.082,-2.44336 C170.234,-2.44336 170.398,-2.44629 170.574,-2.45215 C170.75,-2.45801 170.955,-2.47266 171.189,-2.49609 L171.189,0 C170.826,0.105469 170.448,0.181641 170.056,0.228516 C169.663,0.275391 169.238,0.298828 168.781,0.298828 C167.305,0.298828 166.303,-0.0791016 165.775,-0.834961 C165.248,-1.59082 164.984,-2.57227 164.984,-3.7793 L164.984,-16.2422 L162.436,-16.2422 L162.436,-18.8262 L164.984,-18.8262 L164.984,-24.082 M174.352,-18.7383 L177.568,-18.7383 L177.568,0 L174.352,0 L174.352,-18.7383 M174.352,-25.8223 L177.568,-25.8223 L177.568,-22.2363 L174.352,-22.2363 L174.352,-25.8223 M189.596,-19.3711 C191.717,-19.3711 193.442,-18.8555 194.772,-17.8242 C196.103,-16.793 196.902,-15.0176 197.172,-12.498 L194.096,-12.498 C193.908,-13.6582 193.48,-14.6221 192.813,-15.3896 C192.145,-16.1572 191.072,-16.541 189.596,-16.541 C187.58,-16.541 186.139,-15.5566 185.271,-13.5879 C184.709,-12.3105 184.428,-10.7344 184.428,-8.85938 C184.428,-6.97266 184.826,-5.38477 185.623,-4.0957 C186.42,-2.80664 187.674,-2.16211 189.385,-2.16211 C190.697,-2.16211 191.737,-2.56348 192.505,-3.36621 C193.272,-4.16895 193.803,-5.26758 194.096,-6.66211 L197.172,-6.66211 C196.82,-4.16602 195.941,-2.34082 194.535,-1.18652 C193.129,-0.0322266 191.33,0.544922 189.139,0.544922 C186.678,0.544922 184.715,-0.354492 183.25,-2.15332 C181.785,-3.95215 181.053,-6.19922 181.053,-8.89453 C181.053,-12.1992 181.855,-14.7715 183.461,-16.6113 C185.066,-18.4512 187.111,-19.3711 189.596,-19.3711 "/>
</g>

<g fill="#212121" fill-opacity="1" stroke="none" transform="matrix(0.547032,0,0,0.502542,396.029,63.2794)"
font-family=".AppleSystemUIFont" font-size="13" font-weight="400" font-style="normal" 
>
<path vector-effect="none" fill-rule="evenodd" d="M15.9961,-10.582 L12.0762,-21.9902 L7.91016,-10.582 L15.9961,-10.582 M10.248,-25.8223 L14.2031,-25.8223 L23.5723,0 L19.7402,0 L17.1211,-7.73438 L6.9082,-7.73438 L4.11328,0 L0.527344,0 L10.248,-25.8223 M26.3203,-18.8262 L29.3262,-18.8262 L29.3262,-16.1543 C30.2168,-17.2559 31.1602,-18.0469 32.1563,-18.5273 C33.1523,-19.0078 34.2598,-19.248 35.4785,-19.248 C38.1504,-19.248 39.9551,-18.3164 40.8926,-16.4531 C41.4082,-15.4336 41.666,-13.9746 41.666,-12.0762 L41.666,0 L38.4492,0 L38.4492,-11.8652 C38.4492,-13.0137 38.2793,-13.9395 37.9395,-14.6426 C37.377,-15.8145 36.3574,-16.4004 34.8809,-16.4004 C34.1309,-16.4004 33.5156,-16.3242 33.0352,-16.1719 C32.168,-15.9141 31.4063,-15.3984 30.75,-14.625 C30.2227,-14.0039 29.8799,-13.3623 29.7217,-12.7002 C29.5635,-12.0381 29.4844,-11.0918 29.4844,-9.86133 L29.4844,0 L26.3203,0 L26.3203,-18.8262 M46.9688,-24.082 L50.168,-24.082 L50.168,-18.8262 L53.1738,-18.8262 L53.1738,-16.2422 L50.168,-16.2422 L50.168,-3.95508 C50.168,-3.29883 50.3906,-2.85938 50.8359,-2.63672 C51.082,-2.50781 51.4922,-2.44336 52.0664,-2.44336 C52.2188,-2.44336 52.3828,-2.44629 52.5586,-2.45215 C52.7344,-2.45801 52.9395,-2.47266 53.1738,-2.49609 L53.1738,0 C52.8105,0.105469 52.4326,0.181641 52.04,0.228516 C51.6475,0.275391 51.2227,0.298828 50.7656,0.298828 C49.2891,0.298828 48.2871,-0.0791016 47.7598,-0.834961 C47.2324,-1.59082 46.9688,-2.57227 46.9688,-3.7793 L46.9688,-16.2422 L44.4199,-16.2422 L44.4199,-18.8262 L46.9688,-18.8262 L46.9688,-24.082 M56.3359,-18.7383 L59.5527,-18.7383 L59.5527,0 L56.3359,0 L56.3359,-18.7383 M56.3359,-25.8223 L59.5527,-25.8223 L59.5527,-22.2363 L56.3359,-22.2363 L56.3359,-25.8223 M64.0742,-25.9102 L67.1504,-25.9102 L67.1504,-16.541 C67.8418,-17.4434 68.668,-18.1318 69.6289,-18.6064 C70.5898,-19.0811 71.6328,-19.3184 72.7578,-19.3184 C75.1016,-19.3184 77.0029,-18.5127 78.4619,-16.9014 C79.9209,-15.29 80.6504,-12.9141 80.6504,-9.77344 C80.6504,-6.79688 79.9297,-4.32422 78.4883,-2.35547 C77.0469,-0.386719 75.0488,0.597656 72.4941,0.597656 C71.0645,0.597656 69.8574,0.251953 68.873,-0.439453 C68.2871,-0.849609 67.6602,-1.50586 66.9922,-2.4082 L66.9922,0 L64.0742,0 L64.0742,-25.9102 M72.3008,-2.19727 C74.0117,-2.19727 75.292,-2.87695 76.1416,-4.23633 C76.9912,-5.5957 77.416,-7.38867 77.416,-9.61523 C77.416,-11.5957 76.9912,-13.2363 76.1416,-14.5371 C75.292,-15.8379 74.041,-16.4883 72.3887,-16.4883 C70.9473,-16.4883 69.6846,-15.9551 68.6006,-14.8887 C67.5166,-13.8223 66.9746,-12.0645 66.9746,-9.61523 C66.9746,-7.8457 67.1973,-6.41016 67.6426,-5.30859 C68.4746,-3.23438 70.0273,-2.19727 72.3008,-2.19727 M84.3359,-18.7383 L87.5527,-18.7383 L87.5527,0 L84.3359,0 L84.3359,-18.7383 M84.3359,-25.8223 L87.5527,-25.8223 L87.5527,-22.2363 L84.3359,-22.2363 L84.3359,-25.8223 M99.791,-2.03906 C101.889,-2.03906 103.327,-2.83301 104.106,-4.4209 C104.886,-6.00879 105.275,-7.77539 105.275,-9.7207 C105.275,-11.4785 104.994,-12.9082 104.432,-14.0098 C103.541,-15.7441 102.006,-16.6113 99.8262,-16.6113 C97.8926,-16.6113 96.4863,-15.873 95.6074,-14.3965 C94.7285,-12.9199 94.2891,-11.1387 94.2891,-9.05273 C94.2891,-7.04883 94.7285,-5.37891 95.6074,-4.04297 C96.4863,-2.70703 97.8809,-2.03906 99.791,-2.03906 M99.9141,-19.3711 C102.34,-19.3711 104.391,-18.5625 106.066,-16.9453 C107.742,-15.3281 108.58,-12.9492 108.58,-9.80859 C108.58,-6.77344 107.842,-4.26563 106.365,-2.28516 C104.889,-0.304688 102.598,0.685547 99.4922,0.685547 C96.9023,0.685547 94.8457,-0.19043 93.3223,-1.94238 C91.7988,-3.69434 91.0371,-6.04688 91.0371,-9 C91.0371,-12.1641 91.8398,-14.6836 93.4453,-16.5586 C95.0508,-18.4336 97.207,-19.3711 99.9141,-19.3711 M112.969,-24.082 L116.168,-24.082 L116.168,-18.8262 L119.174,-18.8262 L119.174,-16.2422 L116.168,-16.2422 L116.168,-3.95508 C116.168,-3.29883 116.391,-2.85938 116.836,-2.63672 C117.082,-2.50781 117.492,-2.44336 118.066,-2.44336 C118.219,-2.44336 118.383,-2.44629 118.559,-2.45215 C118.734,-2.45801 118.939,-2.47266 119.174,-2.49609 L119.174,0 C118.811,0.105469 118.433,0.181641 118.04,0.228516 C117.647,0.275391 117.223,0.298828 116.766,0.298828 C115.289,0.298828 114.287,-0.0791016 113.76,-0.834961 C113.232,-1.59082 112.969,-2.57227 112.969,-3.7793 L112.969,-16.2422 L110.42,-16.2422 L110.42,-18.8262 L112.969,-18.8262 L112.969,-24.082 M122.336,-18.7383 L125.553,-18.7383 L125.553,0 L122.336,0 L122.336,-18.7383 M122.336,-25.8223 L125.553,-25.8223 L125.553,-22.2363 L122.336,-22.2363 L122.336,-25.8223 M137.58,-19.3711 C139.701,-19.3711 141.427,-18.8555 142.757,-17.8242 C144.087,-16.793 144.887,-15.0176 145.156,-12.498 L142.08,-12.498 C141.893,-13.6582 141.465,-14.6221 140.797,-15.3896 C140.129,-16.1572 139.057,-16.541 137.58,-16.541 C135.564,-16.541 134.123,-15.5566 133.256,-13.5879 C132.693,-12.3105 132.412,-10.7344 132.412,-8.85938 C132.412,-6.97266 132.811,-5.38477 133.607,-4.0957 C134.404,-2.80664 135.658,-2.16211 137.369,-2.16211 C138.682,-2.16211 139.722,-2.56348 140.489,-3.36621 C141.257,-4.16895 141.787,-5.26758 142.08,-6.66211 L145.156,-6.66211 C144.805,-4.16602 143.926,-2.34082 142.52,-1.18652 C141.113,-0.0322266 139.314,0.544922 137.123,0.544922 C134.662,0.544922 132.699,-0.354492 131.234,-2.15332 C129.77,-3.95215 129.037,-6.19922 129.037,-8.89453 C129.037,-12.1992 129.84,-14.7715 131.445,-16.6113 C133.051,-18.4512 135.096,-19.3711 137.58,-19.3711 M166.652,-26.2441 C164.813,-22.6699 163.617,-20.0391 163.066,-18.3516 C162.234,-15.7852 161.818,-12.8203 161.818,-9.45703 C161.818,-6.05859 162.293,-2.95313 163.242,-0.140625 C163.828,1.59375 164.982,4.08984 166.705,7.34766 L164.578,7.34766 C162.867,4.67578 161.807,2.9707 161.396,2.23242 C160.986,1.49414 160.541,0.492188 160.061,-0.773438 C159.404,-2.50781 158.947,-4.35938 158.689,-6.32813 C158.561,-7.34766 158.496,-8.32031 158.496,-9.24609 C158.496,-12.7148 159.041,-15.8027 160.131,-18.5098 C160.822,-20.2324 162.264,-22.8105 164.455,-26.2441 L166.652,-26.2441 M170.305,-18.8262 L173.434,-18.8262 L173.434,-16.1543 C174.184,-17.0801 174.863,-17.7539 175.473,-18.1758 C176.516,-18.8906 177.699,-19.248 179.023,-19.248 C180.523,-19.248 181.73,-18.8789 182.645,-18.1406 C183.16,-17.7188 183.629,-17.0977 184.051,-16.2773 C184.754,-17.2852 185.58,-18.0322 186.529,-18.5186 C187.479,-19.0049 188.545,-19.248 189.729,-19.248 C192.26,-19.248 193.982,-18.334 194.896,-16.5059 C195.389,-15.5215 195.635,-14.1973 195.635,-12.5332 L195.635,0 L192.348,0 L192.348,-13.0781 C192.348,-14.332 192.034,-15.1934 191.407,-15.6621 C190.78,-16.1309 190.016,-16.3652 189.113,-16.3652 C187.871,-16.3652 186.802,-15.9492 185.905,-15.1172 C185.009,-14.2852 184.561,-12.8965 184.561,-10.9512 L184.561,0 L181.344,0 L181.344,-12.2871 C181.344,-13.5645 181.191,-14.4961 180.887,-15.082 C180.406,-15.9609 179.51,-16.4004 178.197,-16.4004 C177.002,-16.4004 175.915,-15.9375 174.937,-15.0117 C173.958,-14.0859 173.469,-12.4102 173.469,-9.98438 L173.469,0 L170.305,0 L170.305,-18.8262 M200.289,-18.8262 L203.295,-18.8262 L203.295,-16.1543 C204.186,-17.2559 205.129,-18.0469 206.125,-18.5273 C207.121,-19.0078 208.229,-19.248 209.447,-19.248 C212.119,-19.248 213.924,-18.3164 214.861,-16.4531 C215.377,-15.4336 215.635,-13.9746 215.635,-12.0762 L215.635,0 L212.418,0 L212.418,-11.8652 C212.418,-13.0137 212.248,-13.9395 211.908,-14.6426 C211.346,-15.8145 210.326,-16.4004 208.85,-16.4004 C208.1,-16.4004 207.484,-16.3242 207.004,-16.1719 C206.137,-15.9141 205.375,-15.3984 204.719,-14.625 C204.191,-14.0039 203.849,-13.3623 203.69,-12.7002 C203.532,-12.0381 203.453,-11.0918 203.453,-9.86133 L203.453,0 L200.289,0 L200.289,-18.8262 M221.852,-18.8262 L226.879,-3.49805 L232.135,-18.8262 L235.598,-18.8262 L228.496,0 L225.121,0 L218.178,-18.8262 L221.852,-18.8262 M245.564,-19.3711 C247.686,-19.3711 249.411,-18.8555 250.741,-17.8242 C252.071,-16.793 252.871,-15.0176 253.141,-12.498 L250.064,-12.498 C249.877,-13.6582 249.449,-14.6221 248.781,-15.3896 C248.113,-16.1572 247.041,-16.541 245.564,-16.541 C243.549,-16.541 242.107,-15.5566 241.24,-13.5879 C240.678,-12.3105 240.396,-10.7344 240.396,-8.85938 C240.396,-6.97266 240.795,-5.38477 241.592,-4.0957 C242.389,-2.80664 243.643,-2.16211 245.354,-2.16211 C246.666,-2.16211 247.706,-2.56348 248.474,-3.36621 C249.241,-4.16895 249.771,-5.26758 250.064,-6.66211 L253.141,-6.66211 C252.789,-4.16602 251.91,-2.34082 250.504,-1.18652 C249.098,-0.0322266 247.299,0.544922 245.107,0.544922 C242.646,0.544922 240.684,-0.354492 239.219,-2.15332 C237.754,-3.95215 237.021,-6.19922 237.021,-8.89453 C237.021,-12.1992 237.824,-14.7715 239.43,-16.6113 C241.035,-18.4512 243.08,-19.3711 245.564,-19.3711 M255.232,7.34766 C257.096,3.71484 258.297,1.06641 258.836,-0.597656 C259.656,-3.11719 260.066,-6.07031 260.066,-9.45703 C260.066,-12.8438 259.592,-15.9434 258.643,-18.7559 C258.057,-20.4902 256.902,-22.9863 255.18,-26.2441 L257.307,-26.2441 C259.111,-23.3613 260.204,-21.583 260.585,-20.9092 C260.966,-20.2354 261.379,-19.3066 261.824,-18.123 C262.387,-16.6582 262.788,-15.2109 263.028,-13.7813 C263.269,-12.3516 263.389,-10.9746 263.389,-9.65039 C263.389,-6.18164 262.838,-3.08789 261.736,-0.369141 C261.045,1.37695 259.609,3.94922 257.43,7.34766 L255.232,7.34766"/>
</g>

<g fill="none" stroke="#212121" stroke-opacity="1" stroke-width="1" stroke-linecap="butt" stroke-linejoin="miter" stroke-miterlimit="2" transform="matrix(0.547032,0,0,0.502542,-3.42329,-13.325)"
font-family=".AppleSystemUIFont" font-size="13" font-weight="400" font-style="normal" 
>
<path vector-effect="none" fill-rule="evenodd" d="M689,166 L689,77 L1003,77 L1003,166 L689,166"/>
</g>
</g>
</svg>
