<?xml version="1.0" encoding="UTF-8" standalone="no"?>
<svg width="183.092mm" height="175.683mm"
 viewBox="0 0 519 498"
 xmlns="http://www.w3.org/2000/svg" xmlns:xlink="http://www.w3.org/1999/xlink"  version="1.2" baseProfile="tiny">
<title>Qt SVG Document</title>
<desc>MATLAB, The MathWorks, Inc. Version 25.2.0.3042426 R2025b Update 1</desc>
<defs>
</defs>
<g fill="none" stroke="black" stroke-width="1" fill-rule="evenodd" stroke-linecap="square" stroke-linejoin="bevel" >

<g fill="#ffffff" fill-opacity="1" stroke="none" transform="matrix(0.502434,0,0,0.502793,-3.0219,-13.3324)"
font-family=".AppleSystemUIFont" font-size="13" font-weight="400" font-style="normal" 
>
<path vector-effect="none" fill-rule="evenodd" d="M5,26 L1039,26 L1039,1017 L5,1017 L5,26"/>
</g>

<g fill="#ffffff" fill-opacity="1" stroke="none" transform="matrix(5.02434e-05,0,0,5.02793e-05,-3.0219,-13.3324)"
font-family=".AppleSystemUIFont" font-size="13" font-weight="400" font-style="normal" 
>
<path vector-effect="none" fill-rule="evenodd" d="M1.61e+06,770000 L1.61e+06,9.11e+06 L8.28e+06,9.11e+06 L8.28e+06,770000 L1.61e+06,770000"/>
</g>

<g fill="#212121" fill-opacity="1" stroke="none" transform="matrix(0.502434,0,0,0.502793,176.096,491.975)"
font-family=".AppleSystemUIFont" font-size="13" font-weight="400" font-style="normal" 
>
<path vector-effect="none" fill-rule="evenodd" d="M3.75977,-31.5605 L17.9609,-31.5605 C20.7682,-31.5605 23.0313,-30.7692 24.75,-29.1865 C26.4688,-27.6038 27.3281,-25.3802 27.3281,-22.5156 C27.3281,-20.0521 26.5618,-17.9072 25.0293,-16.0811 C23.4967,-14.2549 21.1406,-13.3418 17.9609,-13.3418 L8.03516,-13.3418 L8.03516,0 L3.75977,0 L3.75977,-31.5605 M23.0098,-22.4941 C23.0098,-24.8145 22.1504,-26.39 20.4316,-27.2207 C19.4863,-27.6647 18.1901,-27.8867 16.543,-27.8867 L8.03516,-27.8867 L8.03516,-16.9512 L16.543,-16.9512 C18.4622,-16.9512 20.0199,-17.3594 21.2158,-18.1758 C22.4118,-18.9922 23.0098,-20.4316 23.0098,-22.4941 M45.9941,-32.4199 C49.9902,-32.4199 53.0911,-31.3672 55.2969,-29.2617 C57.5026,-27.1563 58.7272,-24.7643 58.9707,-22.0859 L54.8027,-22.0859 C54.3301,-24.1198 53.3883,-25.7311 51.9775,-26.9199 C50.5667,-28.1087 48.5866,-28.7031 46.0371,-28.7031 C42.929,-28.7031 40.4189,-27.611 38.5068,-25.4268 C36.5947,-23.2425 35.6387,-19.8945 35.6387,-15.3828 C35.6387,-11.6875 36.5016,-8.69043 38.2275,-6.3916 C39.9535,-4.09277 42.528,-2.94336 45.9512,-2.94336 C49.1022,-2.94336 51.5013,-4.15365 53.1484,-6.57422 C54.0221,-7.84896 54.6738,-9.52474 55.1035,-11.6016 L59.2715,-11.6016 C58.8991,-8.27865 57.6673,-5.49284 55.5762,-3.24414 C53.0697,-0.537109 49.6895,0.816406 45.4355,0.816406 C41.7689,0.816406 38.6895,-0.29362 36.1973,-2.51367 C32.9173,-5.44987 31.2773,-9.98307 31.2773,-16.1133 C31.2773,-20.7682 32.5091,-24.5853 34.9727,-27.5645 C37.6367,-30.8014 41.3105,-32.4199 45.9941,-32.4199 M73.0762,-2.49219 C75.64,-2.49219 77.3981,-3.46257 78.3506,-5.40332 C79.3031,-7.34408 79.7793,-9.50326 79.7793,-11.8809 C79.7793,-14.0293 79.4355,-15.7767 78.748,-17.123 C77.6595,-19.2428 75.7832,-20.3027 73.1191,-20.3027 C70.7559,-20.3027 69.0371,-19.4004 67.9629,-17.5957 C66.8887,-15.791 66.3516,-13.6139 66.3516,-11.0645 C66.3516,-8.61523 66.8887,-6.57422 67.9629,-4.94141 C69.0371,-3.30859 70.7415,-2.49219 73.0762,-2.49219 M73.2266,-23.6758 C76.1914,-23.6758 78.6979,-22.6875 80.7461,-20.7109 C82.7943,-18.7344 83.8184,-15.8268 83.8184,-11.9883 C83.8184,-8.27865 82.916,-5.21354 81.1113,-2.79297 C79.3066,-0.372396 76.5065,0.837891 72.7109,0.837891 C69.5456,0.837891 67.0319,-0.232747 65.1699,-2.37402 C63.3079,-4.5153 62.377,-7.39063 62.377,-11 C62.377,-14.8672 63.3581,-17.9466 65.3203,-20.2383 C67.2826,-22.5299 69.918,-23.6758 73.2266,-23.6758 M89.7891,-21.7852 L89.7891,-24.75 C92.582,-25.0221 94.5299,-25.4769 95.6328,-26.1143 C96.7357,-26.7516 97.5592,-28.2591 98.1035,-30.6367 L101.154,-30.6367 L101.154,0 L97.0293,0 L97.0293,-21.7852 L89.7891,-21.7852 M135.285,-32.0762 C133.036,-27.7077 131.576,-24.4922 130.902,-22.4297 C129.885,-19.293 129.377,-15.6693 129.377,-11.5586 C129.377,-7.40495 129.957,-3.60938 131.117,-0.171875 C131.833,1.94792 133.244,4.9987 135.35,8.98047 L132.75,8.98047 C130.659,5.71484 129.363,3.63086 128.861,2.72852 C128.36,1.82617 127.816,0.601563 127.229,-0.945313 C126.426,-3.0651 125.868,-5.32813 125.553,-7.73438 C125.395,-8.98047 125.316,-10.1693 125.316,-11.3008 C125.316,-15.5404 125.982,-19.3145 127.314,-22.623 C128.16,-24.7285 129.921,-27.8796 132.6,-32.0762 L135.285,-32.0762 M159.916,-30.25 L159.916,-26.877 C158.928,-25.9173 157.614,-24.2487 155.974,-21.8711 C154.334,-19.4935 152.883,-16.9297 151.623,-14.1797 C150.377,-11.5013 149.432,-9.05924 148.787,-6.85352 C148.372,-5.43555 147.835,-3.15104 147.176,0 L142.9,0 C143.874,-5.8724 146.023,-11.7161 149.346,-17.5313 C151.308,-20.9401 153.37,-23.8835 155.533,-26.3613 L138.518,-26.3613 L138.518,-30.25 L159.916,-30.25 M184.385,-30.25 L184.385,-26.877 C183.396,-25.9173 182.082,-24.2487 180.442,-21.8711 C178.802,-19.4935 177.352,-16.9297 176.092,-14.1797 C174.846,-11.5013 173.9,-9.05924 173.256,-6.85352 C172.84,-5.43555 172.303,-3.15104 171.645,0 L167.369,0 C168.343,-5.8724 170.492,-11.7161 173.814,-17.5313 C175.777,-20.9401 177.839,-23.8835 180.002,-26.3613 L162.986,-26.3613 L162.986,-30.25 L184.385,-30.25 M189.604,-4.68359 L194.094,-4.68359 L194.094,0 L189.604,0 L189.604,-4.68359 M199.438,0 C199.581,-2.64974 200.129,-4.95573 201.081,-6.91797 C202.034,-8.88021 203.892,-10.6634 206.656,-12.2676 L210.781,-14.6523 C212.629,-15.7266 213.925,-16.6432 214.67,-17.4023 C215.844,-18.5911 216.432,-19.9518 216.432,-21.4844 C216.432,-23.2747 215.895,-24.6963 214.82,-25.749 C213.746,-26.8018 212.314,-27.3281 210.523,-27.3281 C207.874,-27.3281 206.04,-26.3255 205.023,-24.3203 C204.479,-23.2461 204.178,-21.7565 204.121,-19.8516 L200.189,-19.8516 C200.232,-22.5299 200.727,-24.7142 201.672,-26.4043 C203.348,-29.3835 206.305,-30.873 210.545,-30.873 C214.068,-30.873 216.643,-29.9206 218.269,-28.0156 C219.894,-26.1107 220.707,-23.9909 220.707,-21.6563 C220.707,-19.1927 219.84,-17.0872 218.107,-15.3398 C217.105,-14.3229 215.307,-13.0911 212.715,-11.6445 L209.771,-10.0117 C208.368,-9.23828 207.265,-8.50065 206.463,-7.79883 C205.031,-6.55273 204.128,-5.17057 203.756,-3.65234 L220.557,-3.65234 L220.557,0 L199.438,0 M252.523,-14.9531 C254.586,-14.9531 256.348,-14.2227 257.809,-12.7617 C259.27,-11.3008 260,-9.53906 260,-7.47656 C260,-5.41406 259.27,-3.65234 257.809,-2.19141 C256.348,-0.730469 254.586,0 252.523,0 C250.447,0 248.678,-0.730469 247.217,-2.19141 C245.756,-3.65234 245.025,-5.41406 245.025,-7.47656 C245.025,-9.53906 245.756,-11.3008 247.217,-12.7617 C248.678,-14.2227 250.447,-14.9531 252.523,-14.9531 M249.408,-30.6367 L251.793,-30.6367 L234.584,0.816406 L232.199,0.816406 L249.408,-30.6367 M231.426,-17.918 C232.658,-17.918 233.707,-18.3512 234.573,-19.2178 C235.44,-20.0843 235.873,-21.1263 235.873,-22.3438 C235.873,-23.5612 235.44,-24.6032 234.573,-25.4697 C233.707,-26.3363 232.658,-26.7695 231.426,-26.7695 C230.208,-26.7695 229.166,-26.3398 228.3,-25.4805 C227.433,-24.6211 227,-23.5755 227,-22.3438 C227,-21.1263 227.433,-20.0843 228.3,-19.2178 C229.166,-18.3512 230.208,-17.918 231.426,-17.918 M231.426,-29.8418 C233.503,-29.8418 235.271,-29.1077 236.732,-27.6396 C238.193,-26.1715 238.924,-24.4063 238.924,-22.3438 C238.924,-20.2813 238.193,-18.5195 236.732,-17.0586 C235.271,-15.5977 233.503,-14.8672 231.426,-14.8672 C229.363,-14.8672 227.602,-15.5977 226.141,-17.0586 C224.68,-18.5195 223.949,-20.2813 223.949,-22.3438 C223.949,-24.4063 224.68,-26.1715 226.141,-27.6396 C227.602,-29.1077 229.363,-29.8418 231.426,-29.8418 M252.523,-3.05078 C253.741,-3.05078 254.783,-3.48405 255.649,-4.35059 C256.516,-5.21712 256.949,-6.25911 256.949,-7.47656 C256.949,-8.69401 256.516,-9.736 255.649,-10.6025 C254.783,-11.4691 253.741,-11.9023 252.523,-11.9023 C251.292,-11.9023 250.243,-11.4691 249.376,-10.6025 C248.509,-9.736 248.076,-8.69401 248.076,-7.47656 C248.076,-6.25911 248.509,-5.21712 249.376,-4.35059 C250.243,-3.48405 251.292,-3.05078 252.523,-3.05078 M263.166,8.98047 C265.443,4.54036 266.911,1.30339 267.57,-0.730469 C268.573,-3.8099 269.074,-7.41927 269.074,-11.5586 C269.074,-15.6979 268.494,-19.4863 267.334,-22.9238 C266.618,-25.0436 265.207,-28.0944 263.102,-32.0762 L265.701,-32.0762 C267.907,-28.5527 269.243,-26.3792 269.708,-25.5557 C270.174,-24.7321 270.678,-23.597 271.223,-22.1504 C271.91,-20.36 272.401,-18.5911 272.694,-16.8438 C272.988,-15.0964 273.135,-13.4134 273.135,-11.7949 C273.135,-7.55534 272.462,-3.77409 271.115,-0.451172 C270.27,1.68294 268.516,4.82682 265.852,8.98047 L263.166,8.98047"/>
</g>

<g fill="#212121" fill-opacity="1" stroke="#212121" stroke-opacity="1" stroke-width="1" stroke-linecap="square" stroke-linejoin="round" transform="matrix(0.502434,0,0,0.502793,-3.0219,-13.3324)"
font-family=".AppleSystemUIFont" font-size="13" font-weight="400" font-style="normal" 
>
<polyline fill="none" vector-effect="none" points="161,911 828,911 " />
<polyline fill="none" vector-effect="none" points="161,77 828,77 " />
<polyline fill="none" vector-effect="none" points="161,911 161,902.66 " />
<polyline fill="none" vector-effect="none" points="161,85.34 161,77 " />
<polyline fill="none" vector-effect="none" points="294.4,911 294.4,902.66 " />
<polyline fill="none" vector-effect="none" points="294.4,85.34 294.4,77 " />
<polyline fill="none" vector-effect="none" points="427.8,911 427.8,902.66 " />
<polyline fill="none" vector-effect="none" points="427.8,85.34 427.8,77 " />
<polyline fill="none" vector-effect="none" points="561.2,911 561.2,902.66 " />
<polyline fill="none" vector-effect="none" points="561.2,85.34 561.2,77 " />
<polyline fill="none" vector-effect="none" points="694.6,911 694.6,902.66 " />
<polyline fill="none" vector-effect="none" points="694.6,85.34 694.6,77 " />
</g>

<g fill="#212121" fill-opacity="1" stroke="none" transform="matrix(0.502434,0,0,0.502793,60.536,466.332)"
font-family=".AppleSystemUIFont" font-size="13" font-weight="400" font-style="normal" 
>
<path vector-effect="none" fill-rule="evenodd" d="M1.66016,-12.9492 L11.4648,-12.9492 L11.4648,-9.33594 L1.66016,-9.33594 L1.66016,-12.9492 M24.1328,-27.9688 C27.7526,-27.9688 30.3698,-26.4779 31.9844,-23.4961 C33.2344,-21.1914 33.8594,-18.0339 33.8594,-14.0234 C33.8594,-10.2214 33.293,-7.07682 32.1602,-4.58984 C30.5195,-1.02214 27.8372,0.761719 24.1133,0.761719 C20.7539,0.761719 18.2539,-0.696615 16.6133,-3.61328 C15.2461,-6.04818 14.5625,-9.31641 14.5625,-13.418 C14.5625,-16.5951 14.9727,-19.3229 15.793,-21.6016 C17.3294,-25.8464 20.1094,-27.9688 24.1328,-27.9688 M24.0938,-2.44141 C25.9167,-2.44141 27.3685,-3.2487 28.4492,-4.86328 C29.5299,-6.47786 30.0703,-9.48568 30.0703,-13.8867 C30.0703,-17.0638 29.6797,-19.6777 28.8984,-21.7285 C28.1172,-23.7793 26.6003,-24.8047 24.3477,-24.8047 C22.2773,-24.8047 20.7637,-23.8314 19.8066,-21.8848 C18.8496,-19.9382 18.3711,-17.0703 18.3711,-13.2813 C18.3711,-10.4297 18.6771,-8.13802 19.2891,-6.40625 C20.2266,-3.76302 21.8281,-2.44141 24.0938,-2.44141 M38.9648,-4.25781 L43.0469,-4.25781 L43.0469,0 L38.9648,0 L38.9648,-4.25781 M59.8789,-9.90234 L59.8789,-22.5781 L50.9141,-9.90234 L59.8789,-9.90234 M59.9375,0 L59.9375,-6.83594 L47.6719,-6.83594 L47.6719,-10.2734 L60.4844,-28.0469 L63.4531,-28.0469 L63.4531,-9.90234 L67.5742,-9.90234 L67.5742,-6.83594 L63.4531,-6.83594 L63.4531,0 L59.9375,0"/>
</g>

<g fill="#212121" fill-opacity="1" stroke="none" transform="matrix(0.502434,0,0,0.502793,127.561,466.332)"
font-family=".AppleSystemUIFont" font-size="13" font-weight="400" font-style="normal" 
>
<path vector-effect="none" fill-rule="evenodd" d="M1.66016,-12.9492 L11.4648,-12.9492 L11.4648,-9.33594 L1.66016,-9.33594 L1.66016,-12.9492 M24.1328,-27.9688 C27.7526,-27.9688 30.3698,-26.4779 31.9844,-23.4961 C33.2344,-21.1914 33.8594,-18.0339 33.8594,-14.0234 C33.8594,-10.2214 33.293,-7.07682 32.1602,-4.58984 C30.5195,-1.02214 27.8372,0.761719 24.1133,0.761719 C20.7539,0.761719 18.2539,-0.696615 16.6133,-3.61328 C15.2461,-6.04818 14.5625,-9.31641 14.5625,-13.418 C14.5625,-16.5951 14.9727,-19.3229 15.793,-21.6016 C17.3294,-25.8464 20.1094,-27.9688 24.1328,-27.9688 M24.0938,-2.44141 C25.9167,-2.44141 27.3685,-3.2487 28.4492,-4.86328 C29.5299,-6.47786 30.0703,-9.48568 30.0703,-13.8867 C30.0703,-17.0638 29.6797,-19.6777 28.8984,-21.7285 C28.1172,-23.7793 26.6003,-24.8047 24.3477,-24.8047 C22.2773,-24.8047 20.7637,-23.8314 19.8066,-21.8848 C18.8496,-19.9382 18.3711,-17.0703 18.3711,-13.2813 C18.3711,-10.4297 18.6771,-8.13802 19.2891,-6.40625 C20.2266,-3.76302 21.8281,-2.44141 24.0938,-2.44141 M38.9648,-4.25781 L43.0469,-4.25781 L43.0469,0 L38.9648,0 L38.9648,-4.25781 M47.9063,0 C48.0365,-2.40885 48.5345,-4.50521 49.4004,-6.28906 C50.2663,-8.07292 51.9557,-9.69401 54.4688,-11.1523 L58.2188,-13.3203 C59.8984,-14.2969 61.0768,-15.1302 61.7539,-15.8203 C62.8216,-16.901 63.3555,-18.138 63.3555,-19.5313 C63.3555,-21.1589 62.8672,-22.4512 61.8906,-23.4082 C60.9141,-24.3652 59.612,-24.8438 57.9844,-24.8438 C55.5755,-24.8438 53.9089,-23.9323 52.9844,-22.1094 C52.4896,-21.1328 52.2161,-19.7786 52.1641,-18.0469 L48.5898,-18.0469 C48.6289,-20.4818 49.0781,-22.4674 49.9375,-24.0039 C51.4609,-26.7122 54.1497,-28.0664 58.0039,-28.0664 C61.207,-28.0664 63.5475,-27.2005 65.0254,-25.4688 C66.5033,-23.737 67.2422,-21.8099 67.2422,-19.6875 C67.2422,-17.4479 66.4544,-15.5339 64.8789,-13.9453 C63.9674,-13.0208 62.3333,-11.901 59.9766,-10.5859 L57.3008,-9.10156 C56.0247,-8.39844 55.0221,-7.72786 54.293,-7.08984 C52.9909,-5.95703 52.1706,-4.70052 51.832,-3.32031 L67.1055,-3.32031 L67.1055,0 L47.9063,0"/>
</g>

<g fill="#212121" fill-opacity="1" stroke="none" transform="matrix(0.502434,0,0,0.502793,206.393,466.332)"
font-family=".AppleSystemUIFont" font-size="13" font-weight="400" font-style="normal" 
>
<path vector-effect="none" fill-rule="evenodd" d="M10.8203,-27.9688 C14.4401,-27.9688 17.0573,-26.4779 18.6719,-23.4961 C19.9219,-21.1914 20.5469,-18.0339 20.5469,-14.0234 C20.5469,-10.2214 19.9805,-7.07682 18.8477,-4.58984 C17.207,-1.02214 14.5247,0.761719 10.8008,0.761719 C7.44141,0.761719 4.94141,-0.696615 3.30078,-3.61328 C1.93359,-6.04818 1.25,-9.31641 1.25,-13.418 C1.25,-16.5951 1.66016,-19.3229 2.48047,-21.6016 C4.01693,-25.8464 6.79688,-27.9688 10.8203,-27.9688 M10.7813,-2.44141 C12.6042,-2.44141 14.056,-3.2487 15.1367,-4.86328 C16.2174,-6.47786 16.7578,-9.48568 16.7578,-13.8867 C16.7578,-17.0638 16.3672,-19.6777 15.5859,-21.7285 C14.8047,-23.7793 13.2878,-24.8047 11.0352,-24.8047 C8.96484,-24.8047 7.45117,-23.8314 6.49414,-21.8848 C5.53711,-19.9382 5.05859,-17.0703 5.05859,-13.2813 C5.05859,-10.4297 5.36458,-8.13802 5.97656,-6.40625 C6.91406,-3.76302 8.51563,-2.44141 10.7813,-2.44141 "/>
</g>

<g fill="#212121" fill-opacity="1" stroke="none" transform="matrix(0.502434,0,0,0.502793,264.876,466.332)"
font-family=".AppleSystemUIFont" font-size="13" font-weight="400" font-style="normal" 
>
<path vector-effect="none" fill-rule="evenodd" d="M10.8203,-27.9688 C14.4401,-27.9688 17.0573,-26.4779 18.6719,-23.4961 C19.9219,-21.1914 20.5469,-18.0339 20.5469,-14.0234 C20.5469,-10.2214 19.9805,-7.07682 18.8477,-4.58984 C17.207,-1.02214 14.5247,0.761719 10.8008,0.761719 C7.44141,0.761719 4.94141,-0.696615 3.30078,-3.61328 C1.93359,-6.04818 1.25,-9.31641 1.25,-13.418 C1.25,-16.5951 1.66016,-19.3229 2.48047,-21.6016 C4.01693,-25.8464 6.79688,-27.9688 10.8203,-27.9688 M10.7813,-2.44141 C12.6042,-2.44141 14.056,-3.2487 15.1367,-4.86328 C16.2174,-6.47786 16.7578,-9.48568 16.7578,-13.8867 C16.7578,-17.0638 16.3672,-19.6777 15.5859,-21.7285 C14.8047,-23.7793 13.2878,-24.8047 11.0352,-24.8047 C8.96484,-24.8047 7.45117,-23.8314 6.49414,-21.8848 C5.53711,-19.9382 5.05859,-17.0703 5.05859,-13.2813 C5.05859,-10.4297 5.36458,-8.13802 5.97656,-6.40625 C6.91406,-3.76302 8.51563,-2.44141 10.7813,-2.44141 M25.6523,-4.25781 L29.7344,-4.25781 L29.7344,0 L25.6523,0 L25.6523,-4.25781 M34.5938,0 C34.724,-2.40885 35.222,-4.50521 36.0879,-6.28906 C36.9538,-8.07292 38.6432,-9.69401 41.1563,-11.1523 L44.9063,-13.3203 C46.5859,-14.2969 47.7643,-15.1302 48.4414,-15.8203 C49.5091,-16.901 50.043,-18.138 50.043,-19.5313 C50.043,-21.1589 49.5547,-22.4512 48.5781,-23.4082 C47.6016,-24.3652 46.2995,-24.8438 44.6719,-24.8438 C42.263,-24.8438 40.5964,-23.9323 39.6719,-22.1094 C39.1771,-21.1328 38.9036,-19.7786 38.8516,-18.0469 L35.2773,-18.0469 C35.3164,-20.4818 35.7656,-22.4674 36.625,-24.0039 C38.1484,-26.7122 40.8372,-28.0664 44.6914,-28.0664 C47.8945,-28.0664 50.235,-27.2005 51.7129,-25.4688 C53.1908,-23.737 53.9297,-21.8099 53.9297,-19.6875 C53.9297,-17.4479 53.1419,-15.5339 51.5664,-13.9453 C50.6549,-13.0208 49.0208,-11.901 46.6641,-10.5859 L43.9883,-9.10156 C42.7122,-8.39844 41.7096,-7.72786 40.9805,-7.08984 C39.6784,-5.95703 38.8581,-4.70052 38.5195,-3.32031 L53.793,-3.32031 L53.793,0 L34.5938,0"/>
</g>

<g fill="#212121" fill-opacity="1" stroke="none" transform="matrix(0.502434,0,0,0.502793,331.901,466.332)"
font-family=".AppleSystemUIFont" font-size="13" font-weight="400" font-style="normal" 
>
<path vector-effect="none" fill-rule="evenodd" d="M10.8203,-27.9688 C14.4401,-27.9688 17.0573,-26.4779 18.6719,-23.4961 C19.9219,-21.1914 20.5469,-18.0339 20.5469,-14.0234 C20.5469,-10.2214 19.9805,-7.07682 18.8477,-4.58984 C17.207,-1.02214 14.5247,0.761719 10.8008,0.761719 C7.44141,0.761719 4.94141,-0.696615 3.30078,-3.61328 C1.93359,-6.04818 1.25,-9.31641 1.25,-13.418 C1.25,-16.5951 1.66016,-19.3229 2.48047,-21.6016 C4.01693,-25.8464 6.79688,-27.9688 10.8203,-27.9688 M10.7813,-2.44141 C12.6042,-2.44141 14.056,-3.2487 15.1367,-4.86328 C16.2174,-6.47786 16.7578,-9.48568 16.7578,-13.8867 C16.7578,-17.0638 16.3672,-19.6777 15.5859,-21.7285 C14.8047,-23.7793 13.2878,-24.8047 11.0352,-24.8047 C8.96484,-24.8047 7.45117,-23.8314 6.49414,-21.8848 C5.53711,-19.9382 5.05859,-17.0703 5.05859,-13.2813 C5.05859,-10.4297 5.36458,-8.13802 5.97656,-6.40625 C6.91406,-3.76302 8.51563,-2.44141 10.7813,-2.44141 M25.6523,-4.25781 L29.7344,-4.25781 L29.7344,0 L25.6523,0 L25.6523,-4.25781 M46.5664,-9.90234 L46.5664,-22.5781 L37.6016,-9.90234 L46.5664,-9.90234 M46.625,0 L46.625,-6.83594 L34.3594,-6.83594 L34.3594,-10.2734 L47.1719,-28.0469 L50.1406,-28.0469 L50.1406,-9.90234 L54.2617,-9.90234 L54.2617,-6.83594 L50.1406,-6.83594 L50.1406,0 L46.625,0"/>
</g>

<g fill="#212121" fill-opacity="1" stroke="none" transform="matrix(0,-0.502793,0.502434,0,17.5779,304.433)"
font-family=".AppleSystemUIFont" font-size="13" font-weight="400" font-style="normal" 
>
<path vector-effect="none" fill-rule="evenodd" d="M3.75977,-31.5605 L17.9609,-31.5605 C20.7682,-31.5605 23.0313,-30.7692 24.75,-29.1865 C26.4688,-27.6038 27.3281,-25.3802 27.3281,-22.5156 C27.3281,-20.0521 26.5618,-17.9072 25.0293,-16.0811 C23.4967,-14.2549 21.1406,-13.3418 17.9609,-13.3418 L8.03516,-13.3418 L8.03516,0 L3.75977,0 L3.75977,-31.5605 M23.0098,-22.4941 C23.0098,-24.8145 22.1504,-26.39 20.4316,-27.2207 C19.4863,-27.6647 18.1901,-27.8867 16.543,-27.8867 L8.03516,-27.8867 L8.03516,-16.9512 L16.543,-16.9512 C18.4622,-16.9512 20.0199,-17.3594 21.2158,-18.1758 C22.4118,-18.9922 23.0098,-20.4316 23.0098,-22.4941 M45.9941,-32.4199 C49.9902,-32.4199 53.0911,-31.3672 55.2969,-29.2617 C57.5026,-27.1563 58.7272,-24.7643 58.9707,-22.0859 L54.8027,-22.0859 C54.3301,-24.1198 53.3883,-25.7311 51.9775,-26.9199 C50.5667,-28.1087 48.5866,-28.7031 46.0371,-28.7031 C42.929,-28.7031 40.4189,-27.611 38.5068,-25.4268 C36.5947,-23.2425 35.6387,-19.8945 35.6387,-15.3828 C35.6387,-11.6875 36.5016,-8.69043 38.2275,-6.3916 C39.9535,-4.09277 42.528,-2.94336 45.9512,-2.94336 C49.1022,-2.94336 51.5013,-4.15365 53.1484,-6.57422 C54.0221,-7.84896 54.6738,-9.52474 55.1035,-11.6016 L59.2715,-11.6016 C58.8991,-8.27865 57.6673,-5.49284 55.5762,-3.24414 C53.0697,-0.537109 49.6895,0.816406 45.4355,0.816406 C41.7689,0.816406 38.6895,-0.29362 36.1973,-2.51367 C32.9173,-5.44987 31.2773,-9.98307 31.2773,-16.1133 C31.2773,-20.7682 32.5091,-24.5853 34.9727,-27.5645 C37.6367,-30.8014 41.3105,-32.4199 45.9941,-32.4199 M73.0762,-2.49219 C75.64,-2.49219 77.3981,-3.46257 78.3506,-5.40332 C79.3031,-7.34408 79.7793,-9.50326 79.7793,-11.8809 C79.7793,-14.0293 79.4355,-15.7767 78.748,-17.123 C77.6595,-19.2428 75.7832,-20.3027 73.1191,-20.3027 C70.7559,-20.3027 69.0371,-19.4004 67.9629,-17.5957 C66.8887,-15.791 66.3516,-13.6139 66.3516,-11.0645 C66.3516,-8.61523 66.8887,-6.57422 67.9629,-4.94141 C69.0371,-3.30859 70.7415,-2.49219 73.0762,-2.49219 M73.2266,-23.6758 C76.1914,-23.6758 78.6979,-22.6875 80.7461,-20.7109 C82.7943,-18.7344 83.8184,-15.8268 83.8184,-11.9883 C83.8184,-8.27865 82.916,-5.21354 81.1113,-2.79297 C79.3066,-0.372396 76.5065,0.837891 72.7109,0.837891 C69.5456,0.837891 67.0319,-0.232747 65.1699,-2.37402 C63.3079,-4.5153 62.377,-7.39063 62.377,-11 C62.377,-14.8672 63.3581,-17.9466 65.3203,-20.2383 C67.2826,-22.5299 69.918,-23.6758 73.2266,-23.6758 M86.9531,0 C87.0964,-2.64974 87.6442,-4.95573 88.5967,-6.91797 C89.5492,-8.88021 91.4076,-10.6634 94.1719,-12.2676 L98.2969,-14.6523 C100.145,-15.7266 101.441,-16.6432 102.186,-17.4023 C103.36,-18.5911 103.947,-19.9518 103.947,-21.4844 C103.947,-23.2747 103.41,-24.6963 102.336,-25.749 C101.262,-26.8018 99.8294,-27.3281 98.0391,-27.3281 C95.3893,-27.3281 93.556,-26.3255 92.5391,-24.3203 C91.9948,-23.2461 91.694,-21.7565 91.6367,-19.8516 L87.7051,-19.8516 C87.748,-22.5299 88.2422,-24.7142 89.1875,-26.4043 C90.8633,-29.3835 93.821,-30.873 98.0605,-30.873 C101.584,-30.873 104.159,-29.9206 105.784,-28.0156 C107.41,-26.1107 108.223,-23.9909 108.223,-21.6563 C108.223,-19.1927 107.356,-17.0872 105.623,-15.3398 C104.62,-14.3229 102.823,-13.0911 100.23,-11.6445 L97.2871,-10.0117 C95.8835,-9.23828 94.7806,-8.50065 93.9785,-7.79883 C92.5462,-6.55273 91.6439,-5.17057 91.2715,-3.65234 L108.072,-3.65234 L108.072,0 L86.9531,0 M135.285,-32.0762 C133.036,-27.7077 131.576,-24.4922 130.902,-22.4297 C129.885,-19.293 129.377,-15.6693 129.377,-11.5586 C129.377,-7.40495 129.957,-3.60938 131.117,-0.171875 C131.833,1.94792 133.244,4.9987 135.35,8.98047 L132.75,8.98047 C130.659,5.71484 129.363,3.63086 128.861,2.72852 C128.36,1.82617 127.816,0.601563 127.229,-0.945313 C126.426,-3.0651 125.868,-5.32813 125.553,-7.73438 C125.395,-8.98047 125.316,-10.1693 125.316,-11.3008 C125.316,-15.5404 125.982,-19.3145 127.314,-22.623 C128.16,-24.7285 129.921,-27.8796 132.6,-32.0762 L135.285,-32.0762 M141.117,-21.7852 L141.117,-24.75 C143.91,-25.0221 145.858,-25.4769 146.961,-26.1143 C148.064,-26.7516 148.887,-28.2591 149.432,-30.6367 L152.482,-30.6367 L152.482,0 L148.357,0 L148.357,-21.7852 L141.117,-21.7852 M166.811,-7.8418 C167.068,-5.63607 168.092,-4.11068 169.883,-3.26563 C170.799,-2.83594 171.859,-2.62109 173.063,-2.62109 C175.354,-2.62109 177.051,-3.35156 178.154,-4.8125 C179.257,-6.27344 179.809,-7.89193 179.809,-9.66797 C179.809,-11.8164 179.153,-13.4779 177.843,-14.6523 C176.532,-15.8268 174.96,-16.4141 173.127,-16.4141 C171.795,-16.4141 170.653,-16.1563 169.7,-15.6406 C168.748,-15.125 167.935,-14.4089 167.262,-13.4922 L163.91,-13.6855 L166.252,-30.25 L182.236,-30.25 L182.236,-26.5117 L169.152,-26.5117 L167.842,-17.9609 C168.558,-18.5052 169.238,-18.9134 169.883,-19.1855 C171.029,-19.6582 172.354,-19.8945 173.857,-19.8945 C176.679,-19.8945 179.071,-18.985 181.033,-17.166 C182.995,-15.347 183.977,-13.041 183.977,-10.248 C183.977,-7.34049 183.078,-4.77669 181.28,-2.55664 C179.483,-0.336589 176.615,0.773438 172.676,0.773438 C170.169,0.773438 167.953,0.0680339 166.026,-1.34277 C164.1,-2.75358 163.022,-4.91992 162.793,-7.8418 L166.811,-7.8418 M189.604,-4.68359 L194.094,-4.68359 L194.094,0 L189.604,0 L189.604,-4.68359 M199.438,0 C199.581,-2.64974 200.129,-4.95573 201.081,-6.91797 C202.034,-8.88021 203.892,-10.6634 206.656,-12.2676 L210.781,-14.6523 C212.629,-15.7266 213.925,-16.6432 214.67,-17.4023 C215.844,-18.5911 216.432,-19.9518 216.432,-21.4844 C216.432,-23.2747 215.895,-24.6963 214.82,-25.749 C213.746,-26.8018 212.314,-27.3281 210.523,-27.3281 C207.874,-27.3281 206.04,-26.3255 205.023,-24.3203 C204.479,-23.2461 204.178,-21.7565 204.121,-19.8516 L200.189,-19.8516 C200.232,-22.5299 200.727,-24.7142 201.672,-26.4043 C203.348,-29.3835 206.305,-30.873 210.545,-30.873 C214.068,-30.873 216.643,-29.9206 218.269,-28.0156 C219.894,-26.1107 220.707,-23.9909 220.707,-21.6563 C220.707,-19.1927 219.84,-17.0872 218.107,-15.3398 C217.105,-14.3229 215.307,-13.0911 212.715,-11.6445 L209.771,-10.0117 C208.368,-9.23828 207.265,-8.50065 206.463,-7.79883 C205.031,-6.55273 204.128,-5.17057 203.756,-3.65234 L220.557,-3.65234 L220.557,0 L199.438,0 M252.523,-14.9531 C254.586,-14.9531 256.348,-14.2227 257.809,-12.7617 C259.27,-11.3008 260,-9.53906 260,-7.47656 C260,-5.41406 259.27,-3.65234 257.809,-2.19141 C256.348,-0.730469 254.586,0 252.523,0 C250.447,0 248.678,-0.730469 247.217,-2.19141 C245.756,-3.65234 245.025,-5.41406 245.025,-7.47656 C245.025,-9.53906 245.756,-11.3008 247.217,-12.7617 C248.678,-14.2227 250.447,-14.9531 252.523,-14.9531 M249.408,-30.6367 L251.793,-30.6367 L234.584,0.816406 L232.199,0.816406 L249.408,-30.6367 M231.426,-17.918 C232.658,-17.918 233.707,-18.3512 234.573,-19.2178 C235.44,-20.0843 235.873,-21.1263 235.873,-22.3438 C235.873,-23.5612 235.44,-24.6032 234.573,-25.4697 C233.707,-26.3363 232.658,-26.7695 231.426,-26.7695 C230.208,-26.7695 229.166,-26.3398 228.3,-25.4805 C227.433,-24.6211 227,-23.5755 227,-22.3438 C227,-21.1263 227.433,-20.0843 228.3,-19.2178 C229.166,-18.3512 230.208,-17.918 231.426,-17.918 M231.426,-29.8418 C233.503,-29.8418 235.271,-29.1077 236.732,-27.6396 C238.193,-26.1715 238.924,-24.4063 238.924,-22.3438 C238.924,-20.2813 238.193,-18.5195 236.732,-17.0586 C235.271,-15.5977 233.503,-14.8672 231.426,-14.8672 C229.363,-14.8672 227.602,-15.5977 226.141,-17.0586 C224.68,-18.5195 223.949,-20.2813 223.949,-22.3438 C223.949,-24.4063 224.68,-26.1715 226.141,-27.6396 C227.602,-29.1077 229.363,-29.8418 231.426,-29.8418 M252.523,-3.05078 C253.741,-3.05078 254.783,-3.48405 255.649,-4.35059 C256.516,-5.21712 256.949,-6.25911 256.949,-7.47656 C256.949,-8.69401 256.516,-9.736 255.649,-10.6025 C254.783,-11.4691 253.741,-11.9023 252.523,-11.9023 C251.292,-11.9023 250.243,-11.4691 249.376,-10.6025 C248.509,-9.736 248.076,-8.69401 248.076,-7.47656 C248.076,-6.25911 248.509,-5.21712 249.376,-4.35059 C250.243,-3.48405 251.292,-3.05078 252.523,-3.05078 M263.166,8.98047 C265.443,4.54036 266.911,1.30339 267.57,-0.730469 C268.573,-3.8099 269.074,-7.41927 269.074,-11.5586 C269.074,-15.6979 268.494,-19.4863 267.334,-22.9238 C266.618,-25.0436 265.207,-28.0944 263.102,-32.0762 L265.701,-32.0762 C267.907,-28.5527 269.243,-26.3792 269.708,-25.5557 C270.174,-24.7321 270.678,-23.597 271.223,-22.1504 C271.91,-20.36 272.401,-18.5911 272.694,-16.8438 C272.988,-15.0964 273.135,-13.4134 273.135,-11.7949 C273.135,-7.55534 272.462,-3.77409 271.115,-0.451172 C270.27,1.68294 268.516,4.82682 265.852,8.98047 L263.166,8.98047"/>
</g>

<g fill="#212121" fill-opacity="1" stroke="#212121" stroke-opacity="1" stroke-width="1" stroke-linecap="square" stroke-linejoin="round" transform="matrix(0.502434,0,0,0.502793,-3.0219,-13.3324)"
font-family=".AppleSystemUIFont" font-size="13" font-weight="400" font-style="normal" 
>
<polyline fill="none" vector-effect="none" points="161,911 161,77 " />
<polyline fill="none" vector-effect="none" points="828,911 828,77 " />
<polyline fill="none" vector-effect="none" points="161,911 169.34,911 " />
<polyline fill="none" vector-effect="none" points="819.66,911 828,911 " />
<polyline fill="none" vector-effect="none" points="161,827.6 169.34,827.6 " />
<polyline fill="none" vector-effect="none" points="819.66,827.6 828,827.6 " />
<polyline fill="none" vector-effect="none" points="161,744.2 169.34,744.2 " />
<polyline fill="none" vector-effect="none" points="819.66,744.2 828,744.2 " />
<polyline fill="none" vector-effect="none" points="161,660.8 169.34,660.8 " />
<polyline fill="none" vector-effect="none" points="819.66,660.8 828,660.8 " />
<polyline fill="none" vector-effect="none" points="161,577.4 169.34,577.4 " />
<polyline fill="none" vector-effect="none" points="819.66,577.4 828,577.4 " />
<polyline fill="none" vector-effect="none" points="161,494 169.34,494 " />
<polyline fill="none" vector-effect="none" points="819.66,494 828,494 " />
<polyline fill="none" vector-effect="none" points="161,410.6 169.34,410.6 " />
<polyline fill="none" vector-effect="none" points="819.66,410.6 828,410.6 " />
<polyline fill="none" vector-effect="none" points="161,327.2 169.34,327.2 " />
<polyline fill="none" vector-effect="none" points="819.66,327.2 828,327.2 " />
<polyline fill="none" vector-effect="none" points="161,243.8 169.34,243.8 " />
<polyline fill="none" vector-effect="none" points="819.66,243.8 828,243.8 " />
<polyline fill="none" vector-effect="none" points="161,160.4 169.34,160.4 " />
<polyline fill="none" vector-effect="none" points="819.66,160.4 828,160.4 " />
<polyline fill="none" vector-effect="none" points="161,77 169.34,77 " />
<polyline fill="none" vector-effect="none" points="819.66,77 828,77 " />
</g>

<g fill="#212121" fill-opacity="1" stroke="none" transform="matrix(0.502434,0,0,0.502793,37.1728,450.243)"
font-family=".AppleSystemUIFont" font-size="13" font-weight="400" font-style="normal" 
>
<path vector-effect="none" fill-rule="evenodd" d="M1.66016,-12.9492 L11.4648,-12.9492 L11.4648,-9.33594 L1.66016,-9.33594 L1.66016,-12.9492 M24.1328,-27.9688 C27.7526,-27.9688 30.3698,-26.4779 31.9844,-23.4961 C33.2344,-21.1914 33.8594,-18.0339 33.8594,-14.0234 C33.8594,-10.2214 33.293,-7.07682 32.1602,-4.58984 C30.5195,-1.02214 27.8372,0.761719 24.1133,0.761719 C20.7539,0.761719 18.2539,-0.696615 16.6133,-3.61328 C15.2461,-6.04818 14.5625,-9.31641 14.5625,-13.418 C14.5625,-16.5951 14.9727,-19.3229 15.793,-21.6016 C17.3294,-25.8464 20.1094,-27.9688 24.1328,-27.9688 M24.0938,-2.44141 C25.9167,-2.44141 27.3685,-3.2487 28.4492,-4.86328 C29.5299,-6.47786 30.0703,-9.48568 30.0703,-13.8867 C30.0703,-17.0638 29.6797,-19.6777 28.8984,-21.7285 C28.1172,-23.7793 26.6003,-24.8047 24.3477,-24.8047 C22.2773,-24.8047 20.7637,-23.8314 19.8066,-21.8848 C18.8496,-19.9382 18.3711,-17.0703 18.3711,-13.2813 C18.3711,-10.4297 18.6771,-8.13802 19.2891,-6.40625 C20.2266,-3.76302 21.8281,-2.44141 24.0938,-2.44141 M38.9648,-4.25781 L43.0469,-4.25781 L43.0469,0 L38.9648,0 L38.9648,-4.25781 M47.9063,0 C48.0365,-2.40885 48.5345,-4.50521 49.4004,-6.28906 C50.2663,-8.07292 51.9557,-9.69401 54.4688,-11.1523 L58.2188,-13.3203 C59.8984,-14.2969 61.0768,-15.1302 61.7539,-15.8203 C62.8216,-16.901 63.3555,-18.138 63.3555,-19.5313 C63.3555,-21.1589 62.8672,-22.4512 61.8906,-23.4082 C60.9141,-24.3652 59.612,-24.8438 57.9844,-24.8438 C55.5755,-24.8438 53.9089,-23.9323 52.9844,-22.1094 C52.4896,-21.1328 52.2161,-19.7786 52.1641,-18.0469 L48.5898,-18.0469 C48.6289,-20.4818 49.0781,-22.4674 49.9375,-24.0039 C51.4609,-26.7122 54.1497,-28.0664 58.0039,-28.0664 C61.207,-28.0664 63.5475,-27.2005 65.0254,-25.4688 C66.5033,-23.737 67.2422,-21.8099 67.2422,-19.6875 C67.2422,-17.4479 66.4544,-15.5339 64.8789,-13.9453 C63.9674,-13.0208 62.3333,-11.901 59.9766,-10.5859 L57.3008,-9.10156 C56.0247,-8.39844 55.0221,-7.72786 54.293,-7.08984 C52.9909,-5.95703 52.1706,-4.70052 51.832,-3.32031 L67.1055,-3.32031 L67.1055,0 L47.9063,0"/>
</g>

<g fill="#212121" fill-opacity="1" stroke="none" transform="matrix(0.502434,0,0,0.502793,26.1193,408.31)"
font-family=".AppleSystemUIFont" font-size="13" font-weight="400" font-style="normal" 
>
<path vector-effect="none" fill-rule="evenodd" d="M1.66016,-12.9492 L11.4648,-12.9492 L11.4648,-9.33594 L1.66016,-9.33594 L1.66016,-12.9492 M24.1328,-27.9688 C27.7526,-27.9688 30.3698,-26.4779 31.9844,-23.4961 C33.2344,-21.1914 33.8594,-18.0339 33.8594,-14.0234 C33.8594,-10.2214 33.293,-7.07682 32.1602,-4.58984 C30.5195,-1.02214 27.8372,0.761719 24.1133,0.761719 C20.7539,0.761719 18.2539,-0.696615 16.6133,-3.61328 C15.2461,-6.04818 14.5625,-9.31641 14.5625,-13.418 C14.5625,-16.5951 14.9727,-19.3229 15.793,-21.6016 C17.3294,-25.8464 20.1094,-27.9688 24.1328,-27.9688 M24.0938,-2.44141 C25.9167,-2.44141 27.3685,-3.2487 28.4492,-4.86328 C29.5299,-6.47786 30.0703,-9.48568 30.0703,-13.8867 C30.0703,-17.0638 29.6797,-19.6777 28.8984,-21.7285 C28.1172,-23.7793 26.6003,-24.8047 24.3477,-24.8047 C22.2773,-24.8047 20.7637,-23.8314 19.8066,-21.8848 C18.8496,-19.9382 18.3711,-17.0703 18.3711,-13.2813 C18.3711,-10.4297 18.6771,-8.13802 19.2891,-6.40625 C20.2266,-3.76302 21.8281,-2.44141 24.0938,-2.44141 M38.9648,-4.25781 L43.0469,-4.25781 L43.0469,0 L38.9648,0 L38.9648,-4.25781 M50.4844,-19.8047 L50.4844,-22.5 C53.0234,-22.7474 54.7943,-23.1608 55.7969,-23.7402 C56.7995,-24.3197 57.5482,-25.6901 58.043,-27.8516 L60.8164,-27.8516 L60.8164,0 L57.0664,0 L57.0664,-19.8047 L50.4844,-19.8047 M73.832,-7.12891 C74.0664,-5.1237 74.9974,-3.73698 76.625,-2.96875 C77.4583,-2.57813 78.4219,-2.38281 79.5156,-2.38281 C81.599,-2.38281 83.1419,-3.04688 84.1445,-4.375 C85.1471,-5.70313 85.6484,-7.17448 85.6484,-8.78906 C85.6484,-10.7422 85.0527,-12.2526 83.8613,-13.3203 C82.6699,-14.388 81.2409,-14.9219 79.5742,-14.9219 C78.3633,-14.9219 77.3249,-14.6875 76.459,-14.2188 C75.5931,-13.75 74.8542,-13.099 74.2422,-12.2656 L71.1953,-12.4414 L73.3242,-27.5 L87.8555,-27.5 L87.8555,-24.1016 L75.9609,-24.1016 L74.7695,-16.3281 C75.4206,-16.8229 76.0391,-17.194 76.625,-17.4414 C77.6667,-17.8711 78.8711,-18.0859 80.2383,-18.0859 C82.8034,-18.0859 84.9779,-17.2591 86.7617,-15.6055 C88.5456,-13.9518 89.4375,-11.8555 89.4375,-9.31641 C89.4375,-6.67318 88.6204,-4.34245 86.9863,-2.32422 C85.3522,-0.30599 82.7448,0.703125 79.1641,0.703125 C76.8854,0.703125 74.8704,0.061849 73.1191,-1.2207 C71.3678,-2.50326 70.388,-4.47266 70.1797,-7.12891 L73.832,-7.12891"/>
</g>

<g fill="#212121" fill-opacity="1" stroke="none" transform="matrix(0.502434,0,0,0.502793,37.1728,366.377)"
font-family=".AppleSystemUIFont" font-size="13" font-weight="400" font-style="normal" 
>
<path vector-effect="none" fill-rule="evenodd" d="M1.66016,-12.9492 L11.4648,-12.9492 L11.4648,-9.33594 L1.66016,-9.33594 L1.66016,-12.9492 M24.1328,-27.9688 C27.7526,-27.9688 30.3698,-26.4779 31.9844,-23.4961 C33.2344,-21.1914 33.8594,-18.0339 33.8594,-14.0234 C33.8594,-10.2214 33.293,-7.07682 32.1602,-4.58984 C30.5195,-1.02214 27.8372,0.761719 24.1133,0.761719 C20.7539,0.761719 18.2539,-0.696615 16.6133,-3.61328 C15.2461,-6.04818 14.5625,-9.31641 14.5625,-13.418 C14.5625,-16.5951 14.9727,-19.3229 15.793,-21.6016 C17.3294,-25.8464 20.1094,-27.9688 24.1328,-27.9688 M24.0938,-2.44141 C25.9167,-2.44141 27.3685,-3.2487 28.4492,-4.86328 C29.5299,-6.47786 30.0703,-9.48568 30.0703,-13.8867 C30.0703,-17.0638 29.6797,-19.6777 28.8984,-21.7285 C28.1172,-23.7793 26.6003,-24.8047 24.3477,-24.8047 C22.2773,-24.8047 20.7637,-23.8314 19.8066,-21.8848 C18.8496,-19.9382 18.3711,-17.0703 18.3711,-13.2813 C18.3711,-10.4297 18.6771,-8.13802 19.2891,-6.40625 C20.2266,-3.76302 21.8281,-2.44141 24.0938,-2.44141 M38.9648,-4.25781 L43.0469,-4.25781 L43.0469,0 L38.9648,0 L38.9648,-4.25781 M50.4844,-19.8047 L50.4844,-22.5 C53.0234,-22.7474 54.7943,-23.1608 55.7969,-23.7402 C56.7995,-24.3197 57.5482,-25.6901 58.043,-27.8516 L60.8164,-27.8516 L60.8164,0 L57.0664,0 L57.0664,-19.8047 L50.4844,-19.8047"/>
</g>

<g fill="#212121" fill-opacity="1" stroke="none" transform="matrix(0.502434,0,0,0.502793,26.1193,324.444)"
font-family=".AppleSystemUIFont" font-size="13" font-weight="400" font-style="normal" 
>
<path vector-effect="none" fill-rule="evenodd" d="M1.66016,-12.9492 L11.4648,-12.9492 L11.4648,-9.33594 L1.66016,-9.33594 L1.66016,-12.9492 M24.1328,-27.9688 C27.7526,-27.9688 30.3698,-26.4779 31.9844,-23.4961 C33.2344,-21.1914 33.8594,-18.0339 33.8594,-14.0234 C33.8594,-10.2214 33.293,-7.07682 32.1602,-4.58984 C30.5195,-1.02214 27.8372,0.761719 24.1133,0.761719 C20.7539,0.761719 18.2539,-0.696615 16.6133,-3.61328 C15.2461,-6.04818 14.5625,-9.31641 14.5625,-13.418 C14.5625,-16.5951 14.9727,-19.3229 15.793,-21.6016 C17.3294,-25.8464 20.1094,-27.9688 24.1328,-27.9688 M24.0938,-2.44141 C25.9167,-2.44141 27.3685,-3.2487 28.4492,-4.86328 C29.5299,-6.47786 30.0703,-9.48568 30.0703,-13.8867 C30.0703,-17.0638 29.6797,-19.6777 28.8984,-21.7285 C28.1172,-23.7793 26.6003,-24.8047 24.3477,-24.8047 C22.2773,-24.8047 20.7637,-23.8314 19.8066,-21.8848 C18.8496,-19.9382 18.3711,-17.0703 18.3711,-13.2813 C18.3711,-10.4297 18.6771,-8.13802 19.2891,-6.40625 C20.2266,-3.76302 21.8281,-2.44141 24.0938,-2.44141 M38.9648,-4.25781 L43.0469,-4.25781 L43.0469,0 L38.9648,0 L38.9648,-4.25781 M57.4766,-27.9688 C61.0964,-27.9688 63.7135,-26.4779 65.3281,-23.4961 C66.5781,-21.1914 67.2031,-18.0339 67.2031,-14.0234 C67.2031,-10.2214 66.6367,-7.07682 65.5039,-4.58984 C63.8633,-1.02214 61.181,0.761719 57.457,0.761719 C54.0977,0.761719 51.5977,-0.696615 49.957,-3.61328 C48.5898,-6.04818 47.9063,-9.31641 47.9063,-13.418 C47.9063,-16.5951 48.3164,-19.3229 49.1367,-21.6016 C50.6732,-25.8464 53.4531,-27.9688 57.4766,-27.9688 M57.4375,-2.44141 C59.2604,-2.44141 60.7122,-3.2487 61.793,-4.86328 C62.8737,-6.47786 63.4141,-9.48568 63.4141,-13.8867 C63.4141,-17.0638 63.0234,-19.6777 62.2422,-21.7285 C61.4609,-23.7793 59.944,-24.8047 57.6914,-24.8047 C55.6211,-24.8047 54.1074,-23.8314 53.1504,-21.8848 C52.1934,-19.9382 51.7148,-17.0703 51.7148,-13.2813 C51.7148,-10.4297 52.0208,-8.13802 52.6328,-6.40625 C53.5703,-3.76302 55.1719,-2.44141 57.4375,-2.44141 M73.832,-7.12891 C74.0664,-5.1237 74.9974,-3.73698 76.625,-2.96875 C77.4583,-2.57813 78.4219,-2.38281 79.5156,-2.38281 C81.599,-2.38281 83.1419,-3.04688 84.1445,-4.375 C85.1471,-5.70313 85.6484,-7.17448 85.6484,-8.78906 C85.6484,-10.7422 85.0527,-12.2526 83.8613,-13.3203 C82.6699,-14.388 81.2409,-14.9219 79.5742,-14.9219 C78.3633,-14.9219 77.3249,-14.6875 76.459,-14.2188 C75.5931,-13.75 74.8542,-13.099 74.2422,-12.2656 L71.1953,-12.4414 L73.3242,-27.5 L87.8555,-27.5 L87.8555,-24.1016 L75.9609,-24.1016 L74.7695,-16.3281 C75.4206,-16.8229 76.0391,-17.194 76.625,-17.4414 C77.6667,-17.8711 78.8711,-18.0859 80.2383,-18.0859 C82.8034,-18.0859 84.9779,-17.2591 86.7617,-15.6055 C88.5456,-13.9518 89.4375,-11.8555 89.4375,-9.31641 C89.4375,-6.67318 88.6204,-4.34245 86.9863,-2.32422 C85.3522,-0.30599 82.7448,0.703125 79.1641,0.703125 C76.8854,0.703125 74.8704,0.061849 73.1191,-1.2207 C71.3678,-2.50326 70.388,-4.47266 70.1797,-7.12891 L73.832,-7.12891"/>
</g>

<g fill="#212121" fill-opacity="1" stroke="none" transform="matrix(0.502434,0,0,0.502793,60.7873,282.511)"
font-family=".AppleSystemUIFont" font-size="13" font-weight="400" font-style="normal" 
>
<path vector-effect="none" fill-rule="evenodd" d="M10.8203,-27.9688 C14.4401,-27.9688 17.0573,-26.4779 18.6719,-23.4961 C19.9219,-21.1914 20.5469,-18.0339 20.5469,-14.0234 C20.5469,-10.2214 19.9805,-7.07682 18.8477,-4.58984 C17.207,-1.02214 14.5247,0.761719 10.8008,0.761719 C7.44141,0.761719 4.94141,-0.696615 3.30078,-3.61328 C1.93359,-6.04818 1.25,-9.31641 1.25,-13.418 C1.25,-16.5951 1.66016,-19.3229 2.48047,-21.6016 C4.01693,-25.8464 6.79688,-27.9688 10.8203,-27.9688 M10.7813,-2.44141 C12.6042,-2.44141 14.056,-3.2487 15.1367,-4.86328 C16.2174,-6.47786 16.7578,-9.48568 16.7578,-13.8867 C16.7578,-17.0638 16.3672,-19.6777 15.5859,-21.7285 C14.8047,-23.7793 13.2878,-24.8047 11.0352,-24.8047 C8.96484,-24.8047 7.45117,-23.8314 6.49414,-21.8848 C5.53711,-19.9382 5.05859,-17.0703 5.05859,-13.2813 C5.05859,-10.4297 5.36458,-8.13802 5.97656,-6.40625 C6.91406,-3.76302 8.51563,-2.44141 10.7813,-2.44141 "/>
</g>

<g fill="#212121" fill-opacity="1" stroke="none" transform="matrix(0.502434,0,0,0.502793,32.6509,240.578)"
font-family=".AppleSystemUIFont" font-size="13" font-weight="400" font-style="normal" 
>
<path vector-effect="none" fill-rule="evenodd" d="M10.8203,-27.9688 C14.4401,-27.9688 17.0573,-26.4779 18.6719,-23.4961 C19.9219,-21.1914 20.5469,-18.0339 20.5469,-14.0234 C20.5469,-10.2214 19.9805,-7.07682 18.8477,-4.58984 C17.207,-1.02214 14.5247,0.761719 10.8008,0.761719 C7.44141,0.761719 4.94141,-0.696615 3.30078,-3.61328 C1.93359,-6.04818 1.25,-9.31641 1.25,-13.418 C1.25,-16.5951 1.66016,-19.3229 2.48047,-21.6016 C4.01693,-25.8464 6.79688,-27.9688 10.8203,-27.9688 M10.7813,-2.44141 C12.6042,-2.44141 14.056,-3.2487 15.1367,-4.86328 C16.2174,-6.47786 16.7578,-9.48568 16.7578,-13.8867 C16.7578,-17.0638 16.3672,-19.6777 15.5859,-21.7285 C14.8047,-23.7793 13.2878,-24.8047 11.0352,-24.8047 C8.96484,-24.8047 7.45117,-23.8314 6.49414,-21.8848 C5.53711,-19.9382 5.05859,-17.0703 5.05859,-13.2813 C5.05859,-10.4297 5.36458,-8.13802 5.97656,-6.40625 C6.91406,-3.76302 8.51563,-2.44141 10.7813,-2.44141 M25.6523,-4.25781 L29.7344,-4.25781 L29.7344,0 L25.6523,0 L25.6523,-4.25781 M44.1641,-27.9688 C47.7839,-27.9688 50.401,-26.4779 52.0156,-23.4961 C53.2656,-21.1914 53.8906,-18.0339 53.8906,-14.0234 C53.8906,-10.2214 53.3242,-7.07682 52.1914,-4.58984 C50.5508,-1.02214 47.8685,0.761719 44.1445,0.761719 C40.7852,0.761719 38.2852,-0.696615 36.6445,-3.61328 C35.2773,-6.04818 34.5938,-9.31641 34.5938,-13.418 C34.5938,-16.5951 35.0039,-19.3229 35.8242,-21.6016 C37.3607,-25.8464 40.1406,-27.9688 44.1641,-27.9688 M44.125,-2.44141 C45.9479,-2.44141 47.3997,-3.2487 48.4805,-4.86328 C49.5612,-6.47786 50.1016,-9.48568 50.1016,-13.8867 C50.1016,-17.0638 49.7109,-19.6777 48.9297,-21.7285 C48.1484,-23.7793 46.6315,-24.8047 44.3789,-24.8047 C42.3086,-24.8047 40.7949,-23.8314 39.8379,-21.8848 C38.8809,-19.9382 38.4023,-17.0703 38.4023,-13.2813 C38.4023,-10.4297 38.7083,-8.13802 39.3203,-6.40625 C40.2578,-3.76302 41.8594,-2.44141 44.125,-2.44141 M60.5195,-7.12891 C60.7539,-5.1237 61.6849,-3.73698 63.3125,-2.96875 C64.1458,-2.57813 65.1094,-2.38281 66.2031,-2.38281 C68.2865,-2.38281 69.8294,-3.04688 70.832,-4.375 C71.8346,-5.70313 72.3359,-7.17448 72.3359,-8.78906 C72.3359,-10.7422 71.7402,-12.2526 70.5488,-13.3203 C69.3574,-14.388 67.9284,-14.9219 66.2617,-14.9219 C65.0508,-14.9219 64.0124,-14.6875 63.1465,-14.2188 C62.2806,-13.75 61.5417,-13.099 60.9297,-12.2656 L57.8828,-12.4414 L60.0117,-27.5 L74.543,-27.5 L74.543,-24.1016 L62.6484,-24.1016 L61.457,-16.3281 C62.1081,-16.8229 62.7266,-17.194 63.3125,-17.4414 C64.3542,-17.8711 65.5586,-18.0859 66.9258,-18.0859 C69.4909,-18.0859 71.6654,-17.2591 73.4492,-15.6055 C75.2331,-13.9518 76.125,-11.8555 76.125,-9.31641 C76.125,-6.67318 75.3079,-4.34245 73.6738,-2.32422 C72.0397,-0.30599 69.4323,0.703125 65.8516,0.703125 C63.5729,0.703125 61.5579,0.061849 59.8066,-1.2207 C58.0553,-2.50326 57.0755,-4.47266 56.8672,-7.12891 L60.5195,-7.12891"/>
</g>

<g fill="#212121" fill-opacity="1" stroke="none" transform="matrix(0.502434,0,0,0.502793,43.7045,198.645)"
font-family=".AppleSystemUIFont" font-size="13" font-weight="400" font-style="normal" 
>
<path vector-effect="none" fill-rule="evenodd" d="M10.8203,-27.9688 C14.4401,-27.9688 17.0573,-26.4779 18.6719,-23.4961 C19.9219,-21.1914 20.5469,-18.0339 20.5469,-14.0234 C20.5469,-10.2214 19.9805,-7.07682 18.8477,-4.58984 C17.207,-1.02214 14.5247,0.761719 10.8008,0.761719 C7.44141,0.761719 4.94141,-0.696615 3.30078,-3.61328 C1.93359,-6.04818 1.25,-9.31641 1.25,-13.418 C1.25,-16.5951 1.66016,-19.3229 2.48047,-21.6016 C4.01693,-25.8464 6.79688,-27.9688 10.8203,-27.9688 M10.7813,-2.44141 C12.6042,-2.44141 14.056,-3.2487 15.1367,-4.86328 C16.2174,-6.47786 16.7578,-9.48568 16.7578,-13.8867 C16.7578,-17.0638 16.3672,-19.6777 15.5859,-21.7285 C14.8047,-23.7793 13.2878,-24.8047 11.0352,-24.8047 C8.96484,-24.8047 7.45117,-23.8314 6.49414,-21.8848 C5.53711,-19.9382 5.05859,-17.0703 5.05859,-13.2813 C5.05859,-10.4297 5.36458,-8.13802 5.97656,-6.40625 C6.91406,-3.76302 8.51563,-2.44141 10.7813,-2.44141 M25.6523,-4.25781 L29.7344,-4.25781 L29.7344,0 L25.6523,0 L25.6523,-4.25781 M37.1719,-19.8047 L37.1719,-22.5 C39.7109,-22.7474 41.4818,-23.1608 42.4844,-23.7402 C43.487,-24.3197 44.2357,-25.6901 44.7305,-27.8516 L47.5039,-27.8516 L47.5039,0 L43.7539,0 L43.7539,-19.8047 L37.1719,-19.8047"/>
</g>

<g fill="#212121" fill-opacity="1" stroke="none" transform="matrix(0.502434,0,0,0.502793,32.6509,156.712)"
font-family=".AppleSystemUIFont" font-size="13" font-weight="400" font-style="normal" 
>
<path vector-effect="none" fill-rule="evenodd" d="M10.8203,-27.9688 C14.4401,-27.9688 17.0573,-26.4779 18.6719,-23.4961 C19.9219,-21.1914 20.5469,-18.0339 20.5469,-14.0234 C20.5469,-10.2214 19.9805,-7.07682 18.8477,-4.58984 C17.207,-1.02214 14.5247,0.761719 10.8008,0.761719 C7.44141,0.761719 4.94141,-0.696615 3.30078,-3.61328 C1.93359,-6.04818 1.25,-9.31641 1.25,-13.418 C1.25,-16.5951 1.66016,-19.3229 2.48047,-21.6016 C4.01693,-25.8464 6.79688,-27.9688 10.8203,-27.9688 M10.7813,-2.44141 C12.6042,-2.44141 14.056,-3.2487 15.1367,-4.86328 C16.2174,-6.47786 16.7578,-9.48568 16.7578,-13.8867 C16.7578,-17.0638 16.3672,-19.6777 15.5859,-21.7285 C14.8047,-23.7793 13.2878,-24.8047 11.0352,-24.8047 C8.96484,-24.8047 7.45117,-23.8314 6.49414,-21.8848 C5.53711,-19.9382 5.05859,-17.0703 5.05859,-13.2813 C5.05859,-10.4297 5.36458,-8.13802 5.97656,-6.40625 C6.91406,-3.76302 8.51563,-2.44141 10.7813,-2.44141 M25.6523,-4.25781 L29.7344,-4.25781 L29.7344,0 L25.6523,0 L25.6523,-4.25781 M37.1719,-19.8047 L37.1719,-22.5 C39.7109,-22.7474 41.4818,-23.1608 42.4844,-23.7402 C43.487,-24.3197 44.2357,-25.6901 44.7305,-27.8516 L47.5039,-27.8516 L47.5039,0 L43.7539,0 L43.7539,-19.8047 L37.1719,-19.8047 M60.5195,-7.12891 C60.7539,-5.1237 61.6849,-3.73698 63.3125,-2.96875 C64.1458,-2.57813 65.1094,-2.38281 66.2031,-2.38281 C68.2865,-2.38281 69.8294,-3.04688 70.832,-4.375 C71.8346,-5.70313 72.3359,-7.17448 72.3359,-8.78906 C72.3359,-10.7422 71.7402,-12.2526 70.5488,-13.3203 C69.3574,-14.388 67.9284,-14.9219 66.2617,-14.9219 C65.0508,-14.9219 64.0124,-14.6875 63.1465,-14.2188 C62.2806,-13.75 61.5417,-13.099 60.9297,-12.2656 L57.8828,-12.4414 L60.0117,-27.5 L74.543,-27.5 L74.543,-24.1016 L62.6484,-24.1016 L61.457,-16.3281 C62.1081,-16.8229 62.7266,-17.194 63.3125,-17.4414 C64.3542,-17.8711 65.5586,-18.0859 66.9258,-18.0859 C69.4909,-18.0859 71.6654,-17.2591 73.4492,-15.6055 C75.2331,-13.9518 76.125,-11.8555 76.125,-9.31641 C76.125,-6.67318 75.3079,-4.34245 73.6738,-2.32422 C72.0397,-0.30599 69.4323,0.703125 65.8516,0.703125 C63.5729,0.703125 61.5579,0.061849 59.8066,-1.2207 C58.0553,-2.50326 57.0755,-4.47266 56.8672,-7.12891 L60.5195,-7.12891"/>
</g>

<g fill="#212121" fill-opacity="1" stroke="none" transform="matrix(0.502434,0,0,0.502793,43.7045,114.779)"
font-family=".AppleSystemUIFont" font-size="13" font-weight="400" font-style="normal" 
>
<path vector-effect="none" fill-rule="evenodd" d="M10.8203,-27.9688 C14.4401,-27.9688 17.0573,-26.4779 18.6719,-23.4961 C19.9219,-21.1914 20.5469,-18.0339 20.5469,-14.0234 C20.5469,-10.2214 19.9805,-7.07682 18.8477,-4.58984 C17.207,-1.02214 14.5247,0.761719 10.8008,0.761719 C7.44141,0.761719 4.94141,-0.696615 3.30078,-3.61328 C1.93359,-6.04818 1.25,-9.31641 1.25,-13.418 C1.25,-16.5951 1.66016,-19.3229 2.48047,-21.6016 C4.01693,-25.8464 6.79688,-27.9688 10.8203,-27.9688 M10.7813,-2.44141 C12.6042,-2.44141 14.056,-3.2487 15.1367,-4.86328 C16.2174,-6.47786 16.7578,-9.48568 16.7578,-13.8867 C16.7578,-17.0638 16.3672,-19.6777 15.5859,-21.7285 C14.8047,-23.7793 13.2878,-24.8047 11.0352,-24.8047 C8.96484,-24.8047 7.45117,-23.8314 6.49414,-21.8848 C5.53711,-19.9382 5.05859,-17.0703 5.05859,-13.2813 C5.05859,-10.4297 5.36458,-8.13802 5.97656,-6.40625 C6.91406,-3.76302 8.51563,-2.44141 10.7813,-2.44141 M25.6523,-4.25781 L29.7344,-4.25781 L29.7344,0 L25.6523,0 L25.6523,-4.25781 M34.5938,0 C34.724,-2.40885 35.222,-4.50521 36.0879,-6.28906 C36.9538,-8.07292 38.6432,-9.69401 41.1563,-11.1523 L44.9063,-13.3203 C46.5859,-14.2969 47.7643,-15.1302 48.4414,-15.8203 C49.5091,-16.901 50.043,-18.138 50.043,-19.5313 C50.043,-21.1589 49.5547,-22.4512 48.5781,-23.4082 C47.6016,-24.3652 46.2995,-24.8438 44.6719,-24.8438 C42.263,-24.8438 40.5964,-23.9323 39.6719,-22.1094 C39.1771,-21.1328 38.9036,-19.7786 38.8516,-18.0469 L35.2773,-18.0469 C35.3164,-20.4818 35.7656,-22.4674 36.625,-24.0039 C38.1484,-26.7122 40.8372,-28.0664 44.6914,-28.0664 C47.8945,-28.0664 50.235,-27.2005 51.7129,-25.4688 C53.1908,-23.737 53.9297,-21.8099 53.9297,-19.6875 C53.9297,-17.4479 53.1419,-15.5339 51.5664,-13.9453 C50.6549,-13.0208 49.0208,-11.901 46.6641,-10.5859 L43.9883,-9.10156 C42.7122,-8.39844 41.7096,-7.72786 40.9805,-7.08984 C39.6784,-5.95703 38.8581,-4.70052 38.5195,-3.32031 L53.793,-3.32031 L53.793,0 L34.5938,0"/>
</g>

<g fill="#212121" fill-opacity="1" stroke="none" transform="matrix(0.502434,0,0,0.502793,32.6509,72.8464)"
font-family=".AppleSystemUIFont" font-size="13" font-weight="400" font-style="normal" 
>
<path vector-effect="none" fill-rule="evenodd" d="M10.8203,-27.9688 C14.4401,-27.9688 17.0573,-26.4779 18.6719,-23.4961 C19.9219,-21.1914 20.5469,-18.0339 20.5469,-14.0234 C20.5469,-10.2214 19.9805,-7.07682 18.8477,-4.58984 C17.207,-1.02214 14.5247,0.761719 10.8008,0.761719 C7.44141,0.761719 4.94141,-0.696615 3.30078,-3.61328 C1.93359,-6.04818 1.25,-9.31641 1.25,-13.418 C1.25,-16.5951 1.66016,-19.3229 2.48047,-21.6016 C4.01693,-25.8464 6.79688,-27.9688 10.8203,-27.9688 M10.7813,-2.44141 C12.6042,-2.44141 14.056,-3.2487 15.1367,-4.86328 C16.2174,-6.47786 16.7578,-9.48568 16.7578,-13.8867 C16.7578,-17.0638 16.3672,-19.6777 15.5859,-21.7285 C14.8047,-23.7793 13.2878,-24.8047 11.0352,-24.8047 C8.96484,-24.8047 7.45117,-23.8314 6.49414,-21.8848 C5.53711,-19.9382 5.05859,-17.0703 5.05859,-13.2813 C5.05859,-10.4297 5.36458,-8.13802 5.97656,-6.40625 C6.91406,-3.76302 8.51563,-2.44141 10.7813,-2.44141 M25.6523,-4.25781 L29.7344,-4.25781 L29.7344,0 L25.6523,0 L25.6523,-4.25781 M34.5938,0 C34.724,-2.40885 35.222,-4.50521 36.0879,-6.28906 C36.9538,-8.07292 38.6432,-9.69401 41.1563,-11.1523 L44.9063,-13.3203 C46.5859,-14.2969 47.7643,-15.1302 48.4414,-15.8203 C49.5091,-16.901 50.043,-18.138 50.043,-19.5313 C50.043,-21.1589 49.5547,-22.4512 48.5781,-23.4082 C47.6016,-24.3652 46.2995,-24.8438 44.6719,-24.8438 C42.263,-24.8438 40.5964,-23.9323 39.6719,-22.1094 C39.1771,-21.1328 38.9036,-19.7786 38.8516,-18.0469 L35.2773,-18.0469 C35.3164,-20.4818 35.7656,-22.4674 36.625,-24.0039 C38.1484,-26.7122 40.8372,-28.0664 44.6914,-28.0664 C47.8945,-28.0664 50.235,-27.2005 51.7129,-25.4688 C53.1908,-23.737 53.9297,-21.8099 53.9297,-19.6875 C53.9297,-17.4479 53.1419,-15.5339 51.5664,-13.9453 C50.6549,-13.0208 49.0208,-11.901 46.6641,-10.5859 L43.9883,-9.10156 C42.7122,-8.39844 41.7096,-7.72786 40.9805,-7.08984 C39.6784,-5.95703 38.8581,-4.70052 38.5195,-3.32031 L53.793,-3.32031 L53.793,0 L34.5938,0 M60.5195,-7.12891 C60.7539,-5.1237 61.6849,-3.73698 63.3125,-2.96875 C64.1458,-2.57813 65.1094,-2.38281 66.2031,-2.38281 C68.2865,-2.38281 69.8294,-3.04688 70.832,-4.375 C71.8346,-5.70313 72.3359,-7.17448 72.3359,-8.78906 C72.3359,-10.7422 71.7402,-12.2526 70.5488,-13.3203 C69.3574,-14.388 67.9284,-14.9219 66.2617,-14.9219 C65.0508,-14.9219 64.0124,-14.6875 63.1465,-14.2188 C62.2806,-13.75 61.5417,-13.099 60.9297,-12.2656 L57.8828,-12.4414 L60.0117,-27.5 L74.543,-27.5 L74.543,-24.1016 L62.6484,-24.1016 L61.457,-16.3281 C62.1081,-16.8229 62.7266,-17.194 63.3125,-17.4414 C64.3542,-17.8711 65.5586,-18.0859 66.9258,-18.0859 C69.4909,-18.0859 71.6654,-17.2591 73.4492,-15.6055 C75.2331,-13.9518 76.125,-11.8555 76.125,-9.31641 C76.125,-6.67318 75.3079,-4.34245 73.6738,-2.32422 C72.0397,-0.30599 69.4323,0.703125 65.8516,0.703125 C63.5729,0.703125 61.5579,0.061849 59.8066,-1.2207 C58.0553,-2.50326 57.0755,-4.47266 56.8672,-7.12891 L60.5195,-7.12891"/>
</g>

<g fill="#212121" fill-opacity="1" stroke="none" transform="matrix(0.502434,0,0,0.502793,43.7045,30.9134)"
font-family=".AppleSystemUIFont" font-size="13" font-weight="400" font-style="normal" 
>
<path vector-effect="none" fill-rule="evenodd" d="M10.8203,-27.9688 C14.4401,-27.9688 17.0573,-26.4779 18.6719,-23.4961 C19.9219,-21.1914 20.5469,-18.0339 20.5469,-14.0234 C20.5469,-10.2214 19.9805,-7.07682 18.8477,-4.58984 C17.207,-1.02214 14.5247,0.761719 10.8008,0.761719 C7.44141,0.761719 4.94141,-0.696615 3.30078,-3.61328 C1.93359,-6.04818 1.25,-9.31641 1.25,-13.418 C1.25,-16.5951 1.66016,-19.3229 2.48047,-21.6016 C4.01693,-25.8464 6.79688,-27.9688 10.8203,-27.9688 M10.7813,-2.44141 C12.6042,-2.44141 14.056,-3.2487 15.1367,-4.86328 C16.2174,-6.47786 16.7578,-9.48568 16.7578,-13.8867 C16.7578,-17.0638 16.3672,-19.6777 15.5859,-21.7285 C14.8047,-23.7793 13.2878,-24.8047 11.0352,-24.8047 C8.96484,-24.8047 7.45117,-23.8314 6.49414,-21.8848 C5.53711,-19.9382 5.05859,-17.0703 5.05859,-13.2813 C5.05859,-10.4297 5.36458,-8.13802 5.97656,-6.40625 C6.91406,-3.76302 8.51563,-2.44141 10.7813,-2.44141 M25.6523,-4.25781 L29.7344,-4.25781 L29.7344,0 L25.6523,0 L25.6523,-4.25781 M43.7344,0.761719 C40.4271,0.761719 38.028,-0.146484 36.5371,-1.96289 C35.0462,-3.7793 34.3008,-5.98958 34.3008,-8.59375 L37.9727,-8.59375 C38.1289,-6.78385 38.4674,-5.46875 38.9883,-4.64844 C39.8997,-3.17708 41.5469,-2.44141 43.9297,-2.44141 C45.7786,-2.44141 47.263,-2.9362 48.3828,-3.92578 C49.5026,-4.91536 50.0625,-6.19141 50.0625,-7.75391 C50.0625,-9.68099 49.4733,-11.0286 48.2949,-11.7969 C47.1165,-12.5651 45.4792,-12.9492 43.3828,-12.9492 C43.1484,-12.9492 42.9108,-12.946 42.6699,-12.9395 C42.429,-12.9329 42.1849,-12.9232 41.9375,-12.9102 L41.9375,-16.0156 C42.3021,-15.9766 42.6081,-15.9505 42.8555,-15.9375 C43.1029,-15.9245 43.3698,-15.918 43.6563,-15.918 C44.9714,-15.918 46.0521,-16.1263 46.8984,-16.543 C48.3828,-17.2721 49.125,-18.5742 49.125,-20.4492 C49.125,-21.8424 48.6302,-22.9167 47.6406,-23.6719 C46.651,-24.4271 45.4987,-24.8047 44.1836,-24.8047 C41.8398,-24.8047 40.2188,-24.0234 39.3203,-22.4609 C38.8255,-21.6016 38.5456,-20.3776 38.4805,-18.7891 L35.0039,-18.7891 C35.0039,-20.8724 35.4206,-22.6432 36.2539,-24.1016 C37.6862,-26.7057 40.2057,-28.0078 43.8125,-28.0078 C46.6641,-28.0078 48.8711,-27.373 50.4336,-26.1035 C51.9961,-24.834 52.7773,-22.9948 52.7773,-20.5859 C52.7773,-18.8672 52.3151,-17.474 51.3906,-16.4063 C50.8177,-15.7422 50.0755,-15.2214 49.1641,-14.8438 C50.6354,-14.4401 51.7845,-13.6621 52.6113,-12.5098 C53.4382,-11.3574 53.8516,-9.94792 53.8516,-8.28125 C53.8516,-5.61198 52.9727,-3.4375 51.2148,-1.75781 C49.457,-0.078125 46.9635,0.761719 43.7344,0.761719 "/>
</g>

<g fill="#212121" fill-opacity="1" stroke="none" transform="matrix(0.502434,0,0,0.502793,105.755,17.5894)"
font-family=".AppleSystemUIFont" font-size="13" font-weight="400" font-style="normal" 
>
<path vector-effect="none" fill-rule="evenodd" d="M16.8008,-11.3867 L10.0762,-11.3867 L10.0762,0 L3.50195,0 L3.50195,-31.668 L17.2949,-31.668 C20.4746,-31.668 23.0098,-30.8516 24.9004,-29.2188 C26.791,-27.5859 27.7363,-25.0579 27.7363,-21.6348 C27.7363,-17.8965 26.791,-15.2539 24.9004,-13.707 C23.0098,-12.1602 20.3099,-11.3867 16.8008,-11.3867 M19.8945,-17.9824 C20.7539,-18.7415 21.1836,-19.9447 21.1836,-21.5918 C21.1836,-23.2389 20.7503,-24.4134 19.8838,-25.1152 C19.0173,-25.8171 17.8034,-26.168 16.2422,-26.168 L10.0762,-26.168 L10.0762,-16.8438 L16.2422,-16.8438 C17.8034,-16.8438 19.0208,-17.2233 19.8945,-17.9824 M55.0391,-2.36328 C52.6758,-0.200521 49.6536,0.880859 45.9727,0.880859 C41.418,0.880859 37.8372,-0.580078 35.2305,-3.50195 C32.6237,-6.43815 31.3203,-10.4629 31.3203,-15.5762 C31.3203,-21.1048 32.8027,-25.3659 35.7676,-28.3594 C38.3457,-30.9661 41.6257,-32.2695 45.6074,-32.2695 C50.9355,-32.2695 54.8314,-30.5221 57.2949,-27.0273 C58.6556,-25.0651 59.3861,-23.0957 59.4863,-21.1191 L52.8691,-21.1191 C52.4395,-22.6374 51.888,-23.7832 51.2148,-24.5566 C50.0117,-25.9316 48.2285,-26.6191 45.8652,-26.6191 C43.459,-26.6191 41.5612,-25.6488 40.1719,-23.708 C38.7826,-21.7673 38.0879,-19.0208 38.0879,-15.4688 C38.0879,-11.9167 38.8219,-9.25618 40.29,-7.4873 C41.7581,-5.71842 43.6237,-4.83398 45.8867,-4.83398 C48.207,-4.83398 49.9759,-5.5931 51.1934,-7.11133 C51.8665,-7.92773 52.4251,-9.15234 52.8691,-10.7852 L59.4219,-10.7852 C58.849,-7.33333 57.388,-4.52604 55.0391,-2.36328 M83.4961,-20.4531 C85.4727,-17.9753 86.4609,-15.0462 86.4609,-11.666 C86.4609,-8.22852 85.4727,-5.28874 83.4961,-2.84668 C81.5195,-0.404622 78.5189,0.816406 74.4941,0.816406 C70.4694,0.816406 67.4688,-0.404622 65.4922,-2.84668 C63.5156,-5.28874 62.5273,-8.22852 62.5273,-11.666 C62.5273,-15.0462 63.5156,-17.9753 65.4922,-20.4531 C67.4688,-22.931 70.4694,-24.1699 74.4941,-24.1699 C78.5189,-24.1699 81.5195,-22.931 83.4961,-20.4531 M74.4727,-18.9922 C72.6823,-18.9922 71.3037,-18.3584 70.3369,-17.0908 C69.3701,-15.8232 68.8867,-14.015 68.8867,-11.666 C68.8867,-9.31706 69.3701,-7.50521 70.3369,-6.23047 C71.3037,-4.95573 72.6823,-4.31836 74.4727,-4.31836 C76.263,-4.31836 77.638,-4.95573 78.5977,-6.23047 C79.5573,-7.50521 80.0371,-9.31706 80.0371,-11.666 C80.0371,-14.015 79.5573,-15.8232 78.5977,-17.0908 C77.638,-18.3584 76.263,-18.9922 74.4727,-18.9922 M109.877,-6.50977 L98.2109,-6.50977 L96.0195,0 L89.1016,0 L100.402,-31.668 L107.879,-31.668 L119.094,0 L111.918,0 L109.877,-6.50977 M108.029,-11.9668 L104.076,-24.4277 L99.9941,-11.9668 L108.029,-11.9668 M148.17,0 L133.818,0 L133.818,-31.668 L149.201,-31.668 C153.083,-31.6107 155.833,-30.4863 157.451,-28.2949 C158.425,-26.9486 158.912,-25.3372 158.912,-23.4609 C158.912,-21.5273 158.425,-19.9733 157.451,-18.7988 C156.907,-18.14 156.105,-17.5384 155.045,-16.9941 C156.663,-16.4069 157.884,-15.4759 158.708,-14.2012 C159.532,-12.9264 159.943,-11.3796 159.943,-9.56055 C159.943,-7.68424 159.471,-6.0013 158.525,-4.51172 C157.924,-3.52344 157.172,-2.69271 156.27,-2.01953 C155.253,-1.24609 154.053,-0.716146 152.671,-0.429688 C151.289,-0.143229 149.788,0 148.17,0 M148.02,-13.9434 L140.135,-13.9434 L140.135,-5.5 L147.912,-5.5 C149.301,-5.5 150.383,-5.6862 151.156,-6.05859 C152.56,-6.74609 153.262,-8.0638 153.262,-10.0117 C153.262,-11.6589 152.581,-12.7904 151.221,-13.4063 C150.462,-13.75 149.395,-13.929 148.02,-13.9434 M151.307,-19.9805 C152.166,-20.4961 152.596,-21.4199 152.596,-22.752 C152.596,-24.2272 152.023,-25.2012 150.877,-25.6738 C149.889,-26.0033 148.628,-26.168 147.096,-26.168 L140.135,-26.168 L140.135,-19.1855 L147.912,-19.1855 C149.301,-19.1855 150.433,-19.4505 151.307,-19.9805 M176.756,-17.7676 C174.292,-17.7676 172.638,-16.9655 171.793,-15.3613 C171.32,-14.459 171.084,-13.0697 171.084,-11.1934 L171.084,0 L164.918,0 L164.918,-23.418 L170.762,-23.418 L170.762,-19.3359 C171.707,-20.8971 172.531,-21.9642 173.232,-22.5371 C174.378,-23.4967 175.868,-23.9766 177.701,-23.9766 C177.816,-23.9766 177.912,-23.973 177.991,-23.9658 C178.07,-23.9587 178.245,-23.9479 178.518,-23.9336 L178.518,-17.6602 C178.131,-17.7031 177.787,-17.7318 177.486,-17.7461 C177.186,-17.7604 176.942,-17.7676 176.756,-17.7676 M182.973,-20.8828 C184.591,-22.9453 187.37,-23.9766 191.309,-23.9766 C193.872,-23.9766 196.15,-23.4681 198.141,-22.4512 C200.132,-21.4342 201.127,-19.515 201.127,-16.6934 L201.127,-5.95117 C201.127,-5.20638 201.141,-4.30404 201.17,-3.24414 C201.213,-2.44206 201.335,-1.89779 201.535,-1.61133 C201.736,-1.32487 202.036,-1.08854 202.438,-0.902344 L202.438,0 L195.777,0 C195.591,-0.472656 195.462,-0.916667 195.391,-1.33203 C195.319,-1.7474 195.262,-2.22005 195.219,-2.75 C194.374,-1.83333 193.4,-1.05273 192.297,-0.408203 C190.979,0.350911 189.49,0.730469 187.828,0.730469 C185.708,0.730469 183.957,0.125326 182.575,-1.08496 C181.193,-2.29525 180.502,-4.01042 180.502,-6.23047 C180.502,-9.10938 181.612,-11.1934 183.832,-12.4824 C185.049,-13.1842 186.84,-13.6855 189.203,-13.9863 L191.287,-14.2441 C192.419,-14.3874 193.228,-14.5664 193.715,-14.7813 C194.589,-15.1536 195.025,-15.7337 195.025,-16.5215 C195.025,-17.4811 194.692,-18.1436 194.026,-18.5088 C193.36,-18.874 192.383,-19.0566 191.094,-19.0566 C189.647,-19.0566 188.623,-18.6986 188.021,-17.9824 C187.592,-17.4525 187.305,-16.7363 187.162,-15.834 L181.254,-15.834 C181.383,-17.8822 181.956,-19.5651 182.973,-20.8828 M187.527,-4.42578 C188.1,-3.95313 188.802,-3.7168 189.633,-3.7168 C190.951,-3.7168 192.164,-4.10352 193.274,-4.87695 C194.384,-5.65039 194.961,-7.0612 195.004,-9.10938 L195.004,-11.3867 C194.617,-11.1432 194.227,-10.9463 193.833,-10.7959 C193.439,-10.6455 192.898,-10.5059 192.211,-10.377 L190.836,-10.1191 C189.547,-9.88997 188.623,-9.61068 188.064,-9.28125 C187.119,-8.72266 186.646,-7.85612 186.646,-6.68164 C186.646,-5.63607 186.94,-4.88411 187.527,-4.42578 M216.078,-6.14453 L220.912,-23.418 L227.422,-23.418 L219.387,-0.386719 C217.84,4.05339 216.615,6.80697 215.713,7.87402 C214.811,8.94108 213.006,9.47461 210.299,9.47461 C209.755,9.47461 209.318,9.47103 208.988,9.46387 C208.659,9.45671 208.165,9.43164 207.506,9.38867 L207.506,4.49023 L208.279,4.5332 C208.881,4.56185 209.454,4.54036 209.998,4.46875 C210.542,4.39714 211.001,4.23242 211.373,3.97461 C211.731,3.73112 212.064,3.22266 212.372,2.44922 C212.68,1.67578 212.805,1.20313 212.748,1.03125 L204.154,-23.418 L210.965,-23.418 L216.078,-6.14453 M229.182,-15.168 L241.514,-15.168 L241.514,-9.36719 L229.182,-9.36719 L229.182,-15.168 M268.508,-2.36328 C266.145,-0.200521 263.122,0.880859 259.441,0.880859 C254.887,0.880859 251.306,-0.580078 248.699,-3.50195 C246.092,-6.43815 244.789,-10.4629 244.789,-15.5762 C244.789,-21.1048 246.271,-25.3659 249.236,-28.3594 C251.814,-30.9661 255.094,-32.2695 259.076,-32.2695 C264.404,-32.2695 268.3,-30.5221 270.764,-27.0273 C272.124,-25.0651 272.855,-23.0957 272.955,-21.1191 L266.338,-21.1191 C265.908,-22.6374 265.357,-23.7832 264.684,-24.5566 C263.48,-25.9316 261.697,-26.6191 259.334,-26.6191 C256.928,-26.6191 255.03,-25.6488 253.641,-23.708 C252.251,-21.7673 251.557,-19.0208 251.557,-15.4688 C251.557,-11.9167 252.291,-9.25618 253.759,-7.4873 C255.227,-5.71842 257.092,-4.83398 259.355,-4.83398 C261.676,-4.83398 263.445,-5.5931 264.662,-7.11133 C265.335,-7.92773 265.894,-9.15234 266.338,-10.7852 L272.891,-10.7852 C272.318,-7.33333 270.857,-4.52604 268.508,-2.36328 M292.453,-3.30859 C292.396,-3.23698 292.253,-3.02214 292.023,-2.66406 C291.794,-2.30599 291.522,-1.99089 291.207,-1.71875 C290.247,-0.859375 289.32,-0.272135 288.425,0.0429688 C287.53,0.358073 286.48,0.515625 285.277,0.515625 C281.811,0.515625 279.477,-0.730469 278.273,-3.22266 C277.6,-4.59766 277.264,-6.62435 277.264,-9.30273 L277.264,-23.418 L283.537,-23.418 L283.537,-9.30273 C283.537,-7.9707 283.695,-6.9681 284.01,-6.29492 C284.568,-5.10612 285.664,-4.51172 287.297,-4.51172 C289.388,-4.51172 290.82,-5.35677 291.594,-7.04688 C291.995,-7.96354 292.195,-9.17383 292.195,-10.6777 L292.195,-23.418 L298.404,-23.418 L298.404,0 L292.453,0 L292.453,-3.30859 M316.084,-17.7676 C313.62,-17.7676 311.966,-16.9655 311.121,-15.3613 C310.648,-14.459 310.412,-13.0697 310.412,-11.1934 L310.412,0 L304.246,0 L304.246,-23.418 L310.09,-23.418 L310.09,-19.3359 C311.035,-20.8971 311.859,-21.9642 312.561,-22.5371 C313.706,-23.4967 315.196,-23.9766 317.029,-23.9766 C317.144,-23.9766 317.241,-23.973 317.319,-23.9658 C317.398,-23.9587 317.574,-23.9479 317.846,-23.9336 L317.846,-17.6602 C317.459,-17.7031 317.115,-17.7318 316.814,-17.7461 C316.514,-17.7604 316.27,-17.7676 316.084,-17.7676 M332.141,-4.36133 L332.141,0.214844 L329.24,0.322266 C326.347,0.422526 324.37,-0.078776 323.311,-1.18164 C322.623,-1.88346 322.279,-2.96484 322.279,-4.42578 L322.279,-18.8418 L319.014,-18.8418 L319.014,-23.2031 L322.279,-23.2031 L322.279,-29.7344 L328.338,-29.7344 L328.338,-23.2031 L332.141,-23.2031 L332.141,-18.8418 L328.338,-18.8418 L328.338,-6.4668 C328.338,-5.50716 328.46,-4.90918 328.703,-4.67285 C328.947,-4.43652 329.691,-4.31836 330.938,-4.31836 C331.124,-4.31836 331.321,-4.32194 331.528,-4.3291 C331.736,-4.33626 331.94,-4.34701 332.141,-4.36133 M342.355,-23.418 L342.355,0 L336.146,0 L336.146,-23.418 L342.355,-23.418 M342.355,-31.8613 L342.355,-26.2109 L336.146,-26.2109 L336.146,-31.8613 L342.355,-31.8613 M364.414,-22.3438 C366.247,-21.1693 367.3,-19.1497 367.572,-16.2852 L361.449,-16.2852 C361.363,-17.0729 361.141,-17.696 360.783,-18.1543 C360.11,-18.985 358.964,-19.4004 357.346,-19.4004 C356.014,-19.4004 355.065,-19.1927 354.499,-18.7773 C353.933,-18.362 353.65,-17.875 353.65,-17.3164 C353.65,-16.6146 353.951,-16.1061 354.553,-15.791 C355.154,-15.4616 357.281,-14.8958 360.934,-14.0938 C363.368,-13.5208 365.195,-12.6543 366.412,-11.4941 C367.615,-10.3197 368.217,-8.85156 368.217,-7.08984 C368.217,-4.76953 367.354,-2.87533 365.628,-1.40723 C363.902,0.0608724 361.234,0.794922 357.625,0.794922 C353.944,0.794922 351.226,0.0179036 349.472,-1.53613 C347.717,-3.09017 346.84,-5.07031 346.84,-7.47656 L353.049,-7.47656 C353.178,-6.38802 353.457,-5.61458 353.887,-5.15625 C354.646,-4.33984 356.049,-3.93164 358.098,-3.93164 C359.301,-3.93164 360.257,-4.11068 360.966,-4.46875 C361.675,-4.82682 362.029,-5.36393 362.029,-6.08008 C362.029,-6.76758 361.743,-7.29036 361.17,-7.64844 C360.597,-8.00651 358.47,-8.6224 354.789,-9.49609 C352.139,-10.1549 350.27,-10.9785 349.182,-11.9668 C348.093,-12.9408 347.549,-14.3444 347.549,-16.1777 C347.549,-18.3405 348.397,-20.1989 350.095,-21.7529 C351.792,-23.307 354.18,-24.084 357.26,-24.084 C360.182,-24.084 362.566,-23.5039 364.414,-22.3438 M387.287,-14.6523 L420.91,-14.6523 L420.91,-9.96875 L387.287,-9.96875 L387.287,-14.6523 M455.322,0 L441.68,0 L441.68,-31.668 L455.322,-31.668 C457.285,-31.6393 458.917,-31.4102 460.221,-30.9805 C462.441,-30.25 464.238,-28.9108 465.613,-26.9629 C466.716,-25.3874 467.468,-23.6829 467.869,-21.8496 C468.27,-20.0163 468.471,-18.2689 468.471,-16.6074 C468.471,-12.3965 467.626,-8.83008 465.936,-5.9082 C463.644,-1.9694 460.106,0 455.322,0 M460.242,-23.5898 C459.225,-25.3086 457.213,-26.168 454.205,-26.168 L448.104,-26.168 L448.104,-5.5 L454.205,-5.5 C457.327,-5.5 459.505,-7.03971 460.736,-10.1191 C461.41,-11.8092 461.746,-13.8216 461.746,-16.1563 C461.746,-19.3789 461.245,-21.8568 460.242,-23.5898 M473.832,-20.8828 C475.451,-22.9453 478.229,-23.9766 482.168,-23.9766 C484.732,-23.9766 487.009,-23.4681 489,-22.4512 C490.991,-21.4342 491.986,-19.515 491.986,-16.6934 L491.986,-5.95117 C491.986,-5.20638 492.001,-4.30404 492.029,-3.24414 C492.072,-2.44206 492.194,-1.89779 492.395,-1.61133 C492.595,-1.32487 492.896,-1.08854 493.297,-0.902344 L493.297,0 L486.637,0 C486.451,-0.472656 486.322,-0.916667 486.25,-1.33203 C486.178,-1.7474 486.121,-2.22005 486.078,-2.75 C485.233,-1.83333 484.259,-1.05273 483.156,-0.408203 C481.839,0.350911 480.349,0.730469 478.688,0.730469 C476.568,0.730469 474.817,0.125326 473.435,-1.08496 C472.052,-2.29525 471.361,-4.01042 471.361,-6.23047 C471.361,-9.10938 472.471,-11.1934 474.691,-12.4824 C475.909,-13.1842 477.699,-13.6855 480.063,-13.9863 L482.146,-14.2441 C483.278,-14.3874 484.087,-14.5664 484.574,-14.7813 C485.448,-15.1536 485.885,-15.7337 485.885,-16.5215 C485.885,-17.4811 485.552,-18.1436 484.886,-18.5088 C484.22,-18.874 483.242,-19.0566 481.953,-19.0566 C480.507,-19.0566 479.482,-18.6986 478.881,-17.9824 C478.451,-17.4525 478.165,-16.7363 478.021,-15.834 L472.113,-15.834 C472.242,-17.8822 472.815,-19.5651 473.832,-20.8828 M478.387,-4.42578 C478.96,-3.95313 479.661,-3.7168 480.492,-3.7168 C481.81,-3.7168 483.024,-4.10352 484.134,-4.87695 C485.244,-5.65039 485.82,-7.0612 485.863,-9.10938 L485.863,-11.3867 C485.477,-11.1432 485.086,-10.9463 484.692,-10.7959 C484.299,-10.6455 483.758,-10.5059 483.07,-10.377 L481.695,-10.1191 C480.406,-9.88997 479.482,-9.61068 478.924,-9.28125 C477.979,-8.72266 477.506,-7.85612 477.506,-6.68164 C477.506,-5.63607 477.799,-4.88411 478.387,-4.42578 M506.938,-6.14453 L511.771,-23.418 L518.281,-23.418 L510.246,-0.386719 C508.699,4.05339 507.475,6.80697 506.572,7.87402 C505.67,8.94108 503.865,9.47461 501.158,9.47461 C500.614,9.47461 500.177,9.47103 499.848,9.46387 C499.518,9.45671 499.024,9.43164 498.365,9.38867 L498.365,4.49023 L499.139,4.5332 C499.74,4.56185 500.313,4.54036 500.857,4.46875 C501.402,4.39714 501.86,4.23242 502.232,3.97461 C502.59,3.73112 502.924,3.22266 503.231,2.44922 C503.539,1.67578 503.665,1.20313 503.607,1.03125 L495.014,-23.418 L501.824,-23.418 L506.938,-6.14453 M547.9,0 L541.627,0 L541.627,-21.4844 L534.301,-21.4844 L534.301,-25.6523 C536.234,-25.7383 537.588,-25.8672 538.361,-26.0391 C539.593,-26.3112 540.596,-26.8555 541.369,-27.6719 C541.899,-28.2305 542.3,-28.9753 542.572,-29.9063 C542.73,-30.4648 542.809,-30.8802 542.809,-31.1523 L547.9,-31.1523 L547.9,0"/>
</g>

<g fill="#0073bd" fill-opacity="0.8" stroke="none" transform="matrix(0.502434,0,0,0.502793,-3.0219,-13.3324)"
font-family=".AppleSystemUIFont" font-size="13" font-weight="400" font-style="normal" 
>
<circle cx="265.985" cy="316.235" r="8.94427"/>
<circle cx="309.276" cy="670.543" r="8.94427"/>
<circle cx="179.434" cy="767.466" r="8.94427"/>
<circle cx="596.453" cy="838.597" r="8.94427"/>
<circle cx="170.437" cy="541.018" r="8.94427"/>
</g>

<g fill="#e6804d" fill-opacity="0.8" stroke="none" transform="matrix(0.502434,0,0,0.502793,-3.0219,-13.3324)"
font-family=".AppleSystemUIFont" font-size="13" font-weight="400" font-style="normal" 
>
<circle cx="448.444" cy="840.991" r="8.94427"/>
<circle cx="647.557" cy="452.067" r="8.94427"/>
<circle cx="611.547" cy="140.181" r="8.94427"/>
<circle cx="297.354" cy="471.395" r="8.94427"/>
<circle cx="751.512" cy="735.507" r="8.94427"/>
</g>

<g fill="#ffffff" fill-opacity="1" stroke="none" transform="matrix(5.02434e-05,0,0,5.02793e-05,-3.0219,-13.3324)"
font-family=".AppleSystemUIFont" font-size="13" font-weight="400" font-style="normal" 
>
<path vector-effect="none" fill-rule="evenodd" d="M8.72e+06,770000 L8.72e+06,1.66e+06 L1.036e+07,1.66e+06 L1.036e+07,770000 L8.72e+06,770000"/>
</g>

<g fill="#0073bd" fill-opacity="0.8" stroke="none" transform="matrix(0.502434,0,0,0.502793,-3.0219,-13.3324)"
font-family=".AppleSystemUIFont" font-size="13" font-weight="400" font-style="normal" 
>
<circle cx="893.342" cy="100.566" r="6"/>
</g>

<g fill="#e6804d" fill-opacity="0.8" stroke="none" transform="matrix(0.502434,0,0,0.502793,-3.0219,-13.3324)"
font-family=".AppleSystemUIFont" font-size="13" font-weight="400" font-style="normal" 
>
<circle cx="893.342" cy="142.434" r="6"/>
</g>

<g fill="#212121" fill-opacity="1" stroke="none" transform="matrix(0.502434,0,0,0.502793,455.795,42.2596)"
font-family=".AppleSystemUIFont" font-size="13" font-weight="400" font-style="normal" 
>
<path vector-effect="none" fill-rule="evenodd" d="M5.02734,-8.33203 C5.10938,-6.86719 5.45508,-5.67773 6.06445,-4.76367 C7.22461,-3.05273 9.26953,-2.19727 12.1992,-2.19727 C13.5117,-2.19727 14.707,-2.38477 15.7852,-2.75977 C17.8711,-3.48633 18.9141,-4.78711 18.9141,-6.66211 C18.9141,-8.06836 18.4746,-9.07031 17.5957,-9.66797 C16.7051,-10.2539 15.3105,-10.7637 13.4121,-11.1973 L9.91406,-11.9883 C7.62891,-12.5039 6.01172,-13.0723 5.0625,-13.6934 C3.42188,-14.7715 2.60156,-16.3828 2.60156,-18.5273 C2.60156,-20.8477 3.4043,-22.752 5.00977,-24.2402 C6.61523,-25.7285 8.88867,-26.4727 11.8301,-26.4727 C14.5371,-26.4727 16.8369,-25.8193 18.7295,-24.5127 C20.6221,-23.2061 21.5684,-21.1172 21.5684,-18.2461 L18.2813,-18.2461 C18.1055,-19.6289 17.7305,-20.6895 17.1563,-21.4277 C16.0898,-22.7754 14.2793,-23.4492 11.7246,-23.4492 C9.66211,-23.4492 8.17969,-23.0156 7.27734,-22.1484 C6.375,-21.2813 5.92383,-20.2734 5.92383,-19.125 C5.92383,-17.8594 6.45117,-16.9336 7.50586,-16.3477 C8.19727,-15.9727 9.76172,-15.5039 12.1992,-14.9414 L15.8203,-14.1152 C17.5664,-13.7168 18.9141,-13.1719 19.8633,-12.4805 C21.5039,-11.2734 22.3242,-9.52148 22.3242,-7.22461 C22.3242,-4.36523 21.2842,-2.32031 19.2041,-1.08984 C17.124,0.140625 14.707,0.755859 11.9531,0.755859 C8.74219,0.755859 6.22852,-0.0644531 4.41211,-1.70508 C2.5957,-3.33398 1.70508,-5.54297 1.74023,-8.33203 L5.02734,-8.33203 M45.5332,-25.8223 L45.5332,-22.7461 L36.832,-22.7461 L36.832,0 L33.2813,0 L33.2813,-22.7461 L24.5801,-22.7461 L24.5801,-25.8223 L45.5332,-25.8223 M49.4297,-17.8242 L49.4297,-20.25 C51.7148,-20.4727 53.3086,-20.8447 54.2109,-21.3662 C55.1133,-21.8877 55.7871,-23.1211 56.2324,-25.0664 L58.7285,-25.0664 L58.7285,0 L55.3535,0 L55.3535,-17.8242 L49.4297,-17.8242 M69.0762,-3.83203 L72.75,-3.83203 L72.75,0 L69.0762,0 L69.0762,-3.83203 M94.8262,-24.75 L94.8262,-21.9902 C94.0176,-21.2051 92.9424,-19.8398 91.6006,-17.8945 C90.2588,-15.9492 89.0723,-13.8516 88.041,-11.6016 C87.0215,-9.41016 86.248,-7.41211 85.7207,-5.60742 C85.3809,-4.44727 84.9414,-2.57813 84.4023,0 L80.9043,0 C81.7012,-4.80469 83.459,-9.58594 86.1777,-14.3438 C87.7832,-17.1328 89.4707,-19.541 91.2402,-21.5684 L77.3184,-21.5684 L77.3184,-24.75 L94.8262,-24.75 M100.463,-6.41602 C100.674,-4.61133 101.512,-3.36328 102.977,-2.67188 C103.727,-2.32031 104.594,-2.14453 105.578,-2.14453 C107.453,-2.14453 108.842,-2.74219 109.744,-3.9375 C110.646,-5.13281 111.098,-6.45703 111.098,-7.91016 C111.098,-9.66797 110.562,-11.0273 109.489,-11.9883 C108.417,-12.9492 107.131,-13.4297 105.631,-13.4297 C104.541,-13.4297 103.606,-13.2188 102.827,-12.7969 C102.048,-12.375 101.383,-11.7891 100.832,-11.0391 L98.0898,-11.1973 L100.006,-24.75 L113.084,-24.75 L113.084,-21.6914 L102.379,-21.6914 L101.307,-14.6953 C101.893,-15.1406 102.449,-15.4746 102.977,-15.6973 C103.914,-16.084 104.998,-16.2773 106.229,-16.2773 C108.537,-16.2773 110.494,-15.5332 112.1,-14.0449 C113.705,-12.5566 114.508,-10.6699 114.508,-8.38477 C114.508,-6.00586 113.772,-3.9082 112.302,-2.0918 C110.831,-0.275391 108.484,0.632813 105.262,0.632813 C103.211,0.632813 101.397,0.0556641 99.8213,-1.09863 C98.2451,-2.25293 97.3633,-4.02539 97.1758,-6.41602 L100.463,-6.41602"/>
</g>

<g fill="#212121" fill-opacity="1" stroke="none" transform="matrix(0.502434,0,0,0.502793,455.795,63.3103)"
font-family=".AppleSystemUIFont" font-size="13" font-weight="400" font-style="normal" 
>
<path vector-effect="none" fill-rule="evenodd" d="M5.02734,-8.33203 C5.10938,-6.86719 5.45508,-5.67773 6.06445,-4.76367 C7.22461,-3.05273 9.26953,-2.19727 12.1992,-2.19727 C13.5117,-2.19727 14.707,-2.38477 15.7852,-2.75977 C17.8711,-3.48633 18.9141,-4.78711 18.9141,-6.66211 C18.9141,-8.06836 18.4746,-9.07031 17.5957,-9.66797 C16.7051,-10.2539 15.3105,-10.7637 13.4121,-11.1973 L9.91406,-11.9883 C7.62891,-12.5039 6.01172,-13.0723 5.0625,-13.6934 C3.42188,-14.7715 2.60156,-16.3828 2.60156,-18.5273 C2.60156,-20.8477 3.4043,-22.752 5.00977,-24.2402 C6.61523,-25.7285 8.88867,-26.4727 11.8301,-26.4727 C14.5371,-26.4727 16.8369,-25.8193 18.7295,-24.5127 C20.6221,-23.2061 21.5684,-21.1172 21.5684,-18.2461 L18.2813,-18.2461 C18.1055,-19.6289 17.7305,-20.6895 17.1563,-21.4277 C16.0898,-22.7754 14.2793,-23.4492 11.7246,-23.4492 C9.66211,-23.4492 8.17969,-23.0156 7.27734,-22.1484 C6.375,-21.2813 5.92383,-20.2734 5.92383,-19.125 C5.92383,-17.8594 6.45117,-16.9336 7.50586,-16.3477 C8.19727,-15.9727 9.76172,-15.5039 12.1992,-14.9414 L15.8203,-14.1152 C17.5664,-13.7168 18.9141,-13.1719 19.8633,-12.4805 C21.5039,-11.2734 22.3242,-9.52148 22.3242,-7.22461 C22.3242,-4.36523 21.2842,-2.32031 19.2041,-1.08984 C17.124,0.140625 14.707,0.755859 11.9531,0.755859 C8.74219,0.755859 6.22852,-0.0644531 4.41211,-1.70508 C2.5957,-3.33398 1.70508,-5.54297 1.74023,-8.33203 L5.02734,-8.33203 M45.5332,-25.8223 L45.5332,-22.7461 L36.832,-22.7461 L36.832,0 L33.2813,0 L33.2813,-22.7461 L24.5801,-22.7461 L24.5801,-25.8223 L45.5332,-25.8223 M49.4297,-17.8242 L49.4297,-20.25 C51.7148,-20.4727 53.3086,-20.8447 54.2109,-21.3662 C55.1133,-21.8877 55.7871,-23.1211 56.2324,-25.0664 L58.7285,-25.0664 L58.7285,0 L55.3535,0 L55.3535,-17.8242 L49.4297,-17.8242 M69.0762,-3.83203 L72.75,-3.83203 L72.75,0 L69.0762,0 L69.0762,-3.83203 M79.4453,-17.8242 L79.4453,-20.25 C81.7305,-20.4727 83.3242,-20.8447 84.2266,-21.3662 C85.1289,-21.8877 85.8027,-23.1211 86.248,-25.0664 L88.7441,-25.0664 L88.7441,0 L85.3691,0 L85.3691,-17.8242 L79.4453,-17.8242 M97.1406,0 C97.2578,-2.16797 97.7061,-4.05469 98.4854,-5.66016 C99.2646,-7.26563 100.785,-8.72461 103.047,-10.0371 L106.422,-11.9883 C107.934,-12.8672 108.994,-13.6172 109.604,-14.2383 C110.564,-15.2109 111.045,-16.3242 111.045,-17.5781 C111.045,-19.043 110.605,-20.2061 109.727,-21.0674 C108.848,-21.9287 107.676,-22.3594 106.211,-22.3594 C104.043,-22.3594 102.543,-21.5391 101.711,-19.8984 C101.266,-19.0195 101.02,-17.8008 100.973,-16.2422 L97.7559,-16.2422 C97.791,-18.4336 98.1953,-20.2207 98.9688,-21.6035 C100.34,-24.041 102.76,-25.2598 106.229,-25.2598 C109.111,-25.2598 111.218,-24.4805 112.548,-22.9219 C113.878,-21.3633 114.543,-19.6289 114.543,-17.7188 C114.543,-15.7031 113.834,-13.9805 112.416,-12.5508 C111.596,-11.7188 110.125,-10.7109 108.004,-9.52734 L105.596,-8.19141 C104.447,-7.55859 103.545,-6.95508 102.889,-6.38086 C101.717,-5.36133 100.979,-4.23047 100.674,-2.98828 L114.42,-2.98828 L114.42,0 L97.1406,0"/>
</g>

<g fill="none" stroke="#212121" stroke-opacity="1" stroke-width="1" stroke-linecap="butt" stroke-linejoin="miter" stroke-miterlimit="2" transform="matrix(0.502434,0,0,0.502793,-3.0219,-13.3324)"
font-family=".AppleSystemUIFont" font-size="13" font-weight="400" font-style="normal" 
>
<path vector-effect="none" fill-rule="evenodd" d="M872,166 L872,77 L1036,77 L1036,166 L872,166"/>
</g>
</g>
</svg>
