<?xml version="1.0" encoding="UTF-8" standalone="no"?>
<svg width="170.392mm" height="192.969mm"
 viewBox="0 0 483 547"
 xmlns="http://www.w3.org/2000/svg" xmlns:xlink="http://www.w3.org/1999/xlink"  version="1.2" baseProfile="tiny">
<title>Qt SVG Document</title>
<desc>MATLAB, The MathWorks, Inc. Version 25.2.0.3042426 R2025b Update 1</desc>
<defs>
</defs>
<g fill="none" stroke="black" stroke-width="1" fill-rule="evenodd" stroke-linecap="square" stroke-linejoin="bevel" >

<g fill="#ffffff" fill-opacity="1" stroke="none" transform="matrix(0.509299,0,0,0.503419,-3.08368,-17.3782)"
font-family=".AppleSystemUIFont" font-size="13" font-weight="400" font-style="normal" 
>
<path vector-effect="none" fill-rule="evenodd" d="M5,34 L953,34 L953,1121 L5,1121 L5,34"/>
</g>

<g fill="#ffffff" fill-opacity="1" stroke="none" transform="matrix(5.09299e-05,0,0,5.03419e-05,-3.08368,-17.3782)"
font-family=".AppleSystemUIFont" font-size="13" font-weight="400" font-style="normal" 
>
<path vector-effect="none" fill-rule="evenodd" d="M1.25e+06,850000 L1.25e+06,9.88e+06 L5.27e+06,9.88e+06 L5.27e+06,850000 L1.25e+06,850000"/>
</g>

<g fill="#212121" fill-opacity="1" stroke="#212121" stroke-opacity="1" stroke-width="1" stroke-linecap="square" stroke-linejoin="bevel" transform="matrix(0.509299,0,0,0.503419,133.154,17.6094)"
font-family="Helvetica" font-size="44" font-weight="700" font-style="normal" 
>
<text fill="#212121" fill-opacity="1" stroke="none" xml:space="preserve" x="0" y="-0.125" font-family="Helvetica" font-size="44" font-weight="700" font-style="normal" 
 >Day 2</text>
</g>

<g fill="#212121" fill-opacity="1" stroke="#212121" stroke-opacity="1" stroke-width="1" stroke-linecap="butt" stroke-linejoin="round" transform="matrix(0.509299,0,0,0.503419,-3.08368,-17.3782)"
font-family="Helvetica" font-size="44" font-weight="700" font-style="normal" 
>
<polyline fill="none" vector-effect="none" points="125,988 527,988 " />
</g>

<g fill="#30123b" fill-opacity="1" stroke="none" transform="matrix(5.09299e-05,0,0,5.03419e-05,-3.08368,-17.3782)"
font-family="Helvetica" font-size="44" font-weight="700" font-style="normal" 
>
<path vector-effect="none" fill-rule="evenodd" d="M1.98091e+06,8.80122e+06 L1.98091e+06,9.88e+06 L2.71182e+06,9.88e+06 L2.71182e+06,8.80122e+06 L1.98091e+06,8.80122e+06"/>
</g>

<g fill="#30123b" fill-opacity="1" stroke="none" transform="matrix(5.09299e-05,0,0,5.03419e-05,-3.08368,-17.3782)"
font-family="Helvetica" font-size="44" font-weight="700" font-style="normal" 
>
<path vector-effect="none" fill-rule="evenodd" d="M2.89455e+06,7.0919e+06 L2.89455e+06,9.88e+06 L3.62545e+06,9.88e+06 L3.62545e+06,7.0919e+06 L2.89455e+06,7.0919e+06"/>
</g>

<g fill="#30123b" fill-opacity="1" stroke="none" transform="matrix(5.09299e-05,0,0,5.03419e-05,-3.08368,-17.3782)"
font-family="Helvetica" font-size="44" font-weight="700" font-style="normal" 
>
<path vector-effect="none" fill-rule="evenodd" d="M3.80818e+06,8.01785e+06 L3.80818e+06,9.88e+06 L4.53909e+06,9.88e+06 L4.53909e+06,8.01785e+06 L3.80818e+06,8.01785e+06"/>
</g>

<g fill="#434fbb" fill-opacity="1" stroke="none" transform="matrix(5.09299e-05,0,0,5.03419e-05,-3.08368,-17.3782)"
font-family="Helvetica" font-size="44" font-weight="700" font-style="normal" 
>
<path vector-effect="none" fill-rule="evenodd" d="M1.98091e+06,8.79665e+06 L1.98091e+06,8.80122e+06 L2.71182e+06,8.80122e+06 L2.71182e+06,8.79665e+06 L1.98091e+06,8.79665e+06"/>
</g>

<g fill="#434fbb" fill-opacity="1" stroke="none" transform="matrix(5.09299e-05,0,0,5.03419e-05,-3.08368,-17.3782)"
font-family="Helvetica" font-size="44" font-weight="700" font-style="normal" 
>
<path vector-effect="none" fill-rule="evenodd" d="M2.89455e+06,7.05741e+06 L2.89455e+06,7.0919e+06 L3.62545e+06,7.0919e+06 L3.62545e+06,7.05741e+06 L2.89455e+06,7.05741e+06"/>
</g>

<g fill="#434fbb" fill-opacity="1" stroke="none" transform="matrix(5.09299e-05,0,0,5.03419e-05,-3.08368,-17.3782)"
font-family="Helvetica" font-size="44" font-weight="700" font-style="normal" 
>
<path vector-effect="none" fill-rule="evenodd" d="M3.80818e+06,8.01721e+06 L3.80818e+06,8.01785e+06 L4.53909e+06,8.01785e+06 L4.53909e+06,8.01721e+06 L3.80818e+06,8.01721e+06"/>
</g>

<g fill="#4686fa" fill-opacity="1" stroke="none" transform="matrix(5.09299e-05,0,0,5.03419e-05,-3.08368,-17.3782)"
font-family="Helvetica" font-size="44" font-weight="700" font-style="normal" 
>
<path vector-effect="none" fill-rule="evenodd" d="M1.98091e+06,3.75731e+06 L1.98091e+06,8.79665e+06 L2.71182e+06,8.79665e+06 L2.71182e+06,3.75731e+06 L1.98091e+06,3.75731e+06"/>
</g>

<g fill="#4686fa" fill-opacity="1" stroke="none" transform="matrix(5.09299e-05,0,0,5.03419e-05,-3.08368,-17.3782)"
font-family="Helvetica" font-size="44" font-weight="700" font-style="normal" 
>
<path vector-effect="none" fill-rule="evenodd" d="M2.89455e+06,4.36283e+06 L2.89455e+06,7.05741e+06 L3.62545e+06,7.05741e+06 L3.62545e+06,4.36283e+06 L2.89455e+06,4.36283e+06"/>
</g>

<g fill="#4686fa" fill-opacity="1" stroke="none" transform="matrix(5.09299e-05,0,0,5.03419e-05,-3.08368,-17.3782)"
font-family="Helvetica" font-size="44" font-weight="700" font-style="normal" 
>
<path vector-effect="none" fill-rule="evenodd" d="M3.80818e+06,5.54389e+06 L3.80818e+06,8.01721e+06 L4.53909e+06,8.01721e+06 L4.53909e+06,5.54389e+06 L3.80818e+06,5.54389e+06"/>
</g>

<g fill="#29bbec" fill-opacity="1" stroke="none" transform="matrix(5.09299e-05,0,0,5.03419e-05,-3.08368,-17.3782)"
font-family="Helvetica" font-size="44" font-weight="700" font-style="normal" 
>
<path vector-effect="none" fill-rule="evenodd" d="M1.98091e+06,3.75626e+06 L1.98091e+06,3.75731e+06 L2.71182e+06,3.75731e+06 L2.71182e+06,3.75626e+06 L1.98091e+06,3.75626e+06"/>
</g>

<g fill="#29bbec" fill-opacity="1" stroke="none" transform="matrix(5.09299e-05,0,0,5.03419e-05,-3.08368,-17.3782)"
font-family="Helvetica" font-size="44" font-weight="700" font-style="normal" 
>
<path vector-effect="none" fill-rule="evenodd" d="M2.89455e+06,4.36191e+06 L2.89455e+06,4.36283e+06 L3.62545e+06,4.36283e+06 L3.62545e+06,4.36191e+06 L2.89455e+06,4.36191e+06"/>
</g>

<g fill="#29bbec" fill-opacity="1" stroke="none" transform="matrix(5.09299e-05,0,0,5.03419e-05,-3.08368,-17.3782)"
font-family="Helvetica" font-size="44" font-weight="700" font-style="normal" 
>
<path vector-effect="none" fill-rule="evenodd" d="M3.80818e+06,5.54219e+06 L3.80818e+06,5.54389e+06 L4.53909e+06,5.54389e+06 L4.53909e+06,5.54219e+06 L3.80818e+06,5.54219e+06"/>
</g>

<g fill="#1ae4b6" fill-opacity="1" stroke="none" transform="matrix(5.09299e-05,0,0,5.03419e-05,-3.08368,-17.3782)"
font-family="Helvetica" font-size="44" font-weight="700" font-style="normal" 
>
<path vector-effect="none" fill-rule="evenodd" d="M1.98091e+06,1.9999e+06 L1.98091e+06,3.75626e+06 L2.71182e+06,3.75626e+06 L2.71182e+06,1.9999e+06 L1.98091e+06,1.9999e+06"/>
</g>

<g fill="#1ae4b6" fill-opacity="1" stroke="none" transform="matrix(5.09299e-05,0,0,5.03419e-05,-3.08368,-17.3782)"
font-family="Helvetica" font-size="44" font-weight="700" font-style="normal" 
>
<path vector-effect="none" fill-rule="evenodd" d="M2.89455e+06,3.6459e+06 L2.89455e+06,4.36191e+06 L3.62545e+06,4.36191e+06 L3.62545e+06,3.6459e+06 L2.89455e+06,3.6459e+06"/>
</g>

<g fill="#1ae4b6" fill-opacity="1" stroke="none" transform="matrix(5.09299e-05,0,0,5.03419e-05,-3.08368,-17.3782)"
font-family="Helvetica" font-size="44" font-weight="700" font-style="normal" 
>
<path vector-effect="none" fill-rule="evenodd" d="M3.80818e+06,4.45836e+06 L3.80818e+06,5.54219e+06 L4.53909e+06,5.54219e+06 L4.53909e+06,4.45836e+06 L3.80818e+06,4.45836e+06"/>
</g>

<g fill="#56fb75" fill-opacity="1" stroke="none" transform="matrix(5.09299e-05,0,0,5.03419e-05,-3.08368,-17.3782)"
font-family="Helvetica" font-size="44" font-weight="700" font-style="normal" 
>
<path vector-effect="none" fill-rule="evenodd" d="M1.98091e+06,1.41688e+06 L1.98091e+06,1.9999e+06 L2.71182e+06,1.9999e+06 L2.71182e+06,1.41688e+06 L1.98091e+06,1.41688e+06"/>
</g>

<g fill="#56fb75" fill-opacity="1" stroke="none" transform="matrix(5.09299e-05,0,0,5.03419e-05,-3.08368,-17.3782)"
font-family="Helvetica" font-size="44" font-weight="700" font-style="normal" 
>
<path vector-effect="none" fill-rule="evenodd" d="M2.89455e+06,2.92357e+06 L2.89455e+06,3.6459e+06 L3.62545e+06,3.6459e+06 L3.62545e+06,2.92357e+06 L2.89455e+06,2.92357e+06"/>
</g>

<g fill="#56fb75" fill-opacity="1" stroke="none" transform="matrix(5.09299e-05,0,0,5.03419e-05,-3.08368,-17.3782)"
font-family="Helvetica" font-size="44" font-weight="700" font-style="normal" 
>
<path vector-effect="none" fill-rule="evenodd" d="M3.80818e+06,3.32581e+06 L3.80818e+06,4.45836e+06 L4.53909e+06,4.45836e+06 L4.53909e+06,3.32581e+06 L3.80818e+06,3.32581e+06"/>
</g>

<g fill="#a3fd3c" fill-opacity="1" stroke="none" transform="matrix(5.09299e-05,0,0,5.03419e-05,-3.08368,-17.3782)"
font-family="Helvetica" font-size="44" font-weight="700" font-style="normal" 
>
<path vector-effect="none" fill-rule="evenodd" d="M1.98091e+06,1.41646e+06 L1.98091e+06,1.41688e+06 L2.71182e+06,1.41688e+06 L2.71182e+06,1.41646e+06 L1.98091e+06,1.41646e+06"/>
</g>

<g fill="#a3fd3c" fill-opacity="1" stroke="none" transform="matrix(5.09299e-05,0,0,5.03419e-05,-3.08368,-17.3782)"
font-family="Helvetica" font-size="44" font-weight="700" font-style="normal" 
>
<path vector-effect="none" fill-rule="evenodd" d="M2.89455e+06,2.05519e+06 L2.89455e+06,2.92357e+06 L3.62545e+06,2.92357e+06 L3.62545e+06,2.05519e+06 L2.89455e+06,2.05519e+06"/>
</g>

<g fill="#a3fd3c" fill-opacity="1" stroke="none" transform="matrix(5.09299e-05,0,0,5.03419e-05,-3.08368,-17.3782)"
font-family="Helvetica" font-size="44" font-weight="700" font-style="normal" 
>
<path vector-effect="none" fill-rule="evenodd" d="M3.80818e+06,1.97911e+06 L3.80818e+06,3.32581e+06 L4.53909e+06,3.32581e+06 L4.53909e+06,1.97911e+06 L3.80818e+06,1.97911e+06"/>
</g>

<g fill="#d8e436" fill-opacity="1" stroke="none" transform="matrix(5.09299e-05,0,0,5.03419e-05,-3.08368,-17.3782)"
font-family="Helvetica" font-size="44" font-weight="700" font-style="normal" 
>
<path vector-effect="none" fill-rule="evenodd" d="M3.80818e+06,1.9789e+06 L3.80818e+06,1.97911e+06 L4.53909e+06,1.97911e+06 L4.53909e+06,1.9789e+06 L3.80818e+06,1.9789e+06"/>
</g>

<g fill="#faba39" fill-opacity="1" stroke="none" transform="matrix(5.09299e-05,0,0,5.03419e-05,-3.08368,-17.3782)"
font-family="Helvetica" font-size="44" font-weight="700" font-style="normal" 
>
<path vector-effect="none" fill-rule="evenodd" d="M1.98091e+06,1.41521e+06 L1.98091e+06,1.41646e+06 L2.71182e+06,1.41646e+06 L2.71182e+06,1.41521e+06 L1.98091e+06,1.41521e+06"/>
</g>

<g fill="#faba39" fill-opacity="1" stroke="none" transform="matrix(5.09299e-05,0,0,5.03419e-05,-3.08368,-17.3782)"
font-family="Helvetica" font-size="44" font-weight="700" font-style="normal" 
>
<path vector-effect="none" fill-rule="evenodd" d="M2.89455e+06,1.31368e+06 L2.89455e+06,2.05519e+06 L3.62545e+06,2.05519e+06 L3.62545e+06,1.31368e+06 L2.89455e+06,1.31368e+06"/>
</g>

<g fill="#faba39" fill-opacity="1" stroke="none" transform="matrix(5.09299e-05,0,0,5.03419e-05,-3.08368,-17.3782)"
font-family="Helvetica" font-size="44" font-weight="700" font-style="normal" 
>
<path vector-effect="none" fill-rule="evenodd" d="M3.80818e+06,850313 L3.80818e+06,1.9789e+06 L4.53909e+06,1.9789e+06 L4.53909e+06,850313 L3.80818e+06,850313"/>
</g>

<g fill="#fb8022" fill-opacity="1" stroke="none" transform="matrix(5.09299e-05,0,0,5.03419e-05,-3.08368,-17.3782)"
font-family="Helvetica" font-size="44" font-weight="700" font-style="normal" 
>
<path vector-effect="none" fill-rule="evenodd" d="M2.89455e+06,1.31331e+06 L2.89455e+06,1.31368e+06 L3.62545e+06,1.31368e+06 L3.62545e+06,1.31331e+06 L2.89455e+06,1.31331e+06"/>
</g>

<g fill="#e4460b" fill-opacity="1" stroke="none" transform="matrix(5.09299e-05,0,0,5.03419e-05,-3.08368,-17.3782)"
font-family="Helvetica" font-size="44" font-weight="700" font-style="normal" 
>
<path vector-effect="none" fill-rule="evenodd" d="M1.98091e+06,850956 L1.98091e+06,1.41521e+06 L2.71182e+06,1.41521e+06 L2.71182e+06,850956 L1.98091e+06,850956"/>
</g>

<g fill="#e4460b" fill-opacity="1" stroke="none" transform="matrix(5.09299e-05,0,0,5.03419e-05,-3.08368,-17.3782)"
font-family="Helvetica" font-size="44" font-weight="700" font-style="normal" 
>
<path vector-effect="none" fill-rule="evenodd" d="M2.89455e+06,850590 L2.89455e+06,1.31331e+06 L3.62545e+06,1.31331e+06 L3.62545e+06,850590 L2.89455e+06,850590"/>
</g>

<g fill="#e4460b" fill-opacity="1" stroke="none" transform="matrix(5.09299e-05,0,0,5.03419e-05,-3.08368,-17.3782)"
font-family="Helvetica" font-size="44" font-weight="700" font-style="normal" 
>
<path vector-effect="none" fill-rule="evenodd" d="M3.80818e+06,850154 L3.80818e+06,850313 L4.53909e+06,850313 L4.53909e+06,850154 L3.80818e+06,850154"/>
</g>

<g fill="#7a0403" fill-opacity="1" stroke="none" transform="matrix(5.09299e-05,0,0,5.03419e-05,-3.08368,-17.3782)"
font-family="Helvetica" font-size="44" font-weight="700" font-style="normal" 
>
<path vector-effect="none" fill-rule="evenodd" d="M1.98091e+06,850000 L1.98091e+06,850956 L2.71182e+06,850956 L2.71182e+06,850000 L1.98091e+06,850000"/>
</g>

<g fill="#7a0403" fill-opacity="1" stroke="none" transform="matrix(5.09299e-05,0,0,5.03419e-05,-3.08368,-17.3782)"
font-family="Helvetica" font-size="44" font-weight="700" font-style="normal" 
>
<path vector-effect="none" fill-rule="evenodd" d="M2.89455e+06,850000 L2.89455e+06,850590 L3.62545e+06,850590 L3.62545e+06,850000 L2.89455e+06,850000"/>
</g>

<g fill="#7a0403" fill-opacity="1" stroke="none" transform="matrix(5.09299e-05,0,0,5.03419e-05,-3.08368,-17.3782)"
font-family="Helvetica" font-size="44" font-weight="700" font-style="normal" 
>
<path vector-effect="none" fill-rule="evenodd" d="M3.80818e+06,850000 L3.80818e+06,850154 L4.53909e+06,850154 L4.53909e+06,850000 L3.80818e+06,850000"/>
</g>

<g fill="#212121" fill-opacity="1" stroke="#212121" stroke-opacity="1" stroke-width="1" stroke-linecap="square" stroke-linejoin="round" transform="matrix(0.509299,0,0,0.503419,-3.08368,-17.3782)"
font-family="Helvetica" font-size="44" font-weight="700" font-style="normal" 
>
<polyline fill="none" vector-effect="none" points="125,988 527,988 " />
<polyline fill="none" vector-effect="none" points="125,85 527,85 " />
<polyline fill="none" vector-effect="none" points="234.636,988 234.636,978.97 " />
<polyline fill="none" vector-effect="none" points="234.636,94.03 234.636,85 " />
<polyline fill="none" vector-effect="none" points="326,988 326,978.97 " />
<polyline fill="none" vector-effect="none" points="326,94.03 326,85 " />
<polyline fill="none" vector-effect="none" points="417.364,988 417.364,978.97 " />
<polyline fill="none" vector-effect="none" points="417.364,94.03 417.364,85 " />
</g>

<g fill="#212121" fill-opacity="1" stroke="#212121" stroke-opacity="1" stroke-width="1" stroke-linecap="square" stroke-linejoin="bevel" transform="matrix(0.441066,-0.251709,0.254649,0.435973,40.0669,547.632)"
font-family="Helvetica" font-size="40" font-weight="400" font-style="normal" 
>
<text fill="#212121" fill-opacity="1" stroke="none" xml:space="preserve" x="0" y="-0.203125" font-family="Helvetica" font-size="40" font-weight="400" font-style="normal" 
 >Uninfected</text>
</g>

<g fill="#212121" fill-opacity="1" stroke="#212121" stroke-opacity="1" stroke-width="1" stroke-linecap="square" stroke-linejoin="bevel" transform="matrix(0.441066,-0.251709,0.254649,0.435973,113.944,532.026)"
font-family="Helvetica" font-size="40" font-weight="400" font-style="normal" 
>
<text fill="#212121" fill-opacity="1" stroke="none" xml:space="preserve" x="0" y="-0.203125" font-family="Helvetica" font-size="40" font-weight="400" font-style="normal" 
 >ST1.75</text>
</g>

<g fill="#212121" fill-opacity="1" stroke="#212121" stroke-opacity="1" stroke-width="1" stroke-linecap="square" stroke-linejoin="bevel" transform="matrix(0.441066,-0.251709,0.254649,0.435973,160.476,532.026)"
font-family="Helvetica" font-size="40" font-weight="400" font-style="normal" 
>
<text fill="#212121" fill-opacity="1" stroke="none" xml:space="preserve" x="0" y="-0.203125" font-family="Helvetica" font-size="40" font-weight="400" font-style="normal" 
 >ST1.12</text>
</g>

<g fill="#212121" fill-opacity="1" stroke="#212121" stroke-opacity="1" stroke-width="1" stroke-linecap="square" stroke-linejoin="bevel" transform="matrix(0,-0.503419,0.509299,0,17.7976,350.621)"
font-family="Helvetica" font-size="44" font-weight="400" font-style="normal" 
>
<text fill="#212121" fill-opacity="1" stroke="none" xml:space="preserve" x="0" y="-0.125" font-family="Helvetica" font-size="44" font-weight="400" font-style="normal" 
 >Relative abundance</text>
</g>

<g fill="#212121" fill-opacity="1" stroke="#212121" stroke-opacity="1" stroke-width="1" stroke-linecap="square" stroke-linejoin="round" transform="matrix(0.509299,0,0,0.503419,-3.08368,-17.3782)"
font-family="Helvetica" font-size="44" font-weight="400" font-style="normal" 
>
<polyline fill="none" vector-effect="none" points="125,988 125,85 " />
<polyline fill="none" vector-effect="none" points="527,988 527,85 " />
<polyline fill="none" vector-effect="none" points="125,988 134.03,988 " />
<polyline fill="none" vector-effect="none" points="517.97,988 527,988 " />
<polyline fill="none" vector-effect="none" points="125,897.7 134.03,897.7 " />
<polyline fill="none" vector-effect="none" points="517.97,897.7 527,897.7 " />
<polyline fill="none" vector-effect="none" points="125,807.4 134.03,807.4 " />
<polyline fill="none" vector-effect="none" points="517.97,807.4 527,807.4 " />
<polyline fill="none" vector-effect="none" points="125,717.1 134.03,717.1 " />
<polyline fill="none" vector-effect="none" points="517.97,717.1 527,717.1 " />
<polyline fill="none" vector-effect="none" points="125,626.8 134.03,626.8 " />
<polyline fill="none" vector-effect="none" points="517.97,626.8 527,626.8 " />
<polyline fill="none" vector-effect="none" points="125,536.5 134.03,536.5 " />
<polyline fill="none" vector-effect="none" points="517.97,536.5 527,536.5 " />
<polyline fill="none" vector-effect="none" points="125,446.2 134.03,446.2 " />
<polyline fill="none" vector-effect="none" points="517.97,446.2 527,446.2 " />
<polyline fill="none" vector-effect="none" points="125,355.9 134.03,355.9 " />
<polyline fill="none" vector-effect="none" points="517.97,355.9 527,355.9 " />
<polyline fill="none" vector-effect="none" points="125,265.6 134.03,265.6 " />
<polyline fill="none" vector-effect="none" points="517.97,265.6 527,265.6 " />
<polyline fill="none" vector-effect="none" points="125,175.3 134.03,175.3 " />
<polyline fill="none" vector-effect="none" points="517.97,175.3 527,175.3 " />
<polyline fill="none" vector-effect="none" points="125,85 134.03,85 " />
<polyline fill="none" vector-effect="none" points="517.97,85 527,85 " />
</g>

<g fill="#212121" fill-opacity="1" stroke="#212121" stroke-opacity="1" stroke-width="1" stroke-linecap="square" stroke-linejoin="bevel" transform="matrix(0.509299,0,0,0.503419,43.2625,485.537)"
font-family="Helvetica" font-size="40" font-weight="400" font-style="normal" 
>
<text fill="#212121" fill-opacity="1" stroke="none" xml:space="preserve" x="0" y="-0.203125" font-family="Helvetica" font-size="40" font-weight="400" font-style="normal" 
 >0</text>
</g>

<g fill="#212121" fill-opacity="1" stroke="#212121" stroke-opacity="1" stroke-width="1" stroke-linecap="square" stroke-linejoin="bevel" transform="matrix(0.509299,0,0,0.503419,25.9463,440.078)"
font-family="Helvetica" font-size="40" font-weight="400" font-style="normal" 
>
<text fill="#212121" fill-opacity="1" stroke="none" xml:space="preserve" x="0" y="-0.203125" font-family="Helvetica" font-size="40" font-weight="400" font-style="normal" 
 >0.1</text>
</g>

<g fill="#212121" fill-opacity="1" stroke="#212121" stroke-opacity="1" stroke-width="1" stroke-linecap="square" stroke-linejoin="bevel" transform="matrix(0.509299,0,0,0.503419,25.9463,394.62)"
font-family="Helvetica" font-size="40" font-weight="400" font-style="normal" 
>
<text fill="#212121" fill-opacity="1" stroke="none" xml:space="preserve" x="0" y="-0.203125" font-family="Helvetica" font-size="40" font-weight="400" font-style="normal" 
 >0.2</text>
</g>

<g fill="#212121" fill-opacity="1" stroke="#212121" stroke-opacity="1" stroke-width="1" stroke-linecap="square" stroke-linejoin="bevel" transform="matrix(0.509299,0,0,0.503419,25.9463,349.161)"
font-family="Helvetica" font-size="40" font-weight="400" font-style="normal" 
>
<text fill="#212121" fill-opacity="1" stroke="none" xml:space="preserve" x="0" y="-0.203125" font-family="Helvetica" font-size="40" font-weight="400" font-style="normal" 
 >0.3</text>
</g>

<g fill="#212121" fill-opacity="1" stroke="#212121" stroke-opacity="1" stroke-width="1" stroke-linecap="square" stroke-linejoin="bevel" transform="matrix(0.509299,0,0,0.503419,25.9463,303.702)"
font-family="Helvetica" font-size="40" font-weight="400" font-style="normal" 
>
<text fill="#212121" fill-opacity="1" stroke="none" xml:space="preserve" x="0" y="-0.203125" font-family="Helvetica" font-size="40" font-weight="400" font-style="normal" 
 >0.4</text>
</g>

<g fill="#212121" fill-opacity="1" stroke="#212121" stroke-opacity="1" stroke-width="1" stroke-linecap="square" stroke-linejoin="bevel" transform="matrix(0.509299,0,0,0.503419,25.9463,258.244)"
font-family="Helvetica" font-size="40" font-weight="400" font-style="normal" 
>
<text fill="#212121" fill-opacity="1" stroke="none" xml:space="preserve" x="0" y="-0.203125" font-family="Helvetica" font-size="40" font-weight="400" font-style="normal" 
 >0.5</text>
</g>

<g fill="#212121" fill-opacity="1" stroke="#212121" stroke-opacity="1" stroke-width="1" stroke-linecap="square" stroke-linejoin="bevel" transform="matrix(0.509299,0,0,0.503419,25.9463,212.785)"
font-family="Helvetica" font-size="40" font-weight="400" font-style="normal" 
>
<text fill="#212121" fill-opacity="1" stroke="none" xml:space="preserve" x="0" y="-0.203125" font-family="Helvetica" font-size="40" font-weight="400" font-style="normal" 
 >0.6</text>
</g>

<g fill="#212121" fill-opacity="1" stroke="#212121" stroke-opacity="1" stroke-width="1" stroke-linecap="square" stroke-linejoin="bevel" transform="matrix(0.509299,0,0,0.503419,25.9463,167.326)"
font-family="Helvetica" font-size="40" font-weight="400" font-style="normal" 
>
<text fill="#212121" fill-opacity="1" stroke="none" xml:space="preserve" x="0" y="-0.203125" font-family="Helvetica" font-size="40" font-weight="400" font-style="normal" 
 >0.7</text>
</g>

<g fill="#212121" fill-opacity="1" stroke="#212121" stroke-opacity="1" stroke-width="1" stroke-linecap="square" stroke-linejoin="bevel" transform="matrix(0.509299,0,0,0.503419,25.9463,121.867)"
font-family="Helvetica" font-size="40" font-weight="400" font-style="normal" 
>
<text fill="#212121" fill-opacity="1" stroke="none" xml:space="preserve" x="0" y="-0.203125" font-family="Helvetica" font-size="40" font-weight="400" font-style="normal" 
 >0.8</text>
</g>

<g fill="#212121" fill-opacity="1" stroke="#212121" stroke-opacity="1" stroke-width="1" stroke-linecap="square" stroke-linejoin="bevel" transform="matrix(0.509299,0,0,0.503419,25.9463,76.4087)"
font-family="Helvetica" font-size="40" font-weight="400" font-style="normal" 
>
<text fill="#212121" fill-opacity="1" stroke="none" xml:space="preserve" x="0" y="-0.203125" font-family="Helvetica" font-size="40" font-weight="400" font-style="normal" 
 >0.9</text>
</g>

<g fill="#212121" fill-opacity="1" stroke="#212121" stroke-opacity="1" stroke-width="1" stroke-linecap="square" stroke-linejoin="bevel" transform="matrix(0.509299,0,0,0.503419,43.2625,30.95)"
font-family="Helvetica" font-size="40" font-weight="400" font-style="normal" 
>
<text fill="#212121" fill-opacity="1" stroke="none" xml:space="preserve" x="0" y="-0.203125" font-family="Helvetica" font-size="40" font-weight="400" font-style="normal" 
 >1</text>
</g>

<g fill="#ffffff" fill-opacity="1" stroke="none" transform="matrix(5.09299e-05,0,0,5.03419e-05,-3.08368,-17.3782)"
font-family="Helvetica" font-size="40" font-weight="400" font-style="normal" 
>
<path vector-effect="none" fill-rule="evenodd" d="M5.43e+06,3.79e+06 L5.43e+06,6.93e+06 L9.5e+06,6.93e+06 L9.5e+06,3.79e+06 L5.43e+06,3.79e+06"/>
</g>

<g fill="#30123b" fill-opacity="1" stroke="none" transform="matrix(5.09299e-05,0,0,5.03419e-05,-3.08368,-17.3782)"
font-family="Helvetica" font-size="40" font-weight="400" font-style="normal" 
>
<path vector-effect="none" fill-rule="evenodd" d="M5.48993e+06,6.69875e+06 L5.48993e+06,6.87125e+06 L6.08919e+06,6.87125e+06 L6.08919e+06,6.69875e+06 L5.48993e+06,6.69875e+06"/>
</g>

<g fill="#434fbb" fill-opacity="1" stroke="none" transform="matrix(5.09299e-05,0,0,5.03419e-05,-3.08368,-17.3782)"
font-family="Helvetica" font-size="40" font-weight="400" font-style="normal" 
>
<path vector-effect="none" fill-rule="evenodd" d="M5.48993e+06,6.46125e+06 L5.48993e+06,6.63375e+06 L6.08919e+06,6.63375e+06 L6.08919e+06,6.46125e+06 L5.48993e+06,6.46125e+06"/>
</g>

<g fill="#4686fa" fill-opacity="1" stroke="none" transform="matrix(5.09299e-05,0,0,5.03419e-05,-3.08368,-17.3782)"
font-family="Helvetica" font-size="40" font-weight="400" font-style="normal" 
>
<path vector-effect="none" fill-rule="evenodd" d="M5.48993e+06,6.22375e+06 L5.48993e+06,6.39625e+06 L6.08919e+06,6.39625e+06 L6.08919e+06,6.22375e+06 L5.48993e+06,6.22375e+06"/>
</g>

<g fill="#29bbec" fill-opacity="1" stroke="none" transform="matrix(5.09299e-05,0,0,5.03419e-05,-3.08368,-17.3782)"
font-family="Helvetica" font-size="40" font-weight="400" font-style="normal" 
>
<path vector-effect="none" fill-rule="evenodd" d="M5.48993e+06,5.98625e+06 L5.48993e+06,6.15875e+06 L6.08919e+06,6.15875e+06 L6.08919e+06,5.98625e+06 L5.48993e+06,5.98625e+06"/>
</g>

<g fill="#1ae4b6" fill-opacity="1" stroke="none" transform="matrix(5.09299e-05,0,0,5.03419e-05,-3.08368,-17.3782)"
font-family="Helvetica" font-size="40" font-weight="400" font-style="normal" 
>
<path vector-effect="none" fill-rule="evenodd" d="M5.48993e+06,5.74875e+06 L5.48993e+06,5.92125e+06 L6.08919e+06,5.92125e+06 L6.08919e+06,5.74875e+06 L5.48993e+06,5.74875e+06"/>
</g>

<g fill="#56fb75" fill-opacity="1" stroke="none" transform="matrix(5.09299e-05,0,0,5.03419e-05,-3.08368,-17.3782)"
font-family="Helvetica" font-size="40" font-weight="400" font-style="normal" 
>
<path vector-effect="none" fill-rule="evenodd" d="M5.48993e+06,5.51125e+06 L5.48993e+06,5.68375e+06 L6.08919e+06,5.68375e+06 L6.08919e+06,5.51125e+06 L5.48993e+06,5.51125e+06"/>
</g>

<g fill="#a3fd3c" fill-opacity="1" stroke="none" transform="matrix(5.09299e-05,0,0,5.03419e-05,-3.08368,-17.3782)"
font-family="Helvetica" font-size="40" font-weight="400" font-style="normal" 
>
<path vector-effect="none" fill-rule="evenodd" d="M5.48993e+06,5.27375e+06 L5.48993e+06,5.44625e+06 L6.08919e+06,5.44625e+06 L6.08919e+06,5.27375e+06 L5.48993e+06,5.27375e+06"/>
</g>

<g fill="#d8e436" fill-opacity="1" stroke="none" transform="matrix(5.09299e-05,0,0,5.03419e-05,-3.08368,-17.3782)"
font-family="Helvetica" font-size="40" font-weight="400" font-style="normal" 
>
<path vector-effect="none" fill-rule="evenodd" d="M5.48993e+06,5.03625e+06 L5.48993e+06,5.20875e+06 L6.08919e+06,5.20875e+06 L6.08919e+06,5.03625e+06 L5.48993e+06,5.03625e+06"/>
</g>

<g fill="#faba39" fill-opacity="1" stroke="none" transform="matrix(5.09299e-05,0,0,5.03419e-05,-3.08368,-17.3782)"
font-family="Helvetica" font-size="40" font-weight="400" font-style="normal" 
>
<path vector-effect="none" fill-rule="evenodd" d="M5.48993e+06,4.79875e+06 L5.48993e+06,4.97125e+06 L6.08919e+06,4.97125e+06 L6.08919e+06,4.79875e+06 L5.48993e+06,4.79875e+06"/>
</g>

<g fill="#fb8022" fill-opacity="1" stroke="none" transform="matrix(5.09299e-05,0,0,5.03419e-05,-3.08368,-17.3782)"
font-family="Helvetica" font-size="40" font-weight="400" font-style="normal" 
>
<path vector-effect="none" fill-rule="evenodd" d="M5.48993e+06,4.56125e+06 L5.48993e+06,4.73375e+06 L6.08919e+06,4.73375e+06 L6.08919e+06,4.56125e+06 L5.48993e+06,4.56125e+06"/>
</g>

<g fill="#e4460b" fill-opacity="1" stroke="none" transform="matrix(5.09299e-05,0,0,5.03419e-05,-3.08368,-17.3782)"
font-family="Helvetica" font-size="40" font-weight="400" font-style="normal" 
>
<path vector-effect="none" fill-rule="evenodd" d="M5.48993e+06,4.32375e+06 L5.48993e+06,4.49625e+06 L6.08919e+06,4.49625e+06 L6.08919e+06,4.32375e+06 L5.48993e+06,4.32375e+06"/>
</g>

<g fill="#ba1f02" fill-opacity="1" stroke="none" transform="matrix(5.09299e-05,0,0,5.03419e-05,-3.08368,-17.3782)"
font-family="Helvetica" font-size="40" font-weight="400" font-style="normal" 
>
<path vector-effect="none" fill-rule="evenodd" d="M5.48993e+06,4.08625e+06 L5.48993e+06,4.25875e+06 L6.08919e+06,4.25875e+06 L6.08919e+06,4.08625e+06 L5.48993e+06,4.08625e+06"/>
</g>

<g fill="#7a0403" fill-opacity="1" stroke="none" transform="matrix(5.09299e-05,0,0,5.03419e-05,-3.08368,-17.3782)"
font-family="Helvetica" font-size="40" font-weight="400" font-style="normal" 
>
<path vector-effect="none" fill-rule="evenodd" d="M5.48993e+06,3.84875e+06 L5.48993e+06,4.02125e+06 L6.08919e+06,4.02125e+06 L6.08919e+06,3.84875e+06 L5.48993e+06,3.84875e+06"/>
</g>

<g fill="#212121" fill-opacity="1" stroke="#212121" stroke-opacity="1" stroke-width="1" stroke-linecap="square" stroke-linejoin="bevel" transform="matrix(0.509299,0,0,0.503419,309.327,183.234)"
font-family="Helvetica" font-size="20" font-weight="400" font-style="normal" 
>
<text fill="#212121" fill-opacity="1" stroke="none" xml:space="preserve" x="0" y="0.390625" font-family="Helvetica" font-size="20" font-weight="400" font-style="normal" 
 >Other</text>
</g>

<g fill="#212121" fill-opacity="1" stroke="#212121" stroke-opacity="1" stroke-width="1" stroke-linecap="square" stroke-linejoin="bevel" transform="matrix(0.509299,0,0,0.503419,309.327,195.19)"
font-family="Helvetica" font-size="20" font-weight="400" font-style="normal" 
>
<text fill="#212121" fill-opacity="1" stroke="none" xml:space="preserve" x="0" y="0.390625" font-family="Helvetica" font-size="20" font-weight="400" font-style="normal" 
 >unclassified_Muribaculaceae_ASV_8</text>
</g>

<g fill="#212121" fill-opacity="1" stroke="#212121" stroke-opacity="1" stroke-width="1" stroke-linecap="square" stroke-linejoin="bevel" transform="matrix(0.509299,0,0,0.503419,309.327,207.147)"
font-family="Helvetica" font-size="20" font-weight="400" font-style="normal" 
>
<text fill="#212121" fill-opacity="1" stroke="none" xml:space="preserve" x="0" y="0.390625" font-family="Helvetica" font-size="20" font-weight="400" font-style="normal" 
 >Parasutterella</text>
</g>

<g fill="#212121" fill-opacity="1" stroke="#212121" stroke-opacity="1" stroke-width="1" stroke-linecap="square" stroke-linejoin="bevel" transform="matrix(0.509299,0,0,0.503419,309.327,219.103)"
font-family="Helvetica" font-size="20" font-weight="400" font-style="normal" 
>
<text fill="#212121" fill-opacity="1" stroke="none" xml:space="preserve" x="0" y="0.390625" font-family="Helvetica" font-size="20" font-weight="400" font-style="normal" 
 >unclassified_Muribaculaceae_ASV_6</text>
</g>

<g fill="#212121" fill-opacity="1" stroke="#212121" stroke-opacity="1" stroke-width="1" stroke-linecap="square" stroke-linejoin="bevel" transform="matrix(0.509299,0,0,0.503419,309.327,231.059)"
font-family="Helvetica" font-size="20" font-weight="400" font-style="normal" 
>
<text fill="#212121" fill-opacity="1" stroke="none" xml:space="preserve" x="0" y="0.390625" font-family="Helvetica" font-size="20" font-weight="400" font-style="normal" 
 >Clostridioides</text>
</g>

<g fill="#212121" fill-opacity="1" stroke="#212121" stroke-opacity="1" stroke-width="1" stroke-linecap="square" stroke-linejoin="bevel" transform="matrix(0.509299,0,0,0.503419,309.327,243.015)"
font-family="Helvetica" font-size="20" font-weight="400" font-style="normal" 
>
<text fill="#212121" fill-opacity="1" stroke="none" xml:space="preserve" x="0" y="0.390625" font-family="Helvetica" font-size="20" font-weight="400" font-style="normal" 
 >LachnospiraceaeNK4A136Group</text>
</g>

<g fill="#212121" fill-opacity="1" stroke="#212121" stroke-opacity="1" stroke-width="1" stroke-linecap="square" stroke-linejoin="bevel" transform="matrix(0.509299,0,0,0.503419,309.327,254.971)"
font-family="Helvetica" font-size="20" font-weight="400" font-style="normal" 
>
<text fill="#212121" fill-opacity="1" stroke="none" xml:space="preserve" x="0" y="0.390625" font-family="Helvetica" font-size="20" font-weight="400" font-style="normal" 
 >Turicibacter</text>
</g>

<g fill="#212121" fill-opacity="1" stroke="#212121" stroke-opacity="1" stroke-width="1" stroke-linecap="square" stroke-linejoin="bevel" transform="matrix(0.509299,0,0,0.503419,309.327,266.928)"
font-family="Helvetica" font-size="20" font-weight="400" font-style="normal" 
>
<text fill="#212121" fill-opacity="1" stroke="none" xml:space="preserve" x="0" y="0.390625" font-family="Helvetica" font-size="20" font-weight="400" font-style="normal" 
 >Akkermansia</text>
</g>

<g fill="#212121" fill-opacity="1" stroke="#212121" stroke-opacity="1" stroke-width="1" stroke-linecap="square" stroke-linejoin="bevel" transform="matrix(0.509299,0,0,0.503419,309.327,278.884)"
font-family="Helvetica" font-size="20" font-weight="400" font-style="normal" 
>
<text fill="#212121" fill-opacity="1" stroke="none" xml:space="preserve" x="0" y="0.390625" font-family="Helvetica" font-size="20" font-weight="400" font-style="normal" 
 >Enterococcus</text>
</g>

<g fill="#212121" fill-opacity="1" stroke="#212121" stroke-opacity="1" stroke-width="1" stroke-linecap="square" stroke-linejoin="bevel" transform="matrix(0.509299,0,0,0.503419,309.327,290.84)"
font-family="Helvetica" font-size="20" font-weight="400" font-style="normal" 
>
<text fill="#212121" fill-opacity="1" stroke="none" xml:space="preserve" x="0" y="0.390625" font-family="Helvetica" font-size="20" font-weight="400" font-style="normal" 
 >unclassified_Muribaculaceae_ASV_4</text>
</g>

<g fill="#212121" fill-opacity="1" stroke="#212121" stroke-opacity="1" stroke-width="1" stroke-linecap="square" stroke-linejoin="bevel" transform="matrix(0.509299,0,0,0.503419,309.327,302.796)"
font-family="Helvetica" font-size="20" font-weight="400" font-style="normal" 
>
<text fill="#212121" fill-opacity="1" stroke="none" xml:space="preserve" x="0" y="0.390625" font-family="Helvetica" font-size="20" font-weight="400" font-style="normal" 
 >Bacteroides</text>
</g>

<g fill="#212121" fill-opacity="1" stroke="#212121" stroke-opacity="1" stroke-width="1" stroke-linecap="square" stroke-linejoin="bevel" transform="matrix(0.509299,0,0,0.503419,309.327,314.752)"
font-family="Helvetica" font-size="20" font-weight="400" font-style="normal" 
>
<text fill="#212121" fill-opacity="1" stroke="none" xml:space="preserve" x="0" y="0.390625" font-family="Helvetica" font-size="20" font-weight="400" font-style="normal" 
 >Other</text>
</g>

<g fill="#212121" fill-opacity="1" stroke="#212121" stroke-opacity="1" stroke-width="1" stroke-linecap="square" stroke-linejoin="bevel" transform="matrix(0.509299,0,0,0.503419,309.327,326.708)"
font-family="Helvetica" font-size="20" font-weight="400" font-style="normal" 
>
<text fill="#212121" fill-opacity="1" stroke="none" xml:space="preserve" x="0" y="0.390625" font-family="Helvetica" font-size="20" font-weight="400" font-style="normal" 
 >Lactobacillus</text>
</g>

<g fill="none" stroke="#212121" stroke-opacity="1" stroke-width="1" stroke-linecap="butt" stroke-linejoin="miter" stroke-miterlimit="2" transform="matrix(0.509299,0,0,0.503419,-3.08368,-17.3782)"
font-family="Helvetica" font-size="20" font-weight="400" font-style="normal" 
>
<path vector-effect="none" fill-rule="evenodd" d="M543,693 L543,379 L950,379 L950,693 L543,693"/>
</g>
</g>
</svg>
