<?xml version="1.0" encoding="UTF-8" standalone="no"?>
<svg width="170.744mm" height="192.969mm"
 viewBox="0 0 484 547"
 xmlns="http://www.w3.org/2000/svg" xmlns:xlink="http://www.w3.org/1999/xlink"  version="1.2" baseProfile="tiny">
<title>Qt SVG Document</title>
<desc>MATLAB, The MathWorks, Inc. Version 25.2.0.3042426 R2025b Update 1</desc>
<defs>
</defs>
<g fill="none" stroke="black" stroke-width="1" fill-rule="evenodd" stroke-linecap="square" stroke-linejoin="bevel" >

<g fill="#ffffff" fill-opacity="1" stroke="none" transform="matrix(0.508192,0,0,0.503419,-3.07373,-17.3782)"
font-family=".AppleSystemUIFont" font-size="13" font-weight="400" font-style="normal" 
>
<path vector-effect="none" fill-rule="evenodd" d="M5,34 L958,34 L958,1121 L5,1121 L5,34"/>
</g>

<g fill="#ffffff" fill-opacity="1" stroke="none" transform="matrix(5.08192e-05,0,0,5.03419e-05,-3.07373,-17.3782)"
font-family=".AppleSystemUIFont" font-size="13" font-weight="400" font-style="normal" 
>
<path vector-effect="none" fill-rule="evenodd" d="M1.25e+06,850000 L1.25e+06,9.88e+06 L5.32e+06,9.88e+06 L5.32e+06,850000 L1.25e+06,850000"/>
</g>

<g fill="#212121" fill-opacity="1" stroke="#212121" stroke-opacity="1" stroke-width="1" stroke-linecap="square" stroke-linejoin="bevel" transform="matrix(0.508192,0,0,0.503419,134.138,17.6094)"
font-family="Helvetica" font-size="44" font-weight="700" font-style="normal" 
>
<text fill="#212121" fill-opacity="1" stroke="none" xml:space="preserve" x="0" y="-0.125" font-family="Helvetica" font-size="44" font-weight="700" font-style="normal" 
 >Day 7</text>
</g>

<g fill="#212121" fill-opacity="1" stroke="#212121" stroke-opacity="1" stroke-width="1" stroke-linecap="butt" stroke-linejoin="round" transform="matrix(0.508192,0,0,0.503419,-3.07373,-17.3782)"
font-family="Helvetica" font-size="44" font-weight="700" font-style="normal" 
>
<polyline fill="none" vector-effect="none" points="125,988 532,988 " />
</g>

<g fill="#30123b" fill-opacity="1" stroke="none" transform="matrix(5.08192e-05,0,0,5.03419e-05,-3.07373,-17.3782)"
font-family="Helvetica" font-size="44" font-weight="700" font-style="normal" 
>
<path vector-effect="none" fill-rule="evenodd" d="M1.99e+06,8.71468e+06 L1.99e+06,9.88e+06 L2.73e+06,9.88e+06 L2.73e+06,8.71468e+06 L1.99e+06,8.71468e+06"/>
</g>

<g fill="#30123b" fill-opacity="1" stroke="none" transform="matrix(5.08192e-05,0,0,5.03419e-05,-3.07373,-17.3782)"
font-family="Helvetica" font-size="44" font-weight="700" font-style="normal" 
>
<path vector-effect="none" fill-rule="evenodd" d="M2.915e+06,8.10545e+06 L2.915e+06,9.88e+06 L3.655e+06,9.88e+06 L3.655e+06,8.10545e+06 L2.915e+06,8.10545e+06"/>
</g>

<g fill="#30123b" fill-opacity="1" stroke="none" transform="matrix(5.08192e-05,0,0,5.03419e-05,-3.07373,-17.3782)"
font-family="Helvetica" font-size="44" font-weight="700" font-style="normal" 
>
<path vector-effect="none" fill-rule="evenodd" d="M3.84e+06,9.41307e+06 L3.84e+06,9.88e+06 L4.58e+06,9.88e+06 L4.58e+06,9.41307e+06 L3.84e+06,9.41307e+06"/>
</g>

<g fill="#434fbb" fill-opacity="1" stroke="none" transform="matrix(5.08192e-05,0,0,5.03419e-05,-3.07373,-17.3782)"
font-family="Helvetica" font-size="44" font-weight="700" font-style="normal" 
>
<path vector-effect="none" fill-rule="evenodd" d="M1.99e+06,8.05657e+06 L1.99e+06,8.71468e+06 L2.73e+06,8.71468e+06 L2.73e+06,8.05657e+06 L1.99e+06,8.05657e+06"/>
</g>

<g fill="#434fbb" fill-opacity="1" stroke="none" transform="matrix(5.08192e-05,0,0,5.03419e-05,-3.07373,-17.3782)"
font-family="Helvetica" font-size="44" font-weight="700" font-style="normal" 
>
<path vector-effect="none" fill-rule="evenodd" d="M2.915e+06,6.84298e+06 L2.915e+06,8.10545e+06 L3.655e+06,8.10545e+06 L3.655e+06,6.84298e+06 L2.915e+06,6.84298e+06"/>
</g>

<g fill="#434fbb" fill-opacity="1" stroke="none" transform="matrix(5.08192e-05,0,0,5.03419e-05,-3.07373,-17.3782)"
font-family="Helvetica" font-size="44" font-weight="700" font-style="normal" 
>
<path vector-effect="none" fill-rule="evenodd" d="M3.84e+06,8.07219e+06 L3.84e+06,9.41307e+06 L4.58e+06,9.41307e+06 L4.58e+06,8.07219e+06 L3.84e+06,8.07219e+06"/>
</g>

<g fill="#4686fa" fill-opacity="1" stroke="none" transform="matrix(5.08192e-05,0,0,5.03419e-05,-3.07373,-17.3782)"
font-family="Helvetica" font-size="44" font-weight="700" font-style="normal" 
>
<path vector-effect="none" fill-rule="evenodd" d="M1.99e+06,5.7634e+06 L1.99e+06,8.05657e+06 L2.73e+06,8.05657e+06 L2.73e+06,5.7634e+06 L1.99e+06,5.7634e+06"/>
</g>

<g fill="#4686fa" fill-opacity="1" stroke="none" transform="matrix(5.08192e-05,0,0,5.03419e-05,-3.07373,-17.3782)"
font-family="Helvetica" font-size="44" font-weight="700" font-style="normal" 
>
<path vector-effect="none" fill-rule="evenodd" d="M2.915e+06,5.43247e+06 L2.915e+06,6.84298e+06 L3.655e+06,6.84298e+06 L3.655e+06,5.43247e+06 L2.915e+06,5.43247e+06"/>
</g>

<g fill="#4686fa" fill-opacity="1" stroke="none" transform="matrix(5.08192e-05,0,0,5.03419e-05,-3.07373,-17.3782)"
font-family="Helvetica" font-size="44" font-weight="700" font-style="normal" 
>
<path vector-effect="none" fill-rule="evenodd" d="M3.84e+06,6.54902e+06 L3.84e+06,8.07219e+06 L4.58e+06,8.07219e+06 L4.58e+06,6.54902e+06 L3.84e+06,6.54902e+06"/>
</g>

<g fill="#29bbec" fill-opacity="1" stroke="none" transform="matrix(5.08192e-05,0,0,5.03419e-05,-3.07373,-17.3782)"
font-family="Helvetica" font-size="44" font-weight="700" font-style="normal" 
>
<path vector-effect="none" fill-rule="evenodd" d="M1.99e+06,5.76293e+06 L1.99e+06,5.7634e+06 L2.73e+06,5.7634e+06 L2.73e+06,5.76293e+06 L1.99e+06,5.76293e+06"/>
</g>

<g fill="#29bbec" fill-opacity="1" stroke="none" transform="matrix(5.08192e-05,0,0,5.03419e-05,-3.07373,-17.3782)"
font-family="Helvetica" font-size="44" font-weight="700" font-style="normal" 
>
<path vector-effect="none" fill-rule="evenodd" d="M2.915e+06,5.43128e+06 L2.915e+06,5.43247e+06 L3.655e+06,5.43247e+06 L3.655e+06,5.43128e+06 L2.915e+06,5.43128e+06"/>
</g>

<g fill="#29bbec" fill-opacity="1" stroke="none" transform="matrix(5.08192e-05,0,0,5.03419e-05,-3.07373,-17.3782)"
font-family="Helvetica" font-size="44" font-weight="700" font-style="normal" 
>
<path vector-effect="none" fill-rule="evenodd" d="M3.84e+06,6.54886e+06 L3.84e+06,6.54902e+06 L4.58e+06,6.54902e+06 L4.58e+06,6.54886e+06 L3.84e+06,6.54886e+06"/>
</g>

<g fill="#1ae4b6" fill-opacity="1" stroke="none" transform="matrix(5.08192e-05,0,0,5.03419e-05,-3.07373,-17.3782)"
font-family="Helvetica" font-size="44" font-weight="700" font-style="normal" 
>
<path vector-effect="none" fill-rule="evenodd" d="M1.99e+06,5.58073e+06 L1.99e+06,5.76293e+06 L2.73e+06,5.76293e+06 L2.73e+06,5.58073e+06 L1.99e+06,5.58073e+06"/>
</g>

<g fill="#1ae4b6" fill-opacity="1" stroke="none" transform="matrix(5.08192e-05,0,0,5.03419e-05,-3.07373,-17.3782)"
font-family="Helvetica" font-size="44" font-weight="700" font-style="normal" 
>
<path vector-effect="none" fill-rule="evenodd" d="M2.915e+06,5.32621e+06 L2.915e+06,5.43128e+06 L3.655e+06,5.43128e+06 L3.655e+06,5.32621e+06 L2.915e+06,5.32621e+06"/>
</g>

<g fill="#1ae4b6" fill-opacity="1" stroke="none" transform="matrix(5.08192e-05,0,0,5.03419e-05,-3.07373,-17.3782)"
font-family="Helvetica" font-size="44" font-weight="700" font-style="normal" 
>
<path vector-effect="none" fill-rule="evenodd" d="M3.84e+06,6.32177e+06 L3.84e+06,6.54886e+06 L4.58e+06,6.54886e+06 L4.58e+06,6.32177e+06 L3.84e+06,6.32177e+06"/>
</g>

<g fill="#56fb75" fill-opacity="1" stroke="none" transform="matrix(5.08192e-05,0,0,5.03419e-05,-3.07373,-17.3782)"
font-family="Helvetica" font-size="44" font-weight="700" font-style="normal" 
>
<path vector-effect="none" fill-rule="evenodd" d="M1.99e+06,3.60124e+06 L1.99e+06,5.58073e+06 L2.73e+06,5.58073e+06 L2.73e+06,3.60124e+06 L1.99e+06,3.60124e+06"/>
</g>

<g fill="#56fb75" fill-opacity="1" stroke="none" transform="matrix(5.08192e-05,0,0,5.03419e-05,-3.07373,-17.3782)"
font-family="Helvetica" font-size="44" font-weight="700" font-style="normal" 
>
<path vector-effect="none" fill-rule="evenodd" d="M2.915e+06,3.06853e+06 L2.915e+06,5.32621e+06 L3.655e+06,5.32621e+06 L3.655e+06,3.06853e+06 L2.915e+06,3.06853e+06"/>
</g>

<g fill="#56fb75" fill-opacity="1" stroke="none" transform="matrix(5.08192e-05,0,0,5.03419e-05,-3.07373,-17.3782)"
font-family="Helvetica" font-size="44" font-weight="700" font-style="normal" 
>
<path vector-effect="none" fill-rule="evenodd" d="M3.84e+06,3.39318e+06 L3.84e+06,6.32177e+06 L4.58e+06,6.32177e+06 L4.58e+06,3.39318e+06 L3.84e+06,3.39318e+06"/>
</g>

<g fill="#a3fd3c" fill-opacity="1" stroke="none" transform="matrix(5.08192e-05,0,0,5.03419e-05,-3.07373,-17.3782)"
font-family="Helvetica" font-size="44" font-weight="700" font-style="normal" 
>
<path vector-effect="none" fill-rule="evenodd" d="M1.99e+06,2.26543e+06 L1.99e+06,3.60124e+06 L2.73e+06,3.60124e+06 L2.73e+06,2.26543e+06 L1.99e+06,2.26543e+06"/>
</g>

<g fill="#a3fd3c" fill-opacity="1" stroke="none" transform="matrix(5.08192e-05,0,0,5.03419e-05,-3.07373,-17.3782)"
font-family="Helvetica" font-size="44" font-weight="700" font-style="normal" 
>
<path vector-effect="none" fill-rule="evenodd" d="M2.915e+06,2.21321e+06 L2.915e+06,3.06853e+06 L3.655e+06,3.06853e+06 L3.655e+06,2.21321e+06 L2.915e+06,2.21321e+06"/>
</g>

<g fill="#a3fd3c" fill-opacity="1" stroke="none" transform="matrix(5.08192e-05,0,0,5.03419e-05,-3.07373,-17.3782)"
font-family="Helvetica" font-size="44" font-weight="700" font-style="normal" 
>
<path vector-effect="none" fill-rule="evenodd" d="M3.84e+06,1.80534e+06 L3.84e+06,3.39318e+06 L4.58e+06,3.39318e+06 L4.58e+06,1.80534e+06 L3.84e+06,1.80534e+06"/>
</g>

<g fill="#d8e436" fill-opacity="1" stroke="none" transform="matrix(5.08192e-05,0,0,5.03419e-05,-3.07373,-17.3782)"
font-family="Helvetica" font-size="44" font-weight="700" font-style="normal" 
>
<path vector-effect="none" fill-rule="evenodd" d="M1.99e+06,2.15674e+06 L1.99e+06,2.26543e+06 L2.73e+06,2.26543e+06 L2.73e+06,2.15674e+06 L1.99e+06,2.15674e+06"/>
</g>

<g fill="#d8e436" fill-opacity="1" stroke="none" transform="matrix(5.08192e-05,0,0,5.03419e-05,-3.07373,-17.3782)"
font-family="Helvetica" font-size="44" font-weight="700" font-style="normal" 
>
<path vector-effect="none" fill-rule="evenodd" d="M2.915e+06,2.03338e+06 L2.915e+06,2.21321e+06 L3.655e+06,2.21321e+06 L3.655e+06,2.03338e+06 L2.915e+06,2.03338e+06"/>
</g>

<g fill="#d8e436" fill-opacity="1" stroke="none" transform="matrix(5.08192e-05,0,0,5.03419e-05,-3.07373,-17.3782)"
font-family="Helvetica" font-size="44" font-weight="700" font-style="normal" 
>
<path vector-effect="none" fill-rule="evenodd" d="M3.84e+06,1.52625e+06 L3.84e+06,1.80534e+06 L4.58e+06,1.80534e+06 L4.58e+06,1.52625e+06 L3.84e+06,1.52625e+06"/>
</g>

<g fill="#faba39" fill-opacity="1" stroke="none" transform="matrix(5.08192e-05,0,0,5.03419e-05,-3.07373,-17.3782)"
font-family="Helvetica" font-size="44" font-weight="700" font-style="normal" 
>
<path vector-effect="none" fill-rule="evenodd" d="M1.99e+06,2.15653e+06 L1.99e+06,2.15674e+06 L2.73e+06,2.15674e+06 L2.73e+06,2.15653e+06 L1.99e+06,2.15653e+06"/>
</g>

<g fill="#faba39" fill-opacity="1" stroke="none" transform="matrix(5.08192e-05,0,0,5.03419e-05,-3.07373,-17.3782)"
font-family="Helvetica" font-size="44" font-weight="700" font-style="normal" 
>
<path vector-effect="none" fill-rule="evenodd" d="M2.915e+06,1.65819e+06 L2.915e+06,2.03338e+06 L3.655e+06,2.03338e+06 L3.655e+06,1.65819e+06 L2.915e+06,1.65819e+06"/>
</g>

<g fill="#faba39" fill-opacity="1" stroke="none" transform="matrix(5.08192e-05,0,0,5.03419e-05,-3.07373,-17.3782)"
font-family="Helvetica" font-size="44" font-weight="700" font-style="normal" 
>
<path vector-effect="none" fill-rule="evenodd" d="M3.84e+06,1.03795e+06 L3.84e+06,1.52625e+06 L4.58e+06,1.52625e+06 L4.58e+06,1.03795e+06 L3.84e+06,1.03795e+06"/>
</g>

<g fill="#fb8022" fill-opacity="1" stroke="none" transform="matrix(5.08192e-05,0,0,5.03419e-05,-3.07373,-17.3782)"
font-family="Helvetica" font-size="44" font-weight="700" font-style="normal" 
>
<path vector-effect="none" fill-rule="evenodd" d="M1.99e+06,2.15645e+06 L1.99e+06,2.15653e+06 L2.73e+06,2.15653e+06 L2.73e+06,2.15645e+06 L1.99e+06,2.15645e+06"/>
</g>

<g fill="#fb8022" fill-opacity="1" stroke="none" transform="matrix(5.08192e-05,0,0,5.03419e-05,-3.07373,-17.3782)"
font-family="Helvetica" font-size="44" font-weight="700" font-style="normal" 
>
<path vector-effect="none" fill-rule="evenodd" d="M2.915e+06,1.65787e+06 L2.915e+06,1.65819e+06 L3.655e+06,1.65819e+06 L3.655e+06,1.65787e+06 L2.915e+06,1.65787e+06"/>
</g>

<g fill="#fb8022" fill-opacity="1" stroke="none" transform="matrix(5.08192e-05,0,0,5.03419e-05,-3.07373,-17.3782)"
font-family="Helvetica" font-size="44" font-weight="700" font-style="normal" 
>
<path vector-effect="none" fill-rule="evenodd" d="M3.84e+06,1.03784e+06 L3.84e+06,1.03795e+06 L4.58e+06,1.03795e+06 L4.58e+06,1.03784e+06 L3.84e+06,1.03784e+06"/>
</g>

<g fill="#e4460b" fill-opacity="1" stroke="none" transform="matrix(5.08192e-05,0,0,5.03419e-05,-3.07373,-17.3782)"
font-family="Helvetica" font-size="44" font-weight="700" font-style="normal" 
>
<path vector-effect="none" fill-rule="evenodd" d="M1.99e+06,1.27344e+06 L1.99e+06,2.15645e+06 L2.73e+06,2.15645e+06 L2.73e+06,1.27344e+06 L1.99e+06,1.27344e+06"/>
</g>

<g fill="#e4460b" fill-opacity="1" stroke="none" transform="matrix(5.08192e-05,0,0,5.03419e-05,-3.07373,-17.3782)"
font-family="Helvetica" font-size="44" font-weight="700" font-style="normal" 
>
<path vector-effect="none" fill-rule="evenodd" d="M2.915e+06,996217 L2.915e+06,1.65787e+06 L3.655e+06,1.65787e+06 L3.655e+06,996217 L2.915e+06,996217"/>
</g>

<g fill="#e4460b" fill-opacity="1" stroke="none" transform="matrix(5.08192e-05,0,0,5.03419e-05,-3.07373,-17.3782)"
font-family="Helvetica" font-size="44" font-weight="700" font-style="normal" 
>
<path vector-effect="none" fill-rule="evenodd" d="M3.84e+06,1.03766e+06 L3.84e+06,1.03784e+06 L4.58e+06,1.03784e+06 L4.58e+06,1.03766e+06 L3.84e+06,1.03766e+06"/>
</g>

<g fill="#ba1f02" fill-opacity="1" stroke="none" transform="matrix(5.08192e-05,0,0,5.03419e-05,-3.07373,-17.3782)"
font-family="Helvetica" font-size="44" font-weight="700" font-style="normal" 
>
<path vector-effect="none" fill-rule="evenodd" d="M1.99e+06,1.27338e+06 L1.99e+06,1.27344e+06 L2.73e+06,1.27344e+06 L2.73e+06,1.27338e+06 L1.99e+06,1.27338e+06"/>
</g>

<g fill="#ba1f02" fill-opacity="1" stroke="none" transform="matrix(5.08192e-05,0,0,5.03419e-05,-3.07373,-17.3782)"
font-family="Helvetica" font-size="44" font-weight="700" font-style="normal" 
>
<path vector-effect="none" fill-rule="evenodd" d="M2.915e+06,996188 L2.915e+06,996217 L3.655e+06,996217 L3.655e+06,996188 L2.915e+06,996188"/>
</g>

<g fill="#ba1f02" fill-opacity="1" stroke="none" transform="matrix(5.08192e-05,0,0,5.03419e-05,-3.07373,-17.3782)"
font-family="Helvetica" font-size="44" font-weight="700" font-style="normal" 
>
<path vector-effect="none" fill-rule="evenodd" d="M3.84e+06,1.03762e+06 L3.84e+06,1.03766e+06 L4.58e+06,1.03766e+06 L4.58e+06,1.03762e+06 L3.84e+06,1.03762e+06"/>
</g>

<g fill="#7a0403" fill-opacity="1" stroke="none" transform="matrix(5.08192e-05,0,0,5.03419e-05,-3.07373,-17.3782)"
font-family="Helvetica" font-size="44" font-weight="700" font-style="normal" 
>
<path vector-effect="none" fill-rule="evenodd" d="M1.99e+06,850000 L1.99e+06,1.27338e+06 L2.73e+06,1.27338e+06 L2.73e+06,850000 L1.99e+06,850000"/>
</g>

<g fill="#7a0403" fill-opacity="1" stroke="none" transform="matrix(5.08192e-05,0,0,5.03419e-05,-3.07373,-17.3782)"
font-family="Helvetica" font-size="44" font-weight="700" font-style="normal" 
>
<path vector-effect="none" fill-rule="evenodd" d="M2.915e+06,850000 L2.915e+06,996188 L3.655e+06,996188 L3.655e+06,850000 L2.915e+06,850000"/>
</g>

<g fill="#7a0403" fill-opacity="1" stroke="none" transform="matrix(5.08192e-05,0,0,5.03419e-05,-3.07373,-17.3782)"
font-family="Helvetica" font-size="44" font-weight="700" font-style="normal" 
>
<path vector-effect="none" fill-rule="evenodd" d="M3.84e+06,850000 L3.84e+06,1.03762e+06 L4.58e+06,1.03762e+06 L4.58e+06,850000 L3.84e+06,850000"/>
</g>

<g fill="#212121" fill-opacity="1" stroke="#212121" stroke-opacity="1" stroke-width="1" stroke-linecap="square" stroke-linejoin="round" transform="matrix(0.508192,0,0,0.503419,-3.07373,-17.3782)"
font-family="Helvetica" font-size="44" font-weight="700" font-style="normal" 
>
<polyline fill="none" vector-effect="none" points="125,988 532,988 " />
<polyline fill="none" vector-effect="none" points="125,85 532,85 " />
<polyline fill="none" vector-effect="none" points="236,988 236,978.97 " />
<polyline fill="none" vector-effect="none" points="236,94.03 236,85 " />
<polyline fill="none" vector-effect="none" points="328.5,988 328.5,978.97 " />
<polyline fill="none" vector-effect="none" points="328.5,94.03 328.5,85 " />
<polyline fill="none" vector-effect="none" points="421,988 421,978.97 " />
<polyline fill="none" vector-effect="none" points="421,94.03 421,85 " />
</g>

<g fill="#212121" fill-opacity="1" stroke="#212121" stroke-opacity="1" stroke-width="1" stroke-linecap="square" stroke-linejoin="bevel" transform="matrix(0.440107,-0.251709,0.254096,0.435973,40.6761,547.632)"
font-family="Helvetica" font-size="40" font-weight="400" font-style="normal" 
>
<text fill="#212121" fill-opacity="1" stroke="none" xml:space="preserve" x="0" y="-0.203125" font-family="Helvetica" font-size="40" font-weight="400" font-style="normal" 
 >Uninfected</text>
</g>

<g fill="#212121" fill-opacity="1" stroke="#212121" stroke-opacity="1" stroke-width="1" stroke-linecap="square" stroke-linejoin="bevel" transform="matrix(0.440107,-0.251709,0.254096,0.435973,114.971,532.026)"
font-family="Helvetica" font-size="40" font-weight="400" font-style="normal" 
>
<text fill="#212121" fill-opacity="1" stroke="none" xml:space="preserve" x="0" y="-0.203125" font-family="Helvetica" font-size="40" font-weight="400" font-style="normal" 
 >ST1.75</text>
</g>

<g fill="#212121" fill-opacity="1" stroke="#212121" stroke-opacity="1" stroke-width="1" stroke-linecap="square" stroke-linejoin="bevel" transform="matrix(0.440107,-0.251709,0.254096,0.435973,161.978,532.026)"
font-family="Helvetica" font-size="40" font-weight="400" font-style="normal" 
>
<text fill="#212121" fill-opacity="1" stroke="none" xml:space="preserve" x="0" y="-0.203125" font-family="Helvetica" font-size="40" font-weight="400" font-style="normal" 
 >ST1.12</text>
</g>

<g fill="#212121" fill-opacity="1" stroke="#212121" stroke-opacity="1" stroke-width="1" stroke-linecap="square" stroke-linejoin="bevel" transform="matrix(0,-0.503419,0.508192,0,17.7622,350.621)"
font-family="Helvetica" font-size="44" font-weight="400" font-style="normal" 
>
<text fill="#212121" fill-opacity="1" stroke="none" xml:space="preserve" x="0" y="-0.125" font-family="Helvetica" font-size="44" font-weight="400" font-style="normal" 
 >Relative abundance</text>
</g>

<g fill="#212121" fill-opacity="1" stroke="#212121" stroke-opacity="1" stroke-width="1" stroke-linecap="square" stroke-linejoin="round" transform="matrix(0.508192,0,0,0.503419,-3.07373,-17.3782)"
font-family="Helvetica" font-size="44" font-weight="400" font-style="normal" 
>
<polyline fill="none" vector-effect="none" points="125,988 125,85 " />
<polyline fill="none" vector-effect="none" points="532,988 532,85 " />
<polyline fill="none" vector-effect="none" points="125,988 134.03,988 " />
<polyline fill="none" vector-effect="none" points="522.97,988 532,988 " />
<polyline fill="none" vector-effect="none" points="125,897.7 134.03,897.7 " />
<polyline fill="none" vector-effect="none" points="522.97,897.7 532,897.7 " />
<polyline fill="none" vector-effect="none" points="125,807.4 134.03,807.4 " />
<polyline fill="none" vector-effect="none" points="522.97,807.4 532,807.4 " />
<polyline fill="none" vector-effect="none" points="125,717.1 134.03,717.1 " />
<polyline fill="none" vector-effect="none" points="522.97,717.1 532,717.1 " />
<polyline fill="none" vector-effect="none" points="125,626.8 134.03,626.8 " />
<polyline fill="none" vector-effect="none" points="522.97,626.8 532,626.8 " />
<polyline fill="none" vector-effect="none" points="125,536.5 134.03,536.5 " />
<polyline fill="none" vector-effect="none" points="522.97,536.5 532,536.5 " />
<polyline fill="none" vector-effect="none" points="125,446.2 134.03,446.2 " />
<polyline fill="none" vector-effect="none" points="522.97,446.2 532,446.2 " />
<polyline fill="none" vector-effect="none" points="125,355.9 134.03,355.9 " />
<polyline fill="none" vector-effect="none" points="522.97,355.9 532,355.9 " />
<polyline fill="none" vector-effect="none" points="125,265.6 134.03,265.6 " />
<polyline fill="none" vector-effect="none" points="522.97,265.6 532,265.6 " />
<polyline fill="none" vector-effect="none" points="125,175.3 134.03,175.3 " />
<polyline fill="none" vector-effect="none" points="522.97,175.3 532,175.3 " />
<polyline fill="none" vector-effect="none" points="125,85 134.03,85 " />
<polyline fill="none" vector-effect="none" points="522.97,85 532,85 " />
</g>

<g fill="#212121" fill-opacity="1" stroke="#212121" stroke-opacity="1" stroke-width="1" stroke-linecap="square" stroke-linejoin="bevel" transform="matrix(0.508192,0,0,0.503419,43.1718,485.537)"
font-family="Helvetica" font-size="40" font-weight="400" font-style="normal" 
>
<text fill="#212121" fill-opacity="1" stroke="none" xml:space="preserve" x="0" y="-0.203125" font-family="Helvetica" font-size="40" font-weight="400" font-style="normal" 
 >0</text>
</g>

<g fill="#212121" fill-opacity="1" stroke="#212121" stroke-opacity="1" stroke-width="1" stroke-linecap="square" stroke-linejoin="bevel" transform="matrix(0.508192,0,0,0.503419,25.8932,440.078)"
font-family="Helvetica" font-size="40" font-weight="400" font-style="normal" 
>
<text fill="#212121" fill-opacity="1" stroke="none" xml:space="preserve" x="0" y="-0.203125" font-family="Helvetica" font-size="40" font-weight="400" font-style="normal" 
 >0.1</text>
</g>

<g fill="#212121" fill-opacity="1" stroke="#212121" stroke-opacity="1" stroke-width="1" stroke-linecap="square" stroke-linejoin="bevel" transform="matrix(0.508192,0,0,0.503419,25.8932,394.62)"
font-family="Helvetica" font-size="40" font-weight="400" font-style="normal" 
>
<text fill="#212121" fill-opacity="1" stroke="none" xml:space="preserve" x="0" y="-0.203125" font-family="Helvetica" font-size="40" font-weight="400" font-style="normal" 
 >0.2</text>
</g>

<g fill="#212121" fill-opacity="1" stroke="#212121" stroke-opacity="1" stroke-width="1" stroke-linecap="square" stroke-linejoin="bevel" transform="matrix(0.508192,0,0,0.503419,25.8932,349.161)"
font-family="Helvetica" font-size="40" font-weight="400" font-style="normal" 
>
<text fill="#212121" fill-opacity="1" stroke="none" xml:space="preserve" x="0" y="-0.203125" font-family="Helvetica" font-size="40" font-weight="400" font-style="normal" 
 >0.3</text>
</g>

<g fill="#212121" fill-opacity="1" stroke="#212121" stroke-opacity="1" stroke-width="1" stroke-linecap="square" stroke-linejoin="bevel" transform="matrix(0.508192,0,0,0.503419,25.8932,303.702)"
font-family="Helvetica" font-size="40" font-weight="400" font-style="normal" 
>
<text fill="#212121" fill-opacity="1" stroke="none" xml:space="preserve" x="0" y="-0.203125" font-family="Helvetica" font-size="40" font-weight="400" font-style="normal" 
 >0.4</text>
</g>

<g fill="#212121" fill-opacity="1" stroke="#212121" stroke-opacity="1" stroke-width="1" stroke-linecap="square" stroke-linejoin="bevel" transform="matrix(0.508192,0,0,0.503419,25.8932,258.244)"
font-family="Helvetica" font-size="40" font-weight="400" font-style="normal" 
>
<text fill="#212121" fill-opacity="1" stroke="none" xml:space="preserve" x="0" y="-0.203125" font-family="Helvetica" font-size="40" font-weight="400" font-style="normal" 
 >0.5</text>
</g>

<g fill="#212121" fill-opacity="1" stroke="#212121" stroke-opacity="1" stroke-width="1" stroke-linecap="square" stroke-linejoin="bevel" transform="matrix(0.508192,0,0,0.503419,25.8932,212.785)"
font-family="Helvetica" font-size="40" font-weight="400" font-style="normal" 
>
<text fill="#212121" fill-opacity="1" stroke="none" xml:space="preserve" x="0" y="-0.203125" font-family="Helvetica" font-size="40" font-weight="400" font-style="normal" 
 >0.6</text>
</g>

<g fill="#212121" fill-opacity="1" stroke="#212121" stroke-opacity="1" stroke-width="1" stroke-linecap="square" stroke-linejoin="bevel" transform="matrix(0.508192,0,0,0.503419,25.8932,167.326)"
font-family="Helvetica" font-size="40" font-weight="400" font-style="normal" 
>
<text fill="#212121" fill-opacity="1" stroke="none" xml:space="preserve" x="0" y="-0.203125" font-family="Helvetica" font-size="40" font-weight="400" font-style="normal" 
 >0.7</text>
</g>

<g fill="#212121" fill-opacity="1" stroke="#212121" stroke-opacity="1" stroke-width="1" stroke-linecap="square" stroke-linejoin="bevel" transform="matrix(0.508192,0,0,0.503419,25.8932,121.867)"
font-family="Helvetica" font-size="40" font-weight="400" font-style="normal" 
>
<text fill="#212121" fill-opacity="1" stroke="none" xml:space="preserve" x="0" y="-0.203125" font-family="Helvetica" font-size="40" font-weight="400" font-style="normal" 
 >0.8</text>
</g>

<g fill="#212121" fill-opacity="1" stroke="#212121" stroke-opacity="1" stroke-width="1" stroke-linecap="square" stroke-linejoin="bevel" transform="matrix(0.508192,0,0,0.503419,25.8932,76.4087)"
font-family="Helvetica" font-size="40" font-weight="400" font-style="normal" 
>
<text fill="#212121" fill-opacity="1" stroke="none" xml:space="preserve" x="0" y="-0.203125" font-family="Helvetica" font-size="40" font-weight="400" font-style="normal" 
 >0.9</text>
</g>

<g fill="#212121" fill-opacity="1" stroke="#212121" stroke-opacity="1" stroke-width="1" stroke-linecap="square" stroke-linejoin="bevel" transform="matrix(0.508192,0,0,0.503419,43.1718,30.95)"
font-family="Helvetica" font-size="40" font-weight="400" font-style="normal" 
>
<text fill="#212121" fill-opacity="1" stroke="none" xml:space="preserve" x="0" y="-0.203125" font-family="Helvetica" font-size="40" font-weight="400" font-style="normal" 
 >1</text>
</g>

<g fill="#ffffff" fill-opacity="1" stroke="none" transform="matrix(5.08192e-05,0,0,5.03419e-05,-3.07373,-17.3782)"
font-family="Helvetica" font-size="40" font-weight="400" font-style="normal" 
>
<path vector-effect="none" fill-rule="evenodd" d="M5.48e+06,3.79e+06 L5.48e+06,6.93e+06 L9.55e+06,6.93e+06 L9.55e+06,3.79e+06 L5.48e+06,3.79e+06"/>
</g>

<g fill="#30123b" fill-opacity="1" stroke="none" transform="matrix(5.08192e-05,0,0,5.03419e-05,-3.07373,-17.3782)"
font-family="Helvetica" font-size="40" font-weight="400" font-style="normal" 
>
<path vector-effect="none" fill-rule="evenodd" d="M5.53993e+06,6.69875e+06 L5.53993e+06,6.87125e+06 L6.13919e+06,6.87125e+06 L6.13919e+06,6.69875e+06 L5.53993e+06,6.69875e+06"/>
</g>

<g fill="#434fbb" fill-opacity="1" stroke="none" transform="matrix(5.08192e-05,0,0,5.03419e-05,-3.07373,-17.3782)"
font-family="Helvetica" font-size="40" font-weight="400" font-style="normal" 
>
<path vector-effect="none" fill-rule="evenodd" d="M5.53993e+06,6.46125e+06 L5.53993e+06,6.63375e+06 L6.13919e+06,6.63375e+06 L6.13919e+06,6.46125e+06 L5.53993e+06,6.46125e+06"/>
</g>

<g fill="#4686fa" fill-opacity="1" stroke="none" transform="matrix(5.08192e-05,0,0,5.03419e-05,-3.07373,-17.3782)"
font-family="Helvetica" font-size="40" font-weight="400" font-style="normal" 
>
<path vector-effect="none" fill-rule="evenodd" d="M5.53993e+06,6.22375e+06 L5.53993e+06,6.39625e+06 L6.13919e+06,6.39625e+06 L6.13919e+06,6.22375e+06 L5.53993e+06,6.22375e+06"/>
</g>

<g fill="#29bbec" fill-opacity="1" stroke="none" transform="matrix(5.08192e-05,0,0,5.03419e-05,-3.07373,-17.3782)"
font-family="Helvetica" font-size="40" font-weight="400" font-style="normal" 
>
<path vector-effect="none" fill-rule="evenodd" d="M5.53993e+06,5.98625e+06 L5.53993e+06,6.15875e+06 L6.13919e+06,6.15875e+06 L6.13919e+06,5.98625e+06 L5.53993e+06,5.98625e+06"/>
</g>

<g fill="#1ae4b6" fill-opacity="1" stroke="none" transform="matrix(5.08192e-05,0,0,5.03419e-05,-3.07373,-17.3782)"
font-family="Helvetica" font-size="40" font-weight="400" font-style="normal" 
>
<path vector-effect="none" fill-rule="evenodd" d="M5.53993e+06,5.74875e+06 L5.53993e+06,5.92125e+06 L6.13919e+06,5.92125e+06 L6.13919e+06,5.74875e+06 L5.53993e+06,5.74875e+06"/>
</g>

<g fill="#56fb75" fill-opacity="1" stroke="none" transform="matrix(5.08192e-05,0,0,5.03419e-05,-3.07373,-17.3782)"
font-family="Helvetica" font-size="40" font-weight="400" font-style="normal" 
>
<path vector-effect="none" fill-rule="evenodd" d="M5.53993e+06,5.51125e+06 L5.53993e+06,5.68375e+06 L6.13919e+06,5.68375e+06 L6.13919e+06,5.51125e+06 L5.53993e+06,5.51125e+06"/>
</g>

<g fill="#a3fd3c" fill-opacity="1" stroke="none" transform="matrix(5.08192e-05,0,0,5.03419e-05,-3.07373,-17.3782)"
font-family="Helvetica" font-size="40" font-weight="400" font-style="normal" 
>
<path vector-effect="none" fill-rule="evenodd" d="M5.53993e+06,5.27375e+06 L5.53993e+06,5.44625e+06 L6.13919e+06,5.44625e+06 L6.13919e+06,5.27375e+06 L5.53993e+06,5.27375e+06"/>
</g>

<g fill="#d8e436" fill-opacity="1" stroke="none" transform="matrix(5.08192e-05,0,0,5.03419e-05,-3.07373,-17.3782)"
font-family="Helvetica" font-size="40" font-weight="400" font-style="normal" 
>
<path vector-effect="none" fill-rule="evenodd" d="M5.53993e+06,5.03625e+06 L5.53993e+06,5.20875e+06 L6.13919e+06,5.20875e+06 L6.13919e+06,5.03625e+06 L5.53993e+06,5.03625e+06"/>
</g>

<g fill="#faba39" fill-opacity="1" stroke="none" transform="matrix(5.08192e-05,0,0,5.03419e-05,-3.07373,-17.3782)"
font-family="Helvetica" font-size="40" font-weight="400" font-style="normal" 
>
<path vector-effect="none" fill-rule="evenodd" d="M5.53993e+06,4.79875e+06 L5.53993e+06,4.97125e+06 L6.13919e+06,4.97125e+06 L6.13919e+06,4.79875e+06 L5.53993e+06,4.79875e+06"/>
</g>

<g fill="#fb8022" fill-opacity="1" stroke="none" transform="matrix(5.08192e-05,0,0,5.03419e-05,-3.07373,-17.3782)"
font-family="Helvetica" font-size="40" font-weight="400" font-style="normal" 
>
<path vector-effect="none" fill-rule="evenodd" d="M5.53993e+06,4.56125e+06 L5.53993e+06,4.73375e+06 L6.13919e+06,4.73375e+06 L6.13919e+06,4.56125e+06 L5.53993e+06,4.56125e+06"/>
</g>

<g fill="#e4460b" fill-opacity="1" stroke="none" transform="matrix(5.08192e-05,0,0,5.03419e-05,-3.07373,-17.3782)"
font-family="Helvetica" font-size="40" font-weight="400" font-style="normal" 
>
<path vector-effect="none" fill-rule="evenodd" d="M5.53993e+06,4.32375e+06 L5.53993e+06,4.49625e+06 L6.13919e+06,4.49625e+06 L6.13919e+06,4.32375e+06 L5.53993e+06,4.32375e+06"/>
</g>

<g fill="#ba1f02" fill-opacity="1" stroke="none" transform="matrix(5.08192e-05,0,0,5.03419e-05,-3.07373,-17.3782)"
font-family="Helvetica" font-size="40" font-weight="400" font-style="normal" 
>
<path vector-effect="none" fill-rule="evenodd" d="M5.53993e+06,4.08625e+06 L5.53993e+06,4.25875e+06 L6.13919e+06,4.25875e+06 L6.13919e+06,4.08625e+06 L5.53993e+06,4.08625e+06"/>
</g>

<g fill="#7a0403" fill-opacity="1" stroke="none" transform="matrix(5.08192e-05,0,0,5.03419e-05,-3.07373,-17.3782)"
font-family="Helvetica" font-size="40" font-weight="400" font-style="normal" 
>
<path vector-effect="none" fill-rule="evenodd" d="M5.53993e+06,3.84875e+06 L5.53993e+06,4.02125e+06 L6.13919e+06,4.02125e+06 L6.13919e+06,3.84875e+06 L5.53993e+06,3.84875e+06"/>
</g>

<g fill="#212121" fill-opacity="1" stroke="#212121" stroke-opacity="1" stroke-width="1" stroke-linecap="square" stroke-linejoin="bevel" transform="matrix(0.508192,0,0,0.503419,311.199,183.234)"
font-family="Helvetica" font-size="20" font-weight="400" font-style="normal" 
>
<text fill="#212121" fill-opacity="1" stroke="none" xml:space="preserve" x="0" y="0.390625" font-family="Helvetica" font-size="20" font-weight="400" font-style="normal" 
 >Other</text>
</g>

<g fill="#212121" fill-opacity="1" stroke="#212121" stroke-opacity="1" stroke-width="1" stroke-linecap="square" stroke-linejoin="bevel" transform="matrix(0.508192,0,0,0.503419,311.199,195.19)"
font-family="Helvetica" font-size="20" font-weight="400" font-style="normal" 
>
<text fill="#212121" fill-opacity="1" stroke="none" xml:space="preserve" x="0" y="0.390625" font-family="Helvetica" font-size="20" font-weight="400" font-style="normal" 
 >unclassified_Muribaculaceae_ASV_8</text>
</g>

<g fill="#212121" fill-opacity="1" stroke="#212121" stroke-opacity="1" stroke-width="1" stroke-linecap="square" stroke-linejoin="bevel" transform="matrix(0.508192,0,0,0.503419,311.199,207.147)"
font-family="Helvetica" font-size="20" font-weight="400" font-style="normal" 
>
<text fill="#212121" fill-opacity="1" stroke="none" xml:space="preserve" x="0" y="0.390625" font-family="Helvetica" font-size="20" font-weight="400" font-style="normal" 
 >Parasutterella</text>
</g>

<g fill="#212121" fill-opacity="1" stroke="#212121" stroke-opacity="1" stroke-width="1" stroke-linecap="square" stroke-linejoin="bevel" transform="matrix(0.508192,0,0,0.503419,311.199,219.103)"
font-family="Helvetica" font-size="20" font-weight="400" font-style="normal" 
>
<text fill="#212121" fill-opacity="1" stroke="none" xml:space="preserve" x="0" y="0.390625" font-family="Helvetica" font-size="20" font-weight="400" font-style="normal" 
 >unclassified_Muribaculaceae_ASV_6</text>
</g>

<g fill="#212121" fill-opacity="1" stroke="#212121" stroke-opacity="1" stroke-width="1" stroke-linecap="square" stroke-linejoin="bevel" transform="matrix(0.508192,0,0,0.503419,311.199,231.059)"
font-family="Helvetica" font-size="20" font-weight="400" font-style="normal" 
>
<text fill="#212121" fill-opacity="1" stroke="none" xml:space="preserve" x="0" y="0.390625" font-family="Helvetica" font-size="20" font-weight="400" font-style="normal" 
 >Clostridioides</text>
</g>

<g fill="#212121" fill-opacity="1" stroke="#212121" stroke-opacity="1" stroke-width="1" stroke-linecap="square" stroke-linejoin="bevel" transform="matrix(0.508192,0,0,0.503419,311.199,243.015)"
font-family="Helvetica" font-size="20" font-weight="400" font-style="normal" 
>
<text fill="#212121" fill-opacity="1" stroke="none" xml:space="preserve" x="0" y="0.390625" font-family="Helvetica" font-size="20" font-weight="400" font-style="normal" 
 >LachnospiraceaeNK4A136Group</text>
</g>

<g fill="#212121" fill-opacity="1" stroke="#212121" stroke-opacity="1" stroke-width="1" stroke-linecap="square" stroke-linejoin="bevel" transform="matrix(0.508192,0,0,0.503419,311.199,254.971)"
font-family="Helvetica" font-size="20" font-weight="400" font-style="normal" 
>
<text fill="#212121" fill-opacity="1" stroke="none" xml:space="preserve" x="0" y="0.390625" font-family="Helvetica" font-size="20" font-weight="400" font-style="normal" 
 >Turicibacter</text>
</g>

<g fill="#212121" fill-opacity="1" stroke="#212121" stroke-opacity="1" stroke-width="1" stroke-linecap="square" stroke-linejoin="bevel" transform="matrix(0.508192,0,0,0.503419,311.199,266.928)"
font-family="Helvetica" font-size="20" font-weight="400" font-style="normal" 
>
<text fill="#212121" fill-opacity="1" stroke="none" xml:space="preserve" x="0" y="0.390625" font-family="Helvetica" font-size="20" font-weight="400" font-style="normal" 
 >Akkermansia</text>
</g>

<g fill="#212121" fill-opacity="1" stroke="#212121" stroke-opacity="1" stroke-width="1" stroke-linecap="square" stroke-linejoin="bevel" transform="matrix(0.508192,0,0,0.503419,311.199,278.884)"
font-family="Helvetica" font-size="20" font-weight="400" font-style="normal" 
>
<text fill="#212121" fill-opacity="1" stroke="none" xml:space="preserve" x="0" y="0.390625" font-family="Helvetica" font-size="20" font-weight="400" font-style="normal" 
 >Enterococcus</text>
</g>

<g fill="#212121" fill-opacity="1" stroke="#212121" stroke-opacity="1" stroke-width="1" stroke-linecap="square" stroke-linejoin="bevel" transform="matrix(0.508192,0,0,0.503419,311.199,290.84)"
font-family="Helvetica" font-size="20" font-weight="400" font-style="normal" 
>
<text fill="#212121" fill-opacity="1" stroke="none" xml:space="preserve" x="0" y="0.390625" font-family="Helvetica" font-size="20" font-weight="400" font-style="normal" 
 >unclassified_Muribaculaceae_ASV_4</text>
</g>

<g fill="#212121" fill-opacity="1" stroke="#212121" stroke-opacity="1" stroke-width="1" stroke-linecap="square" stroke-linejoin="bevel" transform="matrix(0.508192,0,0,0.503419,311.199,302.796)"
font-family="Helvetica" font-size="20" font-weight="400" font-style="normal" 
>
<text fill="#212121" fill-opacity="1" stroke="none" xml:space="preserve" x="0" y="0.390625" font-family="Helvetica" font-size="20" font-weight="400" font-style="normal" 
 >Bacteroides</text>
</g>

<g fill="#212121" fill-opacity="1" stroke="#212121" stroke-opacity="1" stroke-width="1" stroke-linecap="square" stroke-linejoin="bevel" transform="matrix(0.508192,0,0,0.503419,311.199,314.752)"
font-family="Helvetica" font-size="20" font-weight="400" font-style="normal" 
>
<text fill="#212121" fill-opacity="1" stroke="none" xml:space="preserve" x="0" y="0.390625" font-family="Helvetica" font-size="20" font-weight="400" font-style="normal" 
 >Other</text>
</g>

<g fill="#212121" fill-opacity="1" stroke="#212121" stroke-opacity="1" stroke-width="1" stroke-linecap="square" stroke-linejoin="bevel" transform="matrix(0.508192,0,0,0.503419,311.199,326.708)"
font-family="Helvetica" font-size="20" font-weight="400" font-style="normal" 
>
<text fill="#212121" fill-opacity="1" stroke="none" xml:space="preserve" x="0" y="0.390625" font-family="Helvetica" font-size="20" font-weight="400" font-style="normal" 
 >Lactobacillus</text>
</g>

<g fill="none" stroke="#212121" stroke-opacity="1" stroke-width="1" stroke-linecap="butt" stroke-linejoin="miter" stroke-miterlimit="2" transform="matrix(0.508192,0,0,0.503419,-3.07373,-17.3782)"
font-family="Helvetica" font-size="20" font-weight="400" font-style="normal" 
>
<path vector-effect="none" fill-rule="evenodd" d="M548,693 L548,379 L955,379 L955,693 L548,693"/>
</g>
</g>
</svg>
