<?xml version="1.0" encoding="UTF-8" standalone="no"?>
<svg width="251.178mm" height="110.067mm"
 viewBox="0 0 712 312"
 xmlns="http://www.w3.org/2000/svg" xmlns:xlink="http://www.w3.org/1999/xlink"  version="1.2" baseProfile="tiny">
<title>Qt SVG Document</title>
<desc>MATLAB, The MathWorks, Inc. Version 25.2.0.3042426 R2025b Update 1</desc>
<defs>
</defs>
<g fill="none" stroke="black" stroke-width="1" fill-rule="evenodd" stroke-linecap="square" stroke-linejoin="bevel" >

<g fill="#ffffff" fill-opacity="1" stroke="none" transform="matrix(0.507701,0,0,0.498208,-117.302,-6.54606)"
font-family=".AppleSystemUIFont" font-size="13" font-weight="400" font-style="normal" 
>
<path vector-effect="none" fill-rule="evenodd" d="M231,12 L1633,12 L1633,638 L231,638 L231,12"/>
</g>

<g fill="#ffffff" fill-opacity="1" stroke="none" transform="matrix(5.07701e-05,0,0,4.98208e-05,-117.302,-6.54606)"
font-family=".AppleSystemUIFont" font-size="13" font-weight="400" font-style="normal" 
>
<path vector-effect="none" fill-rule="evenodd" d="M2.34e+06,480000 L2.34e+06,5.04e+06 L1.63e+07,5.04e+06 L1.63e+07,480000 L2.34e+06,480000"/>
</g>

<g fill="#212121" fill-opacity="1" stroke="#212121" stroke-opacity="1" stroke-width="1" stroke-linecap="square" stroke-linejoin="bevel" transform="matrix(0.507701,0,0,0.498208,191.634,306.761)"
font-family="Arial" font-size="30" font-weight="400" font-style="normal" 
>
<text fill="#212121" fill-opacity="1" stroke="none" xml:space="preserve" x="0" y="0.15625" font-family="Arial" font-size="30" font-weight="400" font-style="normal" 
 >Strains (ordered by protection score, low to high)</text>
</g>

<g fill="#212121" fill-opacity="1" stroke="#212121" stroke-opacity="1" stroke-width="1" stroke-linecap="square" stroke-linejoin="round" transform="matrix(0.507701,0,0,0.498208,-117.302,-6.54606)"
font-family="Arial" font-size="30" font-weight="400" font-style="normal" 
>
<polyline fill="none" vector-effect="none" points="234,504 1630,504 " />
<polyline fill="none" vector-effect="none" points="234,48 1630,48 " />
<polyline fill="none" vector-effect="none" points="297.455,504 297.455,490.04 " />
<polyline fill="none" vector-effect="none" points="297.455,61.96 297.455,48 " />
<polyline fill="none" vector-effect="none" points="360.909,504 360.909,490.04 " />
<polyline fill="none" vector-effect="none" points="360.909,61.96 360.909,48 " />
<polyline fill="none" vector-effect="none" points="424.364,504 424.364,490.04 " />
<polyline fill="none" vector-effect="none" points="424.364,61.96 424.364,48 " />
<polyline fill="none" vector-effect="none" points="487.818,504 487.818,490.04 " />
<polyline fill="none" vector-effect="none" points="487.818,61.96 487.818,48 " />
<polyline fill="none" vector-effect="none" points="551.273,504 551.273,490.04 " />
<polyline fill="none" vector-effect="none" points="551.273,61.96 551.273,48 " />
<polyline fill="none" vector-effect="none" points="614.727,504 614.727,490.04 " />
<polyline fill="none" vector-effect="none" points="614.727,61.96 614.727,48 " />
<polyline fill="none" vector-effect="none" points="678.182,504 678.182,490.04 " />
<polyline fill="none" vector-effect="none" points="678.182,61.96 678.182,48 " />
<polyline fill="none" vector-effect="none" points="741.636,504 741.636,490.04 " />
<polyline fill="none" vector-effect="none" points="741.636,61.96 741.636,48 " />
<polyline fill="none" vector-effect="none" points="805.091,504 805.091,490.04 " />
<polyline fill="none" vector-effect="none" points="805.091,61.96 805.091,48 " />
<polyline fill="none" vector-effect="none" points="868.545,504 868.545,490.04 " />
<polyline fill="none" vector-effect="none" points="868.545,61.96 868.545,48 " />
<polyline fill="none" vector-effect="none" points="932,504 932,490.04 " />
<polyline fill="none" vector-effect="none" points="932,61.96 932,48 " />
<polyline fill="none" vector-effect="none" points="995.455,504 995.455,490.04 " />
<polyline fill="none" vector-effect="none" points="995.455,61.96 995.455,48 " />
<polyline fill="none" vector-effect="none" points="1058.91,504 1058.91,490.04 " />
<polyline fill="none" vector-effect="none" points="1058.91,61.96 1058.91,48 " />
<polyline fill="none" vector-effect="none" points="1122.36,504 1122.36,490.04 " />
<polyline fill="none" vector-effect="none" points="1122.36,61.96 1122.36,48 " />
<polyline fill="none" vector-effect="none" points="1185.82,504 1185.82,490.04 " />
<polyline fill="none" vector-effect="none" points="1185.82,61.96 1185.82,48 " />
<polyline fill="none" vector-effect="none" points="1249.27,504 1249.27,490.04 " />
<polyline fill="none" vector-effect="none" points="1249.27,61.96 1249.27,48 " />
<polyline fill="none" vector-effect="none" points="1312.73,504 1312.73,490.04 " />
<polyline fill="none" vector-effect="none" points="1312.73,61.96 1312.73,48 " />
<polyline fill="none" vector-effect="none" points="1376.18,504 1376.18,490.04 " />
<polyline fill="none" vector-effect="none" points="1376.18,61.96 1376.18,48 " />
<polyline fill="none" vector-effect="none" points="1439.64,504 1439.64,490.04 " />
<polyline fill="none" vector-effect="none" points="1439.64,61.96 1439.64,48 " />
<polyline fill="none" vector-effect="none" points="1503.09,504 1503.09,490.04 " />
<polyline fill="none" vector-effect="none" points="1503.09,61.96 1503.09,48 " />
<polyline fill="none" vector-effect="none" points="1566.55,504 1566.55,490.04 " />
<polyline fill="none" vector-effect="none" points="1566.55,61.96 1566.55,48 " />
</g>

<g fill="#212121" fill-opacity="1" stroke="#212121" stroke-opacity="1" stroke-width="1" stroke-linecap="square" stroke-linejoin="bevel" transform="matrix(0.358999,-0.352287,0.358999,0.352287,10.381,289.847)"
font-family="Arial" font-size="28" font-weight="400" font-style="normal" 
>
<text fill="#212121" fill-opacity="1" stroke="none" xml:space="preserve" x="0" y="0.34375" font-family="Arial" font-size="28" font-weight="400" font-style="normal" 
 >ST1.68</text>
</g>

<g fill="#212121" fill-opacity="1" stroke="#212121" stroke-opacity="1" stroke-width="1" stroke-linecap="square" stroke-linejoin="bevel" transform="matrix(0.358999,-0.352287,0.358999,0.352287,47.9819,284.562)"
font-family="Arial" font-size="28" font-weight="400" font-style="normal" 
>
<text fill="#212121" fill-opacity="1" stroke="none" xml:space="preserve" x="0" y="0.34375" font-family="Arial" font-size="28" font-weight="400" font-style="normal" 
 >ST1.2</text>
</g>

<g fill="#212121" fill-opacity="1" stroke="#212121" stroke-opacity="1" stroke-width="1" stroke-linecap="square" stroke-linejoin="bevel" transform="matrix(0.358999,-0.352287,0.358999,0.352287,74.8128,289.847)"
font-family="Arial" font-size="28" font-weight="400" font-style="normal" 
>
<text fill="#212121" fill-opacity="1" stroke="none" xml:space="preserve" x="0" y="0.34375" font-family="Arial" font-size="28" font-weight="400" font-style="normal" 
 >ST1.53</text>
</g>

<g fill="#212121" fill-opacity="1" stroke="#212121" stroke-opacity="1" stroke-width="1" stroke-linecap="square" stroke-linejoin="bevel" transform="matrix(0.358999,-0.352287,0.358999,0.352287,107.029,289.847)"
font-family="Arial" font-size="28" font-weight="400" font-style="normal" 
>
<text fill="#212121" fill-opacity="1" stroke="none" xml:space="preserve" x="0" y="0.34375" font-family="Arial" font-size="28" font-weight="400" font-style="normal" 
 >ST1.19</text>
</g>

<g fill="#212121" fill-opacity="1" stroke="#212121" stroke-opacity="1" stroke-width="1" stroke-linecap="square" stroke-linejoin="bevel" transform="matrix(0.358999,-0.352287,0.358999,0.352287,139.245,289.847)"
font-family="Arial" font-size="28" font-weight="400" font-style="normal" 
>
<text fill="#212121" fill-opacity="1" stroke="none" xml:space="preserve" x="0" y="0.34375" font-family="Arial" font-size="28" font-weight="400" font-style="normal" 
 >ST1.58</text>
</g>

<g fill="#212121" fill-opacity="1" stroke="#212121" stroke-opacity="1" stroke-width="1" stroke-linecap="square" stroke-linejoin="bevel" transform="matrix(0.358999,-0.352287,0.358999,0.352287,171.461,289.847)"
font-family="Arial" font-size="28" font-weight="400" font-style="normal" 
>
<text fill="#212121" fill-opacity="1" stroke="none" xml:space="preserve" x="0" y="0.34375" font-family="Arial" font-size="28" font-weight="400" font-style="normal" 
 >ST1.66</text>
</g>

<g fill="#212121" fill-opacity="1" stroke="#212121" stroke-opacity="1" stroke-width="1" stroke-linecap="square" stroke-linejoin="bevel" transform="matrix(0.358999,-0.352287,0.358999,0.352287,203.676,289.847)"
font-family="Arial" font-size="28" font-weight="400" font-style="normal" 
>
<text fill="#212121" fill-opacity="1" stroke="none" xml:space="preserve" x="0" y="0.34375" font-family="Arial" font-size="28" font-weight="400" font-style="normal" 
 >ST1.12</text>
</g>

<g fill="#212121" fill-opacity="1" stroke="#212121" stroke-opacity="1" stroke-width="1" stroke-linecap="square" stroke-linejoin="bevel" transform="matrix(0.358999,-0.352287,0.358999,0.352287,236.61,289.142)"
font-family="Arial" font-size="28" font-weight="400" font-style="normal" 
>
<text fill="#212121" fill-opacity="1" stroke="none" xml:space="preserve" x="0" y="0.34375" font-family="Arial" font-size="28" font-weight="400" font-style="normal" 
 >ST1.11</text>
</g>

<g fill="#212121" fill-opacity="1" stroke="#212121" stroke-opacity="1" stroke-width="1" stroke-linecap="square" stroke-linejoin="bevel" transform="matrix(0.358999,-0.352287,0.358999,0.352287,268.108,289.847)"
font-family="Arial" font-size="28" font-weight="400" font-style="normal" 
>
<text fill="#212121" fill-opacity="1" stroke="none" xml:space="preserve" x="0" y="0.34375" font-family="Arial" font-size="28" font-weight="400" font-style="normal" 
 >ST1.62</text>
</g>

<g fill="#212121" fill-opacity="1" stroke="#212121" stroke-opacity="1" stroke-width="1" stroke-linecap="square" stroke-linejoin="bevel" transform="matrix(0.358999,-0.352287,0.358999,0.352287,300.324,289.847)"
font-family="Arial" font-size="28" font-weight="400" font-style="normal" 
>
<text fill="#212121" fill-opacity="1" stroke="none" xml:space="preserve" x="0" y="0.34375" font-family="Arial" font-size="28" font-weight="400" font-style="normal" 
 >ST1.63</text>
</g>

<g fill="#212121" fill-opacity="1" stroke="#212121" stroke-opacity="1" stroke-width="1" stroke-linecap="square" stroke-linejoin="bevel" transform="matrix(0.358999,-0.352287,0.358999,0.352287,332.54,289.847)"
font-family="Arial" font-size="28" font-weight="400" font-style="normal" 
>
<text fill="#212121" fill-opacity="1" stroke="none" xml:space="preserve" x="0" y="0.34375" font-family="Arial" font-size="28" font-weight="400" font-style="normal" 
 >ST1.65</text>
</g>

<g fill="#212121" fill-opacity="1" stroke="#212121" stroke-opacity="1" stroke-width="1" stroke-linecap="square" stroke-linejoin="bevel" transform="matrix(0.358999,-0.352287,0.358999,0.352287,364.756,289.847)"
font-family="Arial" font-size="28" font-weight="400" font-style="normal" 
>
<text fill="#212121" fill-opacity="1" stroke="none" xml:space="preserve" x="0" y="0.34375" font-family="Arial" font-size="28" font-weight="400" font-style="normal" 
 >ST1.69</text>
</g>

<g fill="#212121" fill-opacity="1" stroke="#212121" stroke-opacity="1" stroke-width="1" stroke-linecap="square" stroke-linejoin="bevel" transform="matrix(0.358999,-0.352287,0.358999,0.352287,396.972,289.847)"
font-family="Arial" font-size="28" font-weight="400" font-style="normal" 
>
<text fill="#212121" fill-opacity="1" stroke="none" xml:space="preserve" x="0" y="0.34375" font-family="Arial" font-size="28" font-weight="400" font-style="normal" 
 >ST1.67</text>
</g>

<g fill="#212121" fill-opacity="1" stroke="#212121" stroke-opacity="1" stroke-width="1" stroke-linecap="square" stroke-linejoin="bevel" transform="matrix(0.358999,-0.352287,0.358999,0.352287,429.188,289.847)"
font-family="Arial" font-size="28" font-weight="400" font-style="normal" 
>
<text fill="#212121" fill-opacity="1" stroke="none" xml:space="preserve" x="0" y="0.34375" font-family="Arial" font-size="28" font-weight="400" font-style="normal" 
 >ST1.27</text>
</g>

<g fill="#212121" fill-opacity="1" stroke="#212121" stroke-opacity="1" stroke-width="1" stroke-linecap="square" stroke-linejoin="bevel" transform="matrix(0.358999,-0.352287,0.358999,0.352287,461.404,289.847)"
font-family="Arial" font-size="28" font-weight="400" font-style="normal" 
>
<text fill="#212121" fill-opacity="1" stroke="none" xml:space="preserve" x="0" y="0.34375" font-family="Arial" font-size="28" font-weight="400" font-style="normal" 
 >ST1.23</text>
</g>

<g fill="#212121" fill-opacity="1" stroke="#212121" stroke-opacity="1" stroke-width="1" stroke-linecap="square" stroke-linejoin="bevel" transform="matrix(0.358999,-0.352287,0.358999,0.352287,493.62,289.847)"
font-family="Arial" font-size="28" font-weight="400" font-style="normal" 
>
<text fill="#212121" fill-opacity="1" stroke="none" xml:space="preserve" x="0" y="0.34375" font-family="Arial" font-size="28" font-weight="400" font-style="normal" 
 >ST1.49</text>
</g>

<g fill="#212121" fill-opacity="1" stroke="#212121" stroke-opacity="1" stroke-width="1" stroke-linecap="square" stroke-linejoin="bevel" transform="matrix(0.358999,-0.352287,0.358999,0.352287,525.836,289.847)"
font-family="Arial" font-size="28" font-weight="400" font-style="normal" 
>
<text fill="#212121" fill-opacity="1" stroke="none" xml:space="preserve" x="0" y="0.34375" font-family="Arial" font-size="28" font-weight="400" font-style="normal" 
 >ST1.57</text>
</g>

<g fill="#212121" fill-opacity="1" stroke="#212121" stroke-opacity="1" stroke-width="1" stroke-linecap="square" stroke-linejoin="bevel" transform="matrix(0.358999,-0.352287,0.358999,0.352287,558.051,289.847)"
font-family="Arial" font-size="28" font-weight="400" font-style="normal" 
>
<text fill="#212121" fill-opacity="1" stroke="none" xml:space="preserve" x="0" y="0.34375" font-family="Arial" font-size="28" font-weight="400" font-style="normal" 
 >ST1.20</text>
</g>

<g fill="#212121" fill-opacity="1" stroke="#212121" stroke-opacity="1" stroke-width="1" stroke-linecap="square" stroke-linejoin="bevel" transform="matrix(0.358999,-0.352287,0.358999,0.352287,590.267,289.847)"
font-family="Arial" font-size="28" font-weight="400" font-style="normal" 
>
<text fill="#212121" fill-opacity="1" stroke="none" xml:space="preserve" x="0" y="0.34375" font-family="Arial" font-size="28" font-weight="400" font-style="normal" 
 >ST1.25</text>
</g>

<g fill="#212121" fill-opacity="1" stroke="#212121" stroke-opacity="1" stroke-width="1" stroke-linecap="square" stroke-linejoin="bevel" transform="matrix(0.358999,-0.352287,0.358999,0.352287,622.483,289.847)"
font-family="Arial" font-size="28" font-weight="400" font-style="normal" 
>
<text fill="#212121" fill-opacity="1" stroke="none" xml:space="preserve" x="0" y="0.34375" font-family="Arial" font-size="28" font-weight="400" font-style="normal" 
 >ST1.75</text>
</g>

<g fill="#212121" fill-opacity="1" stroke="#212121" stroke-opacity="1" stroke-width="1" stroke-linecap="square" stroke-linejoin="bevel" transform="matrix(0.358999,-0.352287,0.358999,0.352287,660.084,284.562)"
font-family="Arial" font-size="28" font-weight="400" font-style="normal" 
>
<text fill="#212121" fill-opacity="1" stroke="none" xml:space="preserve" x="0" y="0.34375" font-family="Arial" font-size="28" font-weight="400" font-style="normal" 
 >ST1.6</text>
</g>

<g fill="#212121" fill-opacity="1" stroke="#212121" stroke-opacity="1" stroke-width="1" stroke-linecap="square" stroke-linejoin="round" transform="matrix(0.507701,0,0,0.498208,-117.302,-6.54606)"
font-family="Arial" font-size="28" font-weight="400" font-style="normal" 
>
<polyline fill="none" vector-effect="none" points="234,504 234,48 " />
<polyline fill="none" vector-effect="none" points="1630,504 1630,48 " />
</g>

<g fill="#212121" fill-opacity="1" stroke="#212121" stroke-opacity="1" stroke-width="1" stroke-linecap="square" stroke-linejoin="bevel" transform="matrix(0.507701,0,0,0.498208,150.51,12.4606)"
font-family="Arial" font-size="30" font-weight="700" font-style="normal" 
>
<text fill="#212121" fill-opacity="1" stroke="none" xml:space="preserve" x="0" y="0.15625" font-family="Arial" font-size="30" font-weight="700" font-style="normal" 
 >clcA_1 presence across ST1 strains (Wilcoxon p = 0.006)</text>
</g>

<g fill="#ffffff" fill-opacity="1" stroke="none" transform="matrix(0.507701,0,0,0.498208,-117.302,-6.54606)"
font-family="Arial" font-size="30" font-weight="700" font-style="normal" 
>
<circle cx="297.455" cy="276" r="14.1421"/>
</g>

<g fill="none" stroke="#000000" stroke-opacity="1" stroke-width="2" stroke-linecap="butt" stroke-linejoin="miter" stroke-miterlimit="2" transform="matrix(0.507701,0,0,0.498208,-117.302,-6.54606)"
font-family="Arial" font-size="30" font-weight="700" font-style="normal" 
>
<path vector-effect="none" fill-rule="evenodd" d="M311.597,276 C311.597,268.189 305.265,261.858 297.455,261.858 C289.644,261.858 283.312,268.189 283.312,276 C283.312,283.81 289.644,290.142 297.455,290.142 C305.265,290.142 311.597,283.81 311.597,276 "/>
</g>

<g fill="#ffffff" fill-opacity="1" stroke="none" transform="matrix(0.507701,0,0,0.498208,-117.302,-6.54606)"
font-family="Arial" font-size="30" font-weight="700" font-style="normal" 
>
<circle cx="360.909" cy="276" r="14.1421"/>
</g>

<g fill="none" stroke="#000000" stroke-opacity="1" stroke-width="2" stroke-linecap="butt" stroke-linejoin="miter" stroke-miterlimit="2" transform="matrix(0.507701,0,0,0.498208,-117.302,-6.54606)"
font-family="Arial" font-size="30" font-weight="700" font-style="normal" 
>
<path vector-effect="none" fill-rule="evenodd" d="M375.051,276 C375.051,268.189 368.72,261.858 360.909,261.858 C353.099,261.858 346.767,268.189 346.767,276 C346.767,283.81 353.099,290.142 360.909,290.142 C368.72,290.142 375.051,283.81 375.051,276 "/>
</g>

<g fill="#ffffff" fill-opacity="1" stroke="none" transform="matrix(0.507701,0,0,0.498208,-117.302,-6.54606)"
font-family="Arial" font-size="30" font-weight="700" font-style="normal" 
>
<circle cx="424.364" cy="276" r="14.1421"/>
</g>

<g fill="none" stroke="#000000" stroke-opacity="1" stroke-width="2" stroke-linecap="butt" stroke-linejoin="miter" stroke-miterlimit="2" transform="matrix(0.507701,0,0,0.498208,-117.302,-6.54606)"
font-family="Arial" font-size="30" font-weight="700" font-style="normal" 
>
<path vector-effect="none" fill-rule="evenodd" d="M438.506,276 C438.506,268.189 432.174,261.858 424.364,261.858 C416.553,261.858 410.221,268.189 410.221,276 C410.221,283.81 416.553,290.142 424.364,290.142 C432.174,290.142 438.506,283.81 438.506,276 "/>
</g>

<g fill="#ffffff" fill-opacity="1" stroke="none" transform="matrix(0.507701,0,0,0.498208,-117.302,-6.54606)"
font-family="Arial" font-size="30" font-weight="700" font-style="normal" 
>
<circle cx="487.818" cy="276" r="14.1421"/>
</g>

<g fill="none" stroke="#000000" stroke-opacity="1" stroke-width="2" stroke-linecap="butt" stroke-linejoin="miter" stroke-miterlimit="2" transform="matrix(0.507701,0,0,0.498208,-117.302,-6.54606)"
font-family="Arial" font-size="30" font-weight="700" font-style="normal" 
>
<path vector-effect="none" fill-rule="evenodd" d="M501.96,276 C501.96,268.189 495.629,261.858 487.818,261.858 C480.008,261.858 473.676,268.189 473.676,276 C473.676,283.81 480.008,290.142 487.818,290.142 C495.629,290.142 501.96,283.81 501.96,276 "/>
</g>

<g fill="#ffffff" fill-opacity="1" stroke="none" transform="matrix(0.507701,0,0,0.498208,-117.302,-6.54606)"
font-family="Arial" font-size="30" font-weight="700" font-style="normal" 
>
<circle cx="551.273" cy="276" r="14.1421"/>
</g>

<g fill="none" stroke="#000000" stroke-opacity="1" stroke-width="2" stroke-linecap="butt" stroke-linejoin="miter" stroke-miterlimit="2" transform="matrix(0.507701,0,0,0.498208,-117.302,-6.54606)"
font-family="Arial" font-size="30" font-weight="700" font-style="normal" 
>
<path vector-effect="none" fill-rule="evenodd" d="M565.415,276 C565.415,268.189 559.083,261.858 551.273,261.858 C543.462,261.858 537.131,268.189 537.131,276 C537.131,283.81 543.462,290.142 551.273,290.142 C559.083,290.142 565.415,283.81 565.415,276 "/>
</g>

<g fill="#ffffff" fill-opacity="1" stroke="none" transform="matrix(0.507701,0,0,0.498208,-117.302,-6.54606)"
font-family="Arial" font-size="30" font-weight="700" font-style="normal" 
>
<circle cx="614.727" cy="276" r="14.1421"/>
</g>

<g fill="none" stroke="#000000" stroke-opacity="1" stroke-width="2" stroke-linecap="butt" stroke-linejoin="miter" stroke-miterlimit="2" transform="matrix(0.507701,0,0,0.498208,-117.302,-6.54606)"
font-family="Arial" font-size="30" font-weight="700" font-style="normal" 
>
<path vector-effect="none" fill-rule="evenodd" d="M628.869,276 C628.869,268.189 622.538,261.858 614.727,261.858 C606.917,261.858 600.585,268.189 600.585,276 C600.585,283.81 606.917,290.142 614.727,290.142 C622.538,290.142 628.869,283.81 628.869,276 "/>
</g>

<g fill="#ffffff" fill-opacity="1" stroke="none" transform="matrix(0.507701,0,0,0.498208,-117.302,-6.54606)"
font-family="Arial" font-size="30" font-weight="700" font-style="normal" 
>
<circle cx="678.182" cy="276" r="14.1421"/>
</g>

<g fill="none" stroke="#000000" stroke-opacity="1" stroke-width="2" stroke-linecap="butt" stroke-linejoin="miter" stroke-miterlimit="2" transform="matrix(0.507701,0,0,0.498208,-117.302,-6.54606)"
font-family="Arial" font-size="30" font-weight="700" font-style="normal" 
>
<path vector-effect="none" fill-rule="evenodd" d="M692.324,276 C692.324,268.189 685.992,261.858 678.182,261.858 C670.371,261.858 664.04,268.189 664.04,276 C664.04,283.81 670.371,290.142 678.182,290.142 C685.992,290.142 692.324,283.81 692.324,276 "/>
</g>

<g fill="#ffffff" fill-opacity="1" stroke="none" transform="matrix(0.507701,0,0,0.498208,-117.302,-6.54606)"
font-family="Arial" font-size="30" font-weight="700" font-style="normal" 
>
<circle cx="741.636" cy="276" r="14.1421"/>
</g>

<g fill="none" stroke="#000000" stroke-opacity="1" stroke-width="2" stroke-linecap="butt" stroke-linejoin="miter" stroke-miterlimit="2" transform="matrix(0.507701,0,0,0.498208,-117.302,-6.54606)"
font-family="Arial" font-size="30" font-weight="700" font-style="normal" 
>
<path vector-effect="none" fill-rule="evenodd" d="M755.778,276 C755.778,268.189 749.447,261.858 741.636,261.858 C733.826,261.858 727.494,268.189 727.494,276 C727.494,283.81 733.826,290.142 741.636,290.142 C749.447,290.142 755.778,283.81 755.778,276 "/>
</g>

<g fill="#0073bd" fill-opacity="1" stroke="none" transform="matrix(0.507701,0,0,0.498208,-117.302,-6.54606)"
font-family="Arial" font-size="30" font-weight="700" font-style="normal" 
>
<circle cx="805.091" cy="276" r="14.1421"/>
</g>

<g fill="none" stroke="#000000" stroke-opacity="1" stroke-width="2" stroke-linecap="butt" stroke-linejoin="miter" stroke-miterlimit="2" transform="matrix(0.507701,0,0,0.498208,-117.302,-6.54606)"
font-family="Arial" font-size="30" font-weight="700" font-style="normal" 
>
<path vector-effect="none" fill-rule="evenodd" d="M819.233,276 C819.233,268.189 812.901,261.858 805.091,261.858 C797.28,261.858 790.949,268.189 790.949,276 C790.949,283.81 797.28,290.142 805.091,290.142 C812.901,290.142 819.233,283.81 819.233,276 "/>
</g>

<g fill="#ffffff" fill-opacity="1" stroke="none" transform="matrix(0.507701,0,0,0.498208,-117.302,-6.54606)"
font-family="Arial" font-size="30" font-weight="700" font-style="normal" 
>
<circle cx="868.545" cy="276" r="14.1421"/>
</g>

<g fill="none" stroke="#000000" stroke-opacity="1" stroke-width="2" stroke-linecap="butt" stroke-linejoin="miter" stroke-miterlimit="2" transform="matrix(0.507701,0,0,0.498208,-117.302,-6.54606)"
font-family="Arial" font-size="30" font-weight="700" font-style="normal" 
>
<path vector-effect="none" fill-rule="evenodd" d="M882.688,276 C882.688,268.189 876.356,261.858 868.545,261.858 C860.735,261.858 854.403,268.189 854.403,276 C854.403,283.81 860.735,290.142 868.545,290.142 C876.356,290.142 882.688,283.81 882.688,276 "/>
</g>

<g fill="#ffffff" fill-opacity="1" stroke="none" transform="matrix(0.507701,0,0,0.498208,-117.302,-6.54606)"
font-family="Arial" font-size="30" font-weight="700" font-style="normal" 
>
<circle cx="932" cy="276" r="14.1421"/>
</g>

<g fill="none" stroke="#000000" stroke-opacity="1" stroke-width="2" stroke-linecap="butt" stroke-linejoin="miter" stroke-miterlimit="2" transform="matrix(0.507701,0,0,0.498208,-117.302,-6.54606)"
font-family="Arial" font-size="30" font-weight="700" font-style="normal" 
>
<path vector-effect="none" fill-rule="evenodd" d="M946.142,276 C946.142,268.189 939.81,261.858 932,261.858 C924.189,261.858 917.858,268.189 917.858,276 C917.858,283.81 924.189,290.142 932,290.142 C939.81,290.142 946.142,283.81 946.142,276 "/>
</g>

<g fill="#ffffff" fill-opacity="1" stroke="none" transform="matrix(0.507701,0,0,0.498208,-117.302,-6.54606)"
font-family="Arial" font-size="30" font-weight="700" font-style="normal" 
>
<circle cx="995.455" cy="276" r="14.1421"/>
</g>

<g fill="none" stroke="#000000" stroke-opacity="1" stroke-width="2" stroke-linecap="butt" stroke-linejoin="miter" stroke-miterlimit="2" transform="matrix(0.507701,0,0,0.498208,-117.302,-6.54606)"
font-family="Arial" font-size="30" font-weight="700" font-style="normal" 
>
<path vector-effect="none" fill-rule="evenodd" d="M1009.6,276 C1009.6,268.189 1003.26,261.858 995.455,261.858 C987.644,261.858 981.312,268.189 981.312,276 C981.312,283.81 987.644,290.142 995.455,290.142 C1003.26,290.142 1009.6,283.81 1009.6,276 "/>
</g>

<g fill="#ffffff" fill-opacity="1" stroke="none" transform="matrix(0.507701,0,0,0.498208,-117.302,-6.54606)"
font-family="Arial" font-size="30" font-weight="700" font-style="normal" 
>
<circle cx="1058.91" cy="276" r="14.1421"/>
</g>

<g fill="none" stroke="#000000" stroke-opacity="1" stroke-width="2" stroke-linecap="butt" stroke-linejoin="miter" stroke-miterlimit="2" transform="matrix(0.507701,0,0,0.498208,-117.302,-6.54606)"
font-family="Arial" font-size="30" font-weight="700" font-style="normal" 
>
<path vector-effect="none" fill-rule="evenodd" d="M1073.05,276 C1073.05,268.189 1066.72,261.858 1058.91,261.858 C1051.1,261.858 1044.77,268.189 1044.77,276 C1044.77,283.81 1051.1,290.142 1058.91,290.142 C1066.72,290.142 1073.05,283.81 1073.05,276 "/>
</g>

<g fill="#ffffff" fill-opacity="1" stroke="none" transform="matrix(0.507701,0,0,0.498208,-117.302,-6.54606)"
font-family="Arial" font-size="30" font-weight="700" font-style="normal" 
>
<circle cx="1122.36" cy="276" r="14.1421"/>
</g>

<g fill="none" stroke="#000000" stroke-opacity="1" stroke-width="2" stroke-linecap="butt" stroke-linejoin="miter" stroke-miterlimit="2" transform="matrix(0.507701,0,0,0.498208,-117.302,-6.54606)"
font-family="Arial" font-size="30" font-weight="700" font-style="normal" 
>
<path vector-effect="none" fill-rule="evenodd" d="M1136.51,276 C1136.51,268.189 1130.17,261.858 1122.36,261.858 C1114.55,261.858 1108.22,268.189 1108.22,276 C1108.22,283.81 1114.55,290.142 1122.36,290.142 C1130.17,290.142 1136.51,283.81 1136.51,276 "/>
</g>

<g fill="#ffffff" fill-opacity="1" stroke="none" transform="matrix(0.507701,0,0,0.498208,-117.302,-6.54606)"
font-family="Arial" font-size="30" font-weight="700" font-style="normal" 
>
<circle cx="1185.82" cy="276" r="14.1421"/>
</g>

<g fill="none" stroke="#000000" stroke-opacity="1" stroke-width="2" stroke-linecap="butt" stroke-linejoin="miter" stroke-miterlimit="2" transform="matrix(0.507701,0,0,0.498208,-117.302,-6.54606)"
font-family="Arial" font-size="30" font-weight="700" font-style="normal" 
>
<path vector-effect="none" fill-rule="evenodd" d="M1199.96,276 C1199.96,268.189 1193.63,261.858 1185.82,261.858 C1178.01,261.858 1171.68,268.189 1171.68,276 C1171.68,283.81 1178.01,290.142 1185.82,290.142 C1193.63,290.142 1199.96,283.81 1199.96,276 "/>
</g>

<g fill="#0073bd" fill-opacity="1" stroke="none" transform="matrix(0.507701,0,0,0.498208,-117.302,-6.54606)"
font-family="Arial" font-size="30" font-weight="700" font-style="normal" 
>
<circle cx="1249.27" cy="276" r="14.1421"/>
</g>

<g fill="none" stroke="#000000" stroke-opacity="1" stroke-width="2" stroke-linecap="butt" stroke-linejoin="miter" stroke-miterlimit="2" transform="matrix(0.507701,0,0,0.498208,-117.302,-6.54606)"
font-family="Arial" font-size="30" font-weight="700" font-style="normal" 
>
<path vector-effect="none" fill-rule="evenodd" d="M1263.41,276 C1263.41,268.189 1257.08,261.858 1249.27,261.858 C1241.46,261.858 1235.13,268.189 1235.13,276 C1235.13,283.81 1241.46,290.142 1249.27,290.142 C1257.08,290.142 1263.41,283.81 1263.41,276 "/>
</g>

<g fill="#0073bd" fill-opacity="1" stroke="none" transform="matrix(0.507701,0,0,0.498208,-117.302,-6.54606)"
font-family="Arial" font-size="30" font-weight="700" font-style="normal" 
>
<circle cx="1312.73" cy="276" r="14.1421"/>
</g>

<g fill="none" stroke="#000000" stroke-opacity="1" stroke-width="2" stroke-linecap="butt" stroke-linejoin="miter" stroke-miterlimit="2" transform="matrix(0.507701,0,0,0.498208,-117.302,-6.54606)"
font-family="Arial" font-size="30" font-weight="700" font-style="normal" 
>
<path vector-effect="none" fill-rule="evenodd" d="M1326.87,276 C1326.87,268.189 1320.54,261.858 1312.73,261.858 C1304.92,261.858 1298.59,268.189 1298.59,276 C1298.59,283.81 1304.92,290.142 1312.73,290.142 C1320.54,290.142 1326.87,283.81 1326.87,276 "/>
</g>

<g fill="#ffffff" fill-opacity="1" stroke="none" transform="matrix(0.507701,0,0,0.498208,-117.302,-6.54606)"
font-family="Arial" font-size="30" font-weight="700" font-style="normal" 
>
<circle cx="1376.18" cy="276" r="14.1421"/>
</g>

<g fill="none" stroke="#000000" stroke-opacity="1" stroke-width="2" stroke-linecap="butt" stroke-linejoin="miter" stroke-miterlimit="2" transform="matrix(0.507701,0,0,0.498208,-117.302,-6.54606)"
font-family="Arial" font-size="30" font-weight="700" font-style="normal" 
>
<path vector-effect="none" fill-rule="evenodd" d="M1390.32,276 C1390.32,268.189 1383.99,261.858 1376.18,261.858 C1368.37,261.858 1362.04,268.189 1362.04,276 C1362.04,283.81 1368.37,290.142 1376.18,290.142 C1383.99,290.142 1390.32,283.81 1390.32,276 "/>
</g>

<g fill="#0073bd" fill-opacity="1" stroke="none" transform="matrix(0.507701,0,0,0.498208,-117.302,-6.54606)"
font-family="Arial" font-size="30" font-weight="700" font-style="normal" 
>
<circle cx="1439.64" cy="276" r="14.1421"/>
</g>

<g fill="none" stroke="#000000" stroke-opacity="1" stroke-width="2" stroke-linecap="butt" stroke-linejoin="miter" stroke-miterlimit="2" transform="matrix(0.507701,0,0,0.498208,-117.302,-6.54606)"
font-family="Arial" font-size="30" font-weight="700" font-style="normal" 
>
<path vector-effect="none" fill-rule="evenodd" d="M1453.78,276 C1453.78,268.189 1447.45,261.858 1439.64,261.858 C1431.83,261.858 1425.49,268.189 1425.49,276 C1425.49,283.81 1431.83,290.142 1439.64,290.142 C1447.45,290.142 1453.78,283.81 1453.78,276 "/>
</g>

<g fill="#0073bd" fill-opacity="1" stroke="none" transform="matrix(0.507701,0,0,0.498208,-117.302,-6.54606)"
font-family="Arial" font-size="30" font-weight="700" font-style="normal" 
>
<circle cx="1503.09" cy="276" r="14.1421"/>
</g>

<g fill="none" stroke="#000000" stroke-opacity="1" stroke-width="2" stroke-linecap="butt" stroke-linejoin="miter" stroke-miterlimit="2" transform="matrix(0.507701,0,0,0.498208,-117.302,-6.54606)"
font-family="Arial" font-size="30" font-weight="700" font-style="normal" 
>
<path vector-effect="none" fill-rule="evenodd" d="M1517.23,276 C1517.23,268.189 1510.9,261.858 1503.09,261.858 C1495.28,261.858 1488.95,268.189 1488.95,276 C1488.95,283.81 1495.28,290.142 1503.09,290.142 C1510.9,290.142 1517.23,283.81 1517.23,276 "/>
</g>

<g fill="#0073bd" fill-opacity="1" stroke="none" transform="matrix(0.507701,0,0,0.498208,-117.302,-6.54606)"
font-family="Arial" font-size="30" font-weight="700" font-style="normal" 
>
<circle cx="1566.55" cy="276" r="14.1421"/>
</g>

<g fill="none" stroke="#000000" stroke-opacity="1" stroke-width="2" stroke-linecap="butt" stroke-linejoin="miter" stroke-miterlimit="2" transform="matrix(0.507701,0,0,0.498208,-117.302,-6.54606)"
font-family="Arial" font-size="30" font-weight="700" font-style="normal" 
>
<path vector-effect="none" fill-rule="evenodd" d="M1580.69,276 C1580.69,268.189 1574.36,261.858 1566.55,261.858 C1558.73,261.858 1552.4,268.189 1552.4,276 C1552.4,283.81 1558.73,290.142 1566.55,290.142 C1574.36,290.142 1580.69,283.81 1580.69,276 "/>
</g>

<g fill="#ffffff" fill-opacity="1" stroke="none" transform="matrix(5.07701e-05,0,0,4.98208e-05,-117.302,-6.54606)"
font-family="Arial" font-size="30" font-weight="700" font-style="normal" 
>
<path vector-effect="none" fill-rule="evenodd" d="M1.489e+07,640000 L1.489e+07,1.27e+06 L1.614e+07,1.27e+06 L1.614e+07,640000 L1.489e+07,640000"/>
</g>

<g fill="#0073bd" fill-opacity="1" stroke="none" transform="matrix(0.507701,0,0,0.498208,-117.302,-6.54606)"
font-family="Arial" font-size="30" font-weight="700" font-style="normal" 
>
<circle cx="1505.57" cy="81.0677" r="6"/>
</g>

<g fill="#ffffff" fill-opacity="1" stroke="none" transform="matrix(0.507701,0,0,0.498208,-117.302,-6.54606)"
font-family="Arial" font-size="30" font-weight="700" font-style="normal" 
>
<circle cx="1505.57" cy="109.932" r="6"/>
</g>

<g fill="none" stroke="#000000" stroke-opacity="1" stroke-width="1" stroke-linecap="butt" stroke-linejoin="miter" stroke-miterlimit="2" transform="matrix(0.507701,0,0,0.498208,-117.302,-6.54606)"
font-family="Arial" font-size="30" font-weight="700" font-style="normal" 
>
<path vector-effect="none" fill-rule="evenodd" d="M1511.57,109.932 C1511.57,106.619 1508.88,103.932 1505.57,103.932 C1502.25,103.932 1499.57,106.619 1499.57,109.932 C1499.57,113.246 1502.25,115.932 1505.57,115.932 C1508.88,115.932 1511.57,113.246 1511.57,109.932 "/>
</g>

<g fill="#212121" fill-opacity="1" stroke="#212121" stroke-opacity="1" stroke-width="1" stroke-linecap="square" stroke-linejoin="bevel" transform="matrix(0.507701,0,0,0.498208,654.721,38.3264)"
font-family="Arial" font-size="25" font-weight="400" font-style="normal" 
>
<text fill="#212121" fill-opacity="1" stroke="none" xml:space="preserve" x="0" y="-0.375" font-family="Arial" font-size="25" font-weight="400" font-style="normal" 
 >Present</text>
</g>

<g fill="#212121" fill-opacity="1" stroke="#212121" stroke-opacity="1" stroke-width="1" stroke-linecap="square" stroke-linejoin="bevel" transform="matrix(0.507701,0,0,0.498208,654.721,52.707)"
font-family="Arial" font-size="25" font-weight="400" font-style="normal" 
>
<text fill="#212121" fill-opacity="1" stroke="none" xml:space="preserve" x="0" y="-0.375" font-family="Arial" font-size="25" font-weight="400" font-style="normal" 
 >Absent</text>
</g>

<g fill="none" stroke="#212121" stroke-opacity="1" stroke-width="1" stroke-linecap="butt" stroke-linejoin="miter" stroke-miterlimit="2" transform="matrix(0.507701,0,0,0.498208,-117.302,-6.54606)"
font-family="Arial" font-size="25" font-weight="400" font-style="normal" 
>
<path vector-effect="none" fill-rule="evenodd" d="M1489,127 L1489,64 L1614,64 L1614,127 L1489,127"/>
</g>
</g>
</svg>
