<?xml version="1.0" encoding="UTF-8" standalone="no"?>
<svg width="103.011mm" height="142.875mm"
 viewBox="0 0 292 405"
 xmlns="http://www.w3.org/2000/svg" xmlns:xlink="http://www.w3.org/1999/xlink"  version="1.2" baseProfile="tiny">
<title>Qt SVG Document</title>
<desc>MATLAB, The MathWorks, Inc. Version 25.2.0.3042426 R2025b Update 1</desc>
<defs>
</defs>
<g fill="none" stroke="black" stroke-width="1" fill-rule="evenodd" stroke-linecap="square" stroke-linejoin="bevel" >

<g fill="#ffffff" fill-opacity="1" stroke="none" transform="matrix(0.494616,0,0,0.509506,-86.0997,-10.7281)"
font-family=".AppleSystemUIFont" font-size="13" font-weight="400" font-style="normal" 
>
<path vector-effect="none" fill-rule="evenodd" d="M173,21 L764,21 L764,816 L173,816 L173,21"/>
</g>

<g fill="#212121" fill-opacity="1" stroke="#212121" stroke-opacity="1" stroke-width="1" stroke-linecap="square" stroke-linejoin="bevel" transform="matrix(0.494616,0,0,0.509506,57.0915,13.7281)"
font-family="Helvetica" font-size="32" font-weight="700" font-style="normal" 
>
<text fill="#212121" fill-opacity="1" stroke="none" xml:space="preserve" x="0" y="-0.359375" font-family="Helvetica" font-size="32" font-weight="700" font-style="normal" 
 >Pan-genome: 5109 CDS</text>
</g>

<g fill="#0072bc" fill-opacity="1" stroke="none" transform="matrix(4.94616e-05,0,0,5.09506e-05,-86.0997,-10.7281)"
font-family="Helvetica" font-size="32" font-weight="700" font-style="normal" 
>
<path vector-effect="none" fill-rule="evenodd" d="M2.84648e+06,5.67366e+06 L2.96884e+06,5.78497e+06 L3.0979e+06,5.88842e+06 L3.23316e+06,5.98362e+06 L3.3741e+06,6.0702e+06 L3.52016e+06,6.14781e+06 L3.67079e+06,6.21616e+06 L3.82538e+06,6.27498e+06 L3.98334e+06,6.32404e+06 L4.14406e+06,6.36315e+06 L4.3069e+06,6.39216e+06 L4.47124e+06,6.41095e+06 L4.63642e+06,6.41946e+06 L4.80182e+06,6.41764e+06 L4.96678e+06,6.40551e+06 L5.13066e+06,6.38311e+06 L5.29283e+06,6.35052e+06 L5.45264e+06,6.30789e+06 L5.60949e+06,6.25537e+06 L5.76275e+06,6.19316e+06 L5.91184e+06,6.12151e+06 L6.05616e+06,6.04071e+06 L6.19516e+06,5.95105e+06 L6.3283e+06,5.8529e+06 L6.45505e+06,5.74664e+06 L6.57493e+06,5.63267e+06 L6.68747e+06,5.51145e+06 L6.79222e+06,5.38344e+06 L6.88878e+06,5.24914e+06 L6.97678e+06,5.10909e+06 L4.69e+06,3.77e+06 L4.69e+06,1.12e+06 L4.52467e+06,1.12516e+06 L4.35999e+06,1.14063e+06 L4.1966e+06,1.16634e+06 L4.03512e+06,1.20219e+06 L3.8762e+06,1.24805e+06 L3.72045e+06,1.30373e+06 L3.56848e+06,1.36902e+06 L3.42087e+06,1.44367e+06 L3.27821e+06,1.52738e+06 L3.14105e+06,1.61982e+06 L3.00993e+06,1.72065e+06 L2.88535e+06,1.82945e+06 L2.7678e+06,1.94582e+06 L2.65774e+06,2.06929e+06 L2.55559e+06,2.19939e+06 L2.46176e+06,2.33561e+06 L2.37662e+06,2.47742e+06 L2.30048e+06,2.62426e+06 L2.23366e+06,2.77557e+06 L2.17641e+06,2.93075e+06 L2.12894e+06,3.0892e+06 L2.09146e+06,3.2503e+06 L2.0641e+06,3.41343e+06 L2.04697e+06,3.57795e+06 L2.04014e+06,3.74321e+06 L2.04363e+06,3.90858e+06 L2.05743e+06,4.07341e+06 L2.08148e+06,4.23706e+06 L2.1157e+06,4.39888e+06 L2.15995e+06,4.55826e+06 L2.21406e+06,4.71457e+06 L2.27781e+06,4.86719e+06 L2.35096e+06,5.01555e+06 L2.43322e+06,5.15905e+06 L2.52428e+06,5.29713e+06 L2.62377e+06,5.42927e+06 L2.73131e+06,5.55495e+06 L2.84648e+06,5.67366e+06"/>
</g>

<g fill="none" stroke="#212121" stroke-opacity="1" stroke-width="1" stroke-linecap="square" stroke-linejoin="miter" stroke-miterlimit="2" transform="matrix(0.494616,0,0,0.509506,-86.0997,-10.7281)"
font-family="Helvetica" font-size="32" font-weight="700" font-style="normal" 
>
<polyline fill="none" vector-effect="none" points="469,377 469,112 452.467,112.516 435.999,114.063 419.66,116.634 403.512,120.219 387.62,124.805 372.045,130.373 356.848,136.902 342.087,144.367 327.821,152.738 314.105,161.982 300.993,172.065 288.535,182.945 276.78,194.582 265.774,206.929 255.559,219.939 246.176,233.561 237.662,247.742 230.048,262.426 223.366,277.557 217.641,293.075 212.894,308.92 209.146,325.03 206.41,341.343 204.697,357.795 204.014,374.321 204.363,390.858 205.743,407.341 208.148,423.706 211.57,439.888 215.995,455.826 221.406,471.457 227.781,486.719 235.096,501.555 243.322,515.905 252.428,529.713 262.377,542.927 273.131,555.495 284.648,567.366 296.884,578.497 309.79,588.842 323.316,598.362 337.41,607.02 352.016,614.781 367.079,621.616 382.538,627.498 398.334,632.404 414.406,636.315 430.69,639.216 447.124,641.095 463.642,641.946 480.182,641.764 496.678,640.551 513.066,638.31 529.283,635.052 545.264,630.789 560.949,625.536 576.275,619.316 591.184,612.151 605.616,604.071 619.516,595.105 632.83,585.29 645.505,574.664 657.493,563.267 668.747,551.145 679.222,538.344 688.878,524.914 697.678,510.909 469,377 469,377 " />
</g>

<g fill="#e57f4c" fill-opacity="1" stroke="none" transform="matrix(4.94616e-05,0,0,5.09506e-05,-86.0997,-10.7281)"
font-family="Helvetica" font-size="32" font-weight="700" font-style="normal" 
>
<path vector-effect="none" fill-rule="evenodd" d="M4.69e+06,1.12e+06 L4.69e+06,3.77e+06 L6.97678e+06,5.10909e+06 L7.05509e+06,4.96534e+06 L7.12438e+06,4.81704e+06 L7.18438e+06,4.66474e+06 L7.23487e+06,4.50903e+06 L7.27564e+06,4.35049e+06 L7.30655e+06,4.18974e+06 L7.32747e+06,4.02739e+06 L7.33833e+06,3.86406e+06 L7.33909e+06,3.70037e+06 L7.32973e+06,3.53694e+06 L7.31031e+06,3.37441e+06 L7.28088e+06,3.21338e+06 L7.24157e+06,3.05448e+06 L7.19253e+06,2.89831e+06 L7.13393e+06,2.74546e+06 L7.06602e+06,2.59652e+06 L6.98903e+06,2.45206e+06 L6.90327e+06,2.31263e+06 L6.80907e+06,2.17876e+06 L6.70678e+06,2.05096e+06 L6.5968e+06,1.92972e+06 L6.47954e+06,1.81551e+06 L6.35545e+06,1.70875e+06 L6.22501e+06,1.60985e+06 L6.08871e+06,1.5192e+06 L5.94707e+06,1.43713e+06 L5.80064e+06,1.36397e+06 L5.64997e+06,1.29999e+06 L5.49564e+06,1.24543e+06 L5.33823e+06,1.20051e+06 L5.17835e+06,1.16539e+06 L5.01661e+06,1.1402e+06 L4.85362e+06,1.12506e+06 L4.69e+06,1.12e+06"/>
</g>

<g fill="none" stroke="#212121" stroke-opacity="1" stroke-width="1" stroke-linecap="square" stroke-linejoin="miter" stroke-miterlimit="2" transform="matrix(0.494616,0,0,0.509506,-86.0997,-10.7281)"
font-family="Helvetica" font-size="32" font-weight="700" font-style="normal" 
>
<polyline fill="none" vector-effect="none" points="469,377 697.678,510.909 705.509,496.534 712.438,481.704 718.438,466.474 723.487,450.903 727.564,435.049 730.655,418.974 732.747,402.739 733.833,386.406 733.909,370.037 732.973,353.694 731.031,337.441 728.088,321.338 724.157,305.448 719.253,289.831 713.393,274.546 706.602,259.652 698.903,245.206 690.327,231.263 680.907,217.876 670.678,205.096 659.68,192.972 647.954,181.551 635.545,170.875 622.501,160.985 608.871,151.92 594.707,143.713 580.064,136.397 564.997,129.999 549.564,124.543 533.823,120.051 517.835,116.539 501.661,114.02 485.361,112.506 469,112 469,377 469,377 " />
</g>

<g fill="#212121" fill-opacity="1" stroke="#212121" stroke-opacity="1" stroke-width="1" stroke-linecap="square" stroke-linejoin="bevel" transform="matrix(0.494616,0,0,0.509506,1.00538,262.863)"
font-family="Helvetica" font-size="20" font-weight="400" font-style="normal" 
>
<text fill="#212121" fill-opacity="1" stroke="none" xml:space="preserve" x="0" y="0.390625" font-family="Helvetica" font-size="20" font-weight="400" font-style="normal" 
 >67%</text>
</g>

<g fill="#212121" fill-opacity="1" stroke="#212121" stroke-opacity="1" stroke-width="1" stroke-linecap="square" stroke-linejoin="bevel" transform="matrix(0.494616,0,0,0.509506,270.96,104.943)"
font-family="Helvetica" font-size="20" font-weight="400" font-style="normal" 
>
<text fill="#212121" fill-opacity="1" stroke="none" xml:space="preserve" x="0" y="0.390625" font-family="Helvetica" font-size="20" font-weight="400" font-style="normal" 
 >33%</text>
</g>

<g fill="#ffffff" fill-opacity="1" stroke="none" transform="matrix(4.94616e-05,0,0,5.09506e-05,-86.0997,-10.7281)"
font-family="Helvetica" font-size="20" font-weight="400" font-style="normal" 
>
<path vector-effect="none" fill-rule="evenodd" d="M3.11e+06,7.42e+06 L3.11e+06,8.13e+06 L6.27e+06,8.13e+06 L6.27e+06,7.42e+06 L3.11e+06,7.42e+06"/>
</g>

<g fill="#0072bc" fill-opacity="1" stroke="none" transform="matrix(4.94616e-05,0,0,5.09506e-05,-86.0997,-10.7281)"
font-family="Helvetica" font-size="20" font-weight="400" font-style="normal" 
>
<path vector-effect="none" fill-rule="evenodd" d="M3.1701e+06,7.49025e+06 L3.1701e+06,7.7311e+06 L3.77105e+06,7.7311e+06 L3.77105e+06,7.49025e+06 L3.1701e+06,7.49025e+06"/>
</g>

<g fill="none" stroke="#212121" stroke-opacity="1" stroke-width="1" stroke-linecap="butt" stroke-linejoin="miter" stroke-miterlimit="2" transform="matrix(0.494616,0,0,0.509506,-86.0997,-10.7281)"
font-family="Helvetica" font-size="20" font-weight="400" font-style="normal" 
>
<path vector-effect="none" fill-rule="evenodd" d="M317.01,773.11 L317.01,749.025 L377.105,749.025 L377.105,773.11 L317.01,773.11"/>
</g>

<g fill="#e57f4c" fill-opacity="1" stroke="none" transform="matrix(4.94616e-05,0,0,5.09506e-05,-86.0997,-10.7281)"
font-family="Helvetica" font-size="20" font-weight="400" font-style="normal" 
>
<path vector-effect="none" fill-rule="evenodd" d="M3.1701e+06,7.8189e+06 L3.1701e+06,8.05975e+06 L3.77105e+06,8.05975e+06 L3.77105e+06,7.8189e+06 L3.1701e+06,7.8189e+06"/>
</g>

<g fill="none" stroke="#212121" stroke-opacity="1" stroke-width="1" stroke-linecap="butt" stroke-linejoin="miter" stroke-miterlimit="2" transform="matrix(0.494616,0,0,0.509506,-86.0997,-10.7281)"
font-family="Helvetica" font-size="20" font-weight="400" font-style="normal" 
>
<path vector-effect="none" fill-rule="evenodd" d="M317.01,805.975 L317.01,781.89 L377.105,781.89 L377.105,805.975 L317.01,805.975"/>
</g>

<g fill="#212121" fill-opacity="1" stroke="#212121" stroke-opacity="1" stroke-width="1" stroke-linecap="square" stroke-linejoin="bevel" transform="matrix(0.494616,0,0,0.509506,102.651,381.116)"
font-family="Helvetica" font-size="28" font-weight="400" font-style="normal" 
>
<text fill="#212121" fill-opacity="1" stroke="none" xml:space="preserve" x="0" y="-0.453125" font-family="Helvetica" font-size="28" font-weight="400" font-style="normal" 
 >Core genome</text>
</g>

<g fill="#212121" fill-opacity="1" stroke="#212121" stroke-opacity="1" stroke-width="1" stroke-linecap="square" stroke-linejoin="bevel" transform="matrix(0.494616,0,0,0.509506,102.651,397.861)"
font-family="Helvetica" font-size="28" font-weight="400" font-style="normal" 
>
<text fill="#212121" fill-opacity="1" stroke="none" xml:space="preserve" x="0" y="-0.453125" font-family="Helvetica" font-size="28" font-weight="400" font-style="normal" 
 >Accessory genome</text>
</g>

<g fill="none" stroke="#212121" stroke-opacity="1" stroke-width="1" stroke-linecap="butt" stroke-linejoin="miter" stroke-miterlimit="2" transform="matrix(0.494616,0,0,0.509506,-86.0997,-10.7281)"
font-family="Helvetica" font-size="28" font-weight="400" font-style="normal" 
>
<path vector-effect="none" fill-rule="evenodd" d="M311,813 L311,742 L627,742 L627,813 L311,813"/>
</g>
</g>
</svg>
