<?xml version="1.0" encoding="UTF-8" standalone="no"?>
<svg width="438.15mm" height="168.981mm"
 viewBox="0 0 1242 479"
 xmlns="http://www.w3.org/2000/svg" xmlns:xlink="http://www.w3.org/1999/xlink"  version="1.2" baseProfile="tiny">
<title>Qt SVG Document</title>
<desc>MATLAB, The MathWorks, Inc. Version 25.2.0.3042426 R2025b Update 1</desc>
<defs>
</defs>
<g fill="none" stroke="black" stroke-width="1" fill-rule="evenodd" stroke-linecap="square" stroke-linejoin="bevel" >

<g fill="#ffffff" fill-opacity="1" stroke="none" transform="matrix(0.509919,0,0,0.523909,-129.753,-32.0302)"
font-family=".AppleSystemUIFont" font-size="13" font-weight="400" font-style="normal" 
>
<path vector-effect="none" fill-rule="evenodd" d="M254,61 L2690,61 L2690,975 L254,975 L254,61"/>
</g>

<g fill="#ffffff" fill-opacity="1" stroke="none" transform="matrix(5.09918e-05,0,0,5.23909e-05,-129.753,-32.0302)"
font-family=".AppleSystemUIFont" font-size="13" font-weight="400" font-style="normal" 
>
<path vector-effect="none" fill-rule="evenodd" d="M3.51e+06,760000 L3.51e+06,8.96e+06 L9.27e+06,8.96e+06 L9.27e+06,760000 L3.51e+06,760000"/>
</g>

<g fill="#cccccc" fill-opacity="1" stroke="#cccccc" stroke-opacity="1" stroke-width="2.4" stroke-linecap="butt" stroke-linejoin="round" transform="matrix(0.509919,0,0,0.523909,-129.753,-32.0302)"
font-family=".AppleSystemUIFont" font-size="13" font-weight="400" font-style="normal" 
>
<polyline fill="none" vector-effect="none" points="351,896 927,896 " />
<polyline fill="none" vector-effect="none" points="351,814 927,814 " />
<polyline fill="none" vector-effect="none" points="351,732 927,732 " />
<polyline fill="none" vector-effect="none" points="351,650 927,650 " />
<polyline fill="none" vector-effect="none" points="351,568 927,568 " />
<polyline fill="none" vector-effect="none" points="351,486 927,486 " />
<polyline fill="none" vector-effect="none" points="351,404 927,404 " />
<polyline fill="none" vector-effect="none" points="351,322 927,322 " />
<polyline fill="none" vector-effect="none" points="351,240 927,240 " />
<polyline fill="none" vector-effect="none" points="351,158 927,158 " />
<polyline fill="none" vector-effect="none" points="351,76 927,76 " />
</g>

<g fill="#212121" fill-opacity="1" stroke="#212121" stroke-opacity="1" stroke-width="1" stroke-linecap="butt" stroke-linejoin="round" transform="matrix(0.509919,0,0,0.523909,-129.753,-32.0302)"
font-family=".AppleSystemUIFont" font-size="13" font-weight="400" font-style="normal" 
>
<polyline fill="none" vector-effect="none" points="351,896 927,896 " />
</g>

<g fill="#0000cc" fill-opacity="1" stroke="none" transform="matrix(5.09918e-05,0,0,5.23909e-05,-129.753,-32.0302)"
font-family=".AppleSystemUIFont" font-size="13" font-weight="400" font-style="normal" 
>
<path vector-effect="none" fill-rule="evenodd" d="M3.87e+06,760000 L3.87e+06,8.96e+06 L5.31e+06,8.96e+06 L5.31e+06,760000 L3.87e+06,760000"/>
</g>

<g fill="none" stroke="#000000" stroke-opacity="1" stroke-width="2.4" stroke-linecap="butt" stroke-linejoin="miter" stroke-miterlimit="2" transform="matrix(0.509919,0,0,0.523909,-129.753,-32.0302)"
font-family=".AppleSystemUIFont" font-size="13" font-weight="400" font-style="normal" 
>
<path vector-effect="none" fill-rule="evenodd" d="M387,896 L387,76 L531,76 L531,896 L387,896"/>
</g>

<g fill="#0000cc" fill-opacity="1" stroke="none" transform="matrix(5.09918e-05,0,0,5.23909e-05,-129.753,-32.0302)"
font-family=".AppleSystemUIFont" font-size="13" font-weight="400" font-style="normal" 
>
<path vector-effect="none" fill-rule="evenodd" d="M5.67e+06,760000 L5.67e+06,8.96e+06 L7.11e+06,8.96e+06 L7.11e+06,760000 L5.67e+06,760000"/>
</g>

<g fill="none" stroke="#000000" stroke-opacity="1" stroke-width="2.4" stroke-linecap="butt" stroke-linejoin="miter" stroke-miterlimit="2" transform="matrix(0.509919,0,0,0.523909,-129.753,-32.0302)"
font-family=".AppleSystemUIFont" font-size="13" font-weight="400" font-style="normal" 
>
<path vector-effect="none" fill-rule="evenodd" d="M567,896 L567,76 L711,76 L711,896 L567,896"/>
</g>

<g fill="#0000cc" fill-opacity="1" stroke="none" transform="matrix(5.09918e-05,0,0,5.23909e-05,-129.753,-32.0302)"
font-family=".AppleSystemUIFont" font-size="13" font-weight="400" font-style="normal" 
>
<path vector-effect="none" fill-rule="evenodd" d="M7.47e+06,760000 L7.47e+06,8.96e+06 L8.91e+06,8.96e+06 L8.91e+06,760000 L7.47e+06,760000"/>
</g>

<g fill="none" stroke="#000000" stroke-opacity="1" stroke-width="2.4" stroke-linecap="butt" stroke-linejoin="miter" stroke-miterlimit="2" transform="matrix(0.509919,0,0,0.523909,-129.753,-32.0302)"
font-family=".AppleSystemUIFont" font-size="13" font-weight="400" font-style="normal" 
>
<path vector-effect="none" fill-rule="evenodd" d="M747,896 L747,76 L891,76 L891,896 L747,896"/>
</g>

<g fill="#212121" fill-opacity="1" stroke="#212121" stroke-opacity="1" stroke-width="1" stroke-linecap="square" stroke-linejoin="bevel" transform="matrix(0.509919,0,0,0.523909,181.042,473.333)"
font-family="Helvetica" font-size="32" font-weight="700" font-style="normal" 
>
<text fill="#212121" fill-opacity="1" stroke="none" xml:space="preserve" x="0" y="-0.359375" font-family="Helvetica" font-size="32" font-weight="700" font-style="normal" 
 >Day</text>
</g>

<g fill="#212121" fill-opacity="1" stroke="#212121" stroke-opacity="1" stroke-width="2.4" stroke-linecap="square" stroke-linejoin="round" transform="matrix(0.509919,0,0,0.523909,-129.753,-32.0302)"
font-family="Helvetica" font-size="32" font-weight="700" font-style="normal" 
>
<polyline fill="none" vector-effect="none" points="351,896 927,896 " />
<polyline fill="none" vector-effect="none" points="351,76 927,76 " />
<polyline fill="none" vector-effect="none" points="459,896 459,887.8 " />
<polyline fill="none" vector-effect="none" points="459,84.2 459,76 " />
<polyline fill="none" vector-effect="none" points="639,896 639,887.8 " />
<polyline fill="none" vector-effect="none" points="639,84.2 639,76 " />
<polyline fill="none" vector-effect="none" points="819,896 819,887.8 " />
<polyline fill="none" vector-effect="none" points="819,84.2 819,76 " />
</g>

<g fill="#212121" fill-opacity="1" stroke="#212121" stroke-opacity="1" stroke-width="1" stroke-linecap="square" stroke-linejoin="bevel" transform="matrix(0.509919,0,0,0.523909,94.3562,453.948)"
font-family="Helvetica" font-size="28" font-weight="700" font-style="normal" 
>
<text fill="#212121" fill-opacity="1" stroke="none" xml:space="preserve" x="0" y="-0.453125" font-family="Helvetica" font-size="28" font-weight="700" font-style="normal" 
 >0.5</text>
</g>

<g fill="#212121" fill-opacity="1" stroke="#212121" stroke-opacity="1" stroke-width="1" stroke-linecap="square" stroke-linejoin="bevel" transform="matrix(0.509919,0,0,0.523909,192.006,453.948)"
font-family="Helvetica" font-size="28" font-weight="700" font-style="normal" 
>
<text fill="#212121" fill-opacity="1" stroke="none" xml:space="preserve" x="0" y="-0.453125" font-family="Helvetica" font-size="28" font-weight="700" font-style="normal" 
 >1</text>
</g>

<g fill="#212121" fill-opacity="1" stroke="#212121" stroke-opacity="1" stroke-width="1" stroke-linecap="square" stroke-linejoin="bevel" transform="matrix(0.509919,0,0,0.523909,283.791,453.948)"
font-family="Helvetica" font-size="28" font-weight="700" font-style="normal" 
>
<text fill="#212121" fill-opacity="1" stroke="none" xml:space="preserve" x="0" y="-0.453125" font-family="Helvetica" font-size="28" font-weight="700" font-style="normal" 
 >3</text>
</g>

<g fill="#212121" fill-opacity="1" stroke="#212121" stroke-opacity="1" stroke-width="1" stroke-linecap="square" stroke-linejoin="bevel" transform="matrix(0,-0.523909,0.509919,0,13.738,265.55)"
font-family="Helvetica" font-size="32" font-weight="700" font-style="normal" 
>
<text fill="#212121" fill-opacity="1" stroke="none" xml:space="preserve" x="0" y="-0.359375" font-family="Helvetica" font-size="32" font-weight="700" font-style="normal" 
 >ST1-75 (%)</text>
</g>

<g fill="#212121" fill-opacity="1" stroke="#212121" stroke-opacity="1" stroke-width="2.4" stroke-linecap="square" stroke-linejoin="round" transform="matrix(0.509919,0,0,0.523909,-129.753,-32.0302)"
font-family="Helvetica" font-size="32" font-weight="700" font-style="normal" 
>
<polyline fill="none" vector-effect="none" points="351,896 351,76 " />
<polyline fill="none" vector-effect="none" points="927,896 927,76 " />
<polyline fill="none" vector-effect="none" points="351,896 359.2,896 " />
<polyline fill="none" vector-effect="none" points="918.8,896 927,896 " />
<polyline fill="none" vector-effect="none" points="351,814 359.2,814 " />
<polyline fill="none" vector-effect="none" points="918.8,814 927,814 " />
<polyline fill="none" vector-effect="none" points="351,732 359.2,732 " />
<polyline fill="none" vector-effect="none" points="918.8,732 927,732 " />
<polyline fill="none" vector-effect="none" points="351,650 359.2,650 " />
<polyline fill="none" vector-effect="none" points="918.8,650 927,650 " />
<polyline fill="none" vector-effect="none" points="351,568 359.2,568 " />
<polyline fill="none" vector-effect="none" points="918.8,568 927,568 " />
<polyline fill="none" vector-effect="none" points="351,486 359.2,486 " />
<polyline fill="none" vector-effect="none" points="918.8,486 927,486 " />
<polyline fill="none" vector-effect="none" points="351,404 359.2,404 " />
<polyline fill="none" vector-effect="none" points="918.8,404 927,404 " />
<polyline fill="none" vector-effect="none" points="351,322 359.2,322 " />
<polyline fill="none" vector-effect="none" points="918.8,322 927,322 " />
<polyline fill="none" vector-effect="none" points="351,240 359.2,240 " />
<polyline fill="none" vector-effect="none" points="918.8,240 927,240 " />
<polyline fill="none" vector-effect="none" points="351,158 359.2,158 " />
<polyline fill="none" vector-effect="none" points="918.8,158 927,158 " />
<polyline fill="none" vector-effect="none" points="351,76 359.2,76 " />
<polyline fill="none" vector-effect="none" points="918.8,76 927,76 " />
</g>

<g fill="#212121" fill-opacity="1" stroke="#212121" stroke-opacity="1" stroke-width="1" stroke-linecap="square" stroke-linejoin="bevel" transform="matrix(0.509919,0,0,0.523909,36.1745,441.584)"
font-family="Helvetica" font-size="28" font-weight="700" font-style="normal" 
>
<text fill="#212121" fill-opacity="1" stroke="none" xml:space="preserve" x="0" y="-0.453125" font-family="Helvetica" font-size="28" font-weight="700" font-style="normal" 
 >0</text>
</g>

<g fill="#212121" fill-opacity="1" stroke="#212121" stroke-opacity="1" stroke-width="1" stroke-linecap="square" stroke-linejoin="bevel" transform="matrix(0.509919,0,0,0.523909,28.5257,398.623)"
font-family="Helvetica" font-size="28" font-weight="700" font-style="normal" 
>
<text fill="#212121" fill-opacity="1" stroke="none" xml:space="preserve" x="0" y="-0.453125" font-family="Helvetica" font-size="28" font-weight="700" font-style="normal" 
 >10</text>
</g>

<g fill="#212121" fill-opacity="1" stroke="#212121" stroke-opacity="1" stroke-width="1" stroke-linecap="square" stroke-linejoin="bevel" transform="matrix(0.509919,0,0,0.523909,28.5257,355.663)"
font-family="Helvetica" font-size="28" font-weight="700" font-style="normal" 
>
<text fill="#212121" fill-opacity="1" stroke="none" xml:space="preserve" x="0" y="-0.453125" font-family="Helvetica" font-size="28" font-weight="700" font-style="normal" 
 >20</text>
</g>

<g fill="#212121" fill-opacity="1" stroke="#212121" stroke-opacity="1" stroke-width="1" stroke-linecap="square" stroke-linejoin="bevel" transform="matrix(0.509919,0,0,0.523909,28.5257,312.702)"
font-family="Helvetica" font-size="28" font-weight="700" font-style="normal" 
>
<text fill="#212121" fill-opacity="1" stroke="none" xml:space="preserve" x="0" y="-0.453125" font-family="Helvetica" font-size="28" font-weight="700" font-style="normal" 
 >30</text>
</g>

<g fill="#212121" fill-opacity="1" stroke="#212121" stroke-opacity="1" stroke-width="1" stroke-linecap="square" stroke-linejoin="bevel" transform="matrix(0.509919,0,0,0.523909,28.5257,269.742)"
font-family="Helvetica" font-size="28" font-weight="700" font-style="normal" 
>
<text fill="#212121" fill-opacity="1" stroke="none" xml:space="preserve" x="0" y="-0.453125" font-family="Helvetica" font-size="28" font-weight="700" font-style="normal" 
 >40</text>
</g>

<g fill="#212121" fill-opacity="1" stroke="#212121" stroke-opacity="1" stroke-width="1" stroke-linecap="square" stroke-linejoin="bevel" transform="matrix(0.509919,0,0,0.523909,28.5257,226.781)"
font-family="Helvetica" font-size="28" font-weight="700" font-style="normal" 
>
<text fill="#212121" fill-opacity="1" stroke="none" xml:space="preserve" x="0" y="-0.453125" font-family="Helvetica" font-size="28" font-weight="700" font-style="normal" 
 >50</text>
</g>

<g fill="#212121" fill-opacity="1" stroke="#212121" stroke-opacity="1" stroke-width="1" stroke-linecap="square" stroke-linejoin="bevel" transform="matrix(0.509919,0,0,0.523909,28.5257,183.82)"
font-family="Helvetica" font-size="28" font-weight="700" font-style="normal" 
>
<text fill="#212121" fill-opacity="1" stroke="none" xml:space="preserve" x="0" y="-0.453125" font-family="Helvetica" font-size="28" font-weight="700" font-style="normal" 
 >60</text>
</g>

<g fill="#212121" fill-opacity="1" stroke="#212121" stroke-opacity="1" stroke-width="1" stroke-linecap="square" stroke-linejoin="bevel" transform="matrix(0.509919,0,0,0.523909,28.5257,140.86)"
font-family="Helvetica" font-size="28" font-weight="700" font-style="normal" 
>
<text fill="#212121" fill-opacity="1" stroke="none" xml:space="preserve" x="0" y="-0.453125" font-family="Helvetica" font-size="28" font-weight="700" font-style="normal" 
 >70</text>
</g>

<g fill="#212121" fill-opacity="1" stroke="#212121" stroke-opacity="1" stroke-width="1" stroke-linecap="square" stroke-linejoin="bevel" transform="matrix(0.509919,0,0,0.523909,28.5257,97.8993)"
font-family="Helvetica" font-size="28" font-weight="700" font-style="normal" 
>
<text fill="#212121" fill-opacity="1" stroke="none" xml:space="preserve" x="0" y="-0.453125" font-family="Helvetica" font-size="28" font-weight="700" font-style="normal" 
 >80</text>
</g>

<g fill="#212121" fill-opacity="1" stroke="#212121" stroke-opacity="1" stroke-width="1" stroke-linecap="square" stroke-linejoin="bevel" transform="matrix(0.509919,0,0,0.523909,28.5257,54.9387)"
font-family="Helvetica" font-size="28" font-weight="700" font-style="normal" 
>
<text fill="#212121" fill-opacity="1" stroke="none" xml:space="preserve" x="0" y="-0.453125" font-family="Helvetica" font-size="28" font-weight="700" font-style="normal" 
 >90</text>
</g>

<g fill="#212121" fill-opacity="1" stroke="#212121" stroke-opacity="1" stroke-width="1" stroke-linecap="square" stroke-linejoin="bevel" transform="matrix(0.509919,0,0,0.523909,20.367,11.9782)"
font-family="Helvetica" font-size="28" font-weight="700" font-style="normal" 
>
<text fill="#212121" fill-opacity="1" stroke="none" xml:space="preserve" x="0" y="-0.453125" font-family="Helvetica" font-size="28" font-weight="700" font-style="normal" 
 >100</text>
</g>

<g fill="#ffffff" fill-opacity="1" stroke="none" transform="matrix(5.09918e-05,0,0,5.23909e-05,-129.753,-32.0302)"
font-family="Helvetica" font-size="28" font-weight="700" font-style="normal" 
>
<path vector-effect="none" fill-rule="evenodd" d="M1.109e+07,760000 L1.109e+07,8.96e+06 L1.685e+07,8.96e+06 L1.685e+07,760000 L1.109e+07,760000"/>
</g>

<g fill="#cccccc" fill-opacity="1" stroke="#cccccc" stroke-opacity="1" stroke-width="2.4" stroke-linecap="butt" stroke-linejoin="round" transform="matrix(0.509919,0,0,0.523909,-129.753,-32.0302)"
font-family="Helvetica" font-size="28" font-weight="700" font-style="normal" 
>
<polyline fill="none" vector-effect="none" points="1109,896 1685,896 " />
<polyline fill="none" vector-effect="none" points="1109,814 1685,814 " />
<polyline fill="none" vector-effect="none" points="1109,732 1685,732 " />
<polyline fill="none" vector-effect="none" points="1109,650 1685,650 " />
<polyline fill="none" vector-effect="none" points="1109,568 1685,568 " />
<polyline fill="none" vector-effect="none" points="1109,486 1685,486 " />
<polyline fill="none" vector-effect="none" points="1109,404 1685,404 " />
<polyline fill="none" vector-effect="none" points="1109,322 1685,322 " />
<polyline fill="none" vector-effect="none" points="1109,240 1685,240 " />
<polyline fill="none" vector-effect="none" points="1109,158 1685,158 " />
<polyline fill="none" vector-effect="none" points="1109,76 1685,76 " />
</g>

<g fill="#212121" fill-opacity="1" stroke="#212121" stroke-opacity="1" stroke-width="1" stroke-linecap="butt" stroke-linejoin="round" transform="matrix(0.509919,0,0,0.523909,-129.753,-32.0302)"
font-family="Helvetica" font-size="28" font-weight="700" font-style="normal" 
>
<polyline fill="none" vector-effect="none" points="1109,896 1685,896 " />
</g>

<g fill="#ff0000" fill-opacity="1" stroke="none" transform="matrix(5.09918e-05,0,0,5.23909e-05,-129.753,-32.0302)"
font-family="Helvetica" font-size="28" font-weight="700" font-style="normal" 
>
<path vector-effect="none" fill-rule="evenodd" d="M1.145e+07,760000 L1.145e+07,8.96e+06 L1.289e+07,8.96e+06 L1.289e+07,760000 L1.145e+07,760000"/>
</g>

<g fill="none" stroke="#000000" stroke-opacity="1" stroke-width="2.4" stroke-linecap="butt" stroke-linejoin="miter" stroke-miterlimit="2" transform="matrix(0.509919,0,0,0.523909,-129.753,-32.0302)"
font-family="Helvetica" font-size="28" font-weight="700" font-style="normal" 
>
<path vector-effect="none" fill-rule="evenodd" d="M1145,896 L1145,76 L1289,76 L1289,896 L1145,896"/>
</g>

<g fill="#ff0000" fill-opacity="1" stroke="none" transform="matrix(5.09918e-05,0,0,5.23909e-05,-129.753,-32.0302)"
font-family="Helvetica" font-size="28" font-weight="700" font-style="normal" 
>
<path vector-effect="none" fill-rule="evenodd" d="M1.325e+07,760000 L1.325e+07,8.96e+06 L1.469e+07,8.96e+06 L1.469e+07,760000 L1.325e+07,760000"/>
</g>

<g fill="none" stroke="#000000" stroke-opacity="1" stroke-width="2.4" stroke-linecap="butt" stroke-linejoin="miter" stroke-miterlimit="2" transform="matrix(0.509919,0,0,0.523909,-129.753,-32.0302)"
font-family="Helvetica" font-size="28" font-weight="700" font-style="normal" 
>
<path vector-effect="none" fill-rule="evenodd" d="M1325,896 L1325,76 L1469,76 L1469,896 L1325,896"/>
<path vector-effect="none" fill-rule="evenodd" d="M1505,896 L1505,76 L1649,76 L1649,896 L1505,896"/>
</g>

<g fill="#212121" fill-opacity="1" stroke="#212121" stroke-opacity="1" stroke-width="1" stroke-linecap="square" stroke-linejoin="bevel" transform="matrix(0.509919,0,0,0.523909,567.561,473.333)"
font-family="Helvetica" font-size="32" font-weight="700" font-style="normal" 
>
<text fill="#212121" fill-opacity="1" stroke="none" xml:space="preserve" x="0" y="-0.359375" font-family="Helvetica" font-size="32" font-weight="700" font-style="normal" 
 >Day</text>
</g>

<g fill="#212121" fill-opacity="1" stroke="#212121" stroke-opacity="1" stroke-width="2.4" stroke-linecap="square" stroke-linejoin="round" transform="matrix(0.509919,0,0,0.523909,-129.753,-32.0302)"
font-family="Helvetica" font-size="32" font-weight="700" font-style="normal" 
>
<polyline fill="none" vector-effect="none" points="1109,896 1685,896 " />
<polyline fill="none" vector-effect="none" points="1109,76 1685,76 " />
<polyline fill="none" vector-effect="none" points="1217,896 1217,887.8 " />
<polyline fill="none" vector-effect="none" points="1217,84.2 1217,76 " />
<polyline fill="none" vector-effect="none" points="1397,896 1397,887.8 " />
<polyline fill="none" vector-effect="none" points="1397,84.2 1397,76 " />
<polyline fill="none" vector-effect="none" points="1577,896 1577,887.8 " />
<polyline fill="none" vector-effect="none" points="1577,84.2 1577,76 " />
</g>

<g fill="#212121" fill-opacity="1" stroke="#212121" stroke-opacity="1" stroke-width="1" stroke-linecap="square" stroke-linejoin="bevel" transform="matrix(0.509919,0,0,0.523909,480.874,453.948)"
font-family="Helvetica" font-size="28" font-weight="700" font-style="normal" 
>
<text fill="#212121" fill-opacity="1" stroke="none" xml:space="preserve" x="0" y="-0.453125" font-family="Helvetica" font-size="28" font-weight="700" font-style="normal" 
 >0.5</text>
</g>

<g fill="#212121" fill-opacity="1" stroke="#212121" stroke-opacity="1" stroke-width="1" stroke-linecap="square" stroke-linejoin="bevel" transform="matrix(0.509919,0,0,0.523909,578.524,453.948)"
font-family="Helvetica" font-size="28" font-weight="700" font-style="normal" 
>
<text fill="#212121" fill-opacity="1" stroke="none" xml:space="preserve" x="0" y="-0.453125" font-family="Helvetica" font-size="28" font-weight="700" font-style="normal" 
 >1</text>
</g>

<g fill="#212121" fill-opacity="1" stroke="#212121" stroke-opacity="1" stroke-width="1" stroke-linecap="square" stroke-linejoin="bevel" transform="matrix(0.509919,0,0,0.523909,670.309,453.948)"
font-family="Helvetica" font-size="28" font-weight="700" font-style="normal" 
>
<text fill="#212121" fill-opacity="1" stroke="none" xml:space="preserve" x="0" y="-0.453125" font-family="Helvetica" font-size="28" font-weight="700" font-style="normal" 
 >3</text>
</g>

<g fill="#212121" fill-opacity="1" stroke="#212121" stroke-opacity="1" stroke-width="1" stroke-linecap="square" stroke-linejoin="bevel" transform="matrix(0,-0.523909,0.509919,0,400.256,251.405)"
font-family="Helvetica" font-size="32" font-weight="700" font-style="normal" 
>
<text fill="#212121" fill-opacity="1" stroke="none" xml:space="preserve" x="0" y="-0.359375" font-family="Helvetica" font-size="32" font-weight="700" font-style="normal" 
 >VPI (%)</text>
</g>

<g fill="#212121" fill-opacity="1" stroke="#212121" stroke-opacity="1" stroke-width="2.4" stroke-linecap="square" stroke-linejoin="round" transform="matrix(0.509919,0,0,0.523909,-129.753,-32.0302)"
font-family="Helvetica" font-size="32" font-weight="700" font-style="normal" 
>
<polyline fill="none" vector-effect="none" points="1109,896 1109,76 " />
<polyline fill="none" vector-effect="none" points="1685,896 1685,76 " />
<polyline fill="none" vector-effect="none" points="1109,896 1117.2,896 " />
<polyline fill="none" vector-effect="none" points="1676.8,896 1685,896 " />
<polyline fill="none" vector-effect="none" points="1109,814 1117.2,814 " />
<polyline fill="none" vector-effect="none" points="1676.8,814 1685,814 " />
<polyline fill="none" vector-effect="none" points="1109,732 1117.2,732 " />
<polyline fill="none" vector-effect="none" points="1676.8,732 1685,732 " />
<polyline fill="none" vector-effect="none" points="1109,650 1117.2,650 " />
<polyline fill="none" vector-effect="none" points="1676.8,650 1685,650 " />
<polyline fill="none" vector-effect="none" points="1109,568 1117.2,568 " />
<polyline fill="none" vector-effect="none" points="1676.8,568 1685,568 " />
<polyline fill="none" vector-effect="none" points="1109,486 1117.2,486 " />
<polyline fill="none" vector-effect="none" points="1676.8,486 1685,486 " />
<polyline fill="none" vector-effect="none" points="1109,404 1117.2,404 " />
<polyline fill="none" vector-effect="none" points="1676.8,404 1685,404 " />
<polyline fill="none" vector-effect="none" points="1109,322 1117.2,322 " />
<polyline fill="none" vector-effect="none" points="1676.8,322 1685,322 " />
<polyline fill="none" vector-effect="none" points="1109,240 1117.2,240 " />
<polyline fill="none" vector-effect="none" points="1676.8,240 1685,240 " />
<polyline fill="none" vector-effect="none" points="1109,158 1117.2,158 " />
<polyline fill="none" vector-effect="none" points="1676.8,158 1685,158 " />
<polyline fill="none" vector-effect="none" points="1109,76 1117.2,76 " />
<polyline fill="none" vector-effect="none" points="1676.8,76 1685,76 " />
</g>

<g fill="#212121" fill-opacity="1" stroke="#212121" stroke-opacity="1" stroke-width="1" stroke-linecap="square" stroke-linejoin="bevel" transform="matrix(0.509919,0,0,0.523909,422.693,441.584)"
font-family="Helvetica" font-size="28" font-weight="700" font-style="normal" 
>
<text fill="#212121" fill-opacity="1" stroke="none" xml:space="preserve" x="0" y="-0.453125" font-family="Helvetica" font-size="28" font-weight="700" font-style="normal" 
 >0</text>
</g>

<g fill="#212121" fill-opacity="1" stroke="#212121" stroke-opacity="1" stroke-width="1" stroke-linecap="square" stroke-linejoin="bevel" transform="matrix(0.509919,0,0,0.523909,415.044,398.623)"
font-family="Helvetica" font-size="28" font-weight="700" font-style="normal" 
>
<text fill="#212121" fill-opacity="1" stroke="none" xml:space="preserve" x="0" y="-0.453125" font-family="Helvetica" font-size="28" font-weight="700" font-style="normal" 
 >10</text>
</g>

<g fill="#212121" fill-opacity="1" stroke="#212121" stroke-opacity="1" stroke-width="1" stroke-linecap="square" stroke-linejoin="bevel" transform="matrix(0.509919,0,0,0.523909,415.044,355.663)"
font-family="Helvetica" font-size="28" font-weight="700" font-style="normal" 
>
<text fill="#212121" fill-opacity="1" stroke="none" xml:space="preserve" x="0" y="-0.453125" font-family="Helvetica" font-size="28" font-weight="700" font-style="normal" 
 >20</text>
</g>

<g fill="#212121" fill-opacity="1" stroke="#212121" stroke-opacity="1" stroke-width="1" stroke-linecap="square" stroke-linejoin="bevel" transform="matrix(0.509919,0,0,0.523909,415.044,312.702)"
font-family="Helvetica" font-size="28" font-weight="700" font-style="normal" 
>
<text fill="#212121" fill-opacity="1" stroke="none" xml:space="preserve" x="0" y="-0.453125" font-family="Helvetica" font-size="28" font-weight="700" font-style="normal" 
 >30</text>
</g>

<g fill="#212121" fill-opacity="1" stroke="#212121" stroke-opacity="1" stroke-width="1" stroke-linecap="square" stroke-linejoin="bevel" transform="matrix(0.509919,0,0,0.523909,415.044,269.742)"
font-family="Helvetica" font-size="28" font-weight="700" font-style="normal" 
>
<text fill="#212121" fill-opacity="1" stroke="none" xml:space="preserve" x="0" y="-0.453125" font-family="Helvetica" font-size="28" font-weight="700" font-style="normal" 
 >40</text>
</g>

<g fill="#212121" fill-opacity="1" stroke="#212121" stroke-opacity="1" stroke-width="1" stroke-linecap="square" stroke-linejoin="bevel" transform="matrix(0.509919,0,0,0.523909,415.044,226.781)"
font-family="Helvetica" font-size="28" font-weight="700" font-style="normal" 
>
<text fill="#212121" fill-opacity="1" stroke="none" xml:space="preserve" x="0" y="-0.453125" font-family="Helvetica" font-size="28" font-weight="700" font-style="normal" 
 >50</text>
</g>

<g fill="#212121" fill-opacity="1" stroke="#212121" stroke-opacity="1" stroke-width="1" stroke-linecap="square" stroke-linejoin="bevel" transform="matrix(0.509919,0,0,0.523909,415.044,183.82)"
font-family="Helvetica" font-size="28" font-weight="700" font-style="normal" 
>
<text fill="#212121" fill-opacity="1" stroke="none" xml:space="preserve" x="0" y="-0.453125" font-family="Helvetica" font-size="28" font-weight="700" font-style="normal" 
 >60</text>
</g>

<g fill="#212121" fill-opacity="1" stroke="#212121" stroke-opacity="1" stroke-width="1" stroke-linecap="square" stroke-linejoin="bevel" transform="matrix(0.509919,0,0,0.523909,415.044,140.86)"
font-family="Helvetica" font-size="28" font-weight="700" font-style="normal" 
>
<text fill="#212121" fill-opacity="1" stroke="none" xml:space="preserve" x="0" y="-0.453125" font-family="Helvetica" font-size="28" font-weight="700" font-style="normal" 
 >70</text>
</g>

<g fill="#212121" fill-opacity="1" stroke="#212121" stroke-opacity="1" stroke-width="1" stroke-linecap="square" stroke-linejoin="bevel" transform="matrix(0.509919,0,0,0.523909,415.044,97.8993)"
font-family="Helvetica" font-size="28" font-weight="700" font-style="normal" 
>
<text fill="#212121" fill-opacity="1" stroke="none" xml:space="preserve" x="0" y="-0.453125" font-family="Helvetica" font-size="28" font-weight="700" font-style="normal" 
 >80</text>
</g>

<g fill="#212121" fill-opacity="1" stroke="#212121" stroke-opacity="1" stroke-width="1" stroke-linecap="square" stroke-linejoin="bevel" transform="matrix(0.509919,0,0,0.523909,415.044,54.9387)"
font-family="Helvetica" font-size="28" font-weight="700" font-style="normal" 
>
<text fill="#212121" fill-opacity="1" stroke="none" xml:space="preserve" x="0" y="-0.453125" font-family="Helvetica" font-size="28" font-weight="700" font-style="normal" 
 >90</text>
</g>

<g fill="#212121" fill-opacity="1" stroke="#212121" stroke-opacity="1" stroke-width="1" stroke-linecap="square" stroke-linejoin="bevel" transform="matrix(0.509919,0,0,0.523909,406.885,11.9782)"
font-family="Helvetica" font-size="28" font-weight="700" font-style="normal" 
>
<text fill="#212121" fill-opacity="1" stroke="none" xml:space="preserve" x="0" y="-0.453125" font-family="Helvetica" font-size="28" font-weight="700" font-style="normal" 
 >100</text>
</g>

<g fill="#ffffff" fill-opacity="1" stroke="none" transform="matrix(5.09918e-05,0,0,5.23909e-05,-129.753,-32.0302)"
font-family="Helvetica" font-size="28" font-weight="700" font-style="normal" 
>
<path vector-effect="none" fill-rule="evenodd" d="M1.867e+07,760000 L1.867e+07,8.96e+06 L2.444e+07,8.96e+06 L2.444e+07,760000 L1.867e+07,760000"/>
</g>

<g fill="#cccccc" fill-opacity="1" stroke="#cccccc" stroke-opacity="1" stroke-width="2.4" stroke-linecap="butt" stroke-linejoin="round" transform="matrix(0.509919,0,0,0.523909,-129.753,-32.0302)"
font-family="Helvetica" font-size="28" font-weight="700" font-style="normal" 
>
<polyline fill="none" vector-effect="none" points="1867,896 2444,896 " />
<polyline fill="none" vector-effect="none" points="1867,814 2444,814 " />
<polyline fill="none" vector-effect="none" points="1867,732 2444,732 " />
<polyline fill="none" vector-effect="none" points="1867,650 2444,650 " />
<polyline fill="none" vector-effect="none" points="1867,568 2444,568 " />
<polyline fill="none" vector-effect="none" points="1867,486 2444,486 " />
<polyline fill="none" vector-effect="none" points="1867,404 2444,404 " />
<polyline fill="none" vector-effect="none" points="1867,322 2444,322 " />
<polyline fill="none" vector-effect="none" points="1867,240 2444,240 " />
<polyline fill="none" vector-effect="none" points="1867,158 2444,158 " />
<polyline fill="none" vector-effect="none" points="1867,76 2444,76 " />
</g>

<g fill="#212121" fill-opacity="1" stroke="#212121" stroke-opacity="1" stroke-width="1" stroke-linecap="butt" stroke-linejoin="round" transform="matrix(0.509919,0,0,0.523909,-129.753,-32.0302)"
font-family="Helvetica" font-size="28" font-weight="700" font-style="normal" 
>
<polyline fill="none" vector-effect="none" points="1867,896 2444,896 " />
</g>

<g fill="#ff0000" fill-opacity="1" stroke="none" transform="matrix(5.09918e-05,0,0,5.23909e-05,-129.753,-32.0302)"
font-family="Helvetica" font-size="28" font-weight="700" font-style="normal" 
>
<path vector-effect="none" fill-rule="evenodd" d="M1.90306e+07,5.65484e+06 L1.90306e+07,8.96e+06 L2.04731e+07,8.96e+06 L2.04731e+07,5.65484e+06 L1.90306e+07,5.65484e+06"/>
</g>

<g fill="#ff0000" fill-opacity="1" stroke="none" transform="matrix(5.09918e-05,0,0,5.23909e-05,-129.753,-32.0302)"
font-family="Helvetica" font-size="28" font-weight="700" font-style="normal" 
>
<path vector-effect="none" fill-rule="evenodd" d="M2.08338e+07,7.62176e+06 L2.08338e+07,8.96e+06 L2.22763e+07,8.96e+06 L2.22763e+07,7.62176e+06 L2.08338e+07,7.62176e+06"/>
</g>

<g fill="#ff0000" fill-opacity="1" stroke="none" transform="matrix(5.09918e-05,0,0,5.23909e-05,-129.753,-32.0302)"
font-family="Helvetica" font-size="28" font-weight="700" font-style="normal" 
>
<path vector-effect="none" fill-rule="evenodd" d="M2.26369e+07,8.95613e+06 L2.26369e+07,8.96e+06 L2.40794e+07,8.96e+06 L2.40794e+07,8.95613e+06 L2.26369e+07,8.95613e+06"/>
</g>

<g fill="none" stroke="#000000" stroke-opacity="1" stroke-width="2.4" stroke-linecap="butt" stroke-linejoin="miter" stroke-miterlimit="2" transform="matrix(0.509919,0,0,0.523909,-129.753,-32.0302)"
font-family="Helvetica" font-size="28" font-weight="700" font-style="normal" 
>
<path vector-effect="none" fill-rule="evenodd" d="M1903.06,896 L1903.06,565.484 L2047.31,565.484 L2047.31,896 L1903.06,896"/>
<path vector-effect="none" fill-rule="evenodd" d="M2083.38,896 L2083.38,762.176 L2227.63,762.176 L2227.63,896 L2083.38,896"/>
<path vector-effect="none" fill-rule="evenodd" d="M2263.69,896 L2263.69,895.613 L2407.94,895.613 L2407.94,896 L2263.69,896"/>
</g>

<g fill="#0000cc" fill-opacity="1" stroke="none" transform="matrix(5.09918e-05,0,0,5.23909e-05,-129.753,-32.0302)"
font-family="Helvetica" font-size="28" font-weight="700" font-style="normal" 
>
<path vector-effect="none" fill-rule="evenodd" d="M1.90306e+07,760000 L1.90306e+07,5.65484e+06 L2.04731e+07,5.65484e+06 L2.04731e+07,760000 L1.90306e+07,760000"/>
</g>

<g fill="#0000cc" fill-opacity="1" stroke="none" transform="matrix(5.09918e-05,0,0,5.23909e-05,-129.753,-32.0302)"
font-family="Helvetica" font-size="28" font-weight="700" font-style="normal" 
>
<path vector-effect="none" fill-rule="evenodd" d="M2.08338e+07,760000 L2.08338e+07,7.62176e+06 L2.22763e+07,7.62176e+06 L2.22763e+07,760000 L2.08338e+07,760000"/>
</g>

<g fill="#0000cc" fill-opacity="1" stroke="none" transform="matrix(5.09918e-05,0,0,5.23909e-05,-129.753,-32.0302)"
font-family="Helvetica" font-size="28" font-weight="700" font-style="normal" 
>
<path vector-effect="none" fill-rule="evenodd" d="M2.26369e+07,760000 L2.26369e+07,8.95613e+06 L2.40794e+07,8.95613e+06 L2.40794e+07,760000 L2.26369e+07,760000"/>
</g>

<g fill="none" stroke="#000000" stroke-opacity="1" stroke-width="2.4" stroke-linecap="butt" stroke-linejoin="miter" stroke-miterlimit="2" transform="matrix(0.509919,0,0,0.523909,-129.753,-32.0302)"
font-family="Helvetica" font-size="28" font-weight="700" font-style="normal" 
>
<path vector-effect="none" fill-rule="evenodd" d="M1903.06,565.484 L1903.06,76 L2047.31,76 L2047.31,565.484 L1903.06,565.484"/>
<path vector-effect="none" fill-rule="evenodd" d="M2083.38,762.176 L2083.38,76 L2227.63,76 L2227.63,762.176 L2083.38,762.176"/>
<path vector-effect="none" fill-rule="evenodd" d="M2263.69,895.613 L2263.69,76 L2407.94,76 L2407.94,895.613 L2263.69,895.613"/>
</g>

<g fill="#212121" fill-opacity="1" stroke="#212121" stroke-opacity="1" stroke-width="1" stroke-linecap="square" stroke-linejoin="bevel" transform="matrix(0.509919,0,0,0.523909,954.334,473.333)"
font-family="Helvetica" font-size="32" font-weight="700" font-style="normal" 
>
<text fill="#212121" fill-opacity="1" stroke="none" xml:space="preserve" x="0" y="-0.359375" font-family="Helvetica" font-size="32" font-weight="700" font-style="normal" 
 >Day</text>
</g>

<g fill="#212121" fill-opacity="1" stroke="#212121" stroke-opacity="1" stroke-width="2.4" stroke-linecap="square" stroke-linejoin="round" transform="matrix(0.509919,0,0,0.523909,-129.753,-32.0302)"
font-family="Helvetica" font-size="32" font-weight="700" font-style="normal" 
>
<polyline fill="none" vector-effect="none" points="1867,896 2444,896 " />
<polyline fill="none" vector-effect="none" points="1867,76 2444,76 " />
<polyline fill="none" vector-effect="none" points="1975.19,896 1975.19,887.8 " />
<polyline fill="none" vector-effect="none" points="1975.19,84.2 1975.19,76 " />
<polyline fill="none" vector-effect="none" points="2155.5,896 2155.5,887.8 " />
<polyline fill="none" vector-effect="none" points="2155.5,84.2 2155.5,76 " />
<polyline fill="none" vector-effect="none" points="2335.81,896 2335.81,887.8 " />
<polyline fill="none" vector-effect="none" points="2335.81,84.2 2335.81,76 " />
</g>

<g fill="#212121" fill-opacity="1" stroke="#212121" stroke-opacity="1" stroke-width="1" stroke-linecap="square" stroke-linejoin="bevel" transform="matrix(0.509919,0,0,0.523909,867.488,453.948)"
font-family="Helvetica" font-size="28" font-weight="700" font-style="normal" 
>
<text fill="#212121" fill-opacity="1" stroke="none" xml:space="preserve" x="0" y="-0.453125" font-family="Helvetica" font-size="28" font-weight="700" font-style="normal" 
 >0.5</text>
</g>

<g fill="#212121" fill-opacity="1" stroke="#212121" stroke-opacity="1" stroke-width="1" stroke-linecap="square" stroke-linejoin="bevel" transform="matrix(0.509919,0,0,0.523909,965.297,453.948)"
font-family="Helvetica" font-size="28" font-weight="700" font-style="normal" 
>
<text fill="#212121" fill-opacity="1" stroke="none" xml:space="preserve" x="0" y="-0.453125" font-family="Helvetica" font-size="28" font-weight="700" font-style="normal" 
 >1</text>
</g>

<g fill="#212121" fill-opacity="1" stroke="#212121" stroke-opacity="1" stroke-width="1" stroke-linecap="square" stroke-linejoin="bevel" transform="matrix(0.509919,0,0,0.523909,1057.24,453.948)"
font-family="Helvetica" font-size="28" font-weight="700" font-style="normal" 
>
<text fill="#212121" fill-opacity="1" stroke="none" xml:space="preserve" x="0" y="-0.453125" font-family="Helvetica" font-size="28" font-weight="700" font-style="normal" 
 >3</text>
</g>

<g fill="#212121" fill-opacity="1" stroke="#212121" stroke-opacity="1" stroke-width="1" stroke-linecap="square" stroke-linejoin="bevel" transform="matrix(0,-0.523909,0.509919,0,786.775,267.908)"
font-family="Helvetica" font-size="32" font-weight="700" font-style="normal" 
>
<text fill="#212121" fill-opacity="1" stroke="none" xml:space="preserve" x="0" y="-0.359375" font-family="Helvetica" font-size="32" font-weight="700" font-style="normal" 
 >Percentage</text>
</g>

<g fill="#212121" fill-opacity="1" stroke="#212121" stroke-opacity="1" stroke-width="2.4" stroke-linecap="square" stroke-linejoin="round" transform="matrix(0.509919,0,0,0.523909,-129.753,-32.0302)"
font-family="Helvetica" font-size="32" font-weight="700" font-style="normal" 
>
<polyline fill="none" vector-effect="none" points="1867,896 1867,76 " />
<polyline fill="none" vector-effect="none" points="2444,896 2444,76 " />
<polyline fill="none" vector-effect="none" points="1867,896 1875.2,896 " />
<polyline fill="none" vector-effect="none" points="2435.8,896 2444,896 " />
<polyline fill="none" vector-effect="none" points="1867,814 1875.2,814 " />
<polyline fill="none" vector-effect="none" points="2435.8,814 2444,814 " />
<polyline fill="none" vector-effect="none" points="1867,732 1875.2,732 " />
<polyline fill="none" vector-effect="none" points="2435.8,732 2444,732 " />
<polyline fill="none" vector-effect="none" points="1867,650 1875.2,650 " />
<polyline fill="none" vector-effect="none" points="2435.8,650 2444,650 " />
<polyline fill="none" vector-effect="none" points="1867,568 1875.2,568 " />
<polyline fill="none" vector-effect="none" points="2435.8,568 2444,568 " />
<polyline fill="none" vector-effect="none" points="1867,486 1875.2,486 " />
<polyline fill="none" vector-effect="none" points="2435.8,486 2444,486 " />
<polyline fill="none" vector-effect="none" points="1867,404 1875.2,404 " />
<polyline fill="none" vector-effect="none" points="2435.8,404 2444,404 " />
<polyline fill="none" vector-effect="none" points="1867,322 1875.2,322 " />
<polyline fill="none" vector-effect="none" points="2435.8,322 2444,322 " />
<polyline fill="none" vector-effect="none" points="1867,240 1875.2,240 " />
<polyline fill="none" vector-effect="none" points="2435.8,240 2444,240 " />
<polyline fill="none" vector-effect="none" points="1867,158 1875.2,158 " />
<polyline fill="none" vector-effect="none" points="2435.8,158 2444,158 " />
<polyline fill="none" vector-effect="none" points="1867,76 1875.2,76 " />
<polyline fill="none" vector-effect="none" points="2435.8,76 2444,76 " />
</g>

<g fill="#212121" fill-opacity="1" stroke="#212121" stroke-opacity="1" stroke-width="1" stroke-linecap="square" stroke-linejoin="bevel" transform="matrix(0.509919,0,0,0.523909,809.211,441.584)"
font-family="Helvetica" font-size="28" font-weight="700" font-style="normal" 
>
<text fill="#212121" fill-opacity="1" stroke="none" xml:space="preserve" x="0" y="-0.453125" font-family="Helvetica" font-size="28" font-weight="700" font-style="normal" 
 >0</text>
</g>

<g fill="#212121" fill-opacity="1" stroke="#212121" stroke-opacity="1" stroke-width="1" stroke-linecap="square" stroke-linejoin="bevel" transform="matrix(0.509919,0,0,0.523909,801.562,398.623)"
font-family="Helvetica" font-size="28" font-weight="700" font-style="normal" 
>
<text fill="#212121" fill-opacity="1" stroke="none" xml:space="preserve" x="0" y="-0.453125" font-family="Helvetica" font-size="28" font-weight="700" font-style="normal" 
 >10</text>
</g>

<g fill="#212121" fill-opacity="1" stroke="#212121" stroke-opacity="1" stroke-width="1" stroke-linecap="square" stroke-linejoin="bevel" transform="matrix(0.509919,0,0,0.523909,801.562,355.663)"
font-family="Helvetica" font-size="28" font-weight="700" font-style="normal" 
>
<text fill="#212121" fill-opacity="1" stroke="none" xml:space="preserve" x="0" y="-0.453125" font-family="Helvetica" font-size="28" font-weight="700" font-style="normal" 
 >20</text>
</g>

<g fill="#212121" fill-opacity="1" stroke="#212121" stroke-opacity="1" stroke-width="1" stroke-linecap="square" stroke-linejoin="bevel" transform="matrix(0.509919,0,0,0.523909,801.562,312.702)"
font-family="Helvetica" font-size="28" font-weight="700" font-style="normal" 
>
<text fill="#212121" fill-opacity="1" stroke="none" xml:space="preserve" x="0" y="-0.453125" font-family="Helvetica" font-size="28" font-weight="700" font-style="normal" 
 >30</text>
</g>

<g fill="#212121" fill-opacity="1" stroke="#212121" stroke-opacity="1" stroke-width="1" stroke-linecap="square" stroke-linejoin="bevel" transform="matrix(0.509919,0,0,0.523909,801.562,269.742)"
font-family="Helvetica" font-size="28" font-weight="700" font-style="normal" 
>
<text fill="#212121" fill-opacity="1" stroke="none" xml:space="preserve" x="0" y="-0.453125" font-family="Helvetica" font-size="28" font-weight="700" font-style="normal" 
 >40</text>
</g>

<g fill="#212121" fill-opacity="1" stroke="#212121" stroke-opacity="1" stroke-width="1" stroke-linecap="square" stroke-linejoin="bevel" transform="matrix(0.509919,0,0,0.523909,801.562,226.781)"
font-family="Helvetica" font-size="28" font-weight="700" font-style="normal" 
>
<text fill="#212121" fill-opacity="1" stroke="none" xml:space="preserve" x="0" y="-0.453125" font-family="Helvetica" font-size="28" font-weight="700" font-style="normal" 
 >50</text>
</g>

<g fill="#212121" fill-opacity="1" stroke="#212121" stroke-opacity="1" stroke-width="1" stroke-linecap="square" stroke-linejoin="bevel" transform="matrix(0.509919,0,0,0.523909,801.562,183.82)"
font-family="Helvetica" font-size="28" font-weight="700" font-style="normal" 
>
<text fill="#212121" fill-opacity="1" stroke="none" xml:space="preserve" x="0" y="-0.453125" font-family="Helvetica" font-size="28" font-weight="700" font-style="normal" 
 >60</text>
</g>

<g fill="#212121" fill-opacity="1" stroke="#212121" stroke-opacity="1" stroke-width="1" stroke-linecap="square" stroke-linejoin="bevel" transform="matrix(0.509919,0,0,0.523909,801.562,140.86)"
font-family="Helvetica" font-size="28" font-weight="700" font-style="normal" 
>
<text fill="#212121" fill-opacity="1" stroke="none" xml:space="preserve" x="0" y="-0.453125" font-family="Helvetica" font-size="28" font-weight="700" font-style="normal" 
 >70</text>
</g>

<g fill="#212121" fill-opacity="1" stroke="#212121" stroke-opacity="1" stroke-width="1" stroke-linecap="square" stroke-linejoin="bevel" transform="matrix(0.509919,0,0,0.523909,801.562,97.8993)"
font-family="Helvetica" font-size="28" font-weight="700" font-style="normal" 
>
<text fill="#212121" fill-opacity="1" stroke="none" xml:space="preserve" x="0" y="-0.453125" font-family="Helvetica" font-size="28" font-weight="700" font-style="normal" 
 >80</text>
</g>

<g fill="#212121" fill-opacity="1" stroke="#212121" stroke-opacity="1" stroke-width="1" stroke-linecap="square" stroke-linejoin="bevel" transform="matrix(0.509919,0,0,0.523909,801.562,54.9387)"
font-family="Helvetica" font-size="28" font-weight="700" font-style="normal" 
>
<text fill="#212121" fill-opacity="1" stroke="none" xml:space="preserve" x="0" y="-0.453125" font-family="Helvetica" font-size="28" font-weight="700" font-style="normal" 
 >90</text>
</g>

<g fill="#212121" fill-opacity="1" stroke="#212121" stroke-opacity="1" stroke-width="1" stroke-linecap="square" stroke-linejoin="bevel" transform="matrix(0.509919,0,0,0.523909,793.403,11.9782)"
font-family="Helvetica" font-size="28" font-weight="700" font-style="normal" 
>
<text fill="#212121" fill-opacity="1" stroke="none" xml:space="preserve" x="0" y="-0.453125" font-family="Helvetica" font-size="28" font-weight="700" font-style="normal" 
 >100</text>
</g>

<g fill="#ffffff" fill-opacity="1" stroke="none" transform="matrix(5.09918e-05,0,0,5.23909e-05,-129.753,-32.0302)"
font-family="Helvetica" font-size="28" font-weight="700" font-style="normal" 
>
<path vector-effect="none" fill-rule="evenodd" d="M2.453e+07,940000 L2.453e+07,1.89e+06 L2.686e+07,1.89e+06 L2.686e+07,940000 L2.453e+07,940000"/>
</g>

<g fill="#ff0000" fill-opacity="1" stroke="none" transform="matrix(5.09918e-05,0,0,5.23909e-05,-129.753,-32.0302)"
font-family="Helvetica" font-size="28" font-weight="700" font-style="normal" 
>
<path vector-effect="none" fill-rule="evenodd" d="M2.49783e+07,1.47367e+06 L2.49783e+07,1.79159e+06 L2.55776e+07,1.79159e+06 L2.55776e+07,1.47367e+06 L2.49783e+07,1.47367e+06"/>
</g>

<g fill="none" stroke="#000000" stroke-opacity="1" stroke-width="2.4" stroke-linecap="butt" stroke-linejoin="miter" stroke-miterlimit="2" transform="matrix(0.509919,0,0,0.523909,-129.753,-32.0302)"
font-family="Helvetica" font-size="28" font-weight="700" font-style="normal" 
>
<path vector-effect="none" fill-rule="evenodd" d="M2497.83,179.159 L2497.83,147.367 L2557.76,147.367 L2557.76,179.159 L2497.83,179.159"/>
</g>

<g fill="#0000cc" fill-opacity="1" stroke="none" transform="matrix(5.09918e-05,0,0,5.23909e-05,-129.753,-32.0302)"
font-family="Helvetica" font-size="28" font-weight="700" font-style="normal" 
>
<path vector-effect="none" fill-rule="evenodd" d="M2.49783e+07,1.03841e+06 L2.49783e+07,1.35633e+06 L2.55776e+07,1.35633e+06 L2.55776e+07,1.03841e+06 L2.49783e+07,1.03841e+06"/>
</g>

<g fill="none" stroke="#000000" stroke-opacity="1" stroke-width="2.4" stroke-linecap="butt" stroke-linejoin="miter" stroke-miterlimit="2" transform="matrix(0.509919,0,0,0.523909,-129.753,-32.0302)"
font-family="Helvetica" font-size="28" font-weight="700" font-style="normal" 
>
<path vector-effect="none" fill-rule="evenodd" d="M2497.83,135.633 L2497.83,103.841 L2557.76,103.841 L2557.76,135.633 L2497.83,135.633"/>
</g>

<g fill="#212121" fill-opacity="1" stroke="#212121" stroke-opacity="1" stroke-width="1" stroke-linecap="square" stroke-linejoin="bevel" transform="matrix(0.509919,0,0,0.523909,1176.79,33.8446)"
font-family="Helvetica" font-size="24" font-weight="700" font-style="normal" 
>
<text fill="#212121" fill-opacity="1" stroke="none" xml:space="preserve" x="0" y="0.46875" font-family="Helvetica" font-size="24" font-weight="700" font-style="normal" 
 >ST1-75</text>
</g>

<g fill="#212121" fill-opacity="1" stroke="#212121" stroke-opacity="1" stroke-width="1" stroke-linecap="square" stroke-linejoin="bevel" transform="matrix(0.509919,0,0,0.523909,1176.79,56.6482)"
font-family="Helvetica" font-size="24" font-weight="700" font-style="normal" 
>
<text fill="#212121" fill-opacity="1" stroke="none" xml:space="preserve" x="0" y="0.46875" font-family="Helvetica" font-size="24" font-weight="700" font-style="normal" 
 >VPI</text>
</g>

<g fill="none" stroke="#212121" stroke-opacity="1" stroke-width="2.4" stroke-linecap="butt" stroke-linejoin="miter" stroke-miterlimit="2" transform="matrix(0.509919,0,0,0.523909,-129.753,-32.0302)"
font-family="Helvetica" font-size="24" font-weight="700" font-style="normal" 
>
<path vector-effect="none" fill-rule="evenodd" d="M2453,189 L2453,94 L2686,94 L2686,189 L2453,189"/>
</g>
</g>
</svg>
