<?xml version="1.0" encoding="UTF-8" standalone="no"?>
<svg width="275.167mm" height="197.203mm"
 viewBox="0 0 780 559"
 xmlns="http://www.w3.org/2000/svg" xmlns:xlink="http://www.w3.org/1999/xlink"  version="1.2" baseProfile="tiny">
<title>Qt SVG Document</title>
<desc>MATLAB, The MathWorks, Inc. Version 25.2.0.3042426 R2025b Update 1</desc>
<defs>
</defs>
<g fill="none" stroke="black" stroke-width="1" fill-rule="evenodd" stroke-linecap="square" stroke-linejoin="bevel" >

<g fill="#ffffff" fill-opacity="1" stroke="none" transform="matrix(0.502652,0,0,0.499926,-43.2361,-21.1952)"
font-family=".AppleSystemUIFont" font-size="13" font-weight="400" font-style="normal" 
>
<path vector-effect="none" fill-rule="evenodd" d="M85,41 L1637,41 L1637,1160 L85,1160 L85,41"/>
</g>

<g fill="#ffffff" fill-opacity="1" stroke="none" transform="matrix(5.02652e-05,0,0,4.99926e-05,-43.2361,-21.1952)"
font-family=".AppleSystemUIFont" font-size="13" font-weight="400" font-style="normal" 
>
<path vector-effect="none" fill-rule="evenodd" d="M2.35e+06,890000 L2.35e+06,9.31e+06 L1.634e+07,9.31e+06 L1.634e+07,890000 L2.35e+06,890000"/>
</g>

<g fill="#212121" fill-opacity="1" stroke="#212121" stroke-opacity="1" stroke-width="1" stroke-linecap="square" stroke-linejoin="round" transform="matrix(0.502652,0,0,0.499926,-43.2361,-21.1952)"
font-family=".AppleSystemUIFont" font-size="13" font-weight="400" font-style="normal" 
>
<polyline fill="none" vector-effect="none" points="235,931 1634,931 " />
<polyline fill="none" vector-effect="none" points="374.9,944.99 374.9,931 " />
<polyline fill="none" vector-effect="none" points="654.7,944.99 654.7,931 " />
<polyline fill="none" vector-effect="none" points="934.5,944.99 934.5,931 " />
<polyline fill="none" vector-effect="none" points="1214.3,944.99 1214.3,931 " />
<polyline fill="none" vector-effect="none" points="1494.1,944.99 1494.1,931 " />
</g>

<g fill="#212121" fill-opacity="1" stroke="#212121" stroke-opacity="1" stroke-width="1" stroke-linecap="square" stroke-linejoin="bevel" transform="matrix(0.411749,-0.286746,0.28831,0.409516,77.3561,534.556)"
font-family="Helvetica" font-size="60" font-weight="400" font-style="normal" 
>
<text fill="#212121" fill-opacity="1" stroke="none" xml:space="preserve" x="0" y="0.1875" font-family="Helvetica" font-size="60" font-weight="400" font-style="normal" 
 >Lactate</text>
</g>

<g fill="#212121" fill-opacity="1" stroke="#212121" stroke-opacity="1" stroke-width="1" stroke-linecap="square" stroke-linejoin="bevel" transform="matrix(0.411749,-0.286746,0.28831,0.409516,216.763,535.416)"
font-family="Helvetica" font-size="60" font-weight="400" font-style="normal" 
>
<text fill="#212121" fill-opacity="1" stroke="none" xml:space="preserve" x="0" y="0.1875" font-family="Helvetica" font-size="60" font-weight="400" font-style="normal" 
 >Alanine</text>
</g>

<g fill="#212121" fill-opacity="1" stroke="#212121" stroke-opacity="1" stroke-width="1" stroke-linecap="square" stroke-linejoin="bevel" transform="matrix(0.411749,-0.286746,0.28831,0.409516,369.346,527.1)"
font-family="Helvetica" font-size="60" font-weight="400" font-style="normal" 
>
<text fill="#212121" fill-opacity="1" stroke="none" xml:space="preserve" x="0" y="0.1875" font-family="Helvetica" font-size="60" font-weight="400" font-style="normal" 
 >Lysine</text>
</g>

<g fill="#212121" fill-opacity="1" stroke="#212121" stroke-opacity="1" stroke-width="1" stroke-linecap="square" stroke-linejoin="bevel" transform="matrix(0.411749,-0.286746,0.28831,0.409516,460.99,561.223)"
font-family="Helvetica" font-size="60" font-weight="400" font-style="normal" 
>
<text fill="#212121" fill-opacity="1" stroke="none" xml:space="preserve" x="0" y="0.1875" font-family="Helvetica" font-size="60" font-weight="400" font-style="normal" 
 >Oxoproline</text>
</g>

<g fill="#212121" fill-opacity="1" stroke="#212121" stroke-opacity="1" stroke-width="1" stroke-linecap="square" stroke-linejoin="bevel" transform="matrix(0.411749,-0.286746,0.28831,0.409516,606.985,557.495)"
font-family="Helvetica" font-size="60" font-weight="400" font-style="normal" 
>
<text fill="#212121" fill-opacity="1" stroke="none" xml:space="preserve" x="0" y="0.1875" font-family="Helvetica" font-size="60" font-weight="400" font-style="normal" 
 >Glutamate</text>
</g>

<g fill="#212121" fill-opacity="1" stroke="#212121" stroke-opacity="1" stroke-width="1" stroke-linecap="square" stroke-linejoin="bevel" transform="matrix(0,-0.499926,0.502652,0,16.0769,348.75)"
font-family="Helvetica" font-size="40" font-weight="400" font-style="normal" 
>
<text fill="#212121" fill-opacity="1" stroke="none" xml:space="preserve" x="0" y="-0.203125" font-family="Helvetica" font-size="40" font-weight="400" font-style="normal" 
 >log</text>
</g>

<g fill="#212121" fill-opacity="1" stroke="#212121" stroke-opacity="1" stroke-width="1" stroke-linecap="square" stroke-linejoin="bevel" transform="matrix(0,-0.499926,0.502652,0,26.13,322.254)"
font-family="Helvetica" font-size="32" font-weight="400" font-style="normal" 
>
<text fill="#212121" fill-opacity="1" stroke="none" xml:space="preserve" x="0" y="-0.359375" font-family="Helvetica" font-size="32" font-weight="400" font-style="normal" 
 >2</text>
</g>

<g fill="#212121" fill-opacity="1" stroke="#212121" stroke-opacity="1" stroke-width="1" stroke-linecap="square" stroke-linejoin="bevel" transform="matrix(0,-0.499926,0.502652,0,16.0769,313.256)"
font-family="Helvetica" font-size="40" font-weight="400" font-style="normal" 
>
<text fill="#212121" fill-opacity="1" stroke="none" xml:space="preserve" x="0" y="-0.203125" font-family="Helvetica" font-size="40" font-weight="400" font-style="normal" 
 > fold change vs media</text>
</g>

<g fill="#212121" fill-opacity="1" stroke="#212121" stroke-opacity="1" stroke-width="1" stroke-linecap="square" stroke-linejoin="round" transform="matrix(0.502652,0,0,0.499926,-43.2361,-21.1952)"
font-family="Helvetica" font-size="40" font-weight="400" font-style="normal" 
>
<polyline fill="none" vector-effect="none" points="235,931 235,89 " />
<polyline fill="none" vector-effect="none" points="221.01,931 235,931 " />
<polyline fill="none" vector-effect="none" points="221.01,810.714 235,810.714 " />
<polyline fill="none" vector-effect="none" points="221.01,690.429 235,690.429 " />
<polyline fill="none" vector-effect="none" points="221.01,570.143 235,570.143 " />
<polyline fill="none" vector-effect="none" points="221.01,449.857 235,449.857 " />
<polyline fill="none" vector-effect="none" points="221.01,329.571 235,329.571 " />
<polyline fill="none" vector-effect="none" points="221.01,209.286 235,209.286 " />
<polyline fill="none" vector-effect="none" points="221.01,89 235,89 " />
</g>

<g fill="#212121" fill-opacity="1" stroke="#212121" stroke-opacity="1" stroke-width="1" stroke-linecap="square" stroke-linejoin="bevel" transform="matrix(0.502652,0,0,0.499926,33.1721,452.235)"
font-family="Helvetica" font-size="60" font-weight="400" font-style="normal" 
>
<text fill="#212121" fill-opacity="1" stroke="none" xml:space="preserve" x="0" y="0.1875" font-family="Helvetica" font-size="60" font-weight="400" font-style="normal" 
 >-6</text>
</g>

<g fill="#212121" fill-opacity="1" stroke="#212121" stroke-opacity="1" stroke-width="1" stroke-linecap="square" stroke-linejoin="bevel" transform="matrix(0.502652,0,0,0.499926,33.1721,392.101)"
font-family="Helvetica" font-size="60" font-weight="400" font-style="normal" 
>
<text fill="#212121" fill-opacity="1" stroke="none" xml:space="preserve" x="0" y="0.1875" font-family="Helvetica" font-size="60" font-weight="400" font-style="normal" 
 >-4</text>
</g>

<g fill="#212121" fill-opacity="1" stroke="#212121" stroke-opacity="1" stroke-width="1" stroke-linecap="square" stroke-linejoin="bevel" transform="matrix(0.502652,0,0,0.499926,33.1721,331.967)"
font-family="Helvetica" font-size="60" font-weight="400" font-style="normal" 
>
<text fill="#212121" fill-opacity="1" stroke="none" xml:space="preserve" x="0" y="0.1875" font-family="Helvetica" font-size="60" font-weight="400" font-style="normal" 
 >-2</text>
</g>

<g fill="#212121" fill-opacity="1" stroke="#212121" stroke-opacity="1" stroke-width="1" stroke-linecap="square" stroke-linejoin="bevel" transform="matrix(0.502652,0,0,0.499926,43.2252,271.833)"
font-family="Helvetica" font-size="60" font-weight="400" font-style="normal" 
>
<text fill="#212121" fill-opacity="1" stroke="none" xml:space="preserve" x="0" y="0.1875" font-family="Helvetica" font-size="60" font-weight="400" font-style="normal" 
 >0</text>
</g>

<g fill="#212121" fill-opacity="1" stroke="#212121" stroke-opacity="1" stroke-width="1" stroke-linecap="square" stroke-linejoin="bevel" transform="matrix(0.502652,0,0,0.499926,43.2252,211.699)"
font-family="Helvetica" font-size="60" font-weight="400" font-style="normal" 
>
<text fill="#212121" fill-opacity="1" stroke="none" xml:space="preserve" x="0" y="0.1875" font-family="Helvetica" font-size="60" font-weight="400" font-style="normal" 
 >2</text>
</g>

<g fill="#212121" fill-opacity="1" stroke="#212121" stroke-opacity="1" stroke-width="1" stroke-linecap="square" stroke-linejoin="bevel" transform="matrix(0.502652,0,0,0.499926,43.2252,151.565)"
font-family="Helvetica" font-size="60" font-weight="400" font-style="normal" 
>
<text fill="#212121" fill-opacity="1" stroke="none" xml:space="preserve" x="0" y="0.1875" font-family="Helvetica" font-size="60" font-weight="400" font-style="normal" 
 >4</text>
</g>

<g fill="#212121" fill-opacity="1" stroke="#212121" stroke-opacity="1" stroke-width="1" stroke-linecap="square" stroke-linejoin="bevel" transform="matrix(0.502652,0,0,0.499926,43.2252,91.4311)"
font-family="Helvetica" font-size="60" font-weight="400" font-style="normal" 
>
<text fill="#212121" fill-opacity="1" stroke="none" xml:space="preserve" x="0" y="0.1875" font-family="Helvetica" font-size="60" font-weight="400" font-style="normal" 
 >6</text>
</g>

<g fill="#212121" fill-opacity="1" stroke="#212121" stroke-opacity="1" stroke-width="1" stroke-linecap="square" stroke-linejoin="bevel" transform="matrix(0.502652,0,0,0.499926,43.2252,31.2971)"
font-family="Helvetica" font-size="60" font-weight="400" font-style="normal" 
>
<text fill="#212121" fill-opacity="1" stroke="none" xml:space="preserve" x="0" y="0.1875" font-family="Helvetica" font-size="60" font-weight="400" font-style="normal" 
 >8</text>
</g>

<g fill="#212121" fill-opacity="1" stroke="#212121" stroke-opacity="1" stroke-width="1" stroke-linecap="square" stroke-linejoin="bevel" transform="matrix(0.502652,0,0,0.499926,319.176,18.7989)"
font-family="Helvetica" font-size="24" font-weight="700" font-style="normal" 
>
<text fill="#212121" fill-opacity="1" stroke="none" xml:space="preserve" x="0" y="0.46875" font-family="Helvetica" font-size="24" font-weight="700" font-style="normal" 
 >Extracellular metabolites (secretome)</text>
</g>

<g fill="#3387bd" fill-opacity="0.85098" stroke="none" transform="matrix(0.502652,0,0,0.499926,-43.2361,-21.1952)"
font-family="Helvetica" font-size="24" font-weight="700" font-style="normal" 
>
<circle cx="332.93" cy="262.383" r="17.3205"/>
<circle cx="332.93" cy="264.215" r="17.3205"/>
<circle cx="332.93" cy="241.519" r="17.3205"/>
</g>

<g fill="#33a14a" fill-opacity="0.85098" stroke="none" transform="matrix(0.502652,0,0,0.499926,-43.2361,-21.1952)"
font-family="Helvetica" font-size="24" font-weight="700" font-style="normal" 
>
<circle cx="374.9" cy="293.291" r="17.3205"/>
<circle cx="374.9" cy="304.636" r="17.3205"/>
<circle cx="374.9" cy="274.281" r="17.3205"/>
</g>

<g fill="#d92626" fill-opacity="0.85098" stroke="none" transform="matrix(0.502652,0,0,0.499926,-43.2361,-21.1952)"
font-family="Helvetica" font-size="24" font-weight="700" font-style="normal" 
>
<circle cx="416.87" cy="293.239" r="17.3205"/>
<circle cx="416.87" cy="347.736" r="17.3205"/>
<circle cx="416.87" cy="306.612" r="17.3205"/>
</g>

<g fill="#3387bd" fill-opacity="1" stroke="#3387bd" stroke-opacity="1" stroke-width="9" stroke-linecap="butt" stroke-linejoin="round" transform="matrix(0.502652,0,0,0.499926,-43.2361,-21.1952)"
font-family="Helvetica" font-size="24" font-weight="700" font-style="normal" 
>
<polyline fill="none" vector-effect="none" points="310.546,256.039 355.314,256.039 " />
</g>

<g fill="#33a14a" fill-opacity="1" stroke="#33a14a" stroke-opacity="1" stroke-width="9" stroke-linecap="butt" stroke-linejoin="round" transform="matrix(0.502652,0,0,0.499926,-43.2361,-21.1952)"
font-family="Helvetica" font-size="24" font-weight="700" font-style="normal" 
>
<polyline fill="none" vector-effect="none" points="352.516,290.736 397.284,290.736 " />
</g>

<g fill="#d92626" fill-opacity="1" stroke="#d92626" stroke-opacity="1" stroke-width="9" stroke-linecap="butt" stroke-linejoin="round" transform="matrix(0.502652,0,0,0.499926,-43.2361,-21.1952)"
font-family="Helvetica" font-size="24" font-weight="700" font-style="normal" 
>
<polyline fill="none" vector-effect="none" points="394.486,315.862 439.254,315.862 " />
</g>

<g fill="#000000" fill-opacity="1" stroke="#000000" stroke-opacity="1" stroke-width="1.6" stroke-linecap="butt" stroke-linejoin="round" transform="matrix(0.502652,0,0,0.499926,-43.2361,-21.1952)"
font-family="Helvetica" font-size="24" font-weight="700" font-style="normal" 
>
<polyline fill="none" vector-effect="none" points="332.93,159.568 332.93,139.08 " />
<polyline fill="none" vector-effect="none" points="374.9,159.568 374.9,139.08 " />
<polyline fill="none" vector-effect="none" points="332.93,139.08 374.9,139.08 " />
</g>

<g fill="#000000" fill-opacity="1" stroke="#000000" stroke-opacity="1" stroke-width="1" stroke-linecap="square" stroke-linejoin="bevel" transform="matrix(0.502652,0,0,0.499926,125.864,33.9952)"
font-family="Helvetica" font-size="90" font-weight="700" font-style="normal" 
>
<text fill="#000000" fill-opacity="1" stroke="none" xml:space="preserve" x="0" y="0.296875" font-family="Helvetica" font-size="90" font-weight="700" font-style="normal" 
 >*</text>
</g>

<g fill="#3387bd" fill-opacity="0.85098" stroke="none" transform="matrix(0.502652,0,0,0.499926,-43.2361,-21.1952)"
font-family="Helvetica" font-size="90" font-weight="700" font-style="normal" 
>
<circle cx="612.73" cy="354.907" r="17.3205"/>
<circle cx="612.73" cy="359.372" r="17.3205"/>
<circle cx="612.73" cy="370.001" r="17.3205"/>
</g>

<g fill="#33a14a" fill-opacity="0.85098" stroke="none" transform="matrix(0.502652,0,0,0.499926,-43.2361,-21.1952)"
font-family="Helvetica" font-size="90" font-weight="700" font-style="normal" 
>
<circle cx="654.7" cy="321.479" r="17.3205"/>
<circle cx="654.7" cy="329.914" r="17.3205"/>
<circle cx="654.7" cy="650.746" r="17.3205"/>
</g>

<g fill="#d92626" fill-opacity="0.85098" stroke="none" transform="matrix(0.502652,0,0,0.499926,-43.2361,-21.1952)"
font-family="Helvetica" font-size="90" font-weight="700" font-style="normal" 
>
<circle cx="696.67" cy="413.493" r="17.3205"/>
<circle cx="696.67" cy="426.922" r="17.3205"/>
<circle cx="696.67" cy="427.532" r="17.3205"/>
</g>

<g fill="#3387bd" fill-opacity="1" stroke="#3387bd" stroke-opacity="1" stroke-width="9" stroke-linecap="butt" stroke-linejoin="round" transform="matrix(0.502652,0,0,0.499926,-43.2361,-21.1952)"
font-family="Helvetica" font-size="90" font-weight="700" font-style="normal" 
>
<polyline fill="none" vector-effect="none" points="590.346,361.426 635.114,361.426 " />
</g>

<g fill="#33a14a" fill-opacity="1" stroke="#33a14a" stroke-opacity="1" stroke-width="9" stroke-linecap="butt" stroke-linejoin="round" transform="matrix(0.502652,0,0,0.499926,-43.2361,-21.1952)"
font-family="Helvetica" font-size="90" font-weight="700" font-style="normal" 
>
<polyline fill="none" vector-effect="none" points="632.316,434.046 677.084,434.046 " />
</g>

<g fill="#d92626" fill-opacity="1" stroke="#d92626" stroke-opacity="1" stroke-width="9" stroke-linecap="butt" stroke-linejoin="round" transform="matrix(0.502652,0,0,0.499926,-43.2361,-21.1952)"
font-family="Helvetica" font-size="90" font-weight="700" font-style="normal" 
>
<polyline fill="none" vector-effect="none" points="674.286,422.649 719.054,422.649 " />
</g>

<g fill="#000000" fill-opacity="1" stroke="#000000" stroke-opacity="1" stroke-width="1.6" stroke-linecap="butt" stroke-linejoin="round" transform="matrix(0.502652,0,0,0.499926,-43.2361,-21.1952)"
font-family="Helvetica" font-size="90" font-weight="700" font-style="normal" 
>
<polyline fill="none" vector-effect="none" points="612.73,290.747 612.73,270.259 " />
<polyline fill="none" vector-effect="none" points="696.67,290.747 696.67,270.259 " />
<polyline fill="none" vector-effect="none" points="612.73,270.259 696.67,270.259 " />
</g>

<g fill="#000000" fill-opacity="1" stroke="#000000" stroke-opacity="1" stroke-width="1" stroke-linecap="square" stroke-linejoin="bevel" transform="matrix(0.502652,0,0,0.499926,259.461,99.5751)"
font-family="Helvetica" font-size="90" font-weight="700" font-style="normal" 
>
<text fill="#000000" fill-opacity="1" stroke="none" xml:space="preserve" x="0" y="0.296875" font-family="Helvetica" font-size="90" font-weight="700" font-style="normal" 
 >***</text>
</g>

<g fill="#3387bd" fill-opacity="0.85098" stroke="none" transform="matrix(0.502652,0,0,0.499926,-43.2361,-21.1952)"
font-family="Helvetica" font-size="90" font-weight="700" font-style="normal" 
>
<circle cx="892.53" cy="377.343" r="17.3205"/>
<circle cx="892.53" cy="381.965" r="17.3205"/>
<circle cx="892.53" cy="380.729" r="17.3205"/>
</g>

<g fill="#33a14a" fill-opacity="0.85098" stroke="none" transform="matrix(0.502652,0,0,0.499926,-43.2361,-21.1952)"
font-family="Helvetica" font-size="90" font-weight="700" font-style="normal" 
>
<circle cx="934.5" cy="397.79" r="17.3205"/>
<circle cx="934.5" cy="407.167" r="17.3205"/>
<circle cx="934.5" cy="407.692" r="17.3205"/>
</g>

<g fill="#d92626" fill-opacity="0.85098" stroke="none" transform="matrix(0.502652,0,0,0.499926,-43.2361,-21.1952)"
font-family="Helvetica" font-size="90" font-weight="700" font-style="normal" 
>
<circle cx="976.47" cy="412.906" r="17.3205"/>
<circle cx="976.47" cy="421.54" r="17.3205"/>
<circle cx="976.47" cy="410.181" r="17.3205"/>
</g>

<g fill="#3387bd" fill-opacity="1" stroke="#3387bd" stroke-opacity="1" stroke-width="9" stroke-linecap="butt" stroke-linejoin="round" transform="matrix(0.502652,0,0,0.499926,-43.2361,-21.1952)"
font-family="Helvetica" font-size="90" font-weight="700" font-style="normal" 
>
<polyline fill="none" vector-effect="none" points="870.146,380.012 914.914,380.012 " />
</g>

<g fill="#33a14a" fill-opacity="1" stroke="#33a14a" stroke-opacity="1" stroke-width="9" stroke-linecap="butt" stroke-linejoin="round" transform="matrix(0.502652,0,0,0.499926,-43.2361,-21.1952)"
font-family="Helvetica" font-size="90" font-weight="700" font-style="normal" 
>
<polyline fill="none" vector-effect="none" points="912.116,404.216 956.884,404.216 " />
</g>

<g fill="#d92626" fill-opacity="1" stroke="#d92626" stroke-opacity="1" stroke-width="9" stroke-linecap="butt" stroke-linejoin="round" transform="matrix(0.502652,0,0,0.499926,-43.2361,-21.1952)"
font-family="Helvetica" font-size="90" font-weight="700" font-style="normal" 
>
<polyline fill="none" vector-effect="none" points="954.086,414.876 998.854,414.876 " />
</g>

<g fill="#000000" fill-opacity="1" stroke="#000000" stroke-opacity="1" stroke-width="1.6" stroke-linecap="butt" stroke-linejoin="round" transform="matrix(0.502652,0,0,0.499926,-43.2361,-21.1952)"
font-family="Helvetica" font-size="90" font-weight="700" font-style="normal" 
>
<polyline fill="none" vector-effect="none" points="892.53,346.612 892.53,326.124 " />
<polyline fill="none" vector-effect="none" points="976.47,346.612 976.47,326.124 " />
<polyline fill="none" vector-effect="none" points="892.53,326.124 976.47,326.124 " />
</g>

<g fill="#000000" fill-opacity="1" stroke="#000000" stroke-opacity="1" stroke-width="1" stroke-linecap="square" stroke-linejoin="bevel" transform="matrix(0.502652,0,0,0.499926,408.9,127.503)"
font-family="Helvetica" font-size="90" font-weight="700" font-style="normal" 
>
<text fill="#000000" fill-opacity="1" stroke="none" xml:space="preserve" x="0" y="0.296875" font-family="Helvetica" font-size="90" font-weight="700" font-style="normal" 
 >**</text>
</g>

<g fill="#000000" fill-opacity="1" stroke="#000000" stroke-opacity="1" stroke-width="1.6" stroke-linecap="butt" stroke-linejoin="round" transform="matrix(0.502652,0,0,0.499926,-43.2361,-21.1952)"
font-family="Helvetica" font-size="90" font-weight="700" font-style="normal" 
>
<polyline fill="none" vector-effect="none" points="892.53,295.392 892.53,274.904 " />
<polyline fill="none" vector-effect="none" points="934.5,295.392 934.5,274.904 " />
<polyline fill="none" vector-effect="none" points="892.53,274.904 934.5,274.904 " />
</g>

<g fill="#000000" fill-opacity="1" stroke="#000000" stroke-opacity="1" stroke-width="1" stroke-linecap="square" stroke-linejoin="bevel" transform="matrix(0.502652,0,0,0.499926,398.352,101.897)"
font-family="Helvetica" font-size="90" font-weight="700" font-style="normal" 
>
<text fill="#000000" fill-opacity="1" stroke="none" xml:space="preserve" x="0" y="0.296875" font-family="Helvetica" font-size="90" font-weight="700" font-style="normal" 
 >**</text>
</g>

<g fill="#3387bd" fill-opacity="0.85098" stroke="none" transform="matrix(0.502652,0,0,0.499926,-43.2361,-21.1952)"
font-family="Helvetica" font-size="90" font-weight="700" font-style="normal" 
>
<circle cx="1172.33" cy="431.392" r="17.3205"/>
<circle cx="1172.33" cy="430.606" r="17.3205"/>
<circle cx="1172.33" cy="425.547" r="17.3205"/>
</g>

<g fill="#33a14a" fill-opacity="0.85098" stroke="none" transform="matrix(0.502652,0,0,0.499926,-43.2361,-21.1952)"
font-family="Helvetica" font-size="90" font-weight="700" font-style="normal" 
>
<circle cx="1214.3" cy="448.382" r="17.3205"/>
<circle cx="1214.3" cy="450.478" r="17.3205"/>
<circle cx="1214.3" cy="401.695" r="17.3205"/>
</g>

<g fill="#d92626" fill-opacity="0.85098" stroke="none" transform="matrix(0.502652,0,0,0.499926,-43.2361,-21.1952)"
font-family="Helvetica" font-size="90" font-weight="700" font-style="normal" 
>
<circle cx="1256.27" cy="456.84" r="17.3205"/>
<circle cx="1256.27" cy="458.801" r="17.3205"/>
<circle cx="1256.27" cy="458.496" r="17.3205"/>
</g>

<g fill="#3387bd" fill-opacity="1" stroke="#3387bd" stroke-opacity="1" stroke-width="9" stroke-linecap="butt" stroke-linejoin="round" transform="matrix(0.502652,0,0,0.499926,-43.2361,-21.1952)"
font-family="Helvetica" font-size="90" font-weight="700" font-style="normal" 
>
<polyline fill="none" vector-effect="none" points="1149.95,429.182 1194.71,429.182 " />
</g>

<g fill="#33a14a" fill-opacity="1" stroke="#33a14a" stroke-opacity="1" stroke-width="9" stroke-linecap="butt" stroke-linejoin="round" transform="matrix(0.502652,0,0,0.499926,-43.2361,-21.1952)"
font-family="Helvetica" font-size="90" font-weight="700" font-style="normal" 
>
<polyline fill="none" vector-effect="none" points="1191.92,433.519 1236.68,433.519 " />
</g>

<g fill="#d92626" fill-opacity="1" stroke="#d92626" stroke-opacity="1" stroke-width="9" stroke-linecap="butt" stroke-linejoin="round" transform="matrix(0.502652,0,0,0.499926,-43.2361,-21.1952)"
font-family="Helvetica" font-size="90" font-weight="700" font-style="normal" 
>
<polyline fill="none" vector-effect="none" points="1233.89,458.046 1278.65,458.046 " />
</g>

<g fill="#000000" fill-opacity="1" stroke="#000000" stroke-opacity="1" stroke-width="1.6" stroke-linecap="butt" stroke-linejoin="round" transform="matrix(0.502652,0,0,0.499926,-43.2361,-21.1952)"
font-family="Helvetica" font-size="90" font-weight="700" font-style="normal" 
>
<polyline fill="none" vector-effect="none" points="1172.33,370.964 1172.33,350.476 " />
<polyline fill="none" vector-effect="none" points="1256.27,370.964 1256.27,350.476 " />
<polyline fill="none" vector-effect="none" points="1172.33,350.476 1256.27,350.476 " />
</g>

<g fill="#000000" fill-opacity="1" stroke="#000000" stroke-opacity="1" stroke-width="1" stroke-linecap="square" stroke-linejoin="bevel" transform="matrix(0.502652,0,0,0.499926,549.542,139.678)"
font-family="Helvetica" font-size="90" font-weight="700" font-style="normal" 
>
<text fill="#000000" fill-opacity="1" stroke="none" xml:space="preserve" x="0" y="0.296875" font-family="Helvetica" font-size="90" font-weight="700" font-style="normal" 
 >**</text>
</g>

<g fill="#3387bd" fill-opacity="0.85098" stroke="none" transform="matrix(0.502652,0,0,0.499926,-43.2361,-21.1952)"
font-family="Helvetica" font-size="90" font-weight="700" font-style="normal" 
>
<circle cx="1452.13" cy="781.822" r="17.3205"/>
<circle cx="1452.13" cy="793.145" r="17.3205"/>
<circle cx="1452.13" cy="784.07" r="17.3205"/>
</g>

<g fill="#33a14a" fill-opacity="0.85098" stroke="none" transform="matrix(0.502652,0,0,0.499926,-43.2361,-21.1952)"
font-family="Helvetica" font-size="90" font-weight="700" font-style="normal" 
>
<circle cx="1494.1" cy="810.787" r="17.3205"/>
<circle cx="1494.1" cy="834.202" r="17.3205"/>
<circle cx="1494.1" cy="816.548" r="17.3205"/>
</g>

<g fill="#d92626" fill-opacity="0.85098" stroke="none" transform="matrix(0.502652,0,0,0.499926,-43.2361,-21.1952)"
font-family="Helvetica" font-size="90" font-weight="700" font-style="normal" 
>
<circle cx="1536.07" cy="846.693" r="17.3205"/>
<circle cx="1536.07" cy="881.765" r="17.3205"/>
<circle cx="1536.07" cy="843.76" r="17.3205"/>
</g>

<g fill="#3387bd" fill-opacity="1" stroke="#3387bd" stroke-opacity="1" stroke-width="9" stroke-linecap="butt" stroke-linejoin="round" transform="matrix(0.502652,0,0,0.499926,-43.2361,-21.1952)"
font-family="Helvetica" font-size="90" font-weight="700" font-style="normal" 
>
<polyline fill="none" vector-effect="none" points="1429.75,786.346 1474.51,786.346 " />
</g>

<g fill="#33a14a" fill-opacity="1" stroke="#33a14a" stroke-opacity="1" stroke-width="9" stroke-linecap="butt" stroke-linejoin="round" transform="matrix(0.502652,0,0,0.499926,-43.2361,-21.1952)"
font-family="Helvetica" font-size="90" font-weight="700" font-style="normal" 
>
<polyline fill="none" vector-effect="none" points="1471.72,820.512 1516.48,820.512 " />
</g>

<g fill="#d92626" fill-opacity="1" stroke="#d92626" stroke-opacity="1" stroke-width="9" stroke-linecap="butt" stroke-linejoin="round" transform="matrix(0.502652,0,0,0.499926,-43.2361,-21.1952)"
font-family="Helvetica" font-size="90" font-weight="700" font-style="normal" 
>
<polyline fill="none" vector-effect="none" points="1513.69,857.406 1558.45,857.406 " />
</g>

<g fill="#000000" fill-opacity="1" stroke="#000000" stroke-opacity="1" stroke-width="1.6" stroke-linecap="butt" stroke-linejoin="round" transform="matrix(0.502652,0,0,0.499926,-43.2361,-21.1952)"
font-family="Helvetica" font-size="90" font-weight="700" font-style="normal" 
>
<polyline fill="none" vector-effect="none" points="1452.13,751.09 1452.13,730.602 " />
<polyline fill="none" vector-effect="none" points="1536.07,751.09 1536.07,730.602 " />
<polyline fill="none" vector-effect="none" points="1452.13,730.602 1536.07,730.602 " />
</g>

<g fill="#000000" fill-opacity="1" stroke="#000000" stroke-opacity="1" stroke-width="1" stroke-linecap="square" stroke-linejoin="bevel" transform="matrix(0.502652,0,0,0.499926,698.98,329.713)"
font-family="Helvetica" font-size="90" font-weight="700" font-style="normal" 
>
<text fill="#000000" fill-opacity="1" stroke="none" xml:space="preserve" x="0" y="0.296875" font-family="Helvetica" font-size="90" font-weight="700" font-style="normal" 
 >*</text>
</g>

<g fill="#000000" fill-opacity="1" stroke="#000000" stroke-opacity="1" stroke-width="1.6" stroke-linecap="butt" stroke-linejoin="round" transform="matrix(0.502652,0,0,0.499926,-43.2361,-21.1952)"
font-family="Helvetica" font-size="90" font-weight="700" font-style="normal" 
>
<polyline fill="none" vector-effect="none" points="1452.13,699.87 1452.13,679.382 " />
<polyline fill="none" vector-effect="none" points="1494.1,699.87 1494.1,679.382 " />
<polyline fill="none" vector-effect="none" points="1452.13,679.382 1494.1,679.382 " />
</g>

<g fill="#000000" fill-opacity="1" stroke="#000000" stroke-opacity="1" stroke-width="1" stroke-linecap="square" stroke-linejoin="bevel" transform="matrix(0.502652,0,0,0.499926,688.432,304.107)"
font-family="Helvetica" font-size="90" font-weight="700" font-style="normal" 
>
<text fill="#000000" fill-opacity="1" stroke="none" xml:space="preserve" x="0" y="0.296875" font-family="Helvetica" font-size="90" font-weight="700" font-style="normal" 
 >*</text>
</g>

<g fill="#000000" fill-opacity="0.34902" stroke="#000000" stroke-opacity="0.34902" stroke-dasharray="10,6" stroke-dashoffset="0" stroke-width="1.6" stroke-linecap="butt" stroke-linejoin="round" transform="matrix(0.502652,0,0,0.499926,-43.2361,-21.1952)"
font-family="Helvetica" font-size="90" font-weight="700" font-style="normal" 
>
<polyline fill="none" vector-effect="none" points="235,570.143 1634,570.143 " />
</g>

<g fill="#3387bd" fill-opacity="1" stroke="none" transform="matrix(0.502652,0,0,0.499926,-43.2361,-21.1952)"
font-family="Helvetica" font-size="90" font-weight="700" font-style="normal" 
>
<circle cx="1325.96" cy="142.413" r="6"/>
</g>

<g fill="#33a14a" fill-opacity="1" stroke="none" transform="matrix(0.502652,0,0,0.499926,-43.2361,-21.1952)"
font-family="Helvetica" font-size="90" font-weight="700" font-style="normal" 
>
<circle cx="1325.96" cy="212" r="6"/>
</g>

<g fill="#d92626" fill-opacity="1" stroke="none" transform="matrix(0.502652,0,0,0.499926,-43.2361,-21.1952)"
font-family="Helvetica" font-size="90" font-weight="700" font-style="normal" 
>
<circle cx="1325.96" cy="281.587" r="6"/>
</g>

<g fill="#212121" fill-opacity="1" stroke="#212121" stroke-opacity="1" stroke-width="1" stroke-linecap="square" stroke-linejoin="bevel" transform="matrix(0.502652,0,0,0.499926,634.554,57.9995)"
font-family="Helvetica" font-size="60" font-weight="400" font-style="normal" 
>
<text fill="#212121" fill-opacity="1" stroke="none" xml:space="preserve" x="0" y="0.1875" font-family="Helvetica" font-size="60" font-weight="400" font-style="normal" 
 >ST1-75</text>
</g>

<g fill="#212121" fill-opacity="1" stroke="#212121" stroke-opacity="1" stroke-width="1" stroke-linecap="square" stroke-linejoin="bevel" transform="matrix(0.502652,0,0,0.499926,634.554,92.7881)"
font-family="Helvetica" font-size="60" font-weight="400" font-style="normal" 
>
<text fill="#212121" fill-opacity="1" stroke="none" xml:space="preserve" x="0" y="0.1875" font-family="Helvetica" font-size="60" font-weight="400" font-style="normal" 
 >ST1-68</text>
</g>

<g fill="#212121" fill-opacity="1" stroke="#212121" stroke-opacity="1" stroke-width="1" stroke-linecap="square" stroke-linejoin="bevel" transform="matrix(0.502652,0,0,0.499926,634.554,127.577)"
font-family="Helvetica" font-size="60" font-weight="400" font-style="normal" 
>
<text fill="#212121" fill-opacity="1" stroke="none" xml:space="preserve" x="0" y="0.1875" font-family="Helvetica" font-size="60" font-weight="400" font-style="normal" 
 >VPI10463</text>
</g>
</g>
</svg>
