<?xml version="1.0" encoding="UTF-8" standalone="no"?>
<svg width="213.783mm" height="175.683mm"
 viewBox="0 0 606 498"
 xmlns="http://www.w3.org/2000/svg" xmlns:xlink="http://www.w3.org/1999/xlink"  version="1.2" baseProfile="tiny">
<title>Qt SVG Document</title>
<desc>MATLAB, The MathWorks, Inc. Version 25.2.0.3042426 R2025b Update 1</desc>
<defs>
</defs>
<g fill="none" stroke="black" stroke-width="1" fill-rule="evenodd" stroke-linecap="square" stroke-linejoin="bevel" >

<g fill="#ffffff" fill-opacity="1" stroke="none" transform="matrix(0.515385,0,0,0.502542,-23.2385,-13.325)"
font-family=".AppleSystemUIFont" font-size="13" font-weight="400" font-style="normal" 
>
<path vector-effect="none" fill-rule="evenodd" d="M45,26 L1221,26 L1221,1016 L45,1016 L45,26"/>
</g>

<g fill="#ffffff" fill-opacity="1" stroke="none" transform="matrix(5.15385e-05,0,0,5.02542e-05,-23.2385,-13.325)"
font-family=".AppleSystemUIFont" font-size="13" font-weight="400" font-style="normal" 
>
<path vector-effect="none" fill-rule="evenodd" d="M1.75e+06,770000 L1.75e+06,9.1e+06 L1.217e+07,9.1e+06 L1.217e+07,770000 L1.75e+06,770000"/>
</g>

<g fill="#212121" fill-opacity="1" stroke="#212121" stroke-opacity="1" stroke-width="1" stroke-linecap="square" stroke-linejoin="bevel" transform="matrix(0.515385,0,0,0.502542,239.092,491.227)"
font-family="Helvetica" font-size="44" font-weight="400" font-style="normal" 
>
<text fill="#212121" fill-opacity="1" stroke="none" xml:space="preserve" x="0" y="-0.125" font-family="Helvetica" font-size="44" font-weight="400" font-style="normal" 
 >Days post-infection</text>
</g>

<g fill="#212121" fill-opacity="1" stroke="#212121" stroke-opacity="1" stroke-width="1" stroke-linecap="square" stroke-linejoin="round" transform="matrix(0.515385,0,0,0.502542,-23.2385,-13.325)"
font-family="Helvetica" font-size="44" font-weight="400" font-style="normal" 
>
<polyline fill="none" vector-effect="none" points="175,910 1217,910 " />
<polyline fill="none" vector-effect="none" points="175,910 175,899.58 " />
<polyline fill="none" vector-effect="none" points="826.25,910 826.25,899.58 " />
<polyline fill="none" vector-effect="none" points="1151.88,910 1151.88,899.58 " />
</g>

<g fill="#212121" fill-opacity="1" stroke="#212121" stroke-opacity="1" stroke-width="1" stroke-linecap="square" stroke-linejoin="bevel" transform="matrix(0.515385,0,0,0.502542,61.2846,465.597)"
font-family="Helvetica" font-size="40" font-weight="400" font-style="normal" 
>
<text fill="#212121" fill-opacity="1" stroke="none" xml:space="preserve" x="0" y="-0.203125" font-family="Helvetica" font-size="40" font-weight="400" font-style="normal" 
 >0</text>
</g>

<g fill="#212121" fill-opacity="1" stroke="#212121" stroke-opacity="1" stroke-width="1" stroke-linecap="square" stroke-linejoin="bevel" transform="matrix(0.515385,0,0,0.502542,396.929,465.597)"
font-family="Helvetica" font-size="40" font-weight="400" font-style="normal" 
>
<text fill="#212121" fill-opacity="1" stroke="none" xml:space="preserve" x="0" y="-0.203125" font-family="Helvetica" font-size="40" font-weight="400" font-style="normal" 
 >2</text>
</g>

<g fill="#212121" fill-opacity="1" stroke="#212121" stroke-opacity="1" stroke-width="1" stroke-linecap="square" stroke-linejoin="bevel" transform="matrix(0.515385,0,0,0.502542,564.751,465.597)"
font-family="Helvetica" font-size="40" font-weight="400" font-style="normal" 
>
<text fill="#212121" fill-opacity="1" stroke="none" xml:space="preserve" x="0" y="-0.203125" font-family="Helvetica" font-size="40" font-weight="400" font-style="normal" 
 >3</text>
</g>

<g fill="#212121" fill-opacity="1" stroke="#212121" stroke-opacity="1" stroke-width="1" stroke-linecap="square" stroke-linejoin="bevel" transform="matrix(0,-0.502542,0.515385,0,17.9923,311.82)"
font-family="Helvetica" font-size="44" font-weight="400" font-style="normal" 
>
<text fill="#212121" fill-opacity="1" stroke="none" xml:space="preserve" x="0" y="-0.125" font-family="Helvetica" font-size="44" font-weight="400" font-style="normal" 
 >Relative Weight</text>
</g>

<g fill="#212121" fill-opacity="1" stroke="#212121" stroke-opacity="1" stroke-width="1" stroke-linecap="square" stroke-linejoin="round" transform="matrix(0.515385,0,0,0.502542,-23.2385,-13.325)"
font-family="Helvetica" font-size="44" font-weight="400" font-style="normal" 
>
<polyline fill="none" vector-effect="none" points="175,910 175,77 " />
<polyline fill="none" vector-effect="none" points="175,910 185.42,910 " />
<polyline fill="none" vector-effect="none" points="175,771.167 185.42,771.167 " />
<polyline fill="none" vector-effect="none" points="175,632.333 185.42,632.333 " />
<polyline fill="none" vector-effect="none" points="175,493.5 185.42,493.5 " />
<polyline fill="none" vector-effect="none" points="175,354.667 185.42,354.667 " />
<polyline fill="none" vector-effect="none" points="175,215.833 185.42,215.833 " />
<polyline fill="none" vector-effect="none" points="175,77 185.42,77 " />
</g>

<g fill="#212121" fill-opacity="1" stroke="#212121" stroke-opacity="1" stroke-width="1" stroke-linecap="square" stroke-linejoin="bevel" transform="matrix(0.515385,0,0,0.502542,38.0923,449.516)"
font-family="Helvetica" font-size="40" font-weight="400" font-style="normal" 
>
<text fill="#212121" fill-opacity="1" stroke="none" xml:space="preserve" x="0" y="-0.203125" font-family="Helvetica" font-size="40" font-weight="400" font-style="normal" 
 >60</text>
</g>

<g fill="#212121" fill-opacity="1" stroke="#212121" stroke-opacity="1" stroke-width="1" stroke-linecap="square" stroke-linejoin="bevel" transform="matrix(0.515385,0,0,0.502542,38.0923,379.747)"
font-family="Helvetica" font-size="40" font-weight="400" font-style="normal" 
>
<text fill="#212121" fill-opacity="1" stroke="none" xml:space="preserve" x="0" y="-0.203125" font-family="Helvetica" font-size="40" font-weight="400" font-style="normal" 
 >70</text>
</g>

<g fill="#212121" fill-opacity="1" stroke="#212121" stroke-opacity="1" stroke-width="1" stroke-linecap="square" stroke-linejoin="bevel" transform="matrix(0.515385,0,0,0.502542,38.0923,309.977)"
font-family="Helvetica" font-size="40" font-weight="400" font-style="normal" 
>
<text fill="#212121" fill-opacity="1" stroke="none" xml:space="preserve" x="0" y="-0.203125" font-family="Helvetica" font-size="40" font-weight="400" font-style="normal" 
 >80</text>
</g>

<g fill="#212121" fill-opacity="1" stroke="#212121" stroke-opacity="1" stroke-width="1" stroke-linecap="square" stroke-linejoin="bevel" transform="matrix(0.515385,0,0,0.502542,38.0923,240.207)"
font-family="Helvetica" font-size="40" font-weight="400" font-style="normal" 
>
<text fill="#212121" fill-opacity="1" stroke="none" xml:space="preserve" x="0" y="-0.203125" font-family="Helvetica" font-size="40" font-weight="400" font-style="normal" 
 >90</text>
</g>

<g fill="#212121" fill-opacity="1" stroke="#212121" stroke-opacity="1" stroke-width="1" stroke-linecap="square" stroke-linejoin="bevel" transform="matrix(0.515385,0,0,0.502542,26.2385,170.438)"
font-family="Helvetica" font-size="40" font-weight="400" font-style="normal" 
>
<text fill="#212121" fill-opacity="1" stroke="none" xml:space="preserve" x="0" y="-0.203125" font-family="Helvetica" font-size="40" font-weight="400" font-style="normal" 
 >100</text>
</g>

<g fill="#212121" fill-opacity="1" stroke="#212121" stroke-opacity="1" stroke-width="1" stroke-linecap="square" stroke-linejoin="bevel" transform="matrix(0.515385,0,0,0.502542,27.7846,100.668)"
font-family="Helvetica" font-size="40" font-weight="400" font-style="normal" 
>
<text fill="#212121" fill-opacity="1" stroke="none" xml:space="preserve" x="0" y="-0.203125" font-family="Helvetica" font-size="40" font-weight="400" font-style="normal" 
 >110</text>
</g>

<g fill="#212121" fill-opacity="1" stroke="#212121" stroke-opacity="1" stroke-width="1" stroke-linecap="square" stroke-linejoin="bevel" transform="matrix(0.515385,0,0,0.502542,26.2385,30.8987)"
font-family="Helvetica" font-size="40" font-weight="400" font-style="normal" 
>
<text fill="#212121" fill-opacity="1" stroke="none" xml:space="preserve" x="0" y="-0.203125" font-family="Helvetica" font-size="40" font-weight="400" font-style="normal" 
 >120</text>
</g>

<g fill="#212121" fill-opacity="1" stroke="#212121" stroke-opacity="1" stroke-width="1" stroke-linecap="square" stroke-linejoin="bevel" transform="matrix(0.515385,0,0,0.502542,233.681,17.5813)"
font-family="Helvetica" font-size="44" font-weight="700" font-style="normal" 
>
<text fill="#212121" fill-opacity="1" stroke="none" xml:space="preserve" x="0" y="-0.125" font-family="Helvetica" font-size="44" font-weight="700" font-style="normal" 
 >Weight trajectories</text>
</g>

<g fill="#999999" fill-opacity="0.301961" stroke="none" transform="matrix(5.15385e-05,0,0,5.02542e-05,-23.2385,-13.325)"
font-family="Helvetica" font-size="44" font-weight="700" font-style="normal" 
>
<path vector-effect="none" fill-rule="evenodd" d="M1.15188e+07,4.62836e+06 L1.15188e+07,3.42728e+06 L8.2625e+06,4.16932e+06 L1.75e+06,3.54667e+06 L8.2625e+06,5.53431e+06 L1.15188e+07,4.62836e+06"/>
</g>

<g fill="none" stroke="#666666" stroke-opacity="1" stroke-width="4" stroke-linecap="butt" stroke-linejoin="round" transform="matrix(0.515385,0,0,0.502542,-23.2385,-13.325)"
font-family="Helvetica" font-size="44" font-weight="700" font-style="normal" 
>
<polyline fill="none" vector-effect="none" points="175,354.667 826.25,485.182 1151.88,402.782 " />
</g>

<g fill="#666666" fill-opacity="1" stroke="none" transform="matrix(0.515385,0,0,0.502542,-23.2385,-13.325)"
font-family="Helvetica" font-size="44" font-weight="700" font-style="normal" 
>
<circle cx="175" cy="354.667" r="7"/>
</g>

<g fill="none" stroke="#666666" stroke-opacity="1" stroke-width="4" stroke-linecap="butt" stroke-linejoin="miter" stroke-miterlimit="2" transform="matrix(0.515385,0,0,0.502542,-23.2385,-13.325)"
font-family="Helvetica" font-size="44" font-weight="700" font-style="normal" 
>
<path vector-effect="none" fill-rule="evenodd" d="M182,354.667 C182,350.801 178.866,347.667 175,347.667 C171.134,347.667 168,350.801 168,354.667 C168,358.533 171.134,361.667 175,361.667 C178.866,361.667 182,358.533 182,354.667 "/>
</g>

<g fill="#666666" fill-opacity="1" stroke="none" transform="matrix(0.515385,0,0,0.502542,-23.2385,-13.325)"
font-family="Helvetica" font-size="44" font-weight="700" font-style="normal" 
>
<circle cx="826.25" cy="485.182" r="7"/>
</g>

<g fill="none" stroke="#666666" stroke-opacity="1" stroke-width="4" stroke-linecap="butt" stroke-linejoin="miter" stroke-miterlimit="2" transform="matrix(0.515385,0,0,0.502542,-23.2385,-13.325)"
font-family="Helvetica" font-size="44" font-weight="700" font-style="normal" 
>
<path vector-effect="none" fill-rule="evenodd" d="M833.25,485.182 C833.25,481.316 830.116,478.182 826.25,478.182 C822.384,478.182 819.25,481.316 819.25,485.182 C819.25,489.048 822.384,492.182 826.25,492.182 C830.116,492.182 833.25,489.048 833.25,485.182 "/>
</g>

<g fill="#666666" fill-opacity="1" stroke="none" transform="matrix(0.515385,0,0,0.502542,-23.2385,-13.325)"
font-family="Helvetica" font-size="44" font-weight="700" font-style="normal" 
>
<circle cx="1151.88" cy="402.782" r="7"/>
</g>

<g fill="none" stroke="#666666" stroke-opacity="1" stroke-width="4" stroke-linecap="butt" stroke-linejoin="miter" stroke-miterlimit="2" transform="matrix(0.515385,0,0,0.502542,-23.2385,-13.325)"
font-family="Helvetica" font-size="44" font-weight="700" font-style="normal" 
>
<path vector-effect="none" fill-rule="evenodd" d="M1158.88,402.782 C1158.88,398.916 1155.74,395.782 1151.88,395.782 C1148.01,395.782 1144.88,398.916 1144.88,402.782 C1144.88,406.648 1148.01,409.782 1151.88,409.782 C1155.74,409.782 1158.88,406.648 1158.88,402.782 "/>
</g>

<g fill="none" stroke="#338ccc" stroke-opacity="1" stroke-width="4" stroke-linecap="butt" stroke-linejoin="round" transform="matrix(0.515385,0,0,0.502542,-23.2385,-13.325)"
font-family="Helvetica" font-size="44" font-weight="700" font-style="normal" 
>
<polyline fill="none" vector-effect="none" points="175,354.667 826.25,285.634 1151.88,231.941 " />
</g>

<g fill="#338ccc" fill-opacity="1" stroke="none" transform="matrix(0.515385,0,0,0.502542,-23.2385,-13.325)"
font-family="Helvetica" font-size="44" font-weight="700" font-style="normal" 
>
<circle cx="175" cy="354.667" r="7"/>
</g>

<g fill="none" stroke="#338ccc" stroke-opacity="1" stroke-width="4" stroke-linecap="butt" stroke-linejoin="miter" stroke-miterlimit="2" transform="matrix(0.515385,0,0,0.502542,-23.2385,-13.325)"
font-family="Helvetica" font-size="44" font-weight="700" font-style="normal" 
>
<path vector-effect="none" fill-rule="evenodd" d="M182,354.667 C182,350.801 178.866,347.667 175,347.667 C171.134,347.667 168,350.801 168,354.667 C168,358.533 171.134,361.667 175,361.667 C178.866,361.667 182,358.533 182,354.667 "/>
</g>

<g fill="#338ccc" fill-opacity="1" stroke="none" transform="matrix(0.515385,0,0,0.502542,-23.2385,-13.325)"
font-family="Helvetica" font-size="44" font-weight="700" font-style="normal" 
>
<circle cx="826.25" cy="285.634" r="7"/>
</g>

<g fill="none" stroke="#338ccc" stroke-opacity="1" stroke-width="4" stroke-linecap="butt" stroke-linejoin="miter" stroke-miterlimit="2" transform="matrix(0.515385,0,0,0.502542,-23.2385,-13.325)"
font-family="Helvetica" font-size="44" font-weight="700" font-style="normal" 
>
<path vector-effect="none" fill-rule="evenodd" d="M833.25,285.634 C833.25,281.768 830.116,278.634 826.25,278.634 C822.384,278.634 819.25,281.768 819.25,285.634 C819.25,289.5 822.384,292.634 826.25,292.634 C830.116,292.634 833.25,289.5 833.25,285.634 "/>
</g>

<g fill="#338ccc" fill-opacity="1" stroke="none" transform="matrix(0.515385,0,0,0.502542,-23.2385,-13.325)"
font-family="Helvetica" font-size="44" font-weight="700" font-style="normal" 
>
<circle cx="1151.88" cy="231.941" r="7"/>
</g>

<g fill="none" stroke="#338ccc" stroke-opacity="1" stroke-width="4" stroke-linecap="butt" stroke-linejoin="miter" stroke-miterlimit="2" transform="matrix(0.515385,0,0,0.502542,-23.2385,-13.325)"
font-family="Helvetica" font-size="44" font-weight="700" font-style="normal" 
>
<path vector-effect="none" fill-rule="evenodd" d="M1158.88,231.941 C1158.88,228.075 1155.74,224.941 1151.88,224.941 C1148.01,224.941 1144.88,228.075 1144.88,231.941 C1144.88,235.807 1148.01,238.941 1151.88,238.941 C1155.74,238.941 1158.88,235.807 1158.88,231.941 "/>
</g>

<g fill="none" stroke="#d9541a" stroke-opacity="1" stroke-width="4" stroke-linecap="butt" stroke-linejoin="round" transform="matrix(0.515385,0,0,0.502542,-23.2385,-13.325)"
font-family="Helvetica" font-size="44" font-weight="700" font-style="normal" 
>
<polyline fill="none" vector-effect="none" points="175,354.667 826.25,633.729 1151.88,703.494 " />
</g>

<g fill="#d9541a" fill-opacity="1" stroke="none" transform="matrix(0.515385,0,0,0.502542,-23.2385,-13.325)"
font-family="Helvetica" font-size="44" font-weight="700" font-style="normal" 
>
<circle cx="175" cy="354.667" r="7"/>
</g>

<g fill="none" stroke="#d9541a" stroke-opacity="1" stroke-width="4" stroke-linecap="butt" stroke-linejoin="miter" stroke-miterlimit="2" transform="matrix(0.515385,0,0,0.502542,-23.2385,-13.325)"
font-family="Helvetica" font-size="44" font-weight="700" font-style="normal" 
>
<path vector-effect="none" fill-rule="evenodd" d="M182,354.667 C182,350.801 178.866,347.667 175,347.667 C171.134,347.667 168,350.801 168,354.667 C168,358.533 171.134,361.667 175,361.667 C178.866,361.667 182,358.533 182,354.667 "/>
</g>

<g fill="#d9541a" fill-opacity="1" stroke="none" transform="matrix(0.515385,0,0,0.502542,-23.2385,-13.325)"
font-family="Helvetica" font-size="44" font-weight="700" font-style="normal" 
>
<circle cx="826.25" cy="633.729" r="7"/>
</g>

<g fill="none" stroke="#d9541a" stroke-opacity="1" stroke-width="4" stroke-linecap="butt" stroke-linejoin="miter" stroke-miterlimit="2" transform="matrix(0.515385,0,0,0.502542,-23.2385,-13.325)"
font-family="Helvetica" font-size="44" font-weight="700" font-style="normal" 
>
<path vector-effect="none" fill-rule="evenodd" d="M833.25,633.729 C833.25,629.863 830.116,626.729 826.25,626.729 C822.384,626.729 819.25,629.863 819.25,633.729 C819.25,637.595 822.384,640.729 826.25,640.729 C830.116,640.729 833.25,637.595 833.25,633.729 "/>
</g>

<g fill="#d9541a" fill-opacity="1" stroke="none" transform="matrix(0.515385,0,0,0.502542,-23.2385,-13.325)"
font-family="Helvetica" font-size="44" font-weight="700" font-style="normal" 
>
<circle cx="1151.88" cy="703.494" r="7"/>
</g>

<g fill="none" stroke="#d9541a" stroke-opacity="1" stroke-width="4" stroke-linecap="butt" stroke-linejoin="miter" stroke-miterlimit="2" transform="matrix(0.515385,0,0,0.502542,-23.2385,-13.325)"
font-family="Helvetica" font-size="44" font-weight="700" font-style="normal" 
>
<path vector-effect="none" fill-rule="evenodd" d="M1158.88,703.494 C1158.88,699.628 1155.74,696.494 1151.88,696.494 C1148.01,696.494 1144.88,699.628 1144.88,703.494 C1144.88,707.36 1148.01,710.494 1151.88,710.494 C1155.74,710.494 1158.88,707.36 1158.88,703.494 "/>
</g>

<g fill="#000000" fill-opacity="0.701961" stroke="#000000" stroke-opacity="0.701961" stroke-dasharray="10,6" stroke-dashoffset="0" stroke-width="2" stroke-linecap="butt" stroke-linejoin="round" transform="matrix(0.515385,0,0,0.502542,-23.2385,-13.325)"
font-family="Helvetica" font-size="44" font-weight="700" font-style="normal" 
>
<polyline fill="none" vector-effect="none" points="175,354.667 1217,354.667 " />
</g>

<g fill="#666666" fill-opacity="1" stroke="#666666" stroke-opacity="1" stroke-width="4" stroke-linecap="butt" stroke-linejoin="round" transform="matrix(0.515385,0,0,0.502542,-23.2385,-13.325)"
font-family="Helvetica" font-size="44" font-weight="700" font-style="normal" 
>
<polyline fill="none" vector-effect="none" points="197.01,786.59 257.112,786.59 " />
</g>

<g fill="#666666" fill-opacity="1" stroke="none" transform="matrix(0.515385,0,0,0.502542,-23.2385,-13.325)"
font-family="Helvetica" font-size="44" font-weight="700" font-style="normal" 
>
<circle cx="227.061" cy="786.59" r="7"/>
</g>

<g fill="none" stroke="#666666" stroke-opacity="1" stroke-width="4" stroke-linecap="butt" stroke-linejoin="miter" stroke-miterlimit="2" transform="matrix(0.515385,0,0,0.502542,-23.2385,-13.325)"
font-family="Helvetica" font-size="44" font-weight="700" font-style="normal" 
>
<path vector-effect="none" fill-rule="evenodd" d="M234.061,786.59 C234.061,782.724 230.927,779.59 227.061,779.59 C223.195,779.59 220.061,782.724 220.061,786.59 C220.061,790.456 223.195,793.59 227.061,793.59 C230.927,793.59 234.061,790.456 234.061,786.59 "/>
</g>

<g fill="#338ccc" fill-opacity="1" stroke="#338ccc" stroke-opacity="1" stroke-width="4" stroke-linecap="butt" stroke-linejoin="round" transform="matrix(0.515385,0,0,0.502542,-23.2385,-13.325)"
font-family="Helvetica" font-size="44" font-weight="700" font-style="normal" 
>
<polyline fill="none" vector-effect="none" points="197.01,828.5 257.112,828.5 " />
</g>

<g fill="#338ccc" fill-opacity="1" stroke="none" transform="matrix(0.515385,0,0,0.502542,-23.2385,-13.325)"
font-family="Helvetica" font-size="44" font-weight="700" font-style="normal" 
>
<circle cx="227.061" cy="828.5" r="7"/>
</g>

<g fill="none" stroke="#338ccc" stroke-opacity="1" stroke-width="4" stroke-linecap="butt" stroke-linejoin="miter" stroke-miterlimit="2" transform="matrix(0.515385,0,0,0.502542,-23.2385,-13.325)"
font-family="Helvetica" font-size="44" font-weight="700" font-style="normal" 
>
<path vector-effect="none" fill-rule="evenodd" d="M234.061,828.5 C234.061,824.634 230.927,821.5 227.061,821.5 C223.195,821.5 220.061,824.634 220.061,828.5 C220.061,832.366 223.195,835.5 227.061,835.5 C230.927,835.5 234.061,832.366 234.061,828.5 "/>
</g>

<g fill="#d9541a" fill-opacity="1" stroke="#d9541a" stroke-opacity="1" stroke-width="4" stroke-linecap="butt" stroke-linejoin="round" transform="matrix(0.515385,0,0,0.502542,-23.2385,-13.325)"
font-family="Helvetica" font-size="44" font-weight="700" font-style="normal" 
>
<polyline fill="none" vector-effect="none" points="197.01,870.41 257.112,870.41 " />
</g>

<g fill="#d9541a" fill-opacity="1" stroke="none" transform="matrix(0.515385,0,0,0.502542,-23.2385,-13.325)"
font-family="Helvetica" font-size="44" font-weight="700" font-style="normal" 
>
<circle cx="227.061" cy="870.41" r="7"/>
</g>

<g fill="none" stroke="#d9541a" stroke-opacity="1" stroke-width="4" stroke-linecap="butt" stroke-linejoin="miter" stroke-miterlimit="2" transform="matrix(0.515385,0,0,0.502542,-23.2385,-13.325)"
font-family="Helvetica" font-size="44" font-weight="700" font-style="normal" 
>
<path vector-effect="none" fill-rule="evenodd" d="M234.061,870.41 C234.061,866.544 230.927,863.41 227.061,863.41 C223.195,863.41 220.061,866.544 220.061,870.41 C220.061,874.276 223.195,877.41 227.061,877.41 C230.927,877.41 234.061,874.276 234.061,870.41 "/>
</g>

<g fill="#212121" fill-opacity="1" stroke="#212121" stroke-opacity="1" stroke-width="1" stroke-linecap="square" stroke-linejoin="bevel" transform="matrix(0.515385,0,0,0.502542,111.596,386.995)"
font-family="Helvetica" font-size="36" font-weight="400" font-style="normal" 
>
<text fill="#212121" fill-opacity="1" stroke="none" xml:space="preserve" x="0" y="-0.28125" font-family="Helvetica" font-size="36" font-weight="400" font-style="normal" 
 >ST1-75 + VPI</text>
</g>

<g fill="#212121" fill-opacity="1" stroke="#212121" stroke-opacity="1" stroke-width="1" stroke-linecap="square" stroke-linejoin="bevel" transform="matrix(0.515385,0,0,0.502542,111.596,408.056)"
font-family="Helvetica" font-size="36" font-weight="400" font-style="normal" 
>
<text fill="#212121" fill-opacity="1" stroke="none" xml:space="preserve" x="0" y="-0.28125" font-family="Helvetica" font-size="36" font-weight="400" font-style="normal" 
 >ST1-75</text>
</g>

<g fill="#212121" fill-opacity="1" stroke="#212121" stroke-opacity="1" stroke-width="1" stroke-linecap="square" stroke-linejoin="bevel" transform="matrix(0.515385,0,0,0.502542,111.596,429.118)"
font-family="Helvetica" font-size="36" font-weight="400" font-style="normal" 
>
<text fill="#212121" fill-opacity="1" stroke="none" xml:space="preserve" x="0" y="-0.28125" font-family="Helvetica" font-size="36" font-weight="400" font-style="normal" 
 >VPI</text>
</g>
</g>
</svg>
