<?xml version="1.0" encoding="UTF-8" standalone="no"?>
<svg width="348.192mm" height="229.306mm"
 viewBox="0 0 987 650"
 xmlns="http://www.w3.org/2000/svg" xmlns:xlink="http://www.w3.org/1999/xlink"  version="1.2" baseProfile="tiny">
<title>Qt SVG Document</title>
<desc>MATLAB, The MathWorks, Inc. Version 25.2.0.3042426 R2025b Update 1</desc>
<defs>
</defs>
<g fill="none" stroke="black" stroke-width="1" fill-rule="evenodd" stroke-linecap="square" stroke-linejoin="bevel" >

<g fill="#ffffff" fill-opacity="1" stroke="none" transform="matrix(0.521341,0,0,0.500193,-50.1128,-15.7567)"
font-family=".AppleSystemUIFont" font-size="13" font-weight="400" font-style="normal" 
>
<path vector-effect="none" fill-rule="evenodd" d="M96,30 L1988,30 L1988,1330 L96,1330 L96,30"/>
</g>

<g fill="#ffffff" fill-opacity="1" stroke="none" transform="matrix(5.21341e-05,0,0,5.00193e-05,-50.1128,-15.7567)"
font-family=".AppleSystemUIFont" font-size="13" font-weight="400" font-style="normal" 
>
<path vector-effect="none" fill-rule="evenodd" d="M2.85e+06,1e+06 L2.85e+06,1.175e+07 L1.983e+07,1.175e+07 L1.983e+07,1e+06 L2.85e+06,1e+06"/>
</g>

<g fill="#212121" fill-opacity="0.14902" stroke="#212121" stroke-opacity="0.14902" stroke-width="1" stroke-linecap="butt" stroke-linejoin="round" transform="matrix(0.521341,0,0,0.500193,-50.1128,-15.7567)"
font-family=".AppleSystemUIFont" font-size="13" font-weight="400" font-style="normal" 
>
<polyline fill="none" vector-effect="none" points="285,100 285,1175 " />
<polyline fill="none" vector-effect="none" points="534.706,100 534.706,1175 " />
<polyline fill="none" vector-effect="none" points="784.412,100 784.412,1175 " />
<polyline fill="none" vector-effect="none" points="1034.12,100 1034.12,1175 " />
<polyline fill="none" vector-effect="none" points="1283.82,100 1283.82,1175 " />
<polyline fill="none" vector-effect="none" points="1533.53,100 1533.53,1175 " />
<polyline fill="none" vector-effect="none" points="1783.24,100 1783.24,1175 " />
<polyline fill="none" vector-effect="none" points="285,1175 1983,1175 " />
<polyline fill="none" vector-effect="none" points="285,1021.43 1983,1021.43 " />
<polyline fill="none" vector-effect="none" points="285,867.857 1983,867.857 " />
<polyline fill="none" vector-effect="none" points="285,714.286 1983,714.286 " />
<polyline fill="none" vector-effect="none" points="285,560.714 1983,560.714 " />
<polyline fill="none" vector-effect="none" points="285,407.143 1983,407.143 " />
<polyline fill="none" vector-effect="none" points="285,253.571 1983,253.571 " />
<polyline fill="none" vector-effect="none" points="285,100 1983,100 " />
</g>

<g fill="#212121" fill-opacity="1" stroke="#212121" stroke-opacity="1" stroke-width="1" stroke-linecap="square" stroke-linejoin="bevel" transform="matrix(0.521341,0,0,0.500193,510.59,640.997)"
font-family="Helvetica" font-size="66" font-weight="400" font-style="normal" 
>
<text fill="#212121" fill-opacity="1" stroke="none" xml:space="preserve" x="0" y="-0.1875" font-family="Helvetica" font-size="66" font-weight="400" font-style="normal" 
 >Day</text>
</g>

<g fill="#212121" fill-opacity="1" stroke="#212121" stroke-opacity="1" stroke-width="1" stroke-linecap="square" stroke-linejoin="round" transform="matrix(0.521341,0,0,0.500193,-50.1128,-15.7567)"
font-family="Helvetica" font-size="66" font-weight="400" font-style="normal" 
>
<polyline fill="none" vector-effect="none" points="285,1175 1983,1175 " />
<polyline fill="none" vector-effect="none" points="285,1175 285,1158.02 " />
<polyline fill="none" vector-effect="none" points="534.706,1175 534.706,1158.02 " />
<polyline fill="none" vector-effect="none" points="784.412,1175 784.412,1158.02 " />
<polyline fill="none" vector-effect="none" points="1034.12,1175 1034.12,1158.02 " />
<polyline fill="none" vector-effect="none" points="1283.82,1175 1283.82,1158.02 " />
<polyline fill="none" vector-effect="none" points="1533.53,1175 1533.53,1158.02 " />
<polyline fill="none" vector-effect="none" points="1783.24,1175 1783.24,1158.02 " />
</g>

<g fill="#212121" fill-opacity="1" stroke="#212121" stroke-opacity="1" stroke-width="1" stroke-linecap="square" stroke-linejoin="bevel" transform="matrix(0.521341,0,0,0.500193,89.8674,602.983)"
font-family="Helvetica" font-size="60" font-weight="400" font-style="normal" 
>
<text fill="#212121" fill-opacity="1" stroke="none" xml:space="preserve" x="0" y="0.1875" font-family="Helvetica" font-size="60" font-weight="400" font-style="normal" 
 >0</text>
</g>

<g fill="#212121" fill-opacity="1" stroke="#212121" stroke-opacity="1" stroke-width="1" stroke-linecap="square" stroke-linejoin="bevel" transform="matrix(0.521341,0,0,0.500193,220.049,602.983)"
font-family="Helvetica" font-size="60" font-weight="400" font-style="normal" 
>
<text fill="#212121" fill-opacity="1" stroke="none" xml:space="preserve" x="0" y="0.1875" font-family="Helvetica" font-size="60" font-weight="400" font-style="normal" 
 >5</text>
</g>

<g fill="#212121" fill-opacity="1" stroke="#212121" stroke-opacity="1" stroke-width="1" stroke-linecap="square" stroke-linejoin="bevel" transform="matrix(0.521341,0,0,0.500193,341.369,602.983)"
font-family="Helvetica" font-size="60" font-weight="400" font-style="normal" 
>
<text fill="#212121" fill-opacity="1" stroke="none" xml:space="preserve" x="0" y="0.1875" font-family="Helvetica" font-size="60" font-weight="400" font-style="normal" 
 >10</text>
</g>

<g fill="#212121" fill-opacity="1" stroke="#212121" stroke-opacity="1" stroke-width="1" stroke-linecap="square" stroke-linejoin="bevel" transform="matrix(0.521341,0,0,0.500193,471.551,602.983)"
font-family="Helvetica" font-size="60" font-weight="400" font-style="normal" 
>
<text fill="#212121" fill-opacity="1" stroke="none" xml:space="preserve" x="0" y="0.1875" font-family="Helvetica" font-size="60" font-weight="400" font-style="normal" 
 >15</text>
</g>

<g fill="#212121" fill-opacity="1" stroke="#212121" stroke-opacity="1" stroke-width="1" stroke-linecap="square" stroke-linejoin="bevel" transform="matrix(0.521341,0,0,0.500193,601.733,602.983)"
font-family="Helvetica" font-size="60" font-weight="400" font-style="normal" 
>
<text fill="#212121" fill-opacity="1" stroke="none" xml:space="preserve" x="0" y="0.1875" font-family="Helvetica" font-size="60" font-weight="400" font-style="normal" 
 >20</text>
</g>

<g fill="#212121" fill-opacity="1" stroke="#212121" stroke-opacity="1" stroke-width="1" stroke-linecap="square" stroke-linejoin="bevel" transform="matrix(0.521341,0,0,0.500193,731.915,602.983)"
font-family="Helvetica" font-size="60" font-weight="400" font-style="normal" 
>
<text fill="#212121" fill-opacity="1" stroke="none" xml:space="preserve" x="0" y="0.1875" font-family="Helvetica" font-size="60" font-weight="400" font-style="normal" 
 >25</text>
</g>

<g fill="#212121" fill-opacity="1" stroke="#212121" stroke-opacity="1" stroke-width="1" stroke-linecap="square" stroke-linejoin="bevel" transform="matrix(0.521341,0,0,0.500193,862.097,602.983)"
font-family="Helvetica" font-size="60" font-weight="400" font-style="normal" 
>
<text fill="#212121" fill-opacity="1" stroke="none" xml:space="preserve" x="0" y="0.1875" font-family="Helvetica" font-size="60" font-weight="400" font-style="normal" 
 >30</text>
</g>

<g fill="#212121" fill-opacity="1" stroke="#212121" stroke-opacity="1" stroke-width="1" stroke-linecap="square" stroke-linejoin="bevel" transform="matrix(0,-0.500193,0.521341,0,26.5244,418.411)"
font-family="Helvetica" font-size="66" font-weight="400" font-style="normal" 
>
<text fill="#212121" fill-opacity="1" stroke="none" xml:space="preserve" x="0" y="-0.1875" font-family="Helvetica" font-size="66" font-weight="400" font-style="normal" 
 >Relative Weight</text>
</g>

<g fill="#212121" fill-opacity="1" stroke="#212121" stroke-opacity="1" stroke-width="1" stroke-linecap="square" stroke-linejoin="round" transform="matrix(0.521341,0,0,0.500193,-50.1128,-15.7567)"
font-family="Helvetica" font-size="66" font-weight="400" font-style="normal" 
>
<polyline fill="none" vector-effect="none" points="285,1175 285,100 " />
<polyline fill="none" vector-effect="none" points="285,1175 301.98,1175 " />
<polyline fill="none" vector-effect="none" points="285,1021.43 301.98,1021.43 " />
<polyline fill="none" vector-effect="none" points="285,867.857 301.98,867.857 " />
<polyline fill="none" vector-effect="none" points="285,714.286 301.98,714.286 " />
<polyline fill="none" vector-effect="none" points="285,560.714 301.98,560.714 " />
<polyline fill="none" vector-effect="none" points="285,407.143 301.98,407.143 " />
<polyline fill="none" vector-effect="none" points="285,253.571 301.98,253.571 " />
<polyline fill="none" vector-effect="none" points="285,100 301.98,100 " />
</g>

<g fill="#212121" fill-opacity="1" stroke="#212121" stroke-opacity="1" stroke-width="1" stroke-linecap="square" stroke-linejoin="bevel" transform="matrix(0.521341,0,0,0.500193,55.1982,579.974)"
font-family="Helvetica" font-size="60" font-weight="400" font-style="normal" 
>
<text fill="#212121" fill-opacity="1" stroke="none" xml:space="preserve" x="0" y="0.1875" font-family="Helvetica" font-size="60" font-weight="400" font-style="normal" 
 >80</text>
</g>

<g fill="#212121" fill-opacity="1" stroke="#212121" stroke-opacity="1" stroke-width="1" stroke-linecap="square" stroke-linejoin="bevel" transform="matrix(0.521341,0,0,0.500193,55.1982,503.158)"
font-family="Helvetica" font-size="60" font-weight="400" font-style="normal" 
>
<text fill="#212121" fill-opacity="1" stroke="none" xml:space="preserve" x="0" y="0.1875" font-family="Helvetica" font-size="60" font-weight="400" font-style="normal" 
 >85</text>
</g>

<g fill="#212121" fill-opacity="1" stroke="#212121" stroke-opacity="1" stroke-width="1" stroke-linecap="square" stroke-linejoin="bevel" transform="matrix(0.521341,0,0,0.500193,55.1982,426.343)"
font-family="Helvetica" font-size="60" font-weight="400" font-style="normal" 
>
<text fill="#212121" fill-opacity="1" stroke="none" xml:space="preserve" x="0" y="0.1875" font-family="Helvetica" font-size="60" font-weight="400" font-style="normal" 
 >90</text>
</g>

<g fill="#212121" fill-opacity="1" stroke="#212121" stroke-opacity="1" stroke-width="1" stroke-linecap="square" stroke-linejoin="bevel" transform="matrix(0.521341,0,0,0.500193,55.1982,349.527)"
font-family="Helvetica" font-size="60" font-weight="400" font-style="normal" 
>
<text fill="#212121" fill-opacity="1" stroke="none" xml:space="preserve" x="0" y="0.1875" font-family="Helvetica" font-size="60" font-weight="400" font-style="normal" 
 >95</text>
</g>

<g fill="#212121" fill-opacity="1" stroke="#212121" stroke-opacity="1" stroke-width="1" stroke-linecap="square" stroke-linejoin="bevel" transform="matrix(0.521341,0,0,0.500193,37.9939,272.712)"
font-family="Helvetica" font-size="60" font-weight="400" font-style="normal" 
>
<text fill="#212121" fill-opacity="1" stroke="none" xml:space="preserve" x="0" y="0.1875" font-family="Helvetica" font-size="60" font-weight="400" font-style="normal" 
 >100</text>
</g>

<g fill="#212121" fill-opacity="1" stroke="#212121" stroke-opacity="1" stroke-width="1" stroke-linecap="square" stroke-linejoin="bevel" transform="matrix(0.521341,0,0,0.500193,37.9939,195.897)"
font-family="Helvetica" font-size="60" font-weight="400" font-style="normal" 
>
<text fill="#212121" fill-opacity="1" stroke="none" xml:space="preserve" x="0" y="0.1875" font-family="Helvetica" font-size="60" font-weight="400" font-style="normal" 
 >105</text>
</g>

<g fill="#212121" fill-opacity="1" stroke="#212121" stroke-opacity="1" stroke-width="1" stroke-linecap="square" stroke-linejoin="bevel" transform="matrix(0.521341,0,0,0.500193,40.0793,119.081)"
font-family="Helvetica" font-size="60" font-weight="400" font-style="normal" 
>
<text fill="#212121" fill-opacity="1" stroke="none" xml:space="preserve" x="0" y="0.1875" font-family="Helvetica" font-size="60" font-weight="400" font-style="normal" 
 >110</text>
</g>

<g fill="#212121" fill-opacity="1" stroke="#212121" stroke-opacity="1" stroke-width="1" stroke-linecap="square" stroke-linejoin="bevel" transform="matrix(0.521341,0,0,0.500193,40.0793,42.2658)"
font-family="Helvetica" font-size="60" font-weight="400" font-style="normal" 
>
<text fill="#212121" fill-opacity="1" stroke="none" xml:space="preserve" x="0" y="0.1875" font-family="Helvetica" font-size="60" font-weight="400" font-style="normal" 
 >115</text>
</g>

<g fill="#212121" fill-opacity="1" stroke="#212121" stroke-opacity="1" stroke-width="1" stroke-linecap="square" stroke-linejoin="bevel" transform="matrix(0.521341,0,0,0.500193,489.736,23.5085)"
font-family="Helvetica" font-size="60" font-weight="700" font-style="normal" 
>
<text fill="#212121" fill-opacity="1" stroke="none" xml:space="preserve" x="0" y="0.1875" font-family="Helvetica" font-size="60" font-weight="700" font-style="normal" 
 >ST1-68</text>
</g>

<g fill="none" stroke="#000000" stroke-opacity="1" stroke-width="2" stroke-linecap="butt" stroke-linejoin="round" transform="matrix(0.521341,0,0,0.500193,-50.1128,-15.7567)"
font-family="Helvetica" font-size="60" font-weight="700" font-style="normal" 
>
<polyline fill="none" vector-effect="none" points="285,560.714 434.824,591.896 484.765,451.577 534.706,498.35 584.647,389.213 634.588,498.35 684.529,389.213 734.471,560.714 784.412,638.669 834.353,513.941 884.294,467.168 934.235,498.35 1134,529.532 1233.88,545.123 1283.82,576.305 1383.71,560.714 1433.65,467.168 1483.59,701.033 1533.53,701.033 " />
</g>

<g fill="#ff0000" fill-opacity="1" stroke="#ff0000" stroke-opacity="1" stroke-width="4" stroke-linecap="butt" stroke-linejoin="miter" stroke-miterlimit="2" transform="matrix(0.521341,0,0,0.500193,-50.1128,-15.7567)"
font-family="Helvetica" font-size="60" font-weight="700" font-style="normal" 
>
<polyline fill="none" vector-effect="none" points="1526.46,693.962 1540.6,708.104 " />
<polyline fill="none" vector-effect="none" points="1526.46,708.104 1540.6,693.962 " />
</g>

<g fill="#0000ff" fill-opacity="0.2" stroke="none" transform="matrix(5.21341e-05,0,0,5.00193e-05,-50.1128,-15.7567)"
font-family="Helvetica" font-size="60" font-weight="700" font-style="normal" 
>
<path vector-effect="none" fill-rule="evenodd" d="M6.84529e+06,7.17095e+06 L7.34471e+06,9.42563e+06 L7.84412e+06,9.02289e+06 L8.34353e+06,8.15276e+06 L8.84294e+06,4.50649e+06 L9.34235e+06,4.27039e+06 L1.134e+07,4.53289e+06 L1.23388e+07,5.47925e+06 L1.28382e+07,5.10372e+06 L1.38371e+07,3.96489e+06 L1.43365e+07,4.06236e+06 L1.48359e+07,3.38666e+06 L1.53353e+07,7.63116e+06 L1.63341e+07,8.42658e+06 L1.68335e+07,6.64251e+06 L1.983e+07,3.98992e+06 L1.983e+07,2.07969e+06 L1.68335e+07,2.22969e+06 L1.63341e+07,2.70629e+06 L1.53353e+07,4.40246e+06 L1.4944e+07,1e+06 L1.48359e+07,1e+06 L1.45969e+07,1e+06 L1.43365e+07,2.02423e+06 L1.38371e+07,1.57894e+06 L1.28382e+07,2.93784e+06 L1.23388e+07,3.06685e+06 L1.134e+07,3.90141e+06 L9.34235e+06,2.9325e+06 L8.84294e+06,3.03546e+06 L8.34353e+06,4.69465e+06 L7.84412e+06,5.45378e+06 L7.34471e+06,5.72179e+06 L6.84529e+06,3.33395e+06 L6.34588e+06,3.67327e+06 L5.84647e+06,3.18376e+06 L5.34706e+06,4.03864e+06 L4.84765e+06,2.83805e+06 L4.34824e+06,4.36311e+06 L2.85e+06,5.60714e+06 L4.34824e+06,5.27689e+06 L4.84765e+06,3.98271e+06 L5.34706e+06,4.71425e+06 L5.84647e+06,3.81233e+06 L6.34588e+06,4.23133e+06 L6.84529e+06,7.17095e+06"/>
</g>

<g fill="none" stroke="#0000ff" stroke-opacity="1" stroke-width="4" stroke-linecap="butt" stroke-linejoin="round" transform="matrix(0.521341,0,0,0.500193,-50.1128,-15.7567)"
font-family="Helvetica" font-size="60" font-weight="700" font-style="normal" 
>
<polyline fill="none" vector-effect="none" points="285,560.714 434.824,482 484.765,341.038 534.706,437.644 584.647,349.805 634.588,395.23 684.529,525.245 734.471,757.371 784.412,723.834 834.353,642.37 884.294,377.097 934.235,360.145 1134,421.715 1233.88,427.305 1283.82,402.078 1383.71,277.192 1433.65,304.329 1483.59,172.321 1533.53,601.681 1633.41,556.643 1683.35,443.61 1983,303.48 " />
</g>

<g fill="#000000" fill-opacity="0.701961" stroke="#000000" stroke-opacity="0.701961" stroke-dasharray="10,6" stroke-dashoffset="0" stroke-width="3" stroke-linecap="butt" stroke-linejoin="round" transform="matrix(0.521341,0,0,0.500193,-50.1128,-15.7567)"
font-family="Helvetica" font-size="60" font-weight="700" font-style="normal" 
>
<polyline fill="none" vector-effect="none" points="584.647,1175 584.647,100 " />
<polyline fill="none" vector-effect="none" points="1433.65,1175 1433.65,100 " />
</g>
</g>
</svg>
