<?xml version="1.0" encoding="UTF-8" standalone="no"?>
<svg width="348.192mm" height="228.6mm"
 viewBox="0 0 987 648"
 xmlns="http://www.w3.org/2000/svg" xmlns:xlink="http://www.w3.org/1999/xlink"  version="1.2" baseProfile="tiny">
<title>Qt SVG Document</title>
<desc>MATLAB, The MathWorks, Inc. Version 25.2.0.3042426 R2025b Update 1</desc>
<defs>
</defs>
<g fill="none" stroke="black" stroke-width="1" fill-rule="evenodd" stroke-linecap="square" stroke-linejoin="bevel" >

<g fill="#ffffff" fill-opacity="1" stroke="none" transform="matrix(0.521065,0,0,0.500194,-50.0855,-16.2568)"
font-family=".AppleSystemUIFont" font-size="13" font-weight="400" font-style="normal" 
>
<path vector-effect="none" fill-rule="evenodd" d="M96,31 L1989,31 L1989,1328 L96,1328 L96,31"/>
</g>

<g fill="#ffffff" fill-opacity="1" stroke="none" transform="matrix(5.21065e-05,0,0,5.00194e-05,-50.0855,-16.2568)"
font-family=".AppleSystemUIFont" font-size="13" font-weight="400" font-style="normal" 
>
<path vector-effect="none" fill-rule="evenodd" d="M2.85e+06,1e+06 L2.85e+06,1.173e+07 L1.986e+07,1.173e+07 L1.986e+07,1e+06 L2.85e+06,1e+06"/>
</g>

<g fill="#212121" fill-opacity="0.14902" stroke="#212121" stroke-opacity="0.14902" stroke-width="1" stroke-linecap="butt" stroke-linejoin="round" transform="matrix(0.521065,0,0,0.500194,-50.0855,-16.2568)"
font-family=".AppleSystemUIFont" font-size="13" font-weight="400" font-style="normal" 
>
<polyline fill="none" vector-effect="none" points="285,100 285,1173 " />
<polyline fill="none" vector-effect="none" points="535.147,100 535.147,1173 " />
<polyline fill="none" vector-effect="none" points="785.294,100 785.294,1173 " />
<polyline fill="none" vector-effect="none" points="1035.44,100 1035.44,1173 " />
<polyline fill="none" vector-effect="none" points="1285.59,100 1285.59,1173 " />
<polyline fill="none" vector-effect="none" points="1535.74,100 1535.74,1173 " />
<polyline fill="none" vector-effect="none" points="1785.88,100 1785.88,1173 " />
<polyline fill="none" vector-effect="none" points="285,1173 1986,1173 " />
<polyline fill="none" vector-effect="none" points="285,1019.71 1986,1019.71 " />
<polyline fill="none" vector-effect="none" points="285,866.429 1986,866.429 " />
<polyline fill="none" vector-effect="none" points="285,713.143 1986,713.143 " />
<polyline fill="none" vector-effect="none" points="285,559.857 1986,559.857 " />
<polyline fill="none" vector-effect="none" points="285,406.571 1986,406.571 " />
<polyline fill="none" vector-effect="none" points="285,253.286 1986,253.286 " />
<polyline fill="none" vector-effect="none" points="285,100 1986,100 " />
</g>

<g fill="#212121" fill-opacity="1" stroke="#212121" stroke-opacity="1" stroke-width="1" stroke-linecap="square" stroke-linejoin="bevel" transform="matrix(0.521065,0,0,0.500194,511.102,639.497)"
font-family="Helvetica" font-size="66" font-weight="400" font-style="normal" 
>
<text fill="#212121" fill-opacity="1" stroke="none" xml:space="preserve" x="0" y="-0.1875" font-family="Helvetica" font-size="66" font-weight="400" font-style="normal" 
 >Day</text>
</g>

<g fill="#212121" fill-opacity="1" stroke="#212121" stroke-opacity="1" stroke-width="1" stroke-linecap="square" stroke-linejoin="round" transform="matrix(0.521065,0,0,0.500194,-50.0855,-16.2568)"
font-family="Helvetica" font-size="66" font-weight="400" font-style="normal" 
>
<polyline fill="none" vector-effect="none" points="285,1173 1986,1173 " />
<polyline fill="none" vector-effect="none" points="285,1173 285,1155.99 " />
<polyline fill="none" vector-effect="none" points="535.147,1173 535.147,1155.99 " />
<polyline fill="none" vector-effect="none" points="785.294,1173 785.294,1155.99 " />
<polyline fill="none" vector-effect="none" points="1035.44,1173 1035.44,1155.99 " />
<polyline fill="none" vector-effect="none" points="1285.59,1173 1285.59,1155.99 " />
<polyline fill="none" vector-effect="none" points="1535.74,1173 1535.74,1155.99 " />
<polyline fill="none" vector-effect="none" points="1785.88,1173 1785.88,1155.99 " />
</g>

<g fill="#212121" fill-opacity="1" stroke="#212121" stroke-opacity="1" stroke-width="1" stroke-linecap="square" stroke-linejoin="bevel" transform="matrix(0.521065,0,0,0.500194,89.8205,601.483)"
font-family="Helvetica" font-size="60" font-weight="400" font-style="normal" 
>
<text fill="#212121" fill-opacity="1" stroke="none" xml:space="preserve" x="0" y="0.1875" font-family="Helvetica" font-size="60" font-weight="400" font-style="normal" 
 >0</text>
</g>

<g fill="#212121" fill-opacity="1" stroke="#212121" stroke-opacity="1" stroke-width="1" stroke-linecap="square" stroke-linejoin="bevel" transform="matrix(0.521065,0,0,0.500194,220.163,601.483)"
font-family="Helvetica" font-size="60" font-weight="400" font-style="normal" 
>
<text fill="#212121" fill-opacity="1" stroke="none" xml:space="preserve" x="0" y="0.1875" font-family="Helvetica" font-size="60" font-weight="400" font-style="normal" 
 >5</text>
</g>

<g fill="#212121" fill-opacity="1" stroke="#212121" stroke-opacity="1" stroke-width="1" stroke-linecap="square" stroke-linejoin="bevel" transform="matrix(0.521065,0,0,0.500194,341.648,601.483)"
font-family="Helvetica" font-size="60" font-weight="400" font-style="normal" 
>
<text fill="#212121" fill-opacity="1" stroke="none" xml:space="preserve" x="0" y="0.1875" font-family="Helvetica" font-size="60" font-weight="400" font-style="normal" 
 >10</text>
</g>

<g fill="#212121" fill-opacity="1" stroke="#212121" stroke-opacity="1" stroke-width="1" stroke-linecap="square" stroke-linejoin="bevel" transform="matrix(0.521065,0,0,0.500194,471.991,601.483)"
font-family="Helvetica" font-size="60" font-weight="400" font-style="normal" 
>
<text fill="#212121" fill-opacity="1" stroke="none" xml:space="preserve" x="0" y="0.1875" font-family="Helvetica" font-size="60" font-weight="400" font-style="normal" 
 >15</text>
</g>

<g fill="#212121" fill-opacity="1" stroke="#212121" stroke-opacity="1" stroke-width="1" stroke-linecap="square" stroke-linejoin="bevel" transform="matrix(0.521065,0,0,0.500194,602.334,601.483)"
font-family="Helvetica" font-size="60" font-weight="400" font-style="normal" 
>
<text fill="#212121" fill-opacity="1" stroke="none" xml:space="preserve" x="0" y="0.1875" font-family="Helvetica" font-size="60" font-weight="400" font-style="normal" 
 >20</text>
</g>

<g fill="#212121" fill-opacity="1" stroke="#212121" stroke-opacity="1" stroke-width="1" stroke-linecap="square" stroke-linejoin="bevel" transform="matrix(0.521065,0,0,0.500194,732.677,601.483)"
font-family="Helvetica" font-size="60" font-weight="400" font-style="normal" 
>
<text fill="#212121" fill-opacity="1" stroke="none" xml:space="preserve" x="0" y="0.1875" font-family="Helvetica" font-size="60" font-weight="400" font-style="normal" 
 >25</text>
</g>

<g fill="#212121" fill-opacity="1" stroke="#212121" stroke-opacity="1" stroke-width="1" stroke-linecap="square" stroke-linejoin="bevel" transform="matrix(0.521065,0,0,0.500194,863.02,601.483)"
font-family="Helvetica" font-size="60" font-weight="400" font-style="normal" 
>
<text fill="#212121" fill-opacity="1" stroke="none" xml:space="preserve" x="0" y="0.1875" font-family="Helvetica" font-size="60" font-weight="400" font-style="normal" 
 >30</text>
</g>

<g fill="#212121" fill-opacity="1" stroke="#212121" stroke-opacity="1" stroke-width="1" stroke-linecap="square" stroke-linejoin="bevel" transform="matrix(0,-0.500194,0.521065,0,26.5111,417.411)"
font-family="Helvetica" font-size="66" font-weight="400" font-style="normal" 
>
<text fill="#212121" fill-opacity="1" stroke="none" xml:space="preserve" x="0" y="-0.1875" font-family="Helvetica" font-size="66" font-weight="400" font-style="normal" 
 >Relative Weight</text>
</g>

<g fill="#212121" fill-opacity="1" stroke="#212121" stroke-opacity="1" stroke-width="1" stroke-linecap="square" stroke-linejoin="round" transform="matrix(0.521065,0,0,0.500194,-50.0855,-16.2568)"
font-family="Helvetica" font-size="66" font-weight="400" font-style="normal" 
>
<polyline fill="none" vector-effect="none" points="285,1173 285,100 " />
<polyline fill="none" vector-effect="none" points="285,1173 302.01,1173 " />
<polyline fill="none" vector-effect="none" points="285,1019.71 302.01,1019.71 " />
<polyline fill="none" vector-effect="none" points="285,866.429 302.01,866.429 " />
<polyline fill="none" vector-effect="none" points="285,713.143 302.01,713.143 " />
<polyline fill="none" vector-effect="none" points="285,559.857 302.01,559.857 " />
<polyline fill="none" vector-effect="none" points="285,406.571 302.01,406.571 " />
<polyline fill="none" vector-effect="none" points="285,253.286 302.01,253.286 " />
<polyline fill="none" vector-effect="none" points="285,100 302.01,100 " />
</g>

<g fill="#212121" fill-opacity="1" stroke="#212121" stroke-opacity="1" stroke-width="1" stroke-linecap="square" stroke-linejoin="bevel" transform="matrix(0.521065,0,0,0.500194,55.1697,578.474)"
font-family="Helvetica" font-size="60" font-weight="400" font-style="normal" 
>
<text fill="#212121" fill-opacity="1" stroke="none" xml:space="preserve" x="0" y="0.1875" font-family="Helvetica" font-size="60" font-weight="400" font-style="normal" 
 >80</text>
</g>

<g fill="#212121" fill-opacity="1" stroke="#212121" stroke-opacity="1" stroke-width="1" stroke-linecap="square" stroke-linejoin="bevel" transform="matrix(0.521065,0,0,0.500194,55.1697,501.801)"
font-family="Helvetica" font-size="60" font-weight="400" font-style="normal" 
>
<text fill="#212121" fill-opacity="1" stroke="none" xml:space="preserve" x="0" y="0.1875" font-family="Helvetica" font-size="60" font-weight="400" font-style="normal" 
 >85</text>
</g>

<g fill="#212121" fill-opacity="1" stroke="#212121" stroke-opacity="1" stroke-width="1" stroke-linecap="square" stroke-linejoin="bevel" transform="matrix(0.521065,0,0,0.500194,55.1697,425.129)"
font-family="Helvetica" font-size="60" font-weight="400" font-style="normal" 
>
<text fill="#212121" fill-opacity="1" stroke="none" xml:space="preserve" x="0" y="0.1875" font-family="Helvetica" font-size="60" font-weight="400" font-style="normal" 
 >90</text>
</g>

<g fill="#212121" fill-opacity="1" stroke="#212121" stroke-opacity="1" stroke-width="1" stroke-linecap="square" stroke-linejoin="bevel" transform="matrix(0.521065,0,0,0.500194,55.1697,348.456)"
font-family="Helvetica" font-size="60" font-weight="400" font-style="normal" 
>
<text fill="#212121" fill-opacity="1" stroke="none" xml:space="preserve" x="0" y="0.1875" font-family="Helvetica" font-size="60" font-weight="400" font-style="normal" 
 >95</text>
</g>

<g fill="#212121" fill-opacity="1" stroke="#212121" stroke-opacity="1" stroke-width="1" stroke-linecap="square" stroke-linejoin="bevel" transform="matrix(0.521065,0,0,0.500194,37.9746,271.783)"
font-family="Helvetica" font-size="60" font-weight="400" font-style="normal" 
>
<text fill="#212121" fill-opacity="1" stroke="none" xml:space="preserve" x="0" y="0.1875" font-family="Helvetica" font-size="60" font-weight="400" font-style="normal" 
 >100</text>
</g>

<g fill="#212121" fill-opacity="1" stroke="#212121" stroke-opacity="1" stroke-width="1" stroke-linecap="square" stroke-linejoin="bevel" transform="matrix(0.521065,0,0,0.500194,37.9746,195.111)"
font-family="Helvetica" font-size="60" font-weight="400" font-style="normal" 
>
<text fill="#212121" fill-opacity="1" stroke="none" xml:space="preserve" x="0" y="0.1875" font-family="Helvetica" font-size="60" font-weight="400" font-style="normal" 
 >105</text>
</g>

<g fill="#212121" fill-opacity="1" stroke="#212121" stroke-opacity="1" stroke-width="1" stroke-linecap="square" stroke-linejoin="bevel" transform="matrix(0.521065,0,0,0.500194,40.0588,118.438)"
font-family="Helvetica" font-size="60" font-weight="400" font-style="normal" 
>
<text fill="#212121" fill-opacity="1" stroke="none" xml:space="preserve" x="0" y="0.1875" font-family="Helvetica" font-size="60" font-weight="400" font-style="normal" 
 >110</text>
</g>

<g fill="#212121" fill-opacity="1" stroke="#212121" stroke-opacity="1" stroke-width="1" stroke-linecap="square" stroke-linejoin="bevel" transform="matrix(0.521065,0,0,0.500194,40.0588,41.7656)"
font-family="Helvetica" font-size="60" font-weight="400" font-style="normal" 
>
<text fill="#212121" fill-opacity="1" stroke="none" xml:space="preserve" x="0" y="0.1875" font-family="Helvetica" font-size="60" font-weight="400" font-style="normal" 
 >115</text>
</g>

<g fill="#212121" fill-opacity="1" stroke="#212121" stroke-opacity="1" stroke-width="1" stroke-linecap="square" stroke-linejoin="bevel" transform="matrix(0.521065,0,0,0.500194,473.064,23.0083)"
font-family="Helvetica" font-size="60" font-weight="700" font-style="normal" 
>
<text fill="#212121" fill-opacity="1" stroke="none" xml:space="preserve" x="0" y="0.1875" font-family="Helvetica" font-size="60" font-weight="700" font-style="normal" 
 >VPI10463</text>
</g>

<g fill="none" stroke="#000000" stroke-opacity="1" stroke-width="2" stroke-linecap="butt" stroke-linejoin="round" transform="matrix(0.521065,0,0,0.500194,-50.0855,-16.2568)"
font-family="Helvetica" font-size="60" font-weight="700" font-style="normal" 
>
<polyline fill="none" vector-effect="none" points="285,559.857 435.088,494.629 485.118,413.094 535.147,429.401 585.176,380.48 635.206,380.48 685.235,331.559 735.265,315.252 785.294,641.392 835.324,364.173 885.353,233.717 935.382,103.261 1135.5,315.252 1235.56,347.866 1285.59,364.173 1385.65,364.173 1435.68,331.559 1485.71,266.331 1535.74,233.717 1635.79,233.717 " />
</g>

<g fill="#ff0000" fill-opacity="1" stroke="#ff0000" stroke-opacity="1" stroke-width="4" stroke-linecap="butt" stroke-linejoin="miter" stroke-miterlimit="2" transform="matrix(0.521065,0,0,0.500194,-50.0855,-16.2568)"
font-family="Helvetica" font-size="60" font-weight="700" font-style="normal" 
>
<polyline fill="none" vector-effect="none" points="1628.72,226.646 1642.87,240.788 " />
<polyline fill="none" vector-effect="none" points="1628.72,240.788 1642.87,226.646 " />
</g>

<g fill="none" stroke="#000000" stroke-opacity="1" stroke-width="2" stroke-linecap="butt" stroke-linejoin="round" transform="matrix(0.521065,0,0,0.500194,-50.0855,-16.2568)"
font-family="Helvetica" font-size="60" font-weight="700" font-style="normal" 
>
<polyline fill="none" vector-effect="none" points="285,559.857 435.088,408.256 485.118,307.188 535.147,458.79 585.176,374.567 635.206,475.634 685.235,357.722 735.265,324.033 785.294,391.411 835.324,1031.51 885.353,997.816 935.382,677.769 1135.5,526.168 1235.56,509.323 1285.59,543.012 1385.65,543.012 1435.68,509.323 1485.71,930.438 1535.74,728.303 1635.79,728.303 " />
</g>

<g fill="#ff0000" fill-opacity="1" stroke="#ff0000" stroke-opacity="1" stroke-width="4" stroke-linecap="butt" stroke-linejoin="miter" stroke-miterlimit="2" transform="matrix(0.521065,0,0,0.500194,-50.0855,-16.2568)"
font-family="Helvetica" font-size="60" font-weight="700" font-style="normal" 
>
<polyline fill="none" vector-effect="none" points="1628.72,721.232 1642.87,735.374 " />
<polyline fill="none" vector-effect="none" points="1628.72,735.374 1642.87,721.232 " />
</g>

<g fill="none" stroke="#000000" stroke-opacity="1" stroke-width="2" stroke-linecap="butt" stroke-linejoin="round" transform="matrix(0.521065,0,0,0.500194,-50.0855,-16.2568)"
font-family="Helvetica" font-size="60" font-weight="700" font-style="normal" 
>
<polyline fill="none" vector-effect="none" points="285,559.857 435.088,559.857 485.118,451.473 535.147,482.44 585.176,435.99 635.206,435.99 685.235,854.042 735.265,977.909 785.294,730.175 835.324,854.042 885.353,869.525 935.382,652.758 1135.5,621.791 1235.56,559.857 1285.59,606.307 1385.65,606.307 1435.68,528.89 1485.71,528.89 " />
</g>

<g fill="#ff0000" fill-opacity="1" stroke="#ff0000" stroke-opacity="1" stroke-width="4" stroke-linecap="butt" stroke-linejoin="miter" stroke-miterlimit="2" transform="matrix(0.521065,0,0,0.500194,-50.0855,-16.2568)"
font-family="Helvetica" font-size="60" font-weight="700" font-style="normal" 
>
<polyline fill="none" vector-effect="none" points="1478.63,521.819 1492.78,535.961 " />
<polyline fill="none" vector-effect="none" points="1478.63,535.961 1492.78,521.819 " />
</g>

<g fill="none" stroke="#000000" stroke-opacity="1" stroke-width="2" stroke-linecap="butt" stroke-linejoin="round" transform="matrix(0.521065,0,0,0.500194,-50.0855,-16.2568)"
font-family="Helvetica" font-size="60" font-weight="700" font-style="normal" 
>
<polyline fill="none" vector-effect="none" points="285,559.857 435.088,590.824 485.118,528.89 535.147,683.724 585.176,544.374 635.206,730.175 685.235,683.724 735.265,668.241 785.294,900.492 835.324,1024.36 885.353,1024.36 " />
</g>

<g fill="#ff0000" fill-opacity="1" stroke="#ff0000" stroke-opacity="1" stroke-width="4" stroke-linecap="butt" stroke-linejoin="miter" stroke-miterlimit="2" transform="matrix(0.521065,0,0,0.500194,-50.0855,-16.2568)"
font-family="Helvetica" font-size="60" font-weight="700" font-style="normal" 
>
<polyline fill="none" vector-effect="none" points="878.282,1017.29 892.424,1031.43 " />
<polyline fill="none" vector-effect="none" points="878.282,1031.43 892.424,1017.29 " />
</g>

<g fill="none" stroke="#000000" stroke-opacity="1" stroke-width="2" stroke-linecap="butt" stroke-linejoin="round" transform="matrix(0.521065,0,0,0.500194,-50.0855,-16.2568)"
font-family="Helvetica" font-size="60" font-weight="700" font-style="normal" 
>
<polyline fill="none" vector-effect="none" points="285,559.857 435.088,575.66 485.118,496.646 535.147,496.646 585.176,449.239 635.206,465.041 685.235,449.239 735.265,575.66 785.294,496.646 835.324,844.305 885.353,986.529 935.382,638.87 1135.5,544.054 1235.56,638.87 1285.59,654.673 1385.65,654.673 1435.68,528.252 1485.71,623.068 1535.74,733.686 1635.79,733.686 " />
</g>

<g fill="#ff0000" fill-opacity="1" stroke="#ff0000" stroke-opacity="1" stroke-width="4" stroke-linecap="butt" stroke-linejoin="miter" stroke-miterlimit="2" transform="matrix(0.521065,0,0,0.500194,-50.0855,-16.2568)"
font-family="Helvetica" font-size="60" font-weight="700" font-style="normal" 
>
<polyline fill="none" vector-effect="none" points="1628.72,726.615 1642.87,740.757 " />
<polyline fill="none" vector-effect="none" points="1628.72,740.757 1642.87,726.615 " />
</g>

<g fill="#0000ff" fill-opacity="0.2" stroke="none" transform="matrix(5.21065e-05,0,0,5.00194e-05,-50.0855,-16.2568)"
font-family="Helvetica" font-size="60" font-weight="700" font-style="normal" 
>
<path vector-effect="none" fill-rule="evenodd" d="M6.85235e+06,7.61132e+06 L7.35265e+06,8.46739e+06 L7.85294e+06,8.30781e+06 L8.35324e+06,1.09569e+07 L8.85353e+06,1.13534e+07 L9.35382e+06,7.95235e+06 L1.1355e+07,6.32936e+06 L1.23556e+07,6.36885e+06 L1.28559e+07,6.6913e+06 L1.38565e+07,6.6913e+06 L1.43568e+07,5.70236e+06 L1.48571e+07,9.38971e+06 L1.53574e+07,8.52351e+06 L1.53574e+07,2.7812e+06 L1.48571e+07,2.74253e+06 L1.43568e+07,3.78777e+06 L1.38565e+07,4.14954e+06 L1.28559e+07,4.14954e+06 L1.23556e+07,3.91073e+06 L1.1355e+07,3.70697e+06 L9.35382e+06,2.41095e+06 L8.85353e+06,4.08453e+06 L8.35324e+06,5.51667e+06 L7.85294e+06,4.33266e+06 L7.35265e+06,2.97699e+06 L6.85235e+06,3.09383e+06 L6.35206e+06,3.62236e+06 L5.85176e+06,3.68424e+06 L5.35147e+06,4.09905e+06 L4.85118e+06,3.5343e+06 L4.35088e+06,4.50575e+06 L2.85e+06,5.59857e+06 L4.35088e+06,6.01115e+06 L4.85118e+06,5.25487e+06 L5.35147e+06,6.10496e+06 L5.85176e+06,5.05436e+06 L6.35206e+06,6.32692e+06 L6.85235e+06,7.61132e+06"/>
</g>

<g fill="none" stroke="#0000ff" stroke-opacity="1" stroke-width="4" stroke-linecap="butt" stroke-linejoin="round" transform="matrix(0.521065,0,0,0.500194,-50.0855,-16.2568)"
font-family="Helvetica" font-size="60" font-weight="700" font-style="normal" 
>
<polyline fill="none" vector-effect="none" points="285,559.857 435.088,525.845 485.118,439.459 535.147,510.2 585.176,436.93 635.206,497.464 685.235,535.257 735.265,572.219 785.294,632.023 835.324,823.677 885.353,771.897 935.382,518.165 1135.5,501.816 1235.56,513.979 1285.59,542.042 1385.65,542.042 1435.68,474.506 1485.71,606.612 1535.74,565.236 " />
</g>

<g fill="#000000" fill-opacity="0.701961" stroke="#000000" stroke-opacity="0.701961" stroke-dasharray="10,6" stroke-dashoffset="0" stroke-width="3" stroke-linecap="butt" stroke-linejoin="round" transform="matrix(0.521065,0,0,0.500194,-50.0855,-16.2568)"
font-family="Helvetica" font-size="60" font-weight="700" font-style="normal" 
>
<polyline fill="none" vector-effect="none" points="585.176,1173 585.176,100 " />
<polyline fill="none" vector-effect="none" points="1435.68,1173 1435.68,100 " />
</g>
</g>
</svg>
