<?xml version="1.0" encoding="UTF-8" standalone="no"?>
<svg width="340.783mm" height="229.658mm"
 viewBox="0 0 966 651"
 xmlns="http://www.w3.org/2000/svg" xmlns:xlink="http://www.w3.org/1999/xlink"  version="1.2" baseProfile="tiny">
<title>Qt SVG Document</title>
<desc>MATLAB, The MathWorks, Inc. Version 25.2.0.3042426 R2025b Update 1</desc>
<defs>
</defs>
<g fill="none" stroke="black" stroke-width="1" fill-rule="evenodd" stroke-linecap="square" stroke-linejoin="bevel" >

<g fill="#ffffff" fill-opacity="1" stroke="none" transform="matrix(0.520135,0,0,0.522791,-81.2015,-25.4238)"
font-family=".AppleSystemUIFont" font-size="13" font-weight="400" font-style="normal" 
>
<path vector-effect="none" fill-rule="evenodd" d="M155,48 L2012,48 L2012,1294 L155,1294 L155,48"/>
</g>

<g fill="#ffffff" fill-opacity="1" stroke="none" transform="matrix(5.20135e-05,0,0,5.22791e-05,-81.2015,-25.4238)"
font-family=".AppleSystemUIFont" font-size="13" font-weight="400" font-style="normal" 
>
<path vector-effect="none" fill-rule="evenodd" d="M2.86e+06,1e+06 L2.86e+06,1.188e+07 L1.988e+07,1.188e+07 L1.988e+07,1e+06 L2.86e+06,1e+06"/>
</g>

<g fill="#212121" fill-opacity="0.14902" stroke="#212121" stroke-opacity="0.14902" stroke-width="1" stroke-linecap="butt" stroke-linejoin="round" transform="matrix(0.520135,0,0,0.522791,-81.2015,-25.4238)"
font-family=".AppleSystemUIFont" font-size="13" font-weight="400" font-style="normal" 
>
<polyline fill="none" vector-effect="none" points="286,100 286,1188 " />
<polyline fill="none" vector-effect="none" points="529.143,100 529.143,1188 " />
<polyline fill="none" vector-effect="none" points="772.286,100 772.286,1188 " />
<polyline fill="none" vector-effect="none" points="1015.43,100 1015.43,1188 " />
<polyline fill="none" vector-effect="none" points="1258.57,100 1258.57,1188 " />
<polyline fill="none" vector-effect="none" points="1501.71,100 1501.71,1188 " />
<polyline fill="none" vector-effect="none" points="1744.86,100 1744.86,1188 " />
<polyline fill="none" vector-effect="none" points="1988,100 1988,1188 " />
<polyline fill="none" vector-effect="none" points="286,1188 1988,1188 " />
<polyline fill="none" vector-effect="none" points="286,1084.38 1988,1084.38 " />
<polyline fill="none" vector-effect="none" points="286,980.762 1988,980.762 " />
<polyline fill="none" vector-effect="none" points="286,877.143 1988,877.143 " />
<polyline fill="none" vector-effect="none" points="286,773.524 1988,773.524 " />
<polyline fill="none" vector-effect="none" points="286,669.905 1988,669.905 " />
<polyline fill="none" vector-effect="none" points="286,566.286 1988,566.286 " />
<polyline fill="none" vector-effect="none" points="286,462.667 1988,462.667 " />
<polyline fill="none" vector-effect="none" points="286,359.048 1988,359.048 " />
<polyline fill="none" vector-effect="none" points="286,255.429 1988,255.429 " />
<polyline fill="none" vector-effect="none" points="286,151.81 1988,151.81 " />
</g>

<g fill="#212121" fill-opacity="1" stroke="#212121" stroke-opacity="1" stroke-width="1" stroke-linecap="square" stroke-linejoin="bevel" transform="matrix(0.520135,0,0,0.522791,489.907,644.795)"
font-family="Helvetica" font-size="44" font-weight="400" font-style="normal" 
>
<text fill="#212121" fill-opacity="1" stroke="none" xml:space="preserve" x="0" y="-0.125" font-family="Helvetica" font-size="44" font-weight="400" font-style="normal" 
 >Day</text>
</g>

<g fill="#212121" fill-opacity="1" stroke="#212121" stroke-opacity="1" stroke-width="1" stroke-linecap="square" stroke-linejoin="round" transform="matrix(0.520135,0,0,0.522791,-81.2015,-25.4238)"
font-family="Helvetica" font-size="44" font-weight="400" font-style="normal" 
>
<polyline fill="none" vector-effect="none" points="286,1188 1988,1188 " />
<polyline fill="none" vector-effect="none" points="286,1188 286,1170.98 " />
<polyline fill="none" vector-effect="none" points="529.143,1188 529.143,1170.98 " />
<polyline fill="none" vector-effect="none" points="772.286,1188 772.286,1170.98 " />
<polyline fill="none" vector-effect="none" points="1015.43,1188 1015.43,1170.98 " />
<polyline fill="none" vector-effect="none" points="1258.57,1188 1258.57,1170.98 " />
<polyline fill="none" vector-effect="none" points="1501.71,1188 1501.71,1170.98 " />
<polyline fill="none" vector-effect="none" points="1744.86,1188 1744.86,1170.98 " />
<polyline fill="none" vector-effect="none" points="1988,1188 1988,1170.98 " />
</g>

<g fill="#212121" fill-opacity="1" stroke="#212121" stroke-opacity="1" stroke-width="1" stroke-linecap="square" stroke-linejoin="bevel" transform="matrix(0.520135,0,0,0.522791,61.8357,618.133)"
font-family="Helvetica" font-size="40" font-weight="400" font-style="normal" 
>
<text fill="#212121" fill-opacity="1" stroke="none" xml:space="preserve" x="0" y="-0.203125" font-family="Helvetica" font-size="40" font-weight="400" font-style="normal" 
 >0</text>
</g>

<g fill="#212121" fill-opacity="1" stroke="#212121" stroke-opacity="1" stroke-width="1" stroke-linecap="square" stroke-linejoin="bevel" transform="matrix(0.520135,0,0,0.522791,188.303,618.133)"
font-family="Helvetica" font-size="40" font-weight="400" font-style="normal" 
>
<text fill="#212121" fill-opacity="1" stroke="none" xml:space="preserve" x="0" y="-0.203125" font-family="Helvetica" font-size="40" font-weight="400" font-style="normal" 
 >5</text>
</g>

<g fill="#212121" fill-opacity="1" stroke="#212121" stroke-opacity="1" stroke-width="1" stroke-linecap="square" stroke-linejoin="bevel" transform="matrix(0.520135,0,0,0.522791,309.048,618.133)"
font-family="Helvetica" font-size="40" font-weight="400" font-style="normal" 
>
<text fill="#212121" fill-opacity="1" stroke="none" xml:space="preserve" x="0" y="-0.203125" font-family="Helvetica" font-size="40" font-weight="400" font-style="normal" 
 >10</text>
</g>

<g fill="#212121" fill-opacity="1" stroke="#212121" stroke-opacity="1" stroke-width="1" stroke-linecap="square" stroke-linejoin="bevel" transform="matrix(0.520135,0,0,0.522791,435.516,618.133)"
font-family="Helvetica" font-size="40" font-weight="400" font-style="normal" 
>
<text fill="#212121" fill-opacity="1" stroke="none" xml:space="preserve" x="0" y="-0.203125" font-family="Helvetica" font-size="40" font-weight="400" font-style="normal" 
 >15</text>
</g>

<g fill="#212121" fill-opacity="1" stroke="#212121" stroke-opacity="1" stroke-width="1" stroke-linecap="square" stroke-linejoin="bevel" transform="matrix(0.520135,0,0,0.522791,561.983,618.133)"
font-family="Helvetica" font-size="40" font-weight="400" font-style="normal" 
>
<text fill="#212121" fill-opacity="1" stroke="none" xml:space="preserve" x="0" y="-0.203125" font-family="Helvetica" font-size="40" font-weight="400" font-style="normal" 
 >20</text>
</g>

<g fill="#212121" fill-opacity="1" stroke="#212121" stroke-opacity="1" stroke-width="1" stroke-linecap="square" stroke-linejoin="bevel" transform="matrix(0.520135,0,0,0.522791,688.45,618.133)"
font-family="Helvetica" font-size="40" font-weight="400" font-style="normal" 
>
<text fill="#212121" fill-opacity="1" stroke="none" xml:space="preserve" x="0" y="-0.203125" font-family="Helvetica" font-size="40" font-weight="400" font-style="normal" 
 >25</text>
</g>

<g fill="#212121" fill-opacity="1" stroke="#212121" stroke-opacity="1" stroke-width="1" stroke-linecap="square" stroke-linejoin="bevel" transform="matrix(0.520135,0,0,0.522791,814.917,618.133)"
font-family="Helvetica" font-size="40" font-weight="400" font-style="normal" 
>
<text fill="#212121" fill-opacity="1" stroke="none" xml:space="preserve" x="0" y="-0.203125" font-family="Helvetica" font-size="40" font-weight="400" font-style="normal" 
 >30</text>
</g>

<g fill="#212121" fill-opacity="1" stroke="#212121" stroke-opacity="1" stroke-width="1" stroke-linecap="square" stroke-linejoin="bevel" transform="matrix(0.520135,0,0,0.522791,941.384,618.133)"
font-family="Helvetica" font-size="40" font-weight="400" font-style="normal" 
>
<text fill="#212121" fill-opacity="1" stroke="none" xml:space="preserve" x="0" y="-0.203125" font-family="Helvetica" font-size="40" font-weight="400" font-style="normal" 
 >35</text>
</g>

<g fill="#212121" fill-opacity="1" stroke="#212121" stroke-opacity="1" stroke-width="1" stroke-linecap="square" stroke-linejoin="bevel" transform="matrix(0,-0.522791,0.520135,0,18.1443,373.205)"
font-family="Helvetica" font-size="44" font-weight="400" font-style="normal" 
>
<text fill="#212121" fill-opacity="1" stroke="none" xml:space="preserve" x="0" y="-0.125" font-family="Helvetica" font-size="44" font-weight="400" font-style="normal" 
 >Survival (%)</text>
</g>

<g fill="#212121" fill-opacity="1" stroke="#212121" stroke-opacity="1" stroke-width="1" stroke-linecap="square" stroke-linejoin="round" transform="matrix(0.520135,0,0,0.522791,-81.2015,-25.4238)"
font-family="Helvetica" font-size="44" font-weight="400" font-style="normal" 
>
<polyline fill="none" vector-effect="none" points="286,1188 286,100 " />
<polyline fill="none" vector-effect="none" points="286,1188 303.02,1188 " />
<polyline fill="none" vector-effect="none" points="286,1084.38 303.02,1084.38 " />
<polyline fill="none" vector-effect="none" points="286,980.762 303.02,980.762 " />
<polyline fill="none" vector-effect="none" points="286,877.143 303.02,877.143 " />
<polyline fill="none" vector-effect="none" points="286,773.524 303.02,773.524 " />
<polyline fill="none" vector-effect="none" points="286,669.905 303.02,669.905 " />
<polyline fill="none" vector-effect="none" points="286,566.286 303.02,566.286 " />
<polyline fill="none" vector-effect="none" points="286,462.667 303.02,462.667 " />
<polyline fill="none" vector-effect="none" points="286,359.048 303.02,359.048 " />
<polyline fill="none" vector-effect="none" points="286,255.429 303.02,255.429 " />
<polyline fill="none" vector-effect="none" points="286,151.81 303.02,151.81 " />
</g>

<g fill="#212121" fill-opacity="1" stroke="#212121" stroke-opacity="1" stroke-width="1" stroke-linecap="square" stroke-linejoin="bevel" transform="matrix(0.520135,0,0,0.522791,49.8726,601.403)"
font-family="Helvetica" font-size="40" font-weight="400" font-style="normal" 
>
<text fill="#212121" fill-opacity="1" stroke="none" xml:space="preserve" x="0" y="-0.203125" font-family="Helvetica" font-size="40" font-weight="400" font-style="normal" 
 >0</text>
</g>

<g fill="#212121" fill-opacity="1" stroke="#212121" stroke-opacity="1" stroke-width="1" stroke-linecap="square" stroke-linejoin="bevel" transform="matrix(0.520135,0,0,0.522791,38.4296,547.232)"
font-family="Helvetica" font-size="40" font-weight="400" font-style="normal" 
>
<text fill="#212121" fill-opacity="1" stroke="none" xml:space="preserve" x="0" y="-0.203125" font-family="Helvetica" font-size="40" font-weight="400" font-style="normal" 
 >10</text>
</g>

<g fill="#212121" fill-opacity="1" stroke="#212121" stroke-opacity="1" stroke-width="1" stroke-linecap="square" stroke-linejoin="bevel" transform="matrix(0.520135,0,0,0.522791,38.4296,493.061)"
font-family="Helvetica" font-size="40" font-weight="400" font-style="normal" 
>
<text fill="#212121" fill-opacity="1" stroke="none" xml:space="preserve" x="0" y="-0.203125" font-family="Helvetica" font-size="40" font-weight="400" font-style="normal" 
 >20</text>
</g>

<g fill="#212121" fill-opacity="1" stroke="#212121" stroke-opacity="1" stroke-width="1" stroke-linecap="square" stroke-linejoin="bevel" transform="matrix(0.520135,0,0,0.522791,38.4296,438.89)"
font-family="Helvetica" font-size="40" font-weight="400" font-style="normal" 
>
<text fill="#212121" fill-opacity="1" stroke="none" xml:space="preserve" x="0" y="-0.203125" font-family="Helvetica" font-size="40" font-weight="400" font-style="normal" 
 >30</text>
</g>

<g fill="#212121" fill-opacity="1" stroke="#212121" stroke-opacity="1" stroke-width="1" stroke-linecap="square" stroke-linejoin="bevel" transform="matrix(0.520135,0,0,0.522791,38.4296,384.719)"
font-family="Helvetica" font-size="40" font-weight="400" font-style="normal" 
>
<text fill="#212121" fill-opacity="1" stroke="none" xml:space="preserve" x="0" y="-0.203125" font-family="Helvetica" font-size="40" font-weight="400" font-style="normal" 
 >40</text>
</g>

<g fill="#212121" fill-opacity="1" stroke="#212121" stroke-opacity="1" stroke-width="1" stroke-linecap="square" stroke-linejoin="bevel" transform="matrix(0.520135,0,0,0.522791,38.4296,330.547)"
font-family="Helvetica" font-size="40" font-weight="400" font-style="normal" 
>
<text fill="#212121" fill-opacity="1" stroke="none" xml:space="preserve" x="0" y="-0.203125" font-family="Helvetica" font-size="40" font-weight="400" font-style="normal" 
 >50</text>
</g>

<g fill="#212121" fill-opacity="1" stroke="#212121" stroke-opacity="1" stroke-width="1" stroke-linecap="square" stroke-linejoin="bevel" transform="matrix(0.520135,0,0,0.522791,38.4296,276.376)"
font-family="Helvetica" font-size="40" font-weight="400" font-style="normal" 
>
<text fill="#212121" fill-opacity="1" stroke="none" xml:space="preserve" x="0" y="-0.203125" font-family="Helvetica" font-size="40" font-weight="400" font-style="normal" 
 >60</text>
</g>

<g fill="#212121" fill-opacity="1" stroke="#212121" stroke-opacity="1" stroke-width="1" stroke-linecap="square" stroke-linejoin="bevel" transform="matrix(0.520135,0,0,0.522791,38.4296,222.205)"
font-family="Helvetica" font-size="40" font-weight="400" font-style="normal" 
>
<text fill="#212121" fill-opacity="1" stroke="none" xml:space="preserve" x="0" y="-0.203125" font-family="Helvetica" font-size="40" font-weight="400" font-style="normal" 
 >70</text>
</g>

<g fill="#212121" fill-opacity="1" stroke="#212121" stroke-opacity="1" stroke-width="1" stroke-linecap="square" stroke-linejoin="bevel" transform="matrix(0.520135,0,0,0.522791,38.4296,168.034)"
font-family="Helvetica" font-size="40" font-weight="400" font-style="normal" 
>
<text fill="#212121" fill-opacity="1" stroke="none" xml:space="preserve" x="0" y="-0.203125" font-family="Helvetica" font-size="40" font-weight="400" font-style="normal" 
 >80</text>
</g>

<g fill="#212121" fill-opacity="1" stroke="#212121" stroke-opacity="1" stroke-width="1" stroke-linecap="square" stroke-linejoin="bevel" transform="matrix(0.520135,0,0,0.522791,38.4296,113.863)"
font-family="Helvetica" font-size="40" font-weight="400" font-style="normal" 
>
<text fill="#212121" fill-opacity="1" stroke="none" xml:space="preserve" x="0" y="-0.203125" font-family="Helvetica" font-size="40" font-weight="400" font-style="normal" 
 >90</text>
</g>

<g fill="#212121" fill-opacity="1" stroke="#212121" stroke-opacity="1" stroke-width="1" stroke-linecap="square" stroke-linejoin="bevel" transform="matrix(0.520135,0,0,0.522791,26.4665,59.6917)"
font-family="Helvetica" font-size="40" font-weight="400" font-style="normal" 
>
<text fill="#212121" fill-opacity="1" stroke="none" xml:space="preserve" x="0" y="-0.203125" font-family="Helvetica" font-size="40" font-weight="400" font-style="normal" 
 >100</text>
</g>

<g fill="#212121" fill-opacity="1" stroke="#212121" stroke-opacity="1" stroke-width="1" stroke-linecap="square" stroke-linejoin="bevel" transform="matrix(0.520135,0,0,0.522791,369.756,18.7521)"
font-family="Helvetica" font-size="44" font-weight="700" font-style="normal" 
>
<text fill="#212121" fill-opacity="1" stroke="none" xml:space="preserve" x="0" y="-0.125" font-family="Helvetica" font-size="44" font-weight="700" font-style="normal" 
 >Survival Curves by Group</text>
</g>

<g fill="none" stroke="#ff0000" stroke-opacity="1" stroke-width="4" stroke-linecap="butt" stroke-linejoin="miter" stroke-miterlimit="2" transform="matrix(0.520135,0,0,0.522791,-81.2015,-25.4238)"
font-family="Helvetica" font-size="44" font-weight="700" font-style="normal" 
>
<polyline fill="none" vector-effect="none" points="286,151.81 431.886,151.81 431.886,151.81 480.514,151.81 480.514,151.81 529.143,151.81 529.143,151.81 577.771,151.81 577.771,151.81 626.4,151.81 626.4,151.81 675.029,151.81 675.029,151.81 723.657,151.81 723.657,151.81 772.286,151.81 772.286,151.81 820.914,151.81 820.914,151.81 869.543,151.81 869.543,151.81 918.171,151.81 918.171,151.81 1112.69,151.81 1112.69,151.81 1209.94,151.81 1209.94,151.81 1258.57,151.81 1258.57,151.81 1355.83,151.81 1355.83,151.81 1404.46,151.81 1404.46,151.81 1453.09,151.81 1453.09,151.81 1501.71,151.81 1501.71,151.81 1598.97,151.81 1598.97,151.81 1647.6,151.81 1647.6,151.81 1939.37,151.81 1939.37,151.81 " />
</g>

<g fill="none" stroke="#00ff00" stroke-opacity="1" stroke-width="4" stroke-linecap="butt" stroke-linejoin="miter" stroke-miterlimit="2" transform="matrix(0.520135,0,0,0.522791,-81.2015,-25.4238)"
font-family="Helvetica" font-size="44" font-weight="700" font-style="normal" 
>
<polyline fill="none" vector-effect="none" points="286,151.81 431.886,151.81 431.886,151.81 480.514,151.81 480.514,151.81 529.143,151.81 529.143,151.81 577.771,151.81 577.771,151.81 626.4,151.81 626.4,151.81 675.029,151.81 675.029,151.81 723.657,151.81 723.657,151.81 772.286,151.81 772.286,151.81 820.914,151.81 820.914,151.81 869.543,151.81 869.543,151.81 918.171,151.81 918.171,151.81 1112.69,151.81 1112.69,151.81 1209.94,151.81 1209.94,151.81 1258.57,151.81 1258.57,151.81 1355.83,151.81 1355.83,151.81 1404.46,151.81 1404.46,151.81 1453.09,151.81 1453.09,151.81 1501.71,151.81 1501.71,359.048 1598.97,359.048 1598.97,359.048 1647.6,359.048 1647.6,359.048 1939.37,359.048 1939.37,359.048 " />
</g>

<g fill="none" stroke="#0000ff" stroke-opacity="1" stroke-width="4" stroke-linecap="butt" stroke-linejoin="miter" stroke-miterlimit="2" transform="matrix(0.520135,0,0,0.522791,-81.2015,-25.4238)"
font-family="Helvetica" font-size="44" font-weight="700" font-style="normal" 
>
<polyline fill="none" vector-effect="none" points="286,151.81 431.886,151.81 431.886,151.81 480.514,151.81 480.514,151.81 529.143,151.81 529.143,151.81 577.771,151.81 577.771,151.81 626.4,151.81 626.4,151.81 675.029,151.81 675.029,151.81 723.657,151.81 723.657,151.81 772.286,151.81 772.286,151.81 820.914,151.81 820.914,151.81 869.543,151.81 869.543,359.048 918.171,359.048 918.171,359.048 1112.69,359.048 1112.69,359.048 1209.94,359.048 1209.94,359.048 1258.57,359.048 1258.57,359.048 1355.83,359.048 1355.83,359.048 1404.46,359.048 1404.46,359.048 1453.09,359.048 1453.09,566.286 1501.71,566.286 1501.71,566.286 1598.97,566.286 1598.97,1188 1647.6,1188 1647.6,1188 1939.37,1188 1939.37,1188 " />
</g>

<g fill="#ffffff" fill-opacity="1" stroke="none" transform="matrix(5.20135e-05,0,0,5.22791e-05,-81.2015,-25.4238)"
font-family="Helvetica" font-size="44" font-weight="700" font-style="normal" 
>
<path vector-effect="none" fill-rule="evenodd" d="M3.02e+06,1.041e+07 L3.02e+06,1.172e+07 L4.98e+06,1.172e+07 L4.98e+06,1.041e+07 L3.02e+06,1.041e+07"/>
</g>

<g fill="#ff0000" fill-opacity="1" stroke="#ff0000" stroke-opacity="1" stroke-width="4" stroke-linecap="butt" stroke-linejoin="round" transform="matrix(0.520135,0,0,0.522791,-81.2015,-25.4238)"
font-family="Helvetica" font-size="44" font-weight="700" font-style="normal" 
>
<polyline fill="none" vector-effect="none" points="308.015,1064.59 368.169,1064.59 " />
</g>

<g fill="#00ff00" fill-opacity="1" stroke="#00ff00" stroke-opacity="1" stroke-width="4" stroke-linecap="butt" stroke-linejoin="round" transform="matrix(0.520135,0,0,0.522791,-81.2015,-25.4238)"
font-family="Helvetica" font-size="44" font-weight="700" font-style="normal" 
>
<polyline fill="none" vector-effect="none" points="308.015,1106.5 368.169,1106.5 " />
</g>

<g fill="#0000ff" fill-opacity="1" stroke="#0000ff" stroke-opacity="1" stroke-width="4" stroke-linecap="butt" stroke-linejoin="round" transform="matrix(0.520135,0,0,0.522791,-81.2015,-25.4238)"
font-family="Helvetica" font-size="44" font-weight="700" font-style="normal" 
>
<polyline fill="none" vector-effect="none" points="308.015,1148.41 368.169,1148.41 " />
</g>

<g fill="#212121" fill-opacity="1" stroke="#212121" stroke-opacity="1" stroke-width="1" stroke-linecap="square" stroke-linejoin="bevel" transform="matrix(0.520135,0,0,0.522791,112.643,536.363)"
font-family="Helvetica" font-size="36" font-weight="400" font-style="normal" 
>
<text fill="#212121" fill-opacity="1" stroke="none" xml:space="preserve" x="0" y="-0.28125" font-family="Helvetica" font-size="36" font-weight="400" font-style="normal" 
 >ST1-75</text>
</g>

<g fill="#212121" fill-opacity="1" stroke="#212121" stroke-opacity="1" stroke-width="1" stroke-linecap="square" stroke-linejoin="bevel" transform="matrix(0.520135,0,0,0.522791,112.643,558.273)"
font-family="Helvetica" font-size="36" font-weight="400" font-style="normal" 
>
<text fill="#212121" fill-opacity="1" stroke="none" xml:space="preserve" x="0" y="-0.28125" font-family="Helvetica" font-size="36" font-weight="400" font-style="normal" 
 >ST1-68</text>
</g>

<g fill="#212121" fill-opacity="1" stroke="#212121" stroke-opacity="1" stroke-width="1" stroke-linecap="square" stroke-linejoin="bevel" transform="matrix(0.520135,0,0,0.522791,112.643,580.183)"
font-family="Helvetica" font-size="36" font-weight="400" font-style="normal" 
>
<text fill="#212121" fill-opacity="1" stroke="none" xml:space="preserve" x="0" y="-0.28125" font-family="Helvetica" font-size="36" font-weight="400" font-style="normal" 
 >VPI</text>
</g>

<g fill="none" stroke="#212121" stroke-opacity="1" stroke-width="1" stroke-linecap="butt" stroke-linejoin="miter" stroke-miterlimit="2" transform="matrix(0.520135,0,0,0.522791,-81.2015,-25.4238)"
font-family="Helvetica" font-size="36" font-weight="400" font-style="normal" 
>
<path vector-effect="none" fill-rule="evenodd" d="M302,1172 L302,1041 L498,1041 L498,1172 L302,1172"/>
</g>
</g>
</svg>
