<?xml version="1.0" encoding="UTF-8" standalone="no"?>
<svg width="366.536mm" height="189.442mm"
 viewBox="0 0 1039 537"
 xmlns="http://www.w3.org/2000/svg" xmlns:xlink="http://www.w3.org/1999/xlink"  version="1.2" baseProfile="tiny">
<title>Qt SVG Document</title>
<desc>MATLAB, The MathWorks, Inc. Version 25.2.0.3042426 R2025b Update 1</desc>
<defs>
</defs>
<g fill="none" stroke="black" stroke-width="1" fill-rule="evenodd" stroke-linecap="square" stroke-linejoin="bevel" >

<g fill="#ffffff" fill-opacity="1" stroke="none" transform="matrix(0.508219,0,0,0.488018,-7.64793,-8.6264)"
font-family=".AppleSystemUIFont" font-size="13" font-weight="400" font-style="normal" 
>
<path vector-effect="none" fill-rule="evenodd" d="M14,16 L2059,16 L2059,1118 L14,1118 L14,16"/>
</g>

<g fill="#ffffff" fill-opacity="1" stroke="none" transform="matrix(5.08219e-05,0,0,4.88018e-05,-7.64793,-8.6264)"
font-family=".AppleSystemUIFont" font-size="13" font-weight="400" font-style="normal" 
>
<path vector-effect="none" fill-rule="evenodd" d="M1.87e+06,920000 L1.87e+06,9.23e+06 L1.303e+07,9.23e+06 L1.303e+07,920000 L1.87e+06,920000"/>
</g>

<g fill="#212121" fill-opacity="1" stroke="#212121" stroke-opacity="1" stroke-width="1" stroke-linecap="square" stroke-linejoin="bevel" transform="matrix(0.508219,0,0,0.488018,326.252,24.9249)"
font-family="Helvetica" font-size="66" font-weight="700" font-style="normal" 
>
<text fill="#212121" fill-opacity="1" stroke="none" xml:space="preserve" x="0" y="-0.1875" font-family="Helvetica" font-size="66" font-weight="700" font-style="normal" 
 >Day 7</text>
</g>

<g fill="#212121" fill-opacity="1" stroke="#212121" stroke-opacity="1" stroke-width="1" stroke-linecap="butt" stroke-linejoin="round" transform="matrix(0.508219,0,0,0.488018,-7.64793,-8.6264)"
font-family="Helvetica" font-size="66" font-weight="700" font-style="normal" 
>
<polyline fill="none" vector-effect="none" points="187,923 1303,923 " />
</g>

<g fill="#30123b" fill-opacity="1" stroke="none" transform="matrix(5.08219e-05,0,0,4.88018e-05,-7.64793,-8.6264)"
font-family="Helvetica" font-size="66" font-weight="700" font-style="normal" 
>
<path vector-effect="none" fill-rule="evenodd" d="M3.89909e+06,8.15759e+06 L3.89909e+06,9.23e+06 L5.92818e+06,9.23e+06 L5.92818e+06,8.15759e+06 L3.89909e+06,8.15759e+06"/>
</g>

<g fill="#30123b" fill-opacity="1" stroke="none" transform="matrix(5.08219e-05,0,0,4.88018e-05,-7.64793,-8.6264)"
font-family="Helvetica" font-size="66" font-weight="700" font-style="normal" 
>
<path vector-effect="none" fill-rule="evenodd" d="M6.43545e+06,7.59694e+06 L6.43545e+06,9.23e+06 L8.46455e+06,9.23e+06 L8.46455e+06,7.59694e+06 L6.43545e+06,7.59694e+06"/>
</g>

<g fill="#30123b" fill-opacity="1" stroke="none" transform="matrix(5.08219e-05,0,0,4.88018e-05,-7.64793,-8.6264)"
font-family="Helvetica" font-size="66" font-weight="700" font-style="normal" 
>
<path vector-effect="none" fill-rule="evenodd" d="M8.97182e+06,8.8003e+06 L8.97182e+06,9.23e+06 L1.10009e+07,9.23e+06 L1.10009e+07,8.8003e+06 L8.97182e+06,8.8003e+06"/>
</g>

<g fill="#434fbb" fill-opacity="1" stroke="none" transform="matrix(5.08219e-05,0,0,4.88018e-05,-7.64793,-8.6264)"
font-family="Helvetica" font-size="66" font-weight="700" font-style="normal" 
>
<path vector-effect="none" fill-rule="evenodd" d="M3.89909e+06,7.55196e+06 L3.89909e+06,8.15759e+06 L5.92818e+06,8.15759e+06 L5.92818e+06,7.55196e+06 L3.89909e+06,7.55196e+06"/>
</g>

<g fill="#434fbb" fill-opacity="1" stroke="none" transform="matrix(5.08219e-05,0,0,4.88018e-05,-7.64793,-8.6264)"
font-family="Helvetica" font-size="66" font-weight="700" font-style="normal" 
>
<path vector-effect="none" fill-rule="evenodd" d="M6.43545e+06,6.43513e+06 L6.43545e+06,7.59694e+06 L8.46455e+06,7.59694e+06 L8.46455e+06,6.43513e+06 L6.43545e+06,6.43513e+06"/>
</g>

<g fill="#434fbb" fill-opacity="1" stroke="none" transform="matrix(5.08219e-05,0,0,4.88018e-05,-7.64793,-8.6264)"
font-family="Helvetica" font-size="66" font-weight="700" font-style="normal" 
>
<path vector-effect="none" fill-rule="evenodd" d="M8.97182e+06,7.56633e+06 L8.97182e+06,8.8003e+06 L1.10009e+07,8.8003e+06 L1.10009e+07,7.56633e+06 L8.97182e+06,7.56633e+06"/>
</g>

<g fill="#4686fa" fill-opacity="1" stroke="none" transform="matrix(5.08219e-05,0,0,4.88018e-05,-7.64793,-8.6264)"
font-family="Helvetica" font-size="66" font-weight="700" font-style="normal" 
>
<path vector-effect="none" fill-rule="evenodd" d="M3.89909e+06,5.44163e+06 L3.89909e+06,7.55196e+06 L5.92818e+06,7.55196e+06 L5.92818e+06,5.44163e+06 L3.89909e+06,5.44163e+06"/>
</g>

<g fill="#4686fa" fill-opacity="1" stroke="none" transform="matrix(5.08219e-05,0,0,4.88018e-05,-7.64793,-8.6264)"
font-family="Helvetica" font-size="66" font-weight="700" font-style="normal" 
>
<path vector-effect="none" fill-rule="evenodd" d="M6.43545e+06,5.13709e+06 L6.43545e+06,6.43513e+06 L8.46455e+06,6.43513e+06 L8.46455e+06,5.13709e+06 L6.43545e+06,5.13709e+06"/>
</g>

<g fill="#4686fa" fill-opacity="1" stroke="none" transform="matrix(5.08219e-05,0,0,4.88018e-05,-7.64793,-8.6264)"
font-family="Helvetica" font-size="66" font-weight="700" font-style="normal" 
>
<path vector-effect="none" fill-rule="evenodd" d="M8.97182e+06,6.16462e+06 L8.97182e+06,7.56633e+06 L1.10009e+07,7.56633e+06 L1.10009e+07,6.16462e+06 L8.97182e+06,6.16462e+06"/>
</g>

<g fill="#29bbec" fill-opacity="1" stroke="none" transform="matrix(5.08219e-05,0,0,4.88018e-05,-7.64793,-8.6264)"
font-family="Helvetica" font-size="66" font-weight="700" font-style="normal" 
>
<path vector-effect="none" fill-rule="evenodd" d="M3.89909e+06,5.4412e+06 L3.89909e+06,5.44163e+06 L5.92818e+06,5.44163e+06 L5.92818e+06,5.4412e+06 L3.89909e+06,5.4412e+06"/>
</g>

<g fill="#29bbec" fill-opacity="1" stroke="none" transform="matrix(5.08219e-05,0,0,4.88018e-05,-7.64793,-8.6264)"
font-family="Helvetica" font-size="66" font-weight="700" font-style="normal" 
>
<path vector-effect="none" fill-rule="evenodd" d="M6.43545e+06,5.13599e+06 L6.43545e+06,5.13709e+06 L8.46455e+06,5.13709e+06 L8.46455e+06,5.13599e+06 L6.43545e+06,5.13599e+06"/>
</g>

<g fill="#29bbec" fill-opacity="1" stroke="none" transform="matrix(5.08219e-05,0,0,4.88018e-05,-7.64793,-8.6264)"
font-family="Helvetica" font-size="66" font-weight="700" font-style="normal" 
>
<path vector-effect="none" fill-rule="evenodd" d="M8.97182e+06,6.16447e+06 L8.97182e+06,6.16462e+06 L1.10009e+07,6.16462e+06 L1.10009e+07,6.16447e+06 L8.97182e+06,6.16447e+06"/>
</g>

<g fill="#1ae4b6" fill-opacity="1" stroke="none" transform="matrix(5.08219e-05,0,0,4.88018e-05,-7.64793,-8.6264)"
font-family="Helvetica" font-size="66" font-weight="700" font-style="normal" 
>
<path vector-effect="none" fill-rule="evenodd" d="M3.89909e+06,5.27353e+06 L3.89909e+06,5.4412e+06 L5.92818e+06,5.4412e+06 L5.92818e+06,5.27353e+06 L3.89909e+06,5.27353e+06"/>
</g>

<g fill="#1ae4b6" fill-opacity="1" stroke="none" transform="matrix(5.08219e-05,0,0,4.88018e-05,-7.64793,-8.6264)"
font-family="Helvetica" font-size="66" font-weight="700" font-style="normal" 
>
<path vector-effect="none" fill-rule="evenodd" d="M6.43545e+06,5.03931e+06 L6.43545e+06,5.13599e+06 L8.46455e+06,5.13599e+06 L8.46455e+06,5.03931e+06 L6.43545e+06,5.03931e+06"/>
</g>

<g fill="#1ae4b6" fill-opacity="1" stroke="none" transform="matrix(5.08219e-05,0,0,4.88018e-05,-7.64793,-8.6264)"
font-family="Helvetica" font-size="66" font-weight="700" font-style="normal" 
>
<path vector-effect="none" fill-rule="evenodd" d="M8.97182e+06,5.95548e+06 L8.97182e+06,6.16447e+06 L1.10009e+07,6.16447e+06 L1.10009e+07,5.95548e+06 L8.97182e+06,5.95548e+06"/>
</g>

<g fill="#56fb75" fill-opacity="1" stroke="none" transform="matrix(5.08219e-05,0,0,4.88018e-05,-7.64793,-8.6264)"
font-family="Helvetica" font-size="66" font-weight="700" font-style="normal" 
>
<path vector-effect="none" fill-rule="evenodd" d="M3.89909e+06,3.45187e+06 L3.89909e+06,5.27353e+06 L5.92818e+06,5.27353e+06 L5.92818e+06,3.45187e+06 L3.89909e+06,3.45187e+06"/>
</g>

<g fill="#56fb75" fill-opacity="1" stroke="none" transform="matrix(5.08219e-05,0,0,4.88018e-05,-7.64793,-8.6264)"
font-family="Helvetica" font-size="66" font-weight="700" font-style="normal" 
>
<path vector-effect="none" fill-rule="evenodd" d="M6.43545e+06,2.96164e+06 L6.43545e+06,5.03931e+06 L8.46455e+06,5.03931e+06 L8.46455e+06,2.96164e+06 L6.43545e+06,2.96164e+06"/>
</g>

<g fill="#56fb75" fill-opacity="1" stroke="none" transform="matrix(5.08219e-05,0,0,4.88018e-05,-7.64793,-8.6264)"
font-family="Helvetica" font-size="66" font-weight="700" font-style="normal" 
>
<path vector-effect="none" fill-rule="evenodd" d="M8.97182e+06,3.26041e+06 L8.97182e+06,5.95548e+06 L1.10009e+07,5.95548e+06 L1.10009e+07,3.26041e+06 L8.97182e+06,3.26041e+06"/>
</g>

<g fill="#a3fd3c" fill-opacity="1" stroke="none" transform="matrix(5.08219e-05,0,0,4.88018e-05,-7.64793,-8.6264)"
font-family="Helvetica" font-size="66" font-weight="700" font-style="normal" 
>
<path vector-effect="none" fill-rule="evenodd" d="M3.89909e+06,2.22257e+06 L3.89909e+06,3.45187e+06 L5.92818e+06,3.45187e+06 L5.92818e+06,2.22257e+06 L3.89909e+06,2.22257e+06"/>
</g>

<g fill="#a3fd3c" fill-opacity="1" stroke="none" transform="matrix(5.08219e-05,0,0,4.88018e-05,-7.64793,-8.6264)"
font-family="Helvetica" font-size="66" font-weight="700" font-style="normal" 
>
<path vector-effect="none" fill-rule="evenodd" d="M6.43545e+06,2.17451e+06 L6.43545e+06,2.96164e+06 L8.46455e+06,2.96164e+06 L8.46455e+06,2.17451e+06 L6.43545e+06,2.17451e+06"/>
</g>

<g fill="#a3fd3c" fill-opacity="1" stroke="none" transform="matrix(5.08219e-05,0,0,4.88018e-05,-7.64793,-8.6264)"
font-family="Helvetica" font-size="66" font-weight="700" font-style="normal" 
>
<path vector-effect="none" fill-rule="evenodd" d="M8.97182e+06,1.79917e+06 L8.97182e+06,3.26041e+06 L1.10009e+07,3.26041e+06 L1.10009e+07,1.79917e+06 L8.97182e+06,1.79917e+06"/>
</g>

<g fill="#d8e436" fill-opacity="1" stroke="none" transform="matrix(5.08219e-05,0,0,4.88018e-05,-7.64793,-8.6264)"
font-family="Helvetica" font-size="66" font-weight="700" font-style="normal" 
>
<path vector-effect="none" fill-rule="evenodd" d="M3.89909e+06,2.12255e+06 L3.89909e+06,2.22257e+06 L5.92818e+06,2.22257e+06 L5.92818e+06,2.12255e+06 L3.89909e+06,2.12255e+06"/>
</g>

<g fill="#d8e436" fill-opacity="1" stroke="none" transform="matrix(5.08219e-05,0,0,4.88018e-05,-7.64793,-8.6264)"
font-family="Helvetica" font-size="66" font-weight="700" font-style="normal" 
>
<path vector-effect="none" fill-rule="evenodd" d="M6.43545e+06,2.00903e+06 L6.43545e+06,2.17451e+06 L8.46455e+06,2.17451e+06 L8.46455e+06,2.00903e+06 L6.43545e+06,2.00903e+06"/>
</g>

<g fill="#d8e436" fill-opacity="1" stroke="none" transform="matrix(5.08219e-05,0,0,4.88018e-05,-7.64793,-8.6264)"
font-family="Helvetica" font-size="66" font-weight="700" font-style="normal" 
>
<path vector-effect="none" fill-rule="evenodd" d="M8.97182e+06,1.54233e+06 L8.97182e+06,1.79917e+06 L1.10009e+07,1.79917e+06 L1.10009e+07,1.54233e+06 L8.97182e+06,1.54233e+06"/>
</g>

<g fill="#faba39" fill-opacity="1" stroke="none" transform="matrix(5.08219e-05,0,0,4.88018e-05,-7.64793,-8.6264)"
font-family="Helvetica" font-size="66" font-weight="700" font-style="normal" 
>
<path vector-effect="none" fill-rule="evenodd" d="M3.89909e+06,2.12235e+06 L3.89909e+06,2.12255e+06 L5.92818e+06,2.12255e+06 L5.92818e+06,2.12235e+06 L3.89909e+06,2.12235e+06"/>
</g>

<g fill="#faba39" fill-opacity="1" stroke="none" transform="matrix(5.08219e-05,0,0,4.88018e-05,-7.64793,-8.6264)"
font-family="Helvetica" font-size="66" font-weight="700" font-style="normal" 
>
<path vector-effect="none" fill-rule="evenodd" d="M6.43545e+06,1.66375e+06 L6.43545e+06,2.00903e+06 L8.46455e+06,2.00903e+06 L8.46455e+06,1.66375e+06 L6.43545e+06,1.66375e+06"/>
</g>

<g fill="#faba39" fill-opacity="1" stroke="none" transform="matrix(5.08219e-05,0,0,4.88018e-05,-7.64793,-8.6264)"
font-family="Helvetica" font-size="66" font-weight="700" font-style="normal" 
>
<path vector-effect="none" fill-rule="evenodd" d="M8.97182e+06,1.09297e+06 L8.97182e+06,1.54233e+06 L1.10009e+07,1.54233e+06 L1.10009e+07,1.09297e+06 L8.97182e+06,1.09297e+06"/>
</g>

<g fill="#fb8022" fill-opacity="1" stroke="none" transform="matrix(5.08219e-05,0,0,4.88018e-05,-7.64793,-8.6264)"
font-family="Helvetica" font-size="66" font-weight="700" font-style="normal" 
>
<path vector-effect="none" fill-rule="evenodd" d="M3.89909e+06,2.12228e+06 L3.89909e+06,2.12235e+06 L5.92818e+06,2.12235e+06 L5.92818e+06,2.12228e+06 L3.89909e+06,2.12228e+06"/>
</g>

<g fill="#fb8022" fill-opacity="1" stroke="none" transform="matrix(5.08219e-05,0,0,4.88018e-05,-7.64793,-8.6264)"
font-family="Helvetica" font-size="66" font-weight="700" font-style="normal" 
>
<path vector-effect="none" fill-rule="evenodd" d="M6.43545e+06,1.66345e+06 L6.43545e+06,1.66375e+06 L8.46455e+06,1.66375e+06 L8.46455e+06,1.66345e+06 L6.43545e+06,1.66345e+06"/>
</g>

<g fill="#fb8022" fill-opacity="1" stroke="none" transform="matrix(5.08219e-05,0,0,4.88018e-05,-7.64793,-8.6264)"
font-family="Helvetica" font-size="66" font-weight="700" font-style="normal" 
>
<path vector-effect="none" fill-rule="evenodd" d="M8.97182e+06,1.09286e+06 L8.97182e+06,1.09297e+06 L1.10009e+07,1.09297e+06 L1.10009e+07,1.09286e+06 L8.97182e+06,1.09286e+06"/>
</g>

<g fill="#e4460b" fill-opacity="1" stroke="none" transform="matrix(5.08219e-05,0,0,4.88018e-05,-7.64793,-8.6264)"
font-family="Helvetica" font-size="66" font-weight="700" font-style="normal" 
>
<path vector-effect="none" fill-rule="evenodd" d="M3.89909e+06,1.30968e+06 L3.89909e+06,2.12228e+06 L5.92818e+06,2.12228e+06 L5.92818e+06,1.30968e+06 L3.89909e+06,1.30968e+06"/>
</g>

<g fill="#e4460b" fill-opacity="1" stroke="none" transform="matrix(5.08219e-05,0,0,4.88018e-05,-7.64793,-8.6264)"
font-family="Helvetica" font-size="66" font-weight="700" font-style="normal" 
>
<path vector-effect="none" fill-rule="evenodd" d="M6.43545e+06,1.05456e+06 L6.43545e+06,1.66345e+06 L8.46455e+06,1.66345e+06 L8.46455e+06,1.05456e+06 L6.43545e+06,1.05456e+06"/>
</g>

<g fill="#e4460b" fill-opacity="1" stroke="none" transform="matrix(5.08219e-05,0,0,4.88018e-05,-7.64793,-8.6264)"
font-family="Helvetica" font-size="66" font-weight="700" font-style="normal" 
>
<path vector-effect="none" fill-rule="evenodd" d="M8.97182e+06,1.09269e+06 L8.97182e+06,1.09286e+06 L1.10009e+07,1.09286e+06 L1.10009e+07,1.09269e+06 L8.97182e+06,1.09269e+06"/>
</g>

<g fill="#ba1f02" fill-opacity="1" stroke="none" transform="matrix(5.08219e-05,0,0,4.88018e-05,-7.64793,-8.6264)"
font-family="Helvetica" font-size="66" font-weight="700" font-style="normal" 
>
<path vector-effect="none" fill-rule="evenodd" d="M3.89909e+06,1.30962e+06 L3.89909e+06,1.30968e+06 L5.92818e+06,1.30968e+06 L5.92818e+06,1.30962e+06 L3.89909e+06,1.30962e+06"/>
</g>

<g fill="#ba1f02" fill-opacity="1" stroke="none" transform="matrix(5.08219e-05,0,0,4.88018e-05,-7.64793,-8.6264)"
font-family="Helvetica" font-size="66" font-weight="700" font-style="normal" 
>
<path vector-effect="none" fill-rule="evenodd" d="M6.43545e+06,1.05453e+06 L6.43545e+06,1.05456e+06 L8.46455e+06,1.05456e+06 L8.46455e+06,1.05453e+06 L6.43545e+06,1.05453e+06"/>
</g>

<g fill="#ba1f02" fill-opacity="1" stroke="none" transform="matrix(5.08219e-05,0,0,4.88018e-05,-7.64793,-8.6264)"
font-family="Helvetica" font-size="66" font-weight="700" font-style="normal" 
>
<path vector-effect="none" fill-rule="evenodd" d="M8.97182e+06,1.09266e+06 L8.97182e+06,1.09269e+06 L1.10009e+07,1.09269e+06 L1.10009e+07,1.09266e+06 L8.97182e+06,1.09266e+06"/>
</g>

<g fill="#7a0403" fill-opacity="1" stroke="none" transform="matrix(5.08219e-05,0,0,4.88018e-05,-7.64793,-8.6264)"
font-family="Helvetica" font-size="66" font-weight="700" font-style="normal" 
>
<path vector-effect="none" fill-rule="evenodd" d="M3.89909e+06,920000 L3.89909e+06,1.30962e+06 L5.92818e+06,1.30962e+06 L5.92818e+06,920000 L3.89909e+06,920000"/>
</g>

<g fill="#7a0403" fill-opacity="1" stroke="none" transform="matrix(5.08219e-05,0,0,4.88018e-05,-7.64793,-8.6264)"
font-family="Helvetica" font-size="66" font-weight="700" font-style="normal" 
>
<path vector-effect="none" fill-rule="evenodd" d="M6.43545e+06,920000 L6.43545e+06,1.05453e+06 L8.46455e+06,1.05453e+06 L8.46455e+06,920000 L6.43545e+06,920000"/>
</g>

<g fill="#7a0403" fill-opacity="1" stroke="none" transform="matrix(5.08219e-05,0,0,4.88018e-05,-7.64793,-8.6264)"
font-family="Helvetica" font-size="66" font-weight="700" font-style="normal" 
>
<path vector-effect="none" fill-rule="evenodd" d="M8.97182e+06,920000 L8.97182e+06,1.09266e+06 L1.10009e+07,1.09266e+06 L1.10009e+07,920000 L8.97182e+06,920000"/>
</g>

<g fill="#212121" fill-opacity="1" stroke="#212121" stroke-opacity="1" stroke-width="1" stroke-linecap="square" stroke-linejoin="round" transform="matrix(0.508219,0,0,0.488018,-7.64793,-8.6264)"
font-family="Helvetica" font-size="66" font-weight="700" font-style="normal" 
>
<polyline fill="none" vector-effect="none" points="187,923 1303,923 " />
<polyline fill="none" vector-effect="none" points="187,92 1303,92 " />
<polyline fill="none" vector-effect="none" points="491.364,923 491.364,911.84 " />
<polyline fill="none" vector-effect="none" points="491.364,103.16 491.364,92 " />
<polyline fill="none" vector-effect="none" points="745,923 745,911.84 " />
<polyline fill="none" vector-effect="none" points="745,103.16 745,92 " />
<polyline fill="none" vector-effect="none" points="998.636,923 998.636,911.84 " />
<polyline fill="none" vector-effect="none" points="998.636,103.16 998.636,92 " />
</g>

<g fill="#212121" fill-opacity="1" stroke="#212121" stroke-opacity="1" stroke-width="1" stroke-linecap="square" stroke-linejoin="bevel" transform="matrix(0.44013,-0.244009,0.254109,0.422636,127.444,539.095)"
font-family="Helvetica" font-size="60" font-weight="400" font-style="normal" 
>
<text fill="#212121" fill-opacity="1" stroke="none" xml:space="preserve" x="0" y="0.1875" font-family="Helvetica" font-size="60" font-weight="400" font-style="normal" 
 >Uninfected</text>
</g>

<g fill="#212121" fill-opacity="1" stroke="#212121" stroke-opacity="1" stroke-width="1" stroke-linecap="square" stroke-linejoin="bevel" transform="matrix(0.44013,-0.244009,0.254109,0.422636,297.719,516.158)"
font-family="Helvetica" font-size="60" font-weight="400" font-style="normal" 
>
<text fill="#212121" fill-opacity="1" stroke="none" xml:space="preserve" x="0" y="0.1875" font-family="Helvetica" font-size="60" font-weight="400" font-style="normal" 
 >ST1.75</text>
</g>

<g fill="#212121" fill-opacity="1" stroke="#212121" stroke-opacity="1" stroke-width="1" stroke-linecap="square" stroke-linejoin="bevel" transform="matrix(0.44013,-0.244009,0.254109,0.422636,426.622,516.158)"
font-family="Helvetica" font-size="60" font-weight="400" font-style="normal" 
>
<text fill="#212121" fill-opacity="1" stroke="none" xml:space="preserve" x="0" y="0.1875" font-family="Helvetica" font-size="60" font-weight="400" font-style="normal" 
 >ST1.12</text>
</g>

<g fill="#212121" fill-opacity="1" stroke="#212121" stroke-opacity="1" stroke-width="1" stroke-linecap="square" stroke-linejoin="bevel" transform="matrix(0,-0.488018,0.508219,0,25.8945,381.3)"
font-family="Helvetica" font-size="66" font-weight="400" font-style="normal" 
>
<text fill="#212121" fill-opacity="1" stroke="none" xml:space="preserve" x="0" y="-0.1875" font-family="Helvetica" font-size="66" font-weight="400" font-style="normal" 
 >Relative abundance</text>
</g>

<g fill="#212121" fill-opacity="1" stroke="#212121" stroke-opacity="1" stroke-width="1" stroke-linecap="square" stroke-linejoin="round" transform="matrix(0.508219,0,0,0.488018,-7.64793,-8.6264)"
font-family="Helvetica" font-size="66" font-weight="400" font-style="normal" 
>
<polyline fill="none" vector-effect="none" points="187,923 187,92 " />
<polyline fill="none" vector-effect="none" points="1303,923 1303,92 " />
<polyline fill="none" vector-effect="none" points="187,923 198.16,923 " />
<polyline fill="none" vector-effect="none" points="1291.84,923 1303,923 " />
<polyline fill="none" vector-effect="none" points="187,756.8 198.16,756.8 " />
<polyline fill="none" vector-effect="none" points="1291.84,756.8 1303,756.8 " />
<polyline fill="none" vector-effect="none" points="187,590.6 198.16,590.6 " />
<polyline fill="none" vector-effect="none" points="1291.84,590.6 1303,590.6 " />
<polyline fill="none" vector-effect="none" points="187,424.4 198.16,424.4 " />
<polyline fill="none" vector-effect="none" points="1291.84,424.4 1303,424.4 " />
<polyline fill="none" vector-effect="none" points="187,258.2 198.16,258.2 " />
<polyline fill="none" vector-effect="none" points="1291.84,258.2 1303,258.2 " />
<polyline fill="none" vector-effect="none" points="187,92 198.16,92 " />
<polyline fill="none" vector-effect="none" points="1291.84,92 1303,92 " />
</g>

<g fill="#212121" fill-opacity="1" stroke="#212121" stroke-opacity="1" stroke-width="1" stroke-linecap="square" stroke-linejoin="bevel" transform="matrix(0.508219,0,0,0.488018,62.4863,449.623)"
font-family="Helvetica" font-size="60" font-weight="400" font-style="normal" 
>
<text fill="#212121" fill-opacity="1" stroke="none" xml:space="preserve" x="0" y="0.1875" font-family="Helvetica" font-size="60" font-weight="400" font-style="normal" 
 >0</text>
</g>

<g fill="#212121" fill-opacity="1" stroke="#212121" stroke-opacity="1" stroke-width="1" stroke-linecap="square" stroke-linejoin="bevel" transform="matrix(0.508219,0,0,0.488018,37.0753,368.514)"
font-family="Helvetica" font-size="60" font-weight="400" font-style="normal" 
>
<text fill="#212121" fill-opacity="1" stroke="none" xml:space="preserve" x="0" y="0.1875" font-family="Helvetica" font-size="60" font-weight="400" font-style="normal" 
 >0.2</text>
</g>

<g fill="#212121" fill-opacity="1" stroke="#212121" stroke-opacity="1" stroke-width="1" stroke-linecap="square" stroke-linejoin="bevel" transform="matrix(0.508219,0,0,0.488018,37.0753,287.406)"
font-family="Helvetica" font-size="60" font-weight="400" font-style="normal" 
>
<text fill="#212121" fill-opacity="1" stroke="none" xml:space="preserve" x="0" y="0.1875" font-family="Helvetica" font-size="60" font-weight="400" font-style="normal" 
 >0.4</text>
</g>

<g fill="#212121" fill-opacity="1" stroke="#212121" stroke-opacity="1" stroke-width="1" stroke-linecap="square" stroke-linejoin="bevel" transform="matrix(0.508219,0,0,0.488018,37.0753,206.297)"
font-family="Helvetica" font-size="60" font-weight="400" font-style="normal" 
>
<text fill="#212121" fill-opacity="1" stroke="none" xml:space="preserve" x="0" y="0.1875" font-family="Helvetica" font-size="60" font-weight="400" font-style="normal" 
 >0.6</text>
</g>

<g fill="#212121" fill-opacity="1" stroke="#212121" stroke-opacity="1" stroke-width="1" stroke-linecap="square" stroke-linejoin="bevel" transform="matrix(0.508219,0,0,0.488018,37.0753,125.188)"
font-family="Helvetica" font-size="60" font-weight="400" font-style="normal" 
>
<text fill="#212121" fill-opacity="1" stroke="none" xml:space="preserve" x="0" y="0.1875" font-family="Helvetica" font-size="60" font-weight="400" font-style="normal" 
 >0.8</text>
</g>

<g fill="#212121" fill-opacity="1" stroke="#212121" stroke-opacity="1" stroke-width="1" stroke-linecap="square" stroke-linejoin="bevel" transform="matrix(0.508219,0,0,0.488018,62.4863,44.0796)"
font-family="Helvetica" font-size="60" font-weight="400" font-style="normal" 
>
<text fill="#212121" fill-opacity="1" stroke="none" xml:space="preserve" x="0" y="0.1875" font-family="Helvetica" font-size="60" font-weight="400" font-style="normal" 
 >1</text>
</g>

<g fill="#ffffff" fill-opacity="1" stroke="none" transform="matrix(5.08219e-05,0,0,4.88018e-05,-7.64793,-8.6264)"
font-family="Helvetica" font-size="60" font-weight="400" font-style="normal" 
>
<path vector-effect="none" fill-rule="evenodd" d="M1.319e+07,2.01e+06 L1.319e+07,8.14e+06 L2.056e+07,8.14e+06 L2.056e+07,2.01e+06 L1.319e+07,2.01e+06"/>
</g>

<g fill="#30123b" fill-opacity="1" stroke="none" transform="matrix(5.08219e-05,0,0,4.88018e-05,-7.64793,-8.6264)"
font-family="Helvetica" font-size="60" font-weight="400" font-style="normal" 
>
<path vector-effect="none" fill-rule="evenodd" d="M1.325e+07,7.7075e+06 L1.325e+07,8.0525e+06 L1.38496e+07,8.0525e+06 L1.38496e+07,7.7075e+06 L1.325e+07,7.7075e+06"/>
</g>

<g fill="#434fbb" fill-opacity="1" stroke="none" transform="matrix(5.08219e-05,0,0,4.88018e-05,-7.64793,-8.6264)"
font-family="Helvetica" font-size="60" font-weight="400" font-style="normal" 
>
<path vector-effect="none" fill-rule="evenodd" d="M1.325e+07,7.24e+06 L1.325e+07,7.585e+06 L1.38496e+07,7.585e+06 L1.38496e+07,7.24e+06 L1.325e+07,7.24e+06"/>
</g>

<g fill="#4686fa" fill-opacity="1" stroke="none" transform="matrix(5.08219e-05,0,0,4.88018e-05,-7.64793,-8.6264)"
font-family="Helvetica" font-size="60" font-weight="400" font-style="normal" 
>
<path vector-effect="none" fill-rule="evenodd" d="M1.325e+07,6.7725e+06 L1.325e+07,7.1175e+06 L1.38496e+07,7.1175e+06 L1.38496e+07,6.7725e+06 L1.325e+07,6.7725e+06"/>
</g>

<g fill="#29bbec" fill-opacity="1" stroke="none" transform="matrix(5.08219e-05,0,0,4.88018e-05,-7.64793,-8.6264)"
font-family="Helvetica" font-size="60" font-weight="400" font-style="normal" 
>
<path vector-effect="none" fill-rule="evenodd" d="M1.325e+07,6.305e+06 L1.325e+07,6.65e+06 L1.38496e+07,6.65e+06 L1.38496e+07,6.305e+06 L1.325e+07,6.305e+06"/>
</g>

<g fill="#1ae4b6" fill-opacity="1" stroke="none" transform="matrix(5.08219e-05,0,0,4.88018e-05,-7.64793,-8.6264)"
font-family="Helvetica" font-size="60" font-weight="400" font-style="normal" 
>
<path vector-effect="none" fill-rule="evenodd" d="M1.325e+07,5.8375e+06 L1.325e+07,6.1825e+06 L1.38496e+07,6.1825e+06 L1.38496e+07,5.8375e+06 L1.325e+07,5.8375e+06"/>
</g>

<g fill="#56fb75" fill-opacity="1" stroke="none" transform="matrix(5.08219e-05,0,0,4.88018e-05,-7.64793,-8.6264)"
font-family="Helvetica" font-size="60" font-weight="400" font-style="normal" 
>
<path vector-effect="none" fill-rule="evenodd" d="M1.325e+07,5.37e+06 L1.325e+07,5.715e+06 L1.38496e+07,5.715e+06 L1.38496e+07,5.37e+06 L1.325e+07,5.37e+06"/>
</g>

<g fill="#a3fd3c" fill-opacity="1" stroke="none" transform="matrix(5.08219e-05,0,0,4.88018e-05,-7.64793,-8.6264)"
font-family="Helvetica" font-size="60" font-weight="400" font-style="normal" 
>
<path vector-effect="none" fill-rule="evenodd" d="M1.325e+07,4.9025e+06 L1.325e+07,5.2475e+06 L1.38496e+07,5.2475e+06 L1.38496e+07,4.9025e+06 L1.325e+07,4.9025e+06"/>
</g>

<g fill="#d8e436" fill-opacity="1" stroke="none" transform="matrix(5.08219e-05,0,0,4.88018e-05,-7.64793,-8.6264)"
font-family="Helvetica" font-size="60" font-weight="400" font-style="normal" 
>
<path vector-effect="none" fill-rule="evenodd" d="M1.325e+07,4.435e+06 L1.325e+07,4.78e+06 L1.38496e+07,4.78e+06 L1.38496e+07,4.435e+06 L1.325e+07,4.435e+06"/>
</g>

<g fill="#faba39" fill-opacity="1" stroke="none" transform="matrix(5.08219e-05,0,0,4.88018e-05,-7.64793,-8.6264)"
font-family="Helvetica" font-size="60" font-weight="400" font-style="normal" 
>
<path vector-effect="none" fill-rule="evenodd" d="M1.325e+07,3.9675e+06 L1.325e+07,4.3125e+06 L1.38496e+07,4.3125e+06 L1.38496e+07,3.9675e+06 L1.325e+07,3.9675e+06"/>
</g>

<g fill="#fb8022" fill-opacity="1" stroke="none" transform="matrix(5.08219e-05,0,0,4.88018e-05,-7.64793,-8.6264)"
font-family="Helvetica" font-size="60" font-weight="400" font-style="normal" 
>
<path vector-effect="none" fill-rule="evenodd" d="M1.325e+07,3.5e+06 L1.325e+07,3.845e+06 L1.38496e+07,3.845e+06 L1.38496e+07,3.5e+06 L1.325e+07,3.5e+06"/>
</g>

<g fill="#e4460b" fill-opacity="1" stroke="none" transform="matrix(5.08219e-05,0,0,4.88018e-05,-7.64793,-8.6264)"
font-family="Helvetica" font-size="60" font-weight="400" font-style="normal" 
>
<path vector-effect="none" fill-rule="evenodd" d="M1.325e+07,3.0325e+06 L1.325e+07,3.3775e+06 L1.38496e+07,3.3775e+06 L1.38496e+07,3.0325e+06 L1.325e+07,3.0325e+06"/>
</g>

<g fill="#ba1f02" fill-opacity="1" stroke="none" transform="matrix(5.08219e-05,0,0,4.88018e-05,-7.64793,-8.6264)"
font-family="Helvetica" font-size="60" font-weight="400" font-style="normal" 
>
<path vector-effect="none" fill-rule="evenodd" d="M1.325e+07,2.565e+06 L1.325e+07,2.91e+06 L1.38496e+07,2.91e+06 L1.38496e+07,2.565e+06 L1.325e+07,2.565e+06"/>
</g>

<g fill="#7a0403" fill-opacity="1" stroke="none" transform="matrix(5.08219e-05,0,0,4.88018e-05,-7.64793,-8.6264)"
font-family="Helvetica" font-size="60" font-weight="400" font-style="normal" 
>
<path vector-effect="none" fill-rule="evenodd" d="M1.325e+07,2.0975e+06 L1.325e+07,2.4425e+06 L1.38496e+07,2.4425e+06 L1.38496e+07,2.0975e+06 L1.325e+07,2.0975e+06"/>
</g>

<g fill="#212121" fill-opacity="1" stroke="#212121" stroke-opacity="1" stroke-width="1" stroke-linecap="square" stroke-linejoin="bevel" transform="matrix(0.508219,0,0,0.488018,698.498,107.522)"
font-family="Helvetica" font-size="40" font-weight="400" font-style="normal" 
>
<text fill="#212121" fill-opacity="1" stroke="none" xml:space="preserve" x="0" y="-0.203125" font-family="Helvetica" font-size="40" font-weight="400" font-style="normal" 
 >Other</text>
</g>

<g fill="#212121" fill-opacity="1" stroke="#212121" stroke-opacity="1" stroke-width="1" stroke-linecap="square" stroke-linejoin="bevel" transform="matrix(0.508219,0,0,0.488018,698.498,130.337)"
font-family="Helvetica" font-size="40" font-weight="400" font-style="normal" 
>
<text fill="#212121" fill-opacity="1" stroke="none" xml:space="preserve" x="0" y="-0.203125" font-family="Helvetica" font-size="40" font-weight="400" font-style="normal" 
 >unclassified_Muribaculaceae_ASV_8</text>
</g>

<g fill="#212121" fill-opacity="1" stroke="#212121" stroke-opacity="1" stroke-width="1" stroke-linecap="square" stroke-linejoin="bevel" transform="matrix(0.508219,0,0,0.488018,698.498,153.152)"
font-family="Helvetica" font-size="40" font-weight="400" font-style="normal" 
>
<text fill="#212121" fill-opacity="1" stroke="none" xml:space="preserve" x="0" y="-0.203125" font-family="Helvetica" font-size="40" font-weight="400" font-style="normal" 
 >Parasutterella</text>
</g>

<g fill="#212121" fill-opacity="1" stroke="#212121" stroke-opacity="1" stroke-width="1" stroke-linecap="square" stroke-linejoin="bevel" transform="matrix(0.508219,0,0,0.488018,698.498,175.967)"
font-family="Helvetica" font-size="40" font-weight="400" font-style="normal" 
>
<text fill="#212121" fill-opacity="1" stroke="none" xml:space="preserve" x="0" y="-0.203125" font-family="Helvetica" font-size="40" font-weight="400" font-style="normal" 
 >unclassified_Muribaculaceae_ASV_6</text>
</g>

<g fill="#212121" fill-opacity="1" stroke="#212121" stroke-opacity="1" stroke-width="1" stroke-linecap="square" stroke-linejoin="bevel" transform="matrix(0.508219,0,0,0.488018,698.498,198.781)"
font-family="Helvetica" font-size="40" font-weight="400" font-style="normal" 
>
<text fill="#212121" fill-opacity="1" stroke="none" xml:space="preserve" x="0" y="-0.203125" font-family="Helvetica" font-size="40" font-weight="400" font-style="normal" 
 >Clostridioides</text>
</g>

<g fill="#212121" fill-opacity="1" stroke="#212121" stroke-opacity="1" stroke-width="1" stroke-linecap="square" stroke-linejoin="bevel" transform="matrix(0.508219,0,0,0.488018,698.498,221.596)"
font-family="Helvetica" font-size="40" font-weight="400" font-style="normal" 
>
<text fill="#212121" fill-opacity="1" stroke="none" xml:space="preserve" x="0" y="-0.203125" font-family="Helvetica" font-size="40" font-weight="400" font-style="normal" 
 >LachnospiraceaeNK4A136Group</text>
</g>

<g fill="#212121" fill-opacity="1" stroke="#212121" stroke-opacity="1" stroke-width="1" stroke-linecap="square" stroke-linejoin="bevel" transform="matrix(0.508219,0,0,0.488018,698.498,244.411)"
font-family="Helvetica" font-size="40" font-weight="400" font-style="normal" 
>
<text fill="#212121" fill-opacity="1" stroke="none" xml:space="preserve" x="0" y="-0.203125" font-family="Helvetica" font-size="40" font-weight="400" font-style="normal" 
 >Turicibacter</text>
</g>

<g fill="#212121" fill-opacity="1" stroke="#212121" stroke-opacity="1" stroke-width="1" stroke-linecap="square" stroke-linejoin="bevel" transform="matrix(0.508219,0,0,0.488018,698.498,267.226)"
font-family="Helvetica" font-size="40" font-weight="400" font-style="normal" 
>
<text fill="#212121" fill-opacity="1" stroke="none" xml:space="preserve" x="0" y="-0.203125" font-family="Helvetica" font-size="40" font-weight="400" font-style="normal" 
 >Akkermansia</text>
</g>

<g fill="#212121" fill-opacity="1" stroke="#212121" stroke-opacity="1" stroke-width="1" stroke-linecap="square" stroke-linejoin="bevel" transform="matrix(0.508219,0,0,0.488018,698.498,290.041)"
font-family="Helvetica" font-size="40" font-weight="400" font-style="normal" 
>
<text fill="#212121" fill-opacity="1" stroke="none" xml:space="preserve" x="0" y="-0.203125" font-family="Helvetica" font-size="40" font-weight="400" font-style="normal" 
 >Enterococcus</text>
</g>

<g fill="#212121" fill-opacity="1" stroke="#212121" stroke-opacity="1" stroke-width="1" stroke-linecap="square" stroke-linejoin="bevel" transform="matrix(0.508219,0,0,0.488018,698.498,312.856)"
font-family="Helvetica" font-size="40" font-weight="400" font-style="normal" 
>
<text fill="#212121" fill-opacity="1" stroke="none" xml:space="preserve" x="0" y="-0.203125" font-family="Helvetica" font-size="40" font-weight="400" font-style="normal" 
 >unclassified_Muribaculaceae_ASV_4</text>
</g>

<g fill="#212121" fill-opacity="1" stroke="#212121" stroke-opacity="1" stroke-width="1" stroke-linecap="square" stroke-linejoin="bevel" transform="matrix(0.508219,0,0,0.488018,698.498,335.671)"
font-family="Helvetica" font-size="40" font-weight="400" font-style="normal" 
>
<text fill="#212121" fill-opacity="1" stroke="none" xml:space="preserve" x="0" y="-0.203125" font-family="Helvetica" font-size="40" font-weight="400" font-style="normal" 
 >Bacteroides</text>
</g>

<g fill="#212121" fill-opacity="1" stroke="#212121" stroke-opacity="1" stroke-width="1" stroke-linecap="square" stroke-linejoin="bevel" transform="matrix(0.508219,0,0,0.488018,698.498,358.485)"
font-family="Helvetica" font-size="40" font-weight="400" font-style="normal" 
>
<text fill="#212121" fill-opacity="1" stroke="none" xml:space="preserve" x="0" y="-0.203125" font-family="Helvetica" font-size="40" font-weight="400" font-style="normal" 
 >Other</text>
</g>

<g fill="#212121" fill-opacity="1" stroke="#212121" stroke-opacity="1" stroke-width="1" stroke-linecap="square" stroke-linejoin="bevel" transform="matrix(0.508219,0,0,0.488018,698.498,381.3)"
font-family="Helvetica" font-size="40" font-weight="400" font-style="normal" 
>
<text fill="#212121" fill-opacity="1" stroke="none" xml:space="preserve" x="0" y="-0.203125" font-family="Helvetica" font-size="40" font-weight="400" font-style="normal" 
 >Lactobacillus</text>
</g>

<g fill="none" stroke="#212121" stroke-opacity="1" stroke-width="1" stroke-linecap="butt" stroke-linejoin="miter" stroke-miterlimit="2" transform="matrix(0.508219,0,0,0.488018,-7.64793,-8.6264)"
font-family="Helvetica" font-size="40" font-weight="400" font-style="normal" 
>
<path vector-effect="none" fill-rule="evenodd" d="M1319,814 L1319,201 L2056,201 L2056,814 L1319,814"/>
</g>
</g>
</svg>
